<svg width="35" height="37" viewBox="0 0 35 37" fill="none" xmlns="http://www.w3.org/2000/svg">
<path d="M7.95136 15.2993C8.3185 15.2993 8.56327 15.0546 8.56327 14.6874V13.4636C8.56327 13.0964 8.3185 12.8517 7.95136 12.8517H4.27988C3.91273 12.8517 3.66797 13.0964 3.66797 13.4636V14.6874C3.66797 15.0546 3.91273 15.2993 4.27988 15.2993H4.89179V24.478H4.27988C3.91273 24.478 3.66797 24.7228 3.66797 25.0899V26.3138C3.66797 26.6809 3.91273 26.9257 4.27988 26.9257H7.95136C8.3185 26.9257 8.56327 26.6809 8.56327 26.3138V25.0899C8.56327 24.7228 8.3185 24.478 7.95136 24.478H7.33944V15.2993H7.95136Z" fill="#1F7FEF"/>
<path d="M29.9826 15.2993C30.3498 15.2993 30.5945 15.0546 30.5945 14.6874V13.4636C30.5945 13.0964 30.3498 12.8517 29.9826 12.8517H26.3111C25.944 12.8517 25.6992 13.0964 25.6992 13.4636V14.6874C25.6992 15.0546 25.944 15.2993 26.3111 15.2993H26.923V24.478H26.3111C25.944 24.478 25.6992 24.7228 25.6992 25.0899V26.3138C25.6992 26.6809 25.944 26.9257 26.3111 26.9257H29.9826C30.3498 26.9257 30.5945 26.6809 30.5945 26.3138V25.0899C30.5945 24.7228 30.3498 24.478 29.9826 24.478H29.3707V15.2993H29.9826Z" fill="#1F7FEF"/>
<path d="M17.1336 0L0 9.17869V11.6263H34.2671V9.17869L17.1336 0Z" fill="#1F7FEF"/>
<path d="M17.1306 20.806C12.7249 20.806 9.17578 24.3551 9.17578 28.7609C9.17578 33.1667 12.7249 36.7158 17.1306 36.7158C21.5364 36.7158 25.0855 33.1667 25.0855 28.7609C25.0855 24.3551 21.5364 20.806 17.1306 20.806ZM17.1306 35.4919C13.398 35.4919 10.3996 32.4936 10.3996 28.7609C10.3996 25.0282 13.398 22.0299 17.1306 22.0299C20.8633 22.0299 23.8617 25.0282 23.8617 28.7609C23.8617 32.4936 20.8633 35.4919 17.1306 35.4919Z" fill="#1F7FEF"/>
<path d="M8.50559 31.8196H0V34.2672H9.7906C9.23988 33.5329 8.81154 32.6763 8.50559 31.8196Z" fill="#1F7FEF"/>
<path d="M25.7616 31.8196C25.4556 32.6763 25.0273 33.5329 24.4766 34.2672H34.2672V31.8196H25.7616Z" fill="#1F7FEF"/>
<path d="M7.95507 28.7596C7.95507 28.576 7.95507 28.3313 8.01626 28.1477H1.83594V30.5954H8.13864C8.01626 29.9834 7.95507 29.3715 7.95507 28.7596Z" fill="#1F7FEF"/>
<path d="M26.2513 28.1477C26.2513 28.3313 26.3125 28.576 26.3125 28.7596C26.3125 29.3715 26.2513 29.9834 26.1289 30.5954H32.4316V28.1477H26.2513Z" fill="#1F7FEF"/>
<path d="M22.6389 12.8517H18.9674C18.6002 12.8517 18.3555 13.0964 18.3555 13.4636V14.6874C18.3555 15.0546 18.6002 15.2993 18.9674 15.2993H19.5793V19.9499C20.436 20.1946 21.2926 20.5618 22.0269 20.9901V15.2993H22.6389C23.006 15.2993 23.2508 15.0546 23.2508 14.6874V13.4636C23.2508 13.0964 23.006 12.8517 22.6389 12.8517Z" fill="#1F7FEF"/>
<path d="M15.299 12.8517H11.6275C11.2604 12.8517 11.0156 13.0964 11.0156 13.4636V14.6874C11.0156 15.0546 11.2604 15.2993 11.6275 15.2993H12.2395V20.9901C12.9737 20.5618 13.8304 20.1946 14.6871 19.9499V15.2993H15.299C15.6662 15.2993 15.9109 15.0546 15.9109 14.6874V13.4636C15.9109 13.0964 15.6662 12.8517 15.299 12.8517Z" fill="#1F7FEF"/>
<path d="M22.5821 26.3129L18.3599 23.8652V25.701H11.6289V26.9248H18.3599V28.7605L22.5821 26.3129Z" fill="#1F7FEF"/>
<path d="M22.6407 30.5961H15.9097V28.7604L11.6875 31.208L15.9097 33.6557V31.8199H22.6407V30.5961Z" fill="#1F7FEF"/>
</svg>
