<svg width="39" height="30" viewBox="0 0 39 30" fill="none" xmlns="http://www.w3.org/2000/svg">
<path d="M34.6773 0H9.12602C8.3844 0.000604856 7.66055 0.228113 7.05085 0.652233C6.44115 1.07635 5.97453 1.67696 5.71311 2.3741C5.65003 2.51497 5.62342 2.66956 5.63575 2.82353C5.64807 2.97749 5.69893 3.12583 5.78359 3.25477C5.86825 3.38371 5.98398 3.48907 6.12003 3.56106C6.25608 3.63305 6.40803 3.66934 6.56177 3.66656H29.202C29.9293 3.63543 30.6551 3.75639 31.3334 4.02177C32.0117 4.28715 32.6278 4.69116 33.1425 5.20821C33.6573 5.72526 34.0595 6.34407 34.3237 7.02543C34.5879 7.7068 34.7083 8.43585 34.6773 9.16641V22.7602C34.6731 22.9015 34.7016 23.0419 34.7605 23.1704C34.8194 23.2988 34.907 23.4118 35.0166 23.5006C35.1262 23.5894 35.2547 23.6515 35.3921 23.682C35.5296 23.7126 35.6722 23.7108 35.8088 23.6768C36.5451 23.4357 37.186 22.9656 37.6387 22.3345C38.0915 21.7034 38.3327 20.944 38.3275 20.1661V3.66656C38.3275 2.69413 37.9429 1.76153 37.2583 1.07391C36.5738 0.386297 35.6454 0 34.6773 0Z" fill="white"/>
<path d="M28.9297 5.5H3.92258C1.75601 5.5 0 7.25513 0 9.4177V25.415C0 27.5788 1.75601 29.3327 3.92258 29.3327H28.929C31.095 29.3327 32.8516 27.5788 32.8516 25.415V9.4177C32.8523 7.25513 31.095 5.5 28.9297 5.5ZM2.86022 8.68705H13.1544V10.6459H2.86022V8.68705ZM8.30606 24.3278H2.86022V22.369H8.30606V24.3278ZM8.30737 14.5329H2.86022V12.5741H8.30737V14.5329ZM15.5347 24.3278H10.0889V22.369H15.5347V24.3278ZM22.7634 24.3278H17.3162V22.369H22.7634V24.3278ZM29.9921 24.3278H24.5449V22.369H29.9921V24.3278ZM27.0383 14.5864C26.2362 14.5864 25.5125 14.2652 24.9803 13.7474C24.4481 14.2652 23.7225 14.5864 22.9223 14.5864C21.2905 14.5864 19.9686 13.2668 19.9686 11.6364C19.9686 10.008 21.2898 8.6864 22.9223 8.6864C23.7231 8.6864 24.4481 9.00895 24.9803 9.52674C25.5125 9.00895 26.2368 8.6864 27.0383 8.6864C28.6701 8.6864 29.9921 10.0073 29.9921 11.6364C29.9921 13.2668 28.6701 14.5864 27.0383 14.5864Z" fill="white"/>
</svg>
