<svg width="30" height="21" viewBox="0 0 30 21" fill="none" xmlns="http://www.w3.org/2000/svg">
<path d="M12.9102 9.2567L12.9042 7.91741L21.8201 7.8773C22.4917 7.87427 23.033 7.32771 23.03 6.65755L23.015 3.34355C23.012 2.6727 22.4658 2.13137 21.7943 2.1344L12.8783 2.17451L12.8723 0.834886C12.8709 0.527584 12.6908 0.248518 12.4125 0.120944C12.1313 -0.00765861 11.8037 0.0393041 11.5689 0.238983L7.3675 3.84419C7.00914 4.15207 6.80525 4.60162 6.80737 5.07351C6.80949 5.5454 7.01777 5.99275 7.37853 6.2974L11.6122 9.86431C11.8488 10.0619 12.1775 10.1062 12.4568 9.97509C12.734 9.84502 12.9116 9.56469 12.9102 9.2567Z" fill="#234492"/>
<path d="M22.5086 16.2289C22.8669 15.9214 23.0715 15.4722 23.0694 15.0003C23.0673 14.5284 22.8586 14.0807 22.4975 13.7764L18.2649 10.2088C18.0286 10.0116 17.6999 9.9676 17.4206 10.0984C17.142 10.2285 16.9652 10.5091 16.9665 10.8168L16.9726 12.1557L8.05664 12.1958C7.38405 12.1989 6.84273 12.7451 6.84574 13.4159L6.86065 16.7296C6.86367 17.4004 7.40989 17.9418 8.08248 17.9387L16.9988 17.8986L17.0048 19.2375C17.0062 19.5448 17.1862 19.8243 17.4653 19.9515C17.7458 20.0804 18.0737 20.0331 18.3086 19.8338L22.5086 16.2289Z" fill="#234492"/>
</svg>
