<svg width="30" height="20" viewBox="0 0 30 20" fill="none" xmlns="http://www.w3.org/2000/svg">
<path d="M15.1895 9.81071C16.4272 9.64174 17.5545 9.00905 18.3435 8.04061C19.1325 7.07216 19.5243 5.84022 19.4396 4.59394C19.3549 3.34765 18.8001 2.18003 17.8874 1.3272C16.9746 0.47438 15.7721 0 14.5229 0C13.2738 0 12.0712 0.47438 11.1585 1.3272C10.2458 2.18003 9.69095 3.34765 9.60627 4.59394C9.52159 5.84022 9.91336 7.07216 10.7024 8.04061C11.4913 9.00905 12.6187 9.64174 13.8563 9.81071C11.985 9.98262 10.2451 10.8466 8.97701 12.2335C7.70895 13.6204 7.00398 15.4306 7 17.3098V17.8574C7 18.4256 7.22574 18.9706 7.62756 19.3724C8.02937 19.7743 8.57435 20 9.14261 20H19.9033C20.4715 20 21.0165 19.7743 21.4183 19.3724C21.8201 18.9706 22.0459 18.4256 22.0459 17.8574V17.3098C22.0419 15.4306 21.3369 13.6204 20.0689 12.2335C18.8008 10.8466 17.0609 9.98262 15.1895 9.81071V9.81071Z" fill="white"/>
</svg>
