<svg width="30" height="20" viewBox="0 0 30 20" fill="none" xmlns="http://www.w3.org/2000/svg">
<path d="M28.9773 2.6902L28.7349 2.27808L28.4925 1.86597L25.7773 3.44171L26.2622 4.29019L28.9773 2.6902Z" fill="#15A88E"/>
<path d="M26.2703 10.419L25.7891 11.2607L28.5038 12.8128L28.9851 11.971L26.2703 10.419Z" fill="#15A88E"/>
<path d="M28.9484 6.88501H25.7969V7.8547H28.9484V6.88501Z" fill="#15A88E"/>
<path d="M4.4424 3.78271V11.2978C2.52726 11.1766 1 9.57661 1 7.63723V7.44329C1 5.50391 2.52726 3.90393 4.4424 3.78271Z" fill="#15A88E"/>
<path d="M24.369 7.4421C24.369 8.33906 23.6417 9.06633 22.7447 9.06633H21.7266V5.81787H22.7205C23.1569 5.81787 23.569 5.98757 23.8599 6.27847C24.1993 6.59362 24.369 7.00574 24.369 7.4421Z" fill="#15A88E"/>
<path d="M20.7563 5.84238V9.09084V14.9575C17.726 12.7029 14.0654 11.4423 10.3079 11.3454V17.8665C10.3079 18.5696 9.72608 19.1756 9.02305 19.1756C8.68366 19.1756 8.34427 19.0544 8.10185 18.812C7.85943 18.5696 7.71397 18.2544 7.71397 17.8908V11.3454H5.38672V3.78179H9.75032C13.7503 3.78179 17.629 2.44847 20.7563 0V5.84238Z" fill="#15A88E"/>
</svg>
