<svg width="30" height="20" viewBox="0 0 30 20" fill="none" xmlns="http://www.w3.org/2000/svg">
<path d="M5.75973 0H23.7161C24.687 0 25.4766 0.789328 25.4766 1.75954V19.0895C25.4766 19.5917 25.0677 20 24.5658 20H4.91003C4.40811 20 3.99924 19.5917 3.99924 19.0895V1.75954C3.99924 0.789328 4.78878 0 5.75973 0ZM4.5632 19.0895C4.5632 19.2807 4.71876 19.4362 4.91003 19.4362H24.5658C24.757 19.4362 24.9126 19.2807 24.9126 19.0895V3.63935H4.5632V19.0895ZM4.5632 3.07555H24.9126V1.75954C24.9126 1.10036 24.3759 0.563804 23.7161 0.563804H5.75973C5.0999 0.563804 4.5632 1.10036 4.5632 1.75954V3.07555Z" fill="#234492"/>
<path d="M6.06722 1.1604C6.49348 1.1604 6.83984 1.50667 6.83984 1.93234C6.83984 2.35848 6.49348 2.70475 6.06722 2.70475C5.64144 2.70475 5.29508 2.35848 5.29508 1.93234C5.29508 1.50667 5.64144 1.1604 6.06722 1.1604ZM6.06722 2.14095C6.18237 2.14095 6.27589 2.04745 6.27589 1.93234C6.27589 1.8177 6.18237 1.7242 6.06722 1.7242C5.95255 1.7242 5.85903 1.8177 5.85903 1.93234C5.85903 2.04745 5.95255 2.14095 6.06722 2.14095Z" fill="#234492"/>
<path d="M5.55563 12.7412H11.2422V18.6931H5.55563V12.7412Z" fill="#234492"/>
<path d="M5.55755 5.01971H24.1211V12.1142H5.55755V5.01971Z" fill="#234492"/>
<path d="M7.87972 1.1604C8.30551 1.1604 8.65234 1.50667 8.65234 1.93234C8.65234 2.35848 8.30551 2.70475 7.87972 2.70475C7.45394 2.70475 7.1071 2.35848 7.1071 1.93234C7.1071 1.50667 7.45394 1.1604 7.87972 1.1604ZM7.87972 2.14095C7.99487 2.14095 8.08839 2.04745 8.08839 1.93234C8.08839 1.8177 7.99487 1.7242 7.87972 1.7242C7.76458 1.7242 7.67106 1.8177 7.67106 1.93234C7.67106 2.04745 7.76458 2.14095 7.87972 2.14095Z" fill="#234492"/>
<path d="M9.6766 1.16046C10.1024 1.16046 10.4492 1.50673 10.4492 1.9324C10.4492 2.35854 10.1024 2.70481 9.6766 2.70481C9.25034 2.70481 8.90398 2.35854 8.90398 1.9324C8.90398 1.50673 9.25034 1.16046 9.6766 1.16046ZM9.6766 2.14101C9.79127 2.14101 9.88526 2.04751 9.88526 1.9324C9.88526 1.81776 9.79127 1.72427 9.6766 1.72427C9.56146 1.72427 9.46794 1.81776 9.46794 1.9324C9.46794 2.04751 9.56146 2.14101 9.6766 2.14101Z" fill="#234492"/>
<path d="M11.9931 12.6784H17.6797V18.6303H11.9931V12.6784Z" fill="#234492"/>
<path d="M18.4345 12.6784H24.1211V18.6303H18.4345V12.6784Z" fill="#234492"/>
</svg>
