<svg width="30" height="20" viewBox="0 0 30 20" fill="none" xmlns="http://www.w3.org/2000/svg">
<path d="M19.3668 7.63549L22.5306 8.79359L19.8995 15.9327C19.6532 16.6042 18.318 18.7053 17.3881 19.1339L17.1624 19.7473C17.105 19.9027 16.9572 20 16.8005 20C16.7562 20 16.7119 19.9918 16.6675 19.9763C16.4681 19.9027 16.3647 19.6827 16.4386 19.4823L16.6519 18.9024C16.18 17.9889 16.5321 15.3357 16.7389 14.7746L19.3668 7.63549ZM23.9455 0.08167C23.0756 -0.235662 22.0571 0.420267 21.7657 1.21278L19.8601 6.38661L23.023 7.54307L24.9262 2.37006C25.1659 1.72231 24.8171 0.39982 23.9455 0.08167ZM18.2211 7.36805C18.3098 7.40076 18.4009 7.4163 18.4895 7.4163C18.803 7.4163 19.0976 7.22492 19.2133 6.91413L21.2241 1.50967C21.3726 1.11136 21.1683 0.668898 20.7686 0.521682C20.3656 0.376102 19.9249 0.577297 19.7763 0.975599L17.7656 6.38006C17.6171 6.77836 17.8214 7.22083 18.2211 7.36805ZM14.9843 17.5022C14.7766 17.3068 14.5181 17.063 14.0996 16.8774C13.7549 16.7244 13.4192 16.7171 13.1738 16.7114C13.1484 16.7114 13.1188 16.7105 13.0893 16.7097C12.9358 16.291 12.6248 16.0276 12.1578 15.9246C11.5398 15.7945 11.0466 16.0849 10.7043 16.309C10.7347 16.1372 10.7848 15.9327 10.8217 15.7855C10.9399 15.3112 11.0613 14.8204 10.9711 14.3608C10.8997 13.9977 10.5919 13.7278 10.2209 13.7016C9.26482 13.6484 8.48351 14.1612 7.79495 14.625C7.07191 15.1116 6.60821 15.402 6.14698 15.2376C5.58398 15.038 5.52735 13.5192 5.79818 12.1665C6.04029 10.9478 6.49085 8.67909 7.64558 7.64857C8.03459 7.3018 8.59759 6.9264 9.06046 7.10878C9.60459 7.32143 10.0543 8.21454 10.1545 9.27858C10.1963 9.72759 10.5894 10.0572 11.0482 10.0163C11.4996 9.97459 11.8311 9.57547 11.7885 9.12564C11.626 7.39176 10.8102 6.03574 9.6604 5.5851C8.97183 5.31847 7.87702 5.2465 6.54994 6.42995C5.10633 7.71809 4.57288 9.90262 4.18633 11.8483C3.99264 12.8199 3.52074 16.044 5.59547 16.7792C6.85935 17.2282 7.88604 16.5355 8.71085 15.981C8.86186 15.8796 9.0104 15.7798 9.15485 15.6907C9.01779 16.2836 8.93244 16.9183 9.2919 17.4532C9.82782 18.2563 10.5853 18.3438 11.5423 17.7157C11.5792 17.692 11.6219 17.6642 11.6621 17.6364C11.7507 17.8212 11.9075 18.0249 12.1923 18.1639C12.537 18.3324 12.8816 18.3405 13.1328 18.3471C13.2403 18.3495 13.3872 18.3528 13.4315 18.3724C13.5858 18.4403 13.6769 18.5238 13.8542 18.6906C13.9871 18.8157 14.1275 18.9458 14.3056 19.0799C14.4533 19.1903 14.6256 19.2427 14.7963 19.2427C15.0458 19.2427 15.2929 19.129 15.4537 18.9155C15.7254 18.554 15.6515 18.0412 15.2888 17.7705C15.1698 17.6789 15.0754 17.5881 14.9843 17.5022Z" fill="#234492"/>
</svg>
