<svg width="30" height="20" viewBox="0 0 30 20" fill="none" xmlns="http://www.w3.org/2000/svg">
<path d="M21.9813 3.41486C21.9813 2.94565 21.801 2.50394 21.4741 2.17207L19.8421 0.514991C19.5198 0.187692 19.0623 0 18.607 0H18.5078V3.51556H21.9814L21.9813 3.41486Z" fill="white"/>
<path d="M18.0929 11.1771C17.8416 11.434 18.2033 10.8366 18.0929 11.1771L22 13.8692V4.68778H17.9452C17.6263 4.68778 17.3869 4.42572 17.3869 4.10185V0.000366211H8.73116C7.77656 0.000366211 7 0.788868 7 1.75815V18.2422C7 19.2115 7.77656 20 8.73116 20H20.2535C21.2081 20 22 19.2115 22 18.2422V15.0863V13.8692L21.658 12.8908C21.4011 13.1494 21.7051 13.3172 21.3659 13.4323L20.58 12.8908L20.2535 12.0914C19.7914 12.0914 20.3264 11.8359 20.0548 11.4536C19.7854 11.0731 19.7938 11.4343 19.9403 10.9885L18.0929 11.1771ZM9.88526 10.5471H15.637C15.956 10.5471 16.2141 10.8091 16.2141 11.133C16.2141 11.4568 15.956 11.7189 15.637 11.7189H9.88526C9.5663 11.7189 9.30821 11.4568 9.30821 11.133C9.30821 10.8091 9.5663 10.5471 9.88526 10.5471ZM9.30821 8.78927C9.30821 8.46541 9.5663 8.20334 9.88526 8.20334H15.637C15.956 8.20334 16.2141 8.46541 16.2141 8.78927C16.2141 9.11313 15.956 9.3752 15.637 9.3752H9.88526C9.5663 9.3752 9.30821 9.11313 9.30821 8.78927ZM9.30821 13.4767C9.30821 13.1528 9.5663 12.8908 9.88526 12.8908H15.637C15.956 12.8908 16.2141 13.1528 16.2141 13.4767C16.2141 13.8005 15.956 14.0626 15.637 14.0626H9.88526C9.5663 14.0626 9.30821 13.8005 9.30821 13.4767ZM17.9452 16.4063C18.2642 16.4063 18.5223 16.6684 18.5223 16.9922C18.5223 17.3161 18.2642 17.5782 17.9452 17.5782H14.4829C14.164 17.5782 13.9059 17.3161 13.9059 16.9922C13.9059 16.6684 14.164 16.4063 14.4829 16.4063H17.9452ZM9.88526 7.03149C9.5663 7.03149 9.30821 6.76942 9.30821 6.44556C9.30821 6.1217 9.5663 5.85964 9.88526 5.85964H17.9452C18.2642 5.85964 18.5223 6.1217 18.5223 6.44556C18.5223 6.76942 18.2642 7.03149 17.9452 7.03149H9.88526Z" fill="white"/>
</svg>
