<svg width="30" height="20" viewBox="0 0 30 20" fill="none" xmlns="http://www.w3.org/2000/svg">
<path d="M15.5691 0C12.3442 0 9.71816 2.56757 9.71816 5.72072V7.65766C9.0271 7.88288 8.33604 8.10811 7.64499 8.42342C7.27642 8.6036 7 8.96396 7 9.36937V18.964C7 19.5496 7.46071 20 8.05962 20H22.9404C23.5393 20 24 19.5496 24 18.964V9.36937C24 8.96396 23.7696 8.6036 23.355 8.42342C22.664 8.10811 21.9729 7.88288 21.2818 7.65766V5.72072C21.4201 2.52252 18.794 0 15.5691 0ZM17.1355 16.0811C17.1816 16.2162 17.1355 16.3514 17.0434 16.4414C16.9512 16.5315 16.813 16.6216 16.6748 16.6216H14.4173C14.2791 16.6216 14.1409 16.5766 14.0488 16.4414C13.9566 16.3514 13.9106 16.1712 13.9566 16.0811L14.6938 13.3784C14.0949 13.0631 13.6802 12.4775 13.6802 11.7568C13.6802 10.7658 14.5095 9.95496 15.523 9.95496C16.5366 9.95496 17.3659 10.7658 17.3659 11.7568C17.3659 12.4775 16.9512 13.0631 16.3523 13.3784L17.1355 16.0811ZM18.794 7.02703C16.6748 6.66667 14.5095 6.66667 12.3902 7.02703V5.67568C12.3902 3.96397 13.8184 2.52252 15.6152 2.52252C17.3659 2.52252 18.8401 3.91892 18.8401 5.67568V7.02703H18.794Z" fill="white"/>
</svg>
