<svg width="46" height="32" viewBox="0 0 46 32" fill="none" xmlns="http://www.w3.org/2000/svg">
<path d="M43.8519 9.5763H40.2015V5.92593C40.2015 5.26222 39.68 4.74074 39.0163 4.74074H35.4607V1.18519C35.4607 0.521481 34.9393 0 34.2756 0H1.18519C0.521482 0 0 0.521481 0 1.18519V21.2385C0 21.9022 0.521482 22.4237 1.18519 22.4237H4.74074V25.9793C4.74074 26.643 5.26222 27.1644 5.92593 27.1644H9.5763V30.8148C9.5763 31.4785 10.0978 32 10.7615 32H43.8519C44.5156 32 45.037 31.4785 45.037 30.8148V10.8089C45.037 10.1452 44.5156 9.5763 43.8519 9.5763ZM7.34815 20.0533C6.87407 17.5881 4.88296 15.597 2.41778 15.123V7.30074C4.88296 6.82667 6.87407 4.83556 7.34815 2.37037H13.4163C11.2356 4.26667 9.81333 7.49037 9.81333 11.1881C9.81333 14.8859 11.2356 18.157 13.4163 20.0059H7.34815V20.0533ZM18.4889 15.9763V17.2089C18.4889 17.6356 18.157 17.9674 17.7304 17.9674C17.3037 17.9674 16.9719 17.6356 16.9719 17.2089V15.9763C15.8341 15.9763 14.8385 15.2652 14.4119 14.1748C14.2696 13.7956 14.4593 13.3689 14.8385 13.2267C15.2178 13.0844 15.6444 13.2741 15.7867 13.6533C15.9763 14.1274 16.4504 14.4593 16.9719 14.4593H18.3941C19.1052 14.4593 19.6267 13.8904 19.6267 13.2267C19.6267 12.8948 19.4844 12.563 19.2474 12.3259C19.0104 12.0889 18.6785 11.9467 18.3467 11.9467H16.9244C15.4074 11.9467 14.1748 10.7141 14.1748 9.19704C14.1748 8.43852 14.4593 7.77481 14.9807 7.25333C15.5022 6.73185 16.1659 6.44741 16.877 6.44741V5.21481C16.877 4.78815 17.2089 4.4563 17.6356 4.4563C18.0622 4.4563 18.3941 4.78815 18.3941 5.21481V6.44741C19.5319 6.44741 20.5274 7.20592 20.9541 8.24889C21.0963 8.62815 20.9067 9.05481 20.5274 9.19704C20.1481 9.33926 19.7215 9.14963 19.5793 8.77037C19.3896 8.2963 18.9156 7.96444 18.3941 7.96444H16.9719C16.64 7.96444 16.3082 8.10667 16.0711 8.3437C15.8341 8.58074 15.6919 8.91259 15.6919 9.24444C15.6919 9.95555 16.2607 10.477 16.9719 10.477H18.3941C19.1526 10.477 19.8163 10.7615 20.3378 11.283C20.8593 11.8044 21.1437 12.4681 21.1437 13.2267C21.1911 14.7437 19.9585 15.9763 18.4889 15.9763ZM21.997 2.37037H28.0652C28.5393 4.83556 30.5304 6.82667 32.9956 7.30074V15.123C30.5304 15.597 28.5393 17.5881 28.0652 20.0533H21.997C24.1778 18.157 25.6 14.9333 25.6 11.2356C25.6 7.53778 24.1778 4.26667 21.997 2.37037ZM7.20593 22.4711H34.2281C34.8919 22.4711 35.4133 21.9496 35.4133 21.2859V7.15852H37.7837V24.8415H7.20593V22.4711ZM42.6193 29.677H12.0415V27.2593H39.0163C39.68 27.2593 40.2015 26.7378 40.2015 26.0741V11.9941H42.6193V29.677Z" fill="#1F7FEF"/>
<path d="M7.01738 10.0015H5.26331C4.59961 10.0015 4.07812 10.5229 4.07812 11.1867C4.07812 11.8504 4.59961 12.3718 5.26331 12.3718H7.01738C7.68109 12.3718 8.20257 11.8504 8.20257 11.1867C8.20257 10.5229 7.68109 10.0015 7.01738 10.0015Z" fill="#1F7FEF"/>
<path d="M28.3961 12.4197H30.1502C30.8139 12.4197 31.3354 11.8982 31.3354 11.2345C31.3354 10.5708 30.8139 10.0493 30.1502 10.0493H28.3961C27.7324 10.0493 27.2109 10.5708 27.2109 11.2345C27.2109 11.8982 27.7324 12.4197 28.3961 12.4197Z" fill="#1F7FEF"/>
</svg>
