<svg width="41" height="38" viewBox="0 0 41 38" fill="none" xmlns="http://www.w3.org/2000/svg">
<path d="M30.0019 14.5074L36.1788 16.7078L31.0418 30.2722C30.5611 31.548 27.9541 35.5401 26.1387 36.3544L25.6981 37.5198C25.5859 37.8151 25.2975 38 24.9914 38C24.9049 38 24.8184 37.9845 24.7319 37.9549C24.3425 37.8151 24.1406 37.3971 24.2848 37.0164L24.7014 35.9146C23.7801 34.1788 24.4675 29.1378 24.8713 28.0718L30.0019 14.5074ZM38.9412 0.155173C37.2428 -0.447758 35.2543 0.798507 34.6855 2.30428L30.9649 12.1346L37.1402 14.3318L40.856 4.50312C41.3239 3.27239 40.6429 0.759658 38.9412 0.155173ZM27.765 13.9993C27.9381 14.0614 28.116 14.091 28.289 14.091C28.9011 14.091 29.4763 13.7273 29.7022 13.1368L33.6279 2.86836C33.9179 2.11159 33.519 1.27091 32.7386 0.991197C31.9519 0.714594 31.0915 1.09687 30.8014 1.85364L26.8758 12.1221C26.5857 12.8789 26.9847 13.7196 27.765 13.9993ZM21.4455 33.2542C21.0401 32.8829 20.5354 32.4198 19.7182 32.067C19.0452 31.7764 18.3899 31.7625 17.9108 31.7516C17.8611 31.7516 17.8034 31.75 17.7457 31.7485C17.4461 30.9528 16.8388 30.4525 15.9271 30.2567C14.7206 30.0096 13.7576 30.5613 13.0894 30.987C13.1487 30.6607 13.2464 30.2722 13.3185 29.9925C13.5493 29.0912 13.7864 28.1589 13.6102 27.2855C13.4708 26.5956 12.8699 26.0828 12.1456 26.0331C10.2789 25.932 8.75353 26.9064 7.40918 27.7875C5.99754 28.7121 5.09223 29.2637 4.19172 28.9514C3.09253 28.5722 2.98197 25.6865 3.51074 23.1163C3.98342 20.8009 4.86309 16.4903 7.11756 14.5323C7.87706 13.8734 8.97625 13.1602 9.87996 13.5067C10.9423 13.9107 11.8204 15.6076 12.0158 17.6293C12.0976 18.4824 12.8651 19.1087 13.7608 19.031C14.642 18.9517 15.2894 18.1934 15.2061 17.3387C14.8888 14.0444 13.2961 11.4679 11.0513 10.6117C9.7069 10.1051 7.56941 9.96835 4.97846 12.2169C2.15998 14.6644 1.11847 18.815 0.363781 22.5118C-0.0143659 24.3579 -0.9357 30.4836 3.11496 31.8806C5.58254 32.7337 7.58704 31.4175 9.19737 30.3639C9.49219 30.1712 9.78221 29.9816 10.0642 29.8123C9.79664 30.9389 9.62999 32.1447 10.3318 33.161C11.3781 34.687 12.8571 34.8533 14.7254 33.6598C14.7975 33.6148 14.8808 33.5619 14.9593 33.5091C15.1324 33.8603 15.4384 34.2472 15.9944 34.5114C16.6674 34.8315 17.3404 34.847 17.8307 34.8595C18.0406 34.8641 18.3274 34.8704 18.4139 34.9076C18.7151 35.0366 18.893 35.1951 19.2391 35.5121C19.4987 35.7499 19.7727 35.997 20.1204 36.2518C20.4088 36.4616 20.7453 36.561 21.0786 36.561C21.5657 36.561 22.048 36.345 22.362 35.9395C22.8924 35.2526 22.7482 34.2783 22.04 33.7639C21.8076 33.5899 21.6234 33.4174 21.4455 33.2542Z" fill="#234492"/>
</svg>
