<svg width="620" height="440" viewBox="0 0 620 440" fill="none" xmlns="http://www.w3.org/2000/svg">
<path d="M501.074 200.972C501.074 302.031 418.674 384.043 316.904 384.043C215.239 384.043 132.734 302.135 132.734 200.972C132.734 162.256 144.775 126.349 165.401 96.7915C198.696 49.1244 254.083 17.9014 316.904 17.9014C418.569 17.9014 501.074 99.9138 501.074 200.972Z" fill="#EFEFFF"/>
<path d="M478.249 192.543C478.249 217.106 473.852 241.668 464.952 264.565C456.052 287.461 442.86 308.693 426.003 326.698C409.146 344.704 388.834 359.483 366.219 369.578C343.603 379.673 318.894 384.981 294.079 385.085C269.265 385.189 244.451 380.09 221.731 370.098C199.011 360.107 178.28 345.536 161.318 327.427C144.357 309.422 130.85 287.982 121.846 264.981C112.841 242.084 108.235 217.314 108.13 192.543C108.235 167.773 112.737 143.107 121.846 120.002C130.85 97.0011 144.252 75.5612 161.318 57.556C178.28 39.4466 199.011 24.8759 221.731 14.8845C244.451 4.99724 269.265 -0.102515 294.079 0.00156157C318.894 0.105638 343.603 5.41355 366.219 15.509C388.834 25.6044 409.146 40.3833 426.003 58.3886C442.86 76.3939 456.052 97.6255 464.952 120.522C473.747 143.523 478.249 168.085 478.249 192.543ZM478.249 192.543C478.144 167.981 473.642 143.523 464.638 120.626C455.738 97.7296 442.441 76.602 425.584 58.7008C408.727 40.7996 388.311 26.333 365.8 16.4457C343.289 6.55839 318.684 1.56271 294.079 1.66679C269.475 1.77087 244.974 6.9747 222.673 17.0701C200.267 27.1656 180.164 41.8404 163.517 59.6375C146.869 77.4346 133.677 98.5622 124.882 121.251C116.087 143.94 111.69 168.294 111.69 192.543C111.69 216.897 116.087 241.147 124.882 263.94C133.677 286.629 146.765 307.652 163.517 325.553C180.164 343.351 200.267 358.025 222.673 368.017C244.974 378.008 269.475 383.316 294.079 383.42C318.684 383.524 343.184 378.529 365.8 368.641C388.311 358.754 408.832 344.287 425.584 326.386C442.441 308.485 455.738 287.357 464.638 264.46C473.642 241.668 478.144 217.106 478.249 192.543Z" fill="#EFEFFF"/>
<path d="M509.764 200.037C509.764 223.87 505.786 247.704 497.2 270.08C488.719 292.457 475.632 313.064 458.775 330.237C442.022 347.409 421.292 360.835 398.781 369.682C376.27 378.528 351.979 382.379 327.898 381.859C303.817 381.234 279.735 376.03 257.748 366.143C246.754 361.251 236.284 355.215 226.547 348.138C216.81 341.165 207.806 333.151 199.744 324.304C183.62 306.611 171.16 285.588 163.412 262.899C155.56 240.314 152.209 216.273 152.942 192.335C153.675 168.397 158.491 144.564 167.496 122.291C171.998 111.155 177.442 100.435 183.934 90.2358C190.425 80.1403 197.859 70.5653 206.026 61.8228C222.568 44.3379 242.566 29.9753 264.763 20.2962C286.96 10.6171 311.25 5.93363 335.541 6.55809C359.727 7.18255 383.808 12.9068 405.482 23.7307C427.155 34.4506 446.42 49.6458 462.02 67.9633C477.621 86.1768 489.766 107.304 497.724 129.889C505.786 152.37 509.869 176.203 509.764 200.037ZM509.45 200.037C509.345 176.307 505.262 152.474 496.886 130.201C488.51 107.929 476.155 87.2175 460.345 69.4204C444.535 51.7274 425.48 36.9485 404.016 26.749C398.676 24.1471 393.232 21.9614 387.578 19.8799C382.029 17.9025 376.375 16.1331 370.616 14.7802C359.099 11.9701 347.268 10.4089 335.436 10.2008C323.605 9.88855 311.669 10.9293 300.047 13.219C288.426 15.5087 277.118 19.0473 266.229 23.7307C244.451 33.0976 224.767 47.0439 208.434 64.2166C192.1 81.3892 179.117 101.58 170.113 123.436C161.109 145.292 155.978 168.814 154.931 192.439C153.884 216.064 156.921 240.002 164.564 262.587C172.207 285.067 184.353 306.091 200.581 323.576C208.643 332.318 217.648 340.228 227.385 347.097C237.122 353.966 247.592 359.794 258.481 364.478C280.364 373.845 304.131 378.736 327.898 379.049C339.834 379.257 351.665 378.32 363.392 376.343C375.118 374.365 386.531 371.139 397.629 366.872C419.826 358.441 440.138 345.328 457.099 328.78C474.061 312.127 487.463 291.936 496.258 269.872C500.655 258.84 503.901 247.392 506.1 235.631C508.403 223.766 509.345 211.901 509.45 200.037Z" fill="#EFEFFF"/>
<path d="M209.41 47.3316C210.165 47.0338 210.534 46.1839 210.233 45.4331C209.933 44.6824 209.076 44.3152 208.32 44.613C207.565 44.9107 207.196 45.7607 207.497 46.5114C207.797 47.2621 208.654 47.6293 209.41 47.3316Z" fill="#B2AAF2"/>
<path d="M449.305 123.549C450.061 123.252 450.43 122.402 450.129 121.651C449.828 120.9 448.972 120.533 448.216 120.831C447.46 121.128 447.091 121.978 447.392 122.729C447.693 123.48 448.549 123.847 449.305 123.549Z" fill="#B2AAF2"/>
<path d="M180.152 123.516C180.907 123.218 181.276 122.368 180.976 121.618C180.675 120.867 179.818 120.5 179.063 120.798C178.307 121.095 177.938 121.945 178.239 122.696C178.54 123.447 179.396 123.814 180.152 123.516Z" fill="#B2AAF2"/>
<path d="M409.773 45.6861C410.529 45.3883 410.897 44.5384 410.597 43.7876C410.296 43.0369 409.439 42.6697 408.684 42.9675C407.928 43.2652 407.559 44.1152 407.86 44.8659C408.161 45.6166 409.017 45.9838 409.773 45.6861Z" fill="#B2AAF2"/>
<path d="M187.93 239.948C188.686 239.65 189.055 238.8 188.754 238.05C188.453 237.299 187.597 236.932 186.841 237.229C186.085 237.527 185.716 238.377 186.017 239.128C186.318 239.879 187.174 240.246 187.93 239.948Z" fill="#B2AAF2"/>
<path d="M476.53 216.466C477.285 216.168 477.654 215.318 477.353 214.567C477.053 213.817 476.196 213.449 475.441 213.747C474.685 214.045 474.316 214.895 474.617 215.646C474.918 216.396 475.774 216.764 476.53 216.466Z" fill="#B2AAF2"/>
<path d="M286.868 37.9408C286.553 37.9408 286.343 37.7318 286.343 37.4182V31.67C286.343 31.3565 286.553 31.1475 286.868 31.1475C287.184 31.1475 287.394 31.3565 287.394 31.67V37.4182C287.394 37.6273 287.184 37.9408 286.868 37.9408Z" fill="#B2AAF2"/>
<path d="M289.812 35.0129H284.03C283.714 35.0129 283.504 34.8039 283.504 34.4903C283.504 34.1768 283.714 33.9678 284.03 33.9678H289.812C290.128 33.9678 290.338 34.1768 290.338 34.4903C290.338 34.8039 290.023 35.0129 289.812 35.0129Z" fill="#B2AAF2"/>
<path d="M481.903 170.879C481.587 170.879 481.377 170.67 481.377 170.357V164.609C481.377 164.295 481.587 164.086 481.903 164.086C482.218 164.086 482.428 164.295 482.428 164.609V170.357C482.428 170.566 482.218 170.879 481.903 170.879Z" fill="#B2AAF2"/>
<path d="M484.742 167.951H478.959C478.644 167.951 478.434 167.742 478.434 167.429C478.434 167.115 478.644 166.906 478.959 166.906H484.742C485.057 166.906 485.268 167.115 485.268 167.429C485.268 167.742 485.057 167.951 484.742 167.951Z" fill="#B2AAF2"/>
<path d="M451.834 274.14C451.519 274.14 451.309 273.931 451.309 273.617V267.869C451.309 267.555 451.519 267.346 451.834 267.346C452.15 267.346 452.36 267.555 452.36 267.869V273.617C452.36 273.931 452.045 274.14 451.834 274.14Z" fill="#B2AAF2"/>
<path d="M454.674 271.32H448.891C448.576 271.32 448.365 271.111 448.365 270.797C448.365 270.483 448.576 270.274 448.891 270.274H454.674C454.989 270.274 455.199 270.483 455.199 270.797C455.199 271.111 454.989 271.32 454.674 271.32Z" fill="#B2AAF2"/>
<path d="M142.722 180.495C142.407 180.495 142.196 180.286 142.196 179.972V174.224C142.196 173.91 142.407 173.701 142.722 173.701C143.037 173.701 143.248 173.91 143.248 174.224V179.972C143.248 180.286 143.037 180.495 142.722 180.495Z" fill="#B2AAF2"/>
<path d="M145.666 177.675H139.883C139.568 177.675 139.357 177.465 139.357 177.152C139.357 176.838 139.568 176.629 139.883 176.629H145.666C145.981 176.629 146.192 176.838 146.192 177.152C146.192 177.465 145.876 177.675 145.666 177.675Z" fill="#B2AAF2"/>
<g style="mix-blend-mode:multiply">
<path d="M509.905 152.366H110.52V155.921H509.905V152.366Z" fill="#E5E5E5"/>
<path d="M506.508 360.496H113.928V386.957H506.508V360.496Z" fill="#FAFBFD"/>
<path d="M522.663 372.325H97.7578V390.097H522.663V372.325Z" fill="#E5E5E5"/>
<path d="M535 386.145H85V401.942H535V386.145Z" fill="#FAFBFD"/>
<path d="M188.784 167.379H138.17V346.678H188.784V167.379Z" fill="#FAFBFD"/>
<path d="M193.885 155.924H133.488V171.721H193.885V155.924Z" fill="#FAFBFD"/>
<path d="M193.463 344.706H133.066V360.503H193.463V344.706Z" fill="#FAFBFD"/>
<path d="M152.627 176.456H144.971V337.983H152.627V176.456Z" fill="#BFBFBD"/>
<path d="M167.506 176.856H159.85V338.383H167.506V176.856Z" fill="#BFBFBD"/>
<path d="M182.384 176.856H174.729V338.383H182.384V176.856Z" fill="#BFBFBD"/>
<path d="M286.616 167.381H236.002V346.68H286.616V167.381Z" fill="#FAFBFD"/>
<path d="M291.292 155.925H230.895V171.722H291.292V155.925Z" fill="#FAFBFD"/>
<path d="M291.291 344.688H230.894V360.485H291.291V344.688Z" fill="#FAFBFD"/>
<path d="M250.447 176.854H242.791V338.381H250.447V176.854Z" fill="#BFBFBD"/>
<path d="M265.334 176.854H257.678V338.381H265.334V176.854Z" fill="#BFBFBD"/>
<path d="M280.231 176.854H272.575V338.381H280.231V176.854Z" fill="#BFBFBD"/>
<path d="M384.442 167.781H333.828V347.08H384.442V167.781Z" fill="#FAFBFD"/>
<path d="M389.118 155.925H328.721V171.722H389.118V155.925Z" fill="#FAFBFD"/>
<path d="M389.118 344.688H328.721V360.485H389.118V344.688Z" fill="#FAFBFD"/>
<path d="M347.842 176.854H340.187V338.381H347.842V176.854Z" fill="#BFBFBD"/>
<path d="M362.726 176.854H355.07V338.381H362.726V176.854Z" fill="#BFBFBD"/>
<path d="M377.614 176.854H369.958V338.381H377.614V176.854Z" fill="#BFBFBD"/>
<path d="M482.272 167.765H431.657V347.064H482.272V167.765Z" fill="#FAFBFD"/>
<path d="M486.928 155.925H426.531V171.722H486.928V155.925Z" fill="#FAFBFD"/>
<path d="M486.934 344.688H426.537V360.485H486.934V344.688Z" fill="#FAFBFD"/>
<path d="M445.685 176.858H438.029V338.385H445.685V176.858Z" fill="#BFBFBD"/>
<path d="M460.559 176.867H452.903V338.393H460.559V176.867Z" fill="#BFBFBD"/>
<path d="M475.452 176.867H467.796V338.393H475.452V176.867Z" fill="#BFBFBD"/>
<path d="M110.52 144.474L310 9.40796L509.905 144.474V152.768L110.52 152.373V144.474Z" fill="#BFBFBD"/>
<path d="M110.52 152.372L310 17.3054L509.905 152.767L110.52 152.372Z" fill="#FAFBFD"/>
<path d="M172.621 134.995L310.003 42.1863L447.385 134.995H172.621Z" fill="#C8C8CA"/>
</g>
<path opacity="0.4" d="M310.737 386.698C374.901 386.698 426.916 384.546 426.916 381.891C426.916 379.235 374.901 377.083 310.737 377.083C246.572 377.083 194.557 379.235 194.557 381.891C194.557 384.546 246.572 386.698 310.737 386.698Z" fill="#B0AFFD"/>
<path d="M385.912 336.74C392.536 330.574 401.998 327.438 411.04 328.274C417.138 328.902 423.867 332.141 425.234 338.099C425.865 340.921 425.655 344.788 428.388 345.833C431.017 346.982 433.645 344.16 436.379 343.324C440.9 341.861 446.157 346.982 444.58 351.476C443.844 353.567 442.162 355.343 442.267 357.434C442.477 360.36 446.157 361.928 449.101 361.405C452.045 360.987 454.673 359.21 457.512 358.479C460.351 357.747 464.136 358.479 465.082 361.301C466.029 363.809 464.451 367.153 466.344 368.93C467.185 369.662 468.447 369.871 469.498 369.975C494.416 372.274 521.858 376.769 519.019 381.158C518.283 382.412 516.286 381.994 514.919 381.994C461.928 381.158 414.3 381.158 360.783 381.158" fill="#B2AAF2"/>
<path d="M249.124 336.741C242.5 330.575 233.038 327.439 223.996 328.275C217.897 328.903 211.168 332.142 209.802 338.1C209.171 340.922 209.381 344.789 206.647 345.834C204.019 346.983 201.39 344.161 198.657 343.325C194.136 341.862 188.879 346.983 190.456 351.477C191.192 353.568 192.874 355.344 192.769 357.435C192.559 360.361 188.879 361.929 185.935 361.406C182.991 360.988 180.362 359.211 177.524 358.48C174.685 357.748 170.9 358.48 169.954 361.302C169.007 363.81 170.584 367.154 168.692 368.931C167.851 369.663 166.589 369.872 165.538 369.976C140.619 372.275 113.178 376.769 116.017 381.159C116.753 382.413 118.75 381.995 120.117 381.995C173.108 381.159 220.736 381.159 274.253 381.159" fill="#B2AAF2"/>
<path d="M413.248 381.784H208.12C204.125 381.784 200.865 378.544 200.865 374.573V80.2641C200.865 76.2926 204.125 73.0527 208.12 73.0527H413.248C417.244 73.0527 420.503 76.2926 420.503 80.2641V374.573C420.608 378.544 417.349 381.784 413.248 381.784Z" fill="#5148A5"/>
<path d="M403.575 369.66H217.793C215.479 369.66 213.587 367.779 213.587 365.48V89.2521C213.587 86.9528 215.479 85.0715 217.793 85.0715H403.575C405.888 85.0715 407.781 86.9528 407.781 89.2521V365.48C407.781 367.779 405.993 369.66 403.575 369.66Z" fill="#B0AFFD"/>
<path d="M395.165 360.988H226.31C223.471 360.988 221.053 358.688 221.053 355.762V98.9737C221.053 96.1518 223.366 93.748 226.31 93.748H395.165C398.004 93.748 400.422 96.0473 400.422 98.9737V355.762C400.317 358.688 398.004 360.988 395.165 360.988Z" fill="white"/>
<path d="M256.099 290.174H238.574C237.963 290.174 237.453 289.769 237.453 289.313C237.453 288.857 237.963 288.452 238.574 288.452H256.099C256.71 288.452 257.219 288.857 257.219 289.313C257.219 289.769 256.659 290.174 256.099 290.174Z" fill="#BFBCE2"/>
<path d="M266.476 290.174H259.951C259.723 290.174 259.533 289.769 259.533 289.313C259.533 288.857 259.723 288.452 259.951 288.452H266.476C266.703 288.452 266.893 288.857 266.893 289.313C266.893 289.769 266.684 290.174 266.476 290.174Z" fill="#BFBCE2"/>
<g opacity="0.3">
<g opacity="0.3">
<g opacity="0.3">
<path opacity="0.3" d="M274.253 116.741H238.085C236.823 116.741 235.771 115.905 235.771 114.964C235.771 113.919 236.823 113.187 238.085 113.187H274.253C275.514 113.187 276.566 114.023 276.566 114.964C276.461 115.905 275.409 116.741 274.253 116.741Z" fill="#010104"/>
</g>
<g opacity="0.3">
<path opacity="0.3" d="M382.757 125.938H355.315C354.053 125.938 353.002 125.102 353.002 124.162C353.002 123.117 354.053 122.385 355.315 122.385H382.757C384.018 122.385 385.07 123.221 385.07 124.162C385.07 125.102 384.018 125.938 382.757 125.938Z" fill="#010104"/>
</g>
<g opacity="0.3">
<path opacity="0.3" d="M343.435 125.938H238.085C236.823 125.938 235.771 125.102 235.771 124.162C235.771 123.117 236.823 122.385 238.085 122.385H343.435C344.697 122.385 345.748 123.221 345.748 124.162C345.643 125.102 344.592 125.938 343.435 125.938Z" fill="#010104"/>
</g>
<g opacity="0.3">
<path opacity="0.3" d="M382.757 135.134H238.085C236.823 135.134 235.771 134.297 235.771 133.357C235.771 132.416 236.823 131.58 238.085 131.58H382.757C384.019 131.58 385.071 132.416 385.071 133.357C385.071 134.297 384.019 135.134 382.757 135.134Z" fill="#010104"/>
</g>
<g opacity="0.3">
<path opacity="0.3" d="M382.757 144.436H336.811C335.549 144.436 334.498 143.6 334.498 142.659C334.498 141.614 335.549 140.883 336.811 140.883H382.757C384.019 140.883 385.07 141.719 385.07 142.659C385.07 143.6 384.019 144.436 382.757 144.436Z" fill="#010104"/>
</g>
<g opacity="0.3">
<path opacity="0.3" d="M325.351 144.436H238.085C236.823 144.436 235.771 143.6 235.771 142.659C235.771 141.614 236.823 140.883 238.085 140.883H325.351C326.613 140.883 327.664 141.719 327.664 142.659C327.559 143.6 326.613 144.436 325.351 144.436Z" fill="#010104"/>
</g>
<g opacity="0.3">
<path opacity="0.3" d="M382.758 116.74H286.029C284.767 116.74 283.716 115.904 283.716 114.963C283.716 113.918 284.767 113.187 286.029 113.187H382.758C384.02 113.187 385.071 114.023 385.071 114.963C385.071 115.904 384.02 116.74 382.758 116.74Z" fill="#010104"/>
</g>
</g>
<g opacity="0.3">
<g opacity="0.3">
<path opacity="0.3" d="M274.253 183.106H238.085C236.823 183.106 235.771 182.27 235.771 181.329C235.771 180.389 236.823 179.553 238.085 179.553H274.253C275.514 179.553 276.566 180.389 276.566 181.329C276.566 182.27 275.409 183.106 274.253 183.106Z" fill="#010104"/>
</g>
<g opacity="0.3">
<path opacity="0.3" d="M382.758 192.305H355.316C354.054 192.305 353.003 191.469 353.003 190.528C353.003 189.483 354.054 188.751 355.316 188.751H382.758C384.019 188.751 385.071 189.587 385.071 190.528C385.071 191.469 384.019 192.305 382.758 192.305Z" fill="#010104"/>
</g>
<g opacity="0.3">
<path opacity="0.3" d="M343.435 192.305H238.085C236.823 192.305 235.771 191.469 235.771 190.528C235.771 189.483 236.823 188.751 238.085 188.751H343.435C344.697 188.751 345.748 189.587 345.748 190.528C345.643 191.469 344.592 192.305 343.435 192.305Z" fill="#010104"/>
</g>
<g opacity="0.3">
<path opacity="0.3" d="M382.757 201.499H238.085C236.823 201.499 235.771 200.663 235.771 199.723C235.771 198.678 236.823 197.946 238.085 197.946H382.757C384.019 197.946 385.071 198.782 385.071 199.723C385.071 200.663 384.019 201.499 382.757 201.499Z" fill="#010104"/>
</g>
<g opacity="0.3">
<path opacity="0.3" d="M382.757 210.802H336.811C335.549 210.802 334.498 209.966 334.498 209.025C334.498 208.085 335.549 207.249 336.811 207.249H382.757C384.019 207.249 385.07 208.085 385.07 209.025C385.07 209.966 384.019 210.802 382.757 210.802Z" fill="#010104"/>
</g>
<g opacity="0.3">
<path opacity="0.3" d="M325.351 210.802H238.085C236.823 210.802 235.771 209.966 235.771 209.025C235.771 208.085 236.823 207.249 238.085 207.249H325.351C326.613 207.249 327.664 208.085 327.664 209.025C327.664 209.966 326.613 210.802 325.351 210.802Z" fill="#010104"/>
</g>
<g opacity="0.3">
<path opacity="0.3" d="M382.758 183.106H286.029C284.767 183.106 283.716 182.27 283.716 181.329C283.716 180.389 284.767 179.553 286.029 179.553H382.758C384.02 179.553 385.071 180.389 385.071 181.329C385.071 182.27 384.02 183.106 382.758 183.106Z" fill="#010104"/>
</g>
</g>
<g opacity="0.3">
<g opacity="0.3">
<path opacity="0.3" d="M274.253 247.066H238.085C236.823 247.066 235.771 246.23 235.771 245.29C235.771 244.349 236.823 243.513 238.085 243.513H274.253C275.514 243.513 276.566 244.349 276.566 245.29C276.566 246.23 275.409 247.066 274.253 247.066Z" fill="#010104"/>
</g>
<g opacity="0.3">
<path opacity="0.3" d="M382.758 256.369H355.316C354.054 256.369 353.003 255.533 353.003 254.592C353.003 253.652 354.054 252.816 355.316 252.816H382.758C384.019 252.816 385.071 253.652 385.071 254.592C385.071 255.533 384.019 256.369 382.758 256.369Z" fill="#010104"/>
</g>
<g opacity="0.3">
<path opacity="0.3" d="M343.435 256.369H238.085C236.823 256.369 235.771 255.533 235.771 254.592C235.771 253.652 236.823 252.816 238.085 252.816H343.435C344.697 252.816 345.748 253.652 345.748 254.592C345.748 255.533 344.592 256.369 343.435 256.369Z" fill="#010104"/>
</g>
<g opacity="0.3">
<path opacity="0.3" d="M382.757 265.566H238.085C236.823 265.566 235.771 264.73 235.771 263.789C235.771 262.744 236.823 262.012 238.085 262.012H382.757C384.019 262.012 385.071 262.848 385.071 263.789C385.071 264.73 384.019 265.566 382.757 265.566Z" fill="#010104"/>
</g>
<g opacity="0.3">
<path opacity="0.3" d="M382.757 274.762H336.811C335.549 274.762 334.498 273.926 334.498 272.985C334.498 271.94 335.549 271.209 336.811 271.209H382.757C384.019 271.209 385.07 272.045 385.07 272.985C385.07 273.926 384.019 274.762 382.757 274.762Z" fill="#010104"/>
</g>
<g opacity="0.3">
<path opacity="0.3" d="M325.351 274.762H238.085C236.823 274.762 235.771 273.926 235.771 272.985C235.771 271.94 236.823 271.209 238.085 271.209H325.351C326.613 271.209 327.664 272.045 327.664 272.985C327.559 273.926 326.613 274.762 325.351 274.762Z" fill="#010104"/>
</g>
<g opacity="0.3">
<path opacity="0.3" d="M382.757 247.067H286.028C284.766 247.067 283.715 246.231 283.715 245.29C283.715 244.349 284.766 243.513 286.028 243.513H382.757C384.019 243.513 385.07 244.349 385.07 245.29C385.07 246.231 384.019 247.067 382.757 247.067Z" fill="#010104"/>
</g>
</g>
<g opacity="0.3">
<g opacity="0.3">
<path opacity="0.3" d="M274.253 312.282H238.085C236.823 312.282 235.771 311.446 235.771 310.506C235.771 309.461 236.823 308.729 238.085 308.729H274.253C275.514 308.729 276.566 309.565 276.566 310.506C276.461 311.446 275.409 312.282 274.253 312.282Z" fill="#010104"/>
</g>
<g opacity="0.3">
<path opacity="0.3" d="M382.758 321.48H355.316C354.054 321.48 353.003 320.644 353.003 319.703C353.003 318.658 354.054 317.927 355.316 317.927H382.758C384.019 317.927 385.071 318.763 385.071 319.703C385.071 320.749 384.019 321.48 382.758 321.48Z" fill="#010104"/>
</g>
<g opacity="0.3">
<path opacity="0.3" d="M343.435 321.48H238.085C236.823 321.48 235.771 320.644 235.771 319.703C235.771 318.658 236.823 317.927 238.085 317.927H343.435C344.697 317.927 345.748 318.763 345.748 319.703C345.643 320.749 344.592 321.48 343.435 321.48Z" fill="#010104"/>
</g>
<g opacity="0.3">
<path opacity="0.3" d="M382.757 330.779H238.085C236.823 330.779 235.771 329.943 235.771 329.003C235.771 327.957 236.823 327.226 238.085 327.226H382.757C384.019 327.226 385.071 328.062 385.071 329.003C385.071 329.943 384.019 330.779 382.757 330.779Z" fill="#010104"/>
</g>
<g opacity="0.3">
<path opacity="0.3" d="M382.757 339.978H336.811C335.549 339.978 334.498 339.141 334.498 338.201C334.498 337.26 335.549 336.424 336.811 336.424H382.757C384.019 336.424 385.07 337.26 385.07 338.201C385.07 339.141 384.019 339.978 382.757 339.978Z" fill="#010104"/>
</g>
<g opacity="0.3">
<path opacity="0.3" d="M325.351 339.978H238.085C236.823 339.978 235.771 339.141 235.771 338.201C235.771 337.26 236.823 336.424 238.085 336.424H325.351C326.613 336.424 327.664 337.26 327.664 338.201C327.664 339.141 326.613 339.978 325.351 339.978Z" fill="#010104"/>
</g>
<g opacity="0.3">
<path opacity="0.3" d="M382.758 312.282H286.029C284.767 312.282 283.716 311.446 283.716 310.505C283.716 309.46 284.767 308.728 286.029 308.728H382.758C384.02 308.728 385.071 309.564 385.071 310.505C385.071 311.446 384.02 312.282 382.758 312.282Z" fill="#010104"/>
</g>
</g>
</g>
<g opacity="0.3">
<path d="M312.961 118.83H289.426C288.605 118.83 287.921 117.994 287.921 117.054C287.921 116.008 288.605 115.277 289.426 115.277H312.961C313.782 115.277 314.466 116.113 314.466 117.054C314.398 117.994 313.714 118.83 312.961 118.83Z" fill="#2D24A3"/>
<path d="M383.565 128.028H365.708C364.887 128.028 364.203 127.192 364.203 126.252C364.203 125.206 364.887 124.475 365.708 124.475H383.565C384.386 124.475 385.07 125.311 385.07 126.252C385.07 127.192 384.386 128.028 383.565 128.028Z" fill="#2D24A3"/>
<path d="M357.978 128.028H289.426C288.605 128.028 287.921 127.192 287.921 126.252C287.921 125.206 288.605 124.475 289.426 124.475H357.978C358.799 124.475 359.483 125.311 359.483 126.252C359.415 127.192 358.731 128.028 357.978 128.028Z" fill="#2D24A3"/>
<path d="M383.566 137.223H289.426C288.605 137.223 287.921 136.387 287.921 135.447C287.921 134.506 288.605 133.67 289.426 133.67H383.566C384.387 133.67 385.071 134.506 385.071 135.447C385.071 136.387 384.387 137.223 383.566 137.223Z" fill="#2D24A3"/>
<path d="M383.565 146.526H353.667C352.846 146.526 352.162 145.69 352.162 144.749C352.162 143.704 352.846 142.972 353.667 142.972H383.565C384.386 142.972 385.07 143.808 385.07 144.749C385.07 145.69 384.386 146.526 383.565 146.526Z" fill="#2D24A3"/>
<path d="M346.211 146.526H289.426C288.605 146.526 287.921 145.69 287.921 144.749C287.921 143.704 288.605 142.972 289.426 142.972H346.211C347.032 142.972 347.716 143.808 347.716 144.749C347.648 145.69 347.032 146.526 346.211 146.526Z" fill="#2D24A3"/>
<path d="M383.566 118.83H320.623C319.802 118.83 319.118 117.994 319.118 117.053C319.118 116.008 319.802 115.277 320.623 115.277H383.566C384.387 115.277 385.071 116.113 385.071 117.053C385.071 117.994 384.387 118.83 383.566 118.83Z" fill="#2D24A3"/>
<path d="M382.758 194.395H355.316C354.054 194.395 353.003 193.559 353.003 192.618C353.003 191.573 354.054 190.841 355.316 190.841H382.758C384.019 190.841 385.071 191.677 385.071 192.618C385.071 193.559 384.019 194.395 382.758 194.395Z" fill="#2D24A3"/>
<path d="M343.435 194.395H238.085C236.823 194.395 235.771 193.559 235.771 192.618C235.771 191.573 236.823 190.841 238.085 190.841H343.435C344.697 190.841 345.748 191.677 345.748 192.618C345.643 193.559 344.592 194.395 343.435 194.395Z" fill="#2D24A3"/>
<path d="M382.757 203.59H238.085C236.823 203.59 235.771 202.754 235.771 201.813C235.771 200.768 236.823 200.036 238.085 200.036H382.757C384.019 200.036 385.071 200.872 385.071 201.813C385.071 202.754 384.019 203.59 382.757 203.59Z" fill="#2D24A3"/>
<path d="M382.757 212.892H336.811C335.549 212.892 334.498 212.056 334.498 211.116C334.498 210.175 335.549 209.339 336.811 209.339H382.757C384.019 209.339 385.07 210.175 385.07 211.116C385.07 212.056 384.019 212.892 382.757 212.892Z" fill="#2D24A3"/>
<path d="M325.351 212.892H238.085C236.823 212.892 235.771 212.056 235.771 211.116C235.771 210.175 236.823 209.339 238.085 209.339H325.351C326.613 209.339 327.664 210.175 327.664 211.116C327.664 212.056 326.613 212.892 325.351 212.892Z" fill="#2D24A3"/>
<path d="M382.758 185.197H286.029C284.767 185.197 283.716 184.36 283.716 183.42C283.716 182.479 284.767 181.643 286.029 181.643H382.758C384.02 181.643 385.071 182.479 385.071 183.42C385.071 184.36 384.02 185.197 382.758 185.197Z" fill="#2D24A3"/>
<path d="M274.253 236.615H238.085C236.823 236.615 235.771 235.779 235.771 234.839C235.771 233.898 236.823 233.062 238.085 233.062H274.253C275.514 233.062 276.566 233.898 276.566 234.839C276.566 235.779 275.409 236.615 274.253 236.615Z" fill="#2D24A3"/>
<path d="M382.758 245.918H355.316C354.054 245.918 353.003 245.082 353.003 244.141C353.003 243.2 354.054 242.364 355.316 242.364H382.758C384.019 242.364 385.071 243.2 385.071 244.141C385.071 245.082 384.019 245.918 382.758 245.918Z" fill="#2D24A3"/>
<path d="M343.435 245.918H238.085C236.823 245.918 235.771 245.082 235.771 244.141C235.771 243.2 236.823 242.364 238.085 242.364H343.435C344.697 242.364 345.748 243.2 345.748 244.141C345.748 245.082 344.592 245.918 343.435 245.918Z" fill="#2D24A3"/>
<path d="M382.757 255.113H238.085C236.823 255.113 235.771 254.276 235.771 253.336C235.771 252.291 236.823 251.559 238.085 251.559H382.757C384.019 251.559 385.071 252.395 385.071 253.336C385.071 254.276 384.019 255.113 382.757 255.113Z" fill="#2D24A3"/>
<path d="M382.757 264.311H336.811C335.549 264.311 334.498 263.475 334.498 262.534C334.498 261.489 335.549 260.758 336.811 260.758H382.757C384.019 260.758 385.07 261.594 385.07 262.534C385.07 263.475 384.019 264.311 382.757 264.311Z" fill="#2D24A3"/>
<path d="M325.351 264.311H238.085C236.823 264.311 235.771 263.475 235.771 262.534C235.771 261.489 236.823 260.758 238.085 260.758H325.351C326.613 260.758 327.664 261.594 327.664 262.534C327.559 263.475 326.613 264.311 325.351 264.311Z" fill="#2D24A3"/>
<path d="M382.757 236.615H286.028C284.766 236.615 283.715 235.779 283.715 234.838C283.715 233.898 284.766 233.062 286.028 233.062H382.757C384.019 233.062 385.07 233.898 385.07 234.838C385.07 235.779 384.019 236.615 382.757 236.615Z" fill="#2D24A3"/>
</g>
<path d="M312.945 45.7742C306.531 45.7742 301.274 50.9998 301.274 57.3751V72.2159H324.616C324.616 72.2159 324.616 60.406 324.616 57.3751C324.616 50.9998 319.359 45.7742 312.945 45.7742ZM312.945 63.9594C309.37 63.9594 306.426 61.0331 306.426 57.4796C306.426 53.9262 309.37 50.9998 312.945 50.9998C316.52 50.9998 319.464 53.9262 319.464 57.4796C319.464 61.0331 316.52 63.9594 312.945 63.9594Z" fill="#0F947C"/>
<path opacity="0.5" d="M319.463 57.4785C319.463 53.9251 316.519 50.9987 312.944 50.9987C312.629 50.9987 312.313 50.9987 311.998 51.1033C312.944 50.6852 313.049 50.4762 314.627 50.4762C318.201 50.4762 321.145 53.4025 321.145 56.956C321.145 60.1959 319.463 61.9726 316.94 62.5997C318.306 61.45 319.463 59.4643 319.463 57.4785ZM304.849 70.7517V55.9108C304.849 51.8348 306.636 48.2814 309.79 46.2957C304.954 47.6543 301.379 52.1484 301.379 57.4785V72.3194H324.72C324.72 72.3194 324.72 71.6923 324.72 70.8562H304.849V70.7517Z" fill="#0F947C"/>
<path d="M381.391 78.0678V89.6687H239.978V78.0678C239.978 73.5737 243.657 69.9158 248.178 69.9158H373.085C377.711 69.9158 381.391 73.5737 381.391 78.0678Z" fill="#0F947C"/>
<path opacity="0.5" d="M381.391 86.8469V89.7732H239.978V78.0678C239.978 73.5737 243.657 69.9158 248.178 69.9158H249.335C247.127 72.006 245.445 75.1414 245.445 78.3813V86.7424H381.391V86.8469Z" fill="#0F947C"/>
<path d="M259.335 304.566C258.997 304.447 258.576 304.298 257.995 304.294C257.517 304.291 257.12 304.448 256.829 304.563C256.799 304.576 256.764 304.589 256.729 304.603C256.346 304.203 255.854 304.058 255.257 304.172C254.469 304.33 254.03 304.903 253.737 305.326C253.69 305.116 253.65 304.859 253.622 304.674C253.531 304.077 253.436 303.461 253.108 302.984C252.849 302.607 252.357 302.452 251.909 302.606C250.762 303.018 250.093 303.986 249.51 304.852C248.897 305.762 248.493 306.32 247.873 306.362C247.116 306.413 246.315 304.718 245.978 303.049C245.673 301.546 245.105 298.749 245.961 297.009C246.249 296.423 246.728 295.719 247.36 295.698C248.101 295.67 249.06 296.461 249.692 297.619C249.959 298.108 250.579 298.288 251.098 298.015C251.607 297.745 251.803 297.128 251.535 296.639C250.506 294.751 248.893 293.615 247.327 293.672C246.39 293.71 245.071 294.169 244.086 296.167C243.016 298.342 243.446 301.085 243.934 303.484C244.176 304.682 245.182 308.574 247.971 308.383C249.671 308.269 250.541 306.975 251.24 305.939C251.368 305.749 251.494 305.562 251.621 305.39C251.747 306.13 251.953 306.893 252.634 307.322C253.651 307.969 254.582 307.694 255.401 306.509C255.432 306.463 255.469 306.411 255.503 306.359C255.696 306.525 255.979 306.679 256.38 306.696C256.866 306.717 257.274 306.556 257.572 306.439C257.699 306.389 257.873 306.32 257.935 306.321C258.148 306.322 258.296 306.371 258.584 306.473C258.801 306.549 259.028 306.628 259.302 306.692C259.529 306.744 259.756 306.718 259.956 306.634C260.249 306.511 260.484 306.26 260.569 305.938C260.713 305.394 260.379 304.848 259.822 304.72C259.638 304.675 259.484 304.619 259.335 304.566Z" fill="#234492"/>
<path d="M301.482 292.428C298.328 295.773 296.12 317.198 296.015 318.034C295.91 318.87 280.139 327.649 280.139 327.649L282.347 330.157C282.347 330.157 299.169 325.977 302.218 322.319C304.741 319.288 310.734 293.996 310.734 293.996C310.734 293.996 306.739 286.889 301.482 292.428Z" fill="#7762EF"/>
<path opacity="0.4" d="M325.98 440C351.936 440 372.978 438.55 372.978 436.76C372.978 434.971 351.936 433.52 325.98 433.52C300.024 433.52 278.982 434.971 278.982 436.76C278.982 438.55 300.024 440 325.98 440Z" fill="#B0AFFD"/>
<path d="M349.954 423.174C349.954 423.174 351.216 425.787 351.847 426.518C352.477 427.354 355.211 425.473 355.211 424.846C355.211 424.219 352.793 420.143 352.793 420.143" fill="#ED9C80"/>
<path d="M356.471 425.055C357.102 425.996 358.049 427.668 358.049 427.668L355.63 429.967L355 429.654C355 429.654 354.579 430.803 353.843 431.535C353.317 432.057 352.056 432.998 351.32 433.312C348.901 434.461 346.904 434.67 346.588 434.357C345.432 433.103 348.691 431.43 349.217 431.012C350.899 429.758 351.425 427.772 351.214 426.623C351.109 425.787 350.794 425.682 351.32 425.578C351.32 425.578 351.74 425.473 352.161 425.682C352.897 426.1 353.843 425.996 354.369 425.473C354.684 425.16 355 424.742 355.105 424.219C355.105 424.324 355.841 424.219 356.471 425.055Z" fill="#3A3A3A"/>
<path d="M303.481 428.293C303.481 428.293 302.85 429.861 302.955 430.801C303.06 431.847 306.32 431.847 306.74 431.324C307.161 430.801 307.371 426.203 307.371 426.203" fill="#ED9C80"/>
<path d="M307.581 432.159C307.581 433.204 307.265 434.877 307.265 434.877H303.375L303.165 434.25C303.165 434.25 301.903 434.877 300.957 434.877H297.698C295.279 434.877 294.018 434.563 293.912 434.145C293.702 432.473 296.541 432.577 297.277 432.577C299.38 432.577 301.693 431.637 302.219 430.592C302.534 429.86 302.429 429.651 302.849 429.755C302.849 429.755 303.27 429.86 303.48 430.278C303.901 431.01 304.637 431.428 305.478 431.323C306.004 431.219 306.424 431.114 306.74 430.696C306.845 430.905 307.581 431.114 307.581 432.159Z" fill="#3A3A3A"/>
<path d="M323.036 358.794C323.036 358.899 319.882 355.346 319.882 355.555C318.62 361.721 312.837 382.519 310.945 387.954C310.629 388.685 309.157 390.357 308.001 390.671C305.162 391.402 300.641 390.462 300.326 385.132C300.326 384.505 300.431 383.878 300.326 383.251C299.485 374.994 307.475 338.623 307.685 336.324C307.896 334.025 312.417 335.697 313.784 335.279C320.092 333.084 324.718 350.12 323.036 358.794Z" fill="#2D24A3"/>
<path d="M311.367 390.985C310.105 387.118 311.997 382.624 311.997 382.624C311.997 382.624 300.958 374.158 300.327 379.279C300.222 379.697 299.906 383.146 299.906 385.132C299.906 392.239 302.43 414.5 302.219 428.191V429.132C302.219 429.132 304.112 429.446 307.266 429.446C307.371 429.446 307.581 429.446 307.687 429.446C308.633 420.98 310.631 409.379 311.577 397.778C311.892 394.852 311.577 391.612 311.367 390.985Z" fill="#2D24A3"/>
<path d="M339.017 391.506C336.809 388.684 334.496 387.43 333.865 385.236C332.288 380.219 332.709 359.734 332.604 354.091C333.024 352.941 337.23 341.34 328.714 332.77C328.714 332.77 321.038 336.219 314.94 336.637C310.104 336.951 307.686 336.428 307.686 336.428C307.686 336.428 312.207 343.639 312.522 346.879C312.943 352.314 322.615 385.236 323.351 387.012C325.034 391.088 326.926 392.76 327.452 393.597C331.763 399.449 341.751 411.782 349.426 423.592L349.952 424.323C349.952 424.323 351.529 423.801 354.368 421.711C350.162 413.872 345.957 400.494 339.017 391.506Z" fill="#2D24A3"/>
<path d="M301.483 292.427C303.06 290.65 309.684 287.933 316.308 288.142C320.829 288.247 335.233 289.71 336.705 292.741C337.441 294.308 337.336 308.94 336.284 314.375C335.548 318.451 333.13 329.007 333.13 331.41C333.13 333.814 334.497 334.859 333.866 335.591C332.499 337.159 322.091 337.89 317.675 337.89C313.679 337.89 306.95 336.845 306.635 335.591C306.109 333.71 307.371 333.814 307.581 331.828C307.791 329.843 308.738 316.988 307.476 315.106C305.689 312.075 302.85 303.714 302.745 301.415C302.64 299.22 299.906 294.204 301.483 292.427Z" fill="#7762EF"/>
<path d="M312.417 282.499C312.417 282.499 312.417 287.934 312.102 288.143C311.891 288.352 310.84 288.875 310.84 288.875C310.84 288.875 311.576 293.578 312.838 293.264C313.994 292.951 321.88 288.979 321.88 288.979C321.88 288.979 320.723 288.561 320.723 288.039C320.723 287.621 321.774 279.051 321.774 279.051" fill="#ED9C80"/>
<path d="M314.519 264.628C313.573 263.897 312.206 263.897 311.155 264.419C310.103 264.942 309.262 265.882 308.842 267.032C308.421 268.077 308.316 269.331 308.842 270.376C308.001 270.585 307.58 271.526 307.58 272.362C307.58 273.303 308.106 274.139 308.631 274.87C309.052 275.602 310.103 276.02 310.945 275.811C311.575 275.707 311.996 275.288 312.417 274.766C312.732 274.243 313.047 273.721 313.258 273.198C314.309 270.585 314.94 267.868 315.466 265.151" fill="#170D54"/>
<path d="M317.885 262.746C316.728 263.059 313.679 262.432 312.838 263.686C311.997 264.941 311.261 267.972 310.946 268.808C310.315 270.48 309.894 272.257 309.474 273.929C308.843 276.124 307.371 280.304 309.579 282.185C310.21 282.708 311.051 282.812 311.787 282.917C312.838 283.126 313.89 283.335 314.836 283.544C316.413 283.857 318.2 284.171 319.777 283.648C321.88 282.917 323.037 280.095 323.668 278.109L326.822 266.822L317.885 262.746Z" fill="#ED9C80"/>
<path d="M322.615 279.154C322.615 279.154 322.51 279.676 322.931 279.99C323.246 280.303 323.772 280.199 324.192 279.99C325.244 279.467 325.875 278.318 325.98 277.168C326.085 275.809 325.244 274.555 324.087 275.078C323.351 275.391 323.036 276.227 323.141 276.959" fill="#ED9C80"/>
<path d="M325.455 272.884C325.034 274.034 324.088 276.542 323.036 276.333C321.985 276.124 323.457 272.048 324.298 270.48C323.036 270.48 321.459 270.271 320.934 269.122C320.828 268.808 320.723 268.495 320.513 268.39C320.303 268.39 320.092 268.495 319.882 268.704C318.936 269.331 317.779 268.704 317.043 267.868C316.833 267.659 316.728 267.45 316.413 267.45C316.307 267.45 316.097 267.554 315.992 267.659C314.52 268.704 310.525 268.704 310.525 266.823C309.263 267.45 308.422 265.882 308.422 264.732C308.527 263.583 309.368 261.806 311.156 261.806C311.05 260.447 312.102 259.611 313.258 258.775C314.31 257.939 315.677 257.625 317.043 257.521C319.146 257.416 321.67 258.252 322.406 260.343C322.511 260.447 322.511 260.656 322.616 260.761C322.721 260.865 322.931 260.761 323.142 260.761C324.824 260.343 326.611 260.552 327.873 261.701C329.134 262.851 329.555 264.837 328.609 266.3C329.87 266.613 330.501 268.077 330.396 269.331C330.186 270.585 329.345 271.63 328.504 272.675C329.87 273.093 330.396 274.975 329.765 276.229C329.029 277.483 327.347 278.11 325.875 277.901C326.191 276.647 325.665 275.184 324.403 274.87" fill="#2C1E56"/>
<path d="M312.521 294.622C312.521 294.622 312.101 314.688 311.26 326.916L314.204 330.992L316.201 325.871C316.201 325.871 317.042 311.135 314.309 294.726L312.521 294.622Z" fill="#2C1E56"/>
<path d="M311.892 292.845L311.997 293.159C312.102 293.682 312.312 294.204 312.628 294.622L314.415 294.727C314.415 294.727 315.677 294.1 315.782 293.368C315.992 292.636 313.784 291.591 313.784 291.591L313.469 291.696C312.838 291.905 312.312 292.323 311.892 292.845Z" fill="#170D54"/>
<path d="M321.039 286.261C321.039 286.261 322.616 287.411 323.562 288.769C322.616 290.86 319.882 294.518 317.464 296.294C316.413 293.368 313.784 291.696 313.784 291.696C313.784 291.696 320.303 290.232 321.039 286.261Z" fill="#EAEAEA"/>
<path d="M313.678 291.592C313.678 291.592 311.365 292.532 310.103 295.041C310.103 295.041 309.682 291.592 310.629 288.665C310.629 288.665 311.89 286.575 312.416 286.575C312.101 288.979 313.678 291.592 313.678 291.592Z" fill="#EAEAEA"/>
<path opacity="0.5" d="M311.364 390.983C311.048 390.043 310.943 389.102 310.943 388.161L311.048 388.057C312.31 384.399 315.359 373.843 317.567 365.377L314.098 353.149C314.098 353.149 311.995 378.023 311.364 379.8C310.628 381.577 308.525 387.325 308.735 388.579C308.946 389.833 310.313 392.133 310.102 394.014C309.892 396 309.892 413.558 309.892 413.662C310.523 408.541 311.259 403.211 311.679 397.776C311.89 394.85 311.574 391.61 311.364 390.983Z" fill="#3D38A0"/>
<path d="M282.663 326.499C282.873 325.872 282.557 325.036 282.032 324.514C281.611 323.991 280.98 323.678 280.244 323.469C280.034 323.364 279.824 323.364 279.719 323.469C279.613 323.573 279.719 323.678 279.719 323.887C279.929 324.305 280.455 324.514 280.77 324.932C280.875 325.036 280.98 325.245 280.98 325.454C281.401 325.977 282.032 326.395 282.663 326.499Z" fill="#FFBE9D"/>
<path opacity="0.5" d="M306.109 311.973C306.109 311.973 303.48 305.493 303.059 302.88C301.798 309.255 302.218 320.334 301.167 321.274C300.116 322.215 289.602 328.172 289.602 328.172C294.543 326.605 300.641 324.41 302.429 322.32C303.27 321.065 304.637 316.885 306.109 311.973Z" fill="#5F52DD"/>
<path opacity="0.3" d="M312.417 283.023C312.417 283.023 316.833 283.964 317.674 283.859C318.515 283.755 315.992 285.218 315.466 285.218C315.045 285.322 312.417 284.904 312.417 284.904V283.023Z" fill="#ED9C80"/>
<path opacity="0.5" d="M336.706 292.742C336.6 292.637 336.6 292.533 336.495 292.323L326.927 301.625C324.614 307.582 320.093 323.468 320.093 323.468C320.093 323.468 315.783 325.454 312.944 326.917C312.208 327.335 310.105 328.694 307.687 330.366C307.687 331.098 307.582 331.62 307.582 331.934C307.371 333.92 307.161 333.92 307.687 335.801C307.687 337.055 307.161 338.936 306.846 340.713C313.995 338.936 328.715 334.338 329.346 334.024C330.187 333.606 334.498 316.152 337.021 305.597C337.441 299.117 337.231 293.891 336.706 292.742Z" fill="#5F52DD"/>
<path d="M266.891 302.04L277.903 307.883L313.845 358.856L314.183 359.326L317.494 364.228L308.711 370.34L305.13 365.101L304.454 364.094L269.12 313.994L266.891 302.04Z" fill="#234492"/>
<path d="M315.646 361.5L306.849 367.627L308.748 370.322L317.546 364.195L315.646 361.5Z" fill="#FE7F9A"/>
<path d="M313.757 358.841L304.953 364.959L306.85 367.657L315.654 361.538L313.757 358.841Z" fill="#FFE7C5"/>
<path d="M269.12 313.994L277.903 307.883L266.891 302.04L269.12 313.994Z" fill="#FFE7C5"/>
<path d="M267.701 306.271L270.674 304.055L266.891 302.04L267.701 306.271Z" fill="#FFB127"/>
<path d="M267.701 306.271L270.674 304.055L266.891 302.04L267.701 306.271Z" fill="#234492"/>
<path d="M266.891 302.04L276.079 309.092L315.061 365.907L317.494 364.228L277.903 307.883L266.891 302.04Z" fill="#092974"/>
<path d="M298.958 337.788C298.958 337.788 296.96 338.415 295.804 338.728C295.068 338.937 291.808 338.624 289.916 339.042C288.969 339.251 288.023 339.565 287.392 340.296C286.762 341.028 286.762 342.282 287.498 342.804C287.708 342.909 288.023 343.118 288.023 343.327C288.023 343.432 287.918 343.641 287.918 343.745C287.813 344.163 287.918 344.581 288.234 344.895C288.549 345.208 289.075 345.208 289.39 344.999C289.39 345.835 290.126 346.671 291.072 346.671C291.072 346.149 291.177 345.626 291.598 345.417C292.019 345.104 292.439 345.208 292.965 345.104C293.806 344.999 294.542 344.686 295.173 344.059C295.593 343.641 295.909 343.118 296.224 342.7C296.96 341.759 298.117 341.132 299.273 340.923" fill="#ED9C80"/>
<path d="M326.821 300.581C325.98 303.09 321.248 325.142 321.248 325.142C321.248 325.142 316.727 326.291 313.783 327.755C311.575 328.904 296.015 338.519 296.015 338.519L297.592 342.177C297.592 342.177 325.244 332.458 326.505 331.831C327.767 331.204 338.807 303.299 338.807 298.386C338.807 295.46 336.388 292.429 336.388 292.429" fill="#7762EF"/>
<path d="M279.718 330.156C278.771 330.26 277.93 329.529 277.825 328.693C277.825 328.484 277.825 328.379 277.72 328.17C277.51 327.857 277.194 327.857 276.879 327.752C275.722 327.334 274.986 326.184 274.776 325.035C274.671 324.408 274.671 323.781 274.881 323.154C275.092 322.527 275.617 322.004 276.248 321.899C276.353 321.899 276.458 321.899 276.669 321.899C276.774 321.899 276.879 322.004 276.984 322.108C277.299 322.631 277.615 323.154 277.72 323.676C277.825 324.094 277.93 324.617 278.246 324.826C278.456 325.035 278.771 325.035 279.087 325.139C279.613 325.453 279.823 325.975 280.033 326.602C280.033 327.439 279.613 329.32 279.718 330.156Z" fill="#ED9C80"/>
<path d="M365.619 272.156H391.904C392.534 272.156 392.955 272.574 393.165 273.096L397.266 288.146L405.256 292.327H376.238L368.247 288.146L364.252 273.828C364.147 272.992 364.777 272.156 365.619 272.156Z" fill="#2C1E56"/>
<path d="M368.667 287.832H397.055L392.954 273.096C392.849 272.574 392.323 272.156 391.693 272.156H365.933C365.092 272.156 364.461 272.992 364.672 273.723L368.667 287.832Z" fill="#2D24A3"/>
<path d="M365.513 273.617L366.039 275.394L368.983 286.159C369.088 286.786 369.719 287.099 370.244 287.099H394.532C395.373 287.099 396.004 286.263 395.793 285.427L395.583 284.8L395.057 282.814L394.532 280.724L393.165 275.707L392.639 273.826C392.534 273.199 391.903 272.885 391.377 272.885H366.144C365.933 272.885 365.828 272.99 365.723 273.095C365.513 273.304 365.408 273.408 365.513 273.617Z" fill="#B0AFFD"/>
<path d="M376.553 291.909H404.94L397.16 287.833H368.667L376.553 291.909Z" fill="#2D24A3"/>
<path opacity="0.4" d="M414.929 397.674C427.297 397.674 437.324 396.785 437.324 395.689C437.324 394.592 427.297 393.703 414.929 393.703C402.561 393.703 392.534 394.592 392.534 395.689C392.534 396.785 402.561 397.674 414.929 397.674Z" fill="#B0AFFD"/>
<path d="M421.973 387.118C421.973 387.118 422.078 390.881 422.183 391.821C422.288 392.762 425.337 392.866 425.653 392.344C425.968 391.821 426.178 387.432 426.178 387.432" fill="#ED9C80"/>
<path d="M426.494 393.181C426.494 394.121 426.179 395.793 426.179 395.793H422.709L422.499 395.166C422.499 395.166 421.342 395.793 420.501 395.793H417.557C415.349 395.793 414.193 395.48 414.088 395.166C413.877 393.599 416.401 393.599 417.137 393.599C419.029 393.599 421.132 392.658 421.658 391.717C421.973 390.986 421.868 390.777 422.289 390.986C422.289 390.986 422.604 391.09 422.919 391.508C423.34 392.135 423.971 392.658 424.707 392.553C425.127 392.449 425.548 392.344 425.863 392.031C425.758 391.926 426.494 392.24 426.494 393.181Z" fill="#3A3A3A"/>
<path d="M409.673 386.179C409.673 386.179 410.304 388.687 410.724 389.628C411.145 390.464 413.984 389.419 414.194 388.792C414.299 388.165 412.827 384.089 412.827 384.089" fill="#ED9C80"/>
<path d="M415.244 389.21C415.664 390.151 416.19 391.928 416.19 391.928L413.562 393.495L413.036 393.077C413.036 393.077 412.405 394.018 411.669 394.54C411.038 394.958 409.777 395.481 409.041 395.585C406.622 396.108 404.73 395.899 404.52 395.585C403.678 394.227 406.938 393.391 407.569 393.182C409.356 392.45 410.197 390.778 410.302 389.628C410.302 388.897 410.092 388.688 410.618 388.688C410.618 388.688 410.933 388.583 411.354 388.897C411.985 389.419 412.721 389.524 413.457 389.106C413.877 388.897 414.193 388.583 414.298 388.165C414.087 388.374 414.823 388.374 415.244 389.21Z" fill="#3A3A3A"/>
<path d="M428.493 301.314C429.755 300.374 431.122 299.328 432.488 298.283C435.432 295.775 438.166 293.058 438.481 291.176C439.217 286.787 438.692 273.618 438.271 267.452C438.271 267.034 438.271 266.72 438.166 266.407C437.851 260.554 434.696 257.941 433.119 257.001C432.278 264.63 430.491 281.77 430.386 282.606C430.07 283.756 428.493 301.314 428.493 301.314Z" fill="#E2C9DC"/>
<path opacity="0.5" d="M428.493 301.313C429.755 300.372 431.122 299.327 432.488 298.282C432.594 293.474 434.066 286.681 436.063 278.215C438.481 267.555 437.009 265.569 437.009 265.569L432.173 266.301C431.332 273.826 430.491 281.978 430.386 282.5C430.07 283.755 428.493 301.313 428.493 301.313Z" fill="#FFB127"/>
<path d="M416.822 341.341C417.137 346.776 417.558 352.315 418.294 356.182C418.924 359.527 429.333 360.049 428.072 357.541C426.179 353.883 429.544 342.282 431.121 322.529C431.331 319.498 432.698 319.185 433.644 313.018C434.485 306.852 431.121 301.522 431.121 301.522L416.611 300.163L416.401 318.035L416.296 324.097C416.401 324.306 416.296 332.562 416.822 341.341Z" fill="#2D24A3"/>
<path d="M426.705 355.241C426.705 355.241 429.544 358.69 429.123 364.961C428.702 371.231 426.495 390.148 426.495 390.148C426.495 390.148 423.13 390.671 421.448 390.044C421.448 390.044 417.873 355.032 417.873 351.06C417.873 347.089 426.705 355.241 426.705 355.241Z" fill="#2D24A3"/>
<path opacity="0.5" d="M416.822 341.342C417.768 338.415 419.555 332.876 421.027 329.741C423.13 325.351 425.128 323.47 425.128 323.47C432.488 315.84 427.441 305.912 427.441 305.912C427.441 305.912 421.448 310.824 421.027 311.346C420.607 311.869 418.294 316.049 416.506 318.244L416.401 324.306C416.401 324.306 416.296 332.562 416.822 341.342Z" fill="#3D38A0"/>
<path d="M399.578 338.938C399.578 338.938 396.319 349.703 396.844 353.047C397.37 356.391 409.356 387.85 409.356 387.85C409.356 387.85 411.564 387.85 414.193 386.7C414.193 386.7 413.982 372.904 411.564 364.23C409.251 355.555 406.517 350.225 404.099 349.494C401.786 348.657 400.314 340.819 399.578 338.938Z" fill="#2D24A3"/>
<path d="M410.198 345.314C410.198 345.314 406.624 350.958 408.832 355.974C411.04 360.991 405.152 360.155 405.152 360.155C405.152 360.155 402.208 351.689 402.839 350.54C403.469 349.39 405.888 345.732 406.729 345.523C407.57 345.523 410.198 345.314 410.198 345.314Z" fill="#2D24A3"/>
<path d="M406.623 300.582C406.623 300.582 399.053 335.594 398.002 345C397.581 348.972 401.787 355.66 405.677 352.003C410.303 347.717 417.873 327.965 420.186 324.411C422.499 320.962 431.331 317.722 425.338 299.955" fill="#2D24A3"/>
<path d="M425.444 253.552C425.444 253.552 424.393 249.998 424.814 247.49C425.234 244.877 426.811 240.278 426.286 236.725C425.655 233.276 421.239 230.35 416.613 230.768C411.881 231.186 410.515 235.68 409.779 238.293C409.043 240.905 409.148 244.772 409.358 246.967C409.568 249.057 410.725 250.834 411.461 251.252C412.197 251.67 415.141 251.148 415.666 251.67C416.192 252.193 416.613 255.537 416.613 255.537" fill="#ED9C80"/>
<path d="M427.652 256.372C427.652 256.372 427.441 254.282 426.6 253.655C425.864 252.923 420.607 252.923 419.03 253.132C417.453 253.341 413.668 255.118 413.142 255.536C412.617 255.954 413.668 257.836 413.668 257.836L427.652 256.372Z" fill="white"/>
<path d="M425.233 249.161C425.233 249.161 418.714 249.684 417.452 249.161C416.191 248.638 414.403 247.384 414.298 245.189C414.088 242.995 414.613 242.263 413.772 241.113C412.931 239.859 412.195 240.277 412.09 241.427C411.985 242.577 411.88 244.667 411.564 244.876C411.144 245.085 410.618 243.622 410.828 241.322C410.934 239.337 411.144 237.874 411.775 236.619C412.405 235.365 412.721 235.365 413.247 235.156C412.721 234.843 412.09 234.843 410.934 233.066C409.672 231.08 410.303 227.945 413.772 227.945C419.765 227.945 426.179 229.094 426.284 233.589C426.284 233.589 428.387 233.275 428.492 237.351C428.597 241.427 425.969 246.235 425.758 247.489C425.548 248.743 425.863 248.847 425.233 249.161Z" fill="#2C1E56"/>
<path d="M407.149 296.611C406.938 298.597 405.151 301.732 406.308 302.255C406.833 302.464 408.831 302.359 411.249 302.15H411.354H411.459C413.667 301.941 416.086 301.732 418.188 301.523C426.494 301.21 430.7 302.777 431.541 302.359C431.962 302.15 431.962 301.419 431.857 300.687C431.541 298.91 431.436 297.029 431.751 295.252C431.962 293.685 432.277 291.908 432.593 289.818C433.959 282.606 436.588 271.633 437.008 264.944C437.639 254.597 426.494 255.538 426.494 255.538C412.3 254.701 405.572 258.777 404.836 264.839C404.73 265.257 404.73 265.78 404.73 266.198C404.415 272.469 406.307 282.606 407.149 290.131C407.359 292.222 407.254 294.625 407.149 296.611Z" fill="#E2C9DC"/>
<path opacity="0.5" d="M407.15 296.61C406.939 298.596 405.152 301.732 406.308 302.254C406.834 302.463 408.832 302.359 411.25 302.15C409.042 302.359 408.622 300.686 409.147 299.537C409.673 298.387 410.619 295.879 410.514 292.848C410.409 289.817 409.252 283.024 408.622 276.649C407.991 270.691 408.516 265.988 408.622 265.361C408.306 265.988 407.255 267.033 404.521 267.66C404.416 273.931 406.203 283.233 407.044 290.235C407.36 292.221 407.255 294.625 407.15 296.61Z" fill="#FFB127"/>
<path d="M370.876 292.742C370.561 292.533 370.876 292.219 371.192 292.219C371.192 292.219 371.297 292.219 371.507 292.219C370.876 292.01 370.456 291.905 370.35 291.801C370.035 291.592 370.35 291.278 370.666 291.278C370.456 291.174 370.245 291.174 370.245 291.069C369.825 290.86 370.245 290.442 370.561 290.547C370.666 290.547 370.876 290.651 371.192 290.651C371.086 290.547 370.876 290.547 370.876 290.547C370.561 290.338 370.771 290.024 371.086 290.024C371.192 290.024 371.402 290.024 371.822 290.129C372.138 290.233 372.558 290.233 372.979 290.338C373.505 290.442 374.03 290.547 374.03 290.547C375.292 290.129 375.923 289.502 375.923 289.502L374.661 288.77C374.661 288.77 374.556 287.725 378.026 288.979C378.551 289.188 378.972 289.92 379.287 289.92C379.603 290.024 380.549 290.024 380.549 290.024V293.055C380.549 293.055 378.867 292.742 378.341 292.951C377.815 293.16 375.818 293.787 375.502 293.787C375.397 293.787 374.766 293.787 374.03 293.682L372.979 293.473L372.033 293.16C372.033 293.264 370.981 292.846 370.876 292.742Z" fill="#ED9C80"/>
<path d="M379.707 293.371C379.707 293.371 385.174 294.626 389.485 295.357C392.85 295.984 396.529 296.507 400.104 296.193H400.209C402.417 296.089 405.361 295.462 405.992 294.521C406.623 293.58 407.99 289.713 407.99 289.713C409.146 287.414 410.829 281.248 412.195 275.918C412.195 275.813 412.195 275.709 412.3 275.709C412.931 273.2 413.562 271.006 413.983 269.438C414.193 268.706 414.193 267.975 413.878 267.348C413.667 266.721 413.247 266.198 412.721 265.885C411.249 264.839 411.67 263.481 410.198 264.421C410.093 264.421 409.146 264.212 409.146 264.212C408.2 261.808 408.831 258.569 408.831 258.569C408.831 258.569 404.52 260.45 402.943 269.229C402.628 271.215 400.42 285.01 400.315 286.683C400.315 286.787 400.315 286.892 400.315 287.101C400.315 287.101 400.209 287.31 400.209 287.623C400.209 287.728 400.209 287.832 400.209 287.937C398.948 287.937 397.476 288.041 396.004 288.355C391.062 289.504 380.128 290.027 380.128 290.027L379.812 292.744L379.707 293.371Z" fill="#E2C9DC"/>
<g opacity="0.1">
<path opacity="0.1" d="M386.225 272.886L394.531 280.829L393.059 275.708L390.115 272.886H386.225Z" fill="#EFEFFF"/>
<path opacity="0.1" d="M395.582 284.905L383.07 272.886H384.647L395.056 282.92L395.582 284.905Z" fill="#EFEFFF"/>
<path opacity="0.1" d="M370.139 272.886L385.069 287.205H386.541L371.611 272.886H370.139Z" fill="#EFEFFF"/>
<path opacity="0.1" d="M365.513 273.618L366.039 275.395L378.235 287.1H382.441L367.511 272.782H366.039C365.829 272.782 365.724 272.886 365.618 272.991C365.513 273.304 365.408 273.409 365.513 273.618Z" fill="#EFEFFF"/>
</g>
<path opacity="0.4" d="M170.688 396.315C190.954 396.315 207.382 395.192 207.382 393.806C207.382 392.421 190.954 391.298 170.688 391.298C150.423 391.298 133.994 392.421 133.994 393.806C133.994 395.192 150.423 396.315 170.688 396.315Z" fill="#B0AFFD"/>
<path d="M149.134 261.599L146.19 272.991C146.19 272.991 157.23 281.456 161.541 277.903C165.852 274.349 161.436 263.48 161.436 263.48L159.859 261.912L149.134 261.599Z" fill="#2C1E56"/>
<path d="M169.637 223.868C169.637 223.868 172.791 227.526 171.74 235.051C171.424 237.246 174.263 240.381 176.261 241.845C178.153 243.412 179.941 247.07 178.469 250.519C176.891 253.968 176.261 254.282 177.522 257.522C179.835 263.583 178.469 274.662 169.742 273.826C161.015 272.885 160.279 243.203 160.279 243.203L160.805 233.275L169.637 223.868Z" fill="#2C1E56"/>
<path d="M166.798 254.387C166.798 254.387 169.952 254.805 173.947 255.327C179.94 256.059 187.931 256.686 189.929 255.641C193.293 253.969 204.228 244.667 204.228 244.667L205.91 243.517C206.225 243.308 206.541 243.204 206.856 243.204C207.172 243.204 207.802 243.099 208.644 242.89C209.064 242.786 209.485 242.577 209.8 242.368C209.905 242.368 209.905 242.263 210.01 242.263C210.746 241.741 211.377 241.218 211.798 240.8C212.534 240.173 211.377 239.755 210.115 240.382C208.854 241.009 209.695 240.905 208.854 240.8C208.013 240.8 208.854 239.546 209.695 238.71C210.326 237.874 210.326 237.874 210.957 236.933C211.587 235.992 212.218 235.261 212.639 234.738C212.849 234.32 212.954 233.798 212.534 233.902C212.008 234.007 209.905 236.097 209.379 236.515C208.854 236.829 208.118 236.201 206.541 237.038C205.069 237.874 204.438 240.277 204.017 241.009C203.597 241.741 188.351 250.624 186.564 250.52C184.672 250.415 170.478 247.071 166.062 247.28C163.644 247.384 166.798 254.387 166.798 254.387Z" fill="#ED9C80"/>
<path opacity="0.3" d="M173.947 255.327C179.94 256.059 187.931 256.686 189.929 255.641C193.293 253.969 204.228 244.667 204.228 244.667L205.91 243.517C206.225 243.308 206.541 243.204 206.856 243.204C207.172 243.204 207.802 243.099 208.644 242.89C209.064 242.786 209.485 242.577 209.8 242.368C208.749 242.89 206.646 242.472 205.7 242.995C204.543 243.517 196.868 249.788 193.398 251.983C189.929 254.178 188.562 254.909 185.513 254.909C182.358 254.909 174.999 253.551 174.999 253.551L173.947 255.327Z" fill="#ED9C80"/>
<path d="M171.108 382.519C171.108 382.519 171.739 385.654 171.529 388.058C171.214 389.731 171.424 390.253 171.424 390.253L177.943 389.835C177.943 389.835 175.104 388.372 175.524 381.683C175.945 375.099 171.108 382.519 171.108 382.519Z" fill="#FFCC99"/>
<path d="M171.529 388.58C171.529 388.58 174.262 389.729 177.101 388.998C180.36 390.565 182.568 391.297 185.617 391.715C188.561 392.133 188.036 394.641 182.884 394.119C177.837 393.596 174.262 393.805 173.106 393.805C171.949 393.91 170.162 394.014 170.057 393.178C170.057 392.342 170.582 388.266 171.529 388.58Z" fill="#3A3A3A"/>
<path d="M151.236 381.894C151.236 381.894 151.867 385.029 151.657 387.433C151.341 389.105 151.552 389.627 151.552 389.627L158.07 389.209C158.07 389.209 155.232 387.746 155.652 381.057C156.073 374.578 151.236 381.894 151.236 381.894Z" fill="#FFCC99"/>
<path d="M151.658 387.953C151.658 387.953 154.391 389.103 157.23 388.371C160.489 389.939 162.697 390.671 165.746 391.089C168.69 391.507 168.165 394.015 163.013 393.492C157.966 392.97 154.391 393.179 153.235 393.179C152.078 393.283 150.291 393.388 150.186 392.552C150.186 391.82 150.711 387.64 151.658 387.953Z" fill="#3A3A3A"/>
<path d="M176.261 289.919C176.261 289.919 179.205 333.397 179.31 339.041C179.415 344.684 179.31 346.67 178.994 350.119C178.679 353.568 179.941 382.622 179.941 382.622C179.941 382.622 170.163 384.817 167.744 382.518C167.744 382.518 169.006 350.955 167.955 345.52C166.903 340.086 162.803 312.599 162.803 312.599L169.111 284.798L176.261 289.919Z" fill="#201D93"/>
<path d="M153.76 341.654C155.022 333.607 154.076 300.685 154.391 293.683C154.706 286.68 174.263 290.861 174.263 290.861C174.263 290.861 166.903 331.412 166.062 337.369C165.115 343.222 164.169 344.894 163.538 350.538C163.013 356.182 159.543 382.623 159.543 382.623C159.543 382.623 148.608 384.087 147.872 382.101C146.4 371.545 153.76 341.654 153.76 341.654Z" fill="#2D24A3"/>
<path d="M172.159 261.493C171.949 262.015 172.369 265.778 173.105 270.481C173.105 270.69 173.211 270.899 173.211 271.108C174.052 276.961 175.313 284.172 176.049 288.666C176.049 288.875 176.154 289.084 176.154 289.293C176.365 290.756 176.575 291.801 176.68 292.533C176.68 292.533 163.643 289.711 153.129 294.101C153.129 294.101 153.97 287.621 156.283 281.559C156.388 281.35 156.388 281.246 156.493 281.037C156.914 279.887 157.44 278.842 157.965 277.797C157.965 277.692 158.07 277.692 158.07 277.588C158.175 277.483 158.175 277.274 158.281 277.17L158.386 277.065C159.017 275.288 158.806 273.094 157.965 270.585C157.229 268.286 156.073 265.987 154.811 263.687C154.075 262.329 153.234 261.075 152.498 259.925C150.29 256.685 148.397 254.386 148.397 254.386C148.397 254.386 147.136 250.101 149.659 246.338C149.975 245.92 150.29 245.502 150.711 245.084C151.867 243.934 154.916 242.576 157.44 241.74C158.07 241.531 158.701 241.322 159.227 241.217C159.647 241.113 160.068 241.008 160.278 241.008C161.75 240.904 162.907 240.904 163.748 241.113C166.482 241.74 167.428 243.516 171.528 244.771L180.36 247.383C180.36 247.383 179.204 254.804 180.045 256.999L173.841 256.79C173.947 256.894 172.79 260.029 172.159 261.493Z" fill="#B83138"/>
<path opacity="0.5" d="M158.281 276.961C159.858 272.572 155.758 265.152 152.288 259.926L156.073 255.954C156.073 255.954 155.968 262.539 157.125 265.047C158.281 267.66 160.174 272.885 158.281 276.961Z" fill="#FFB127"/>
<path opacity="0.5" d="M172.16 250.728C172.16 250.728 174.684 254.909 173.948 256.895C180.151 257.104 180.151 257.104 180.151 257.104C180.151 257.104 179.73 256.163 179.835 254.386C178.784 254.595 175.104 255.536 172.16 250.728Z" fill="#FFB127"/>
<path d="M166.903 289.714L191.506 288.773C192.137 288.773 192.557 288.355 192.663 287.728L196.027 271.215C196.237 270.379 195.607 269.647 194.765 269.647L170.268 270.692C169.637 270.692 169.216 271.11 169.111 271.737L165.747 288.251C165.431 288.982 166.062 289.714 166.903 289.714Z" fill="#2C1E56"/>
<path d="M166.903 289.086L191.296 288.145C191.611 288.145 191.927 287.831 192.032 287.518L195.396 271.214C195.501 270.691 195.081 270.273 194.66 270.273L170.793 271.214C170.268 271.214 169.742 271.632 169.637 272.154L166.272 288.354C166.167 288.772 166.483 289.086 166.903 289.086Z" fill="#5148A5"/>
<path d="M164.905 280.829L164.695 281.769L164.169 281.665L163.854 283.128C163.854 283.128 163.433 283.024 162.697 282.919C161.436 282.71 159.228 282.292 156.179 281.56C154.286 281.142 151.973 280.62 149.45 279.888C146.085 279.052 143.982 277.38 143.877 276.857C143.772 276.126 143.877 274.662 144.193 272.886C144.298 271.945 144.508 271.005 144.613 269.959C145.244 266.301 146.085 262.434 146.401 260.971C146.401 260.867 146.401 260.658 146.506 260.658C146.506 260.553 146.506 260.449 146.506 260.449L147.452 260.867L152.709 262.853L152.394 263.793L149.134 273.095V273.199C149.134 273.513 149.239 273.722 149.555 273.826C152.183 274.767 155.232 276.23 157.966 277.589C160.279 278.738 162.277 279.784 163.433 280.411C163.539 280.515 163.644 280.515 163.644 280.515C163.959 280.62 164.169 280.724 164.485 280.724C164.695 280.829 164.905 280.829 164.905 280.829Z" fill="#ED9C80"/>
<path opacity="0.3" d="M162.802 282.918C161.54 282.709 159.332 282.291 156.283 281.559C154.391 281.141 152.078 280.619 149.554 279.887C146.19 279.051 144.087 277.379 143.982 276.856C143.877 276.125 143.982 274.661 144.297 272.885C144.928 268.704 146.085 262.747 146.505 260.97C146.505 260.866 146.505 260.657 146.61 260.657L147.977 261.284C147.977 261.284 147.977 261.493 147.872 261.911C147.451 263.792 146.19 269.645 145.559 273.094C145.349 274.243 145.243 275.08 145.243 275.498C145.349 277.17 146.295 277.379 147.451 277.901C148.082 278.215 152.603 279.678 156.599 280.932C159.543 281.977 162.276 282.814 162.802 282.918Z" fill="#ED9C80"/>
<path d="M163.434 280.62C163.434 280.62 164.064 280.724 164.38 280.724C164.695 280.724 164.8 280.62 164.8 280.62C164.8 280.62 166.272 279.679 167.429 279.47L167.219 280.515C167.219 280.515 168.901 281.456 169.427 281.769C169.427 281.769 169.952 281.978 170.163 282.083C170.373 282.187 172.371 281.978 172.791 281.978C173.212 281.978 173.527 282.292 173.527 282.501C173.527 282.501 173.527 282.605 173.212 282.71C173.212 282.71 173.001 282.71 172.896 282.71C173.106 282.71 173.317 282.71 173.422 282.71C173.842 282.71 174.158 283.023 174.158 283.232C174.158 283.232 174.158 283.337 173.842 283.441C173.737 283.441 173.422 283.546 173.001 283.546C173.317 283.65 173.527 283.86 173.527 284.069C173.527 284.069 173.527 284.173 173.212 284.278C173.106 284.278 172.791 284.382 172.265 284.382C172.371 284.487 172.476 284.591 172.476 284.8C172.476 284.8 172.476 284.905 172.16 285.009C171.95 285.009 168.48 285.636 168.165 285.532C167.534 285.427 165.116 283.65 165.011 283.546C164.59 283.232 163.959 283.023 163.959 283.023L163.434 280.62Z" fill="#ED9C80"/>
<path d="M156.914 255.535C155.547 260.238 154.916 262.747 154.706 263.687C154.601 264.001 154.601 264.105 154.601 264.105C154.601 264.105 153.76 264.105 152.498 263.896C151.131 263.583 149.449 263.06 147.767 262.015C147.661 261.911 147.556 261.911 147.451 261.806C147.136 261.597 146.82 261.388 146.61 261.075C146.084 260.656 145.664 260.134 145.243 259.507C145.243 259.507 146.61 250.31 149.764 246.338C150.29 245.607 150.921 245.084 151.657 244.771C151.762 244.771 151.867 244.666 151.972 244.666C153.549 244.143 154.916 244.666 155.967 245.92C156.914 247.07 157.439 248.637 157.65 250.623C157.545 252.191 157.334 253.863 156.914 255.535Z" fill="#B83138"/>
<path d="M167.217 238.709C166.061 239.336 164.904 239.545 163.643 239.545C163.643 240.068 163.643 240.591 163.748 241.113C164.063 241.218 164.168 241.218 164.379 241.322C164.799 241.531 164.589 242.367 164.589 242.681C164.379 244.248 162.907 244.876 161.435 244.458C160.068 244.039 159.437 242.472 159.017 241.218C158.806 240.695 157.755 240.172 157.755 239.232C157.755 238.918 157.755 238.605 157.755 238.291C157.124 238.082 156.703 237.873 156.703 237.873C156.703 237.873 156.598 236.306 156.493 234.111C156.493 233.484 156.493 232.857 156.493 232.125C156.493 228.99 156.809 225.436 157.965 223.659C159.332 221.465 163.012 221.778 165.535 222.405C167.112 222.719 168.164 223.241 168.164 223.241C168.164 223.241 171.633 236.41 167.217 238.709Z" fill="#ED9C80"/>
<path d="M163.748 224.809C163.748 224.809 164.169 227.317 162.276 228.885C160.278 230.452 157.019 231.288 156.914 233.274C156.914 234.528 157.86 235.573 157.86 235.573C157.86 235.573 155.652 235.469 155.547 235.364C155.442 235.26 154.391 230.557 154.391 230.557C154.391 230.557 158.807 225.436 159.437 225.122C159.963 224.913 163.748 224.809 163.748 224.809Z" fill="#D8836C"/>
<path d="M165.641 222.405C163.118 221.778 159.438 221.465 158.071 223.66C156.914 225.436 156.599 228.99 156.599 232.125C156.283 232.543 156.178 233.275 156.599 234.111C156.599 236.306 156.809 237.873 156.809 237.873C156.809 237.873 157.125 238.082 157.861 238.291C157.861 238.605 157.861 238.918 157.861 239.232C157.861 240.173 157.966 241.009 157.966 241.636C155.653 242.367 152.919 243.622 151.868 244.667C151.762 244.667 151.657 244.771 151.552 244.771C150.816 245.085 150.185 245.607 149.66 246.339C146.611 250.31 145.139 259.508 145.139 259.508C145.559 260.135 146.085 260.553 146.505 261.075C146.19 262.434 145.349 266.405 144.718 270.063C143.667 269.645 142.51 269.018 141.564 268.182C137.989 265.36 137.253 259.717 139.882 255.954C141.879 253.132 141.774 251.251 141.564 250.624C138.83 242.158 142.615 236.097 147.031 233.484C148.819 232.439 149.975 230.453 149.975 228.258C149.975 225.854 150.396 223.032 152.183 221.047C154.706 218.12 157.65 217.389 160.174 217.702C162.276 218.016 164.8 219.479 165.956 221.36C166.062 221.674 165.956 222.092 165.641 222.405Z" fill="#2C1E56"/>
<path d="M159.753 240.382C159.753 240.695 159.647 241.009 159.542 241.218C159.017 241.322 158.491 241.531 157.86 241.74C157.86 241.218 157.755 240.382 157.755 239.336C157.755 239.023 157.755 238.709 157.755 238.396C157.124 238.187 156.703 237.978 156.703 237.978C156.703 237.978 156.598 236.41 156.493 234.215C156.598 234.529 156.914 234.842 157.229 235.156C157.334 235.051 159.858 237.351 159.753 240.382Z" fill="#2C1E56"/>
<path d="M165.642 222.405C164.801 223.241 163.118 224.182 163.223 225.436C163.329 228.781 159.859 230.244 157.23 231.602C157.02 231.707 156.81 231.916 156.6 232.125C156.6 228.99 156.915 225.436 158.072 223.659C159.438 221.465 163.118 221.778 165.642 222.405Z" fill="#2C1E56"/>
<path d="M170.793 219.06C172.685 220.419 172.685 223.345 170.898 224.809C169.11 226.272 166.061 227.212 161.435 225.018C155.758 222.405 157.229 217.702 160.909 217.806C167.954 219.896 168.585 217.388 170.793 219.06Z" fill="#2C1E56"/>
<path d="M159.543 238.501C159.543 238.501 162.277 246.13 150.081 244.563C139.882 243.309 141.564 257.522 141.564 257.522L145.455 248.952L150.186 242.681L152.709 239.86L159.543 238.501Z" fill="#2C1E56"/>
<path d="M295.896 175.14L283.243 173.986L281.633 186.487L245.759 141.964L260.047 130.608L295.896 175.14Z" fill="#FFC305"/>
<path d="M238.674 187.806L248.11 179.347L256.933 188.398L258.822 131.386L240.538 130.802L238.674 187.806Z" fill="#FFC305"/>
<ellipse rx="32.5707" ry="32.415" transform="matrix(0.949422 -0.314003 0.317404 0.94829 251.328 132.938)" fill="#234492"/>
<path d="M278.929 123.81C283.992 138.939 275.764 155.312 260.506 160.358C245.248 165.405 228.792 157.195 223.728 142.067C218.664 126.938 226.892 110.565 242.15 105.518C257.409 100.472 273.865 108.681 278.929 123.81Z" stroke="#527DE3" stroke-opacity="0.5" stroke-width="7"/>
<path d="M232.422 127.707C232.621 127.641 232.783 127.56 232.905 127.465C233.029 127.367 233.122 127.258 233.181 127.139C233.241 127.02 233.272 126.895 233.273 126.764C233.273 126.63 233.25 126.494 233.204 126.356C233.111 126.079 232.948 125.894 232.714 125.799C232.482 125.703 232.177 125.718 231.798 125.843L231.208 126.038L231.832 127.902L232.422 127.707ZM236.653 130.007L235.325 130.446C235.079 130.527 234.871 130.494 234.703 130.345L233.042 128.867C232.966 128.806 232.893 128.768 232.82 128.754C232.747 128.736 232.654 128.746 232.541 128.784L232.168 128.907L232.946 131.233L231.479 131.718L229.375 125.432L231.433 124.751C231.89 124.6 232.295 124.519 232.648 124.508C233.003 124.493 233.309 124.535 233.568 124.635C233.829 124.734 234.044 124.881 234.213 125.078C234.381 125.275 234.51 125.507 234.6 125.774C234.668 125.978 234.705 126.18 234.711 126.379C234.716 126.579 234.692 126.774 234.637 126.965C234.581 127.152 234.493 127.333 234.375 127.507C234.259 127.679 234.111 127.838 233.932 127.984C234.044 128.001 234.154 128.033 234.263 128.08C234.371 128.124 234.475 128.186 234.575 128.264L236.653 130.007Z" fill="white"/>
<path d="M236.931 124.179L237.422 125.646L239.41 124.988L239.771 126.067L237.783 126.724L238.284 128.221L240.88 127.363L241.255 128.484L237.184 129.831L235.08 123.545L239.151 122.199L239.527 123.32L236.931 124.179Z" fill="white"/>
<path d="M245.751 125.191C245.785 125.18 245.822 125.175 245.862 125.178C245.901 125.178 245.941 125.189 245.983 125.21L246.769 125.626C246.625 126.041 246.389 126.397 246.061 126.694C245.735 126.987 245.31 127.22 244.786 127.393C244.306 127.552 243.848 127.614 243.412 127.58C242.978 127.541 242.58 127.423 242.219 127.227C241.859 127.026 241.543 126.754 241.27 126.409C240.997 126.062 240.783 125.659 240.629 125.198C240.472 124.73 240.405 124.274 240.427 123.832C240.448 123.388 240.55 122.977 240.733 122.6C240.915 122.224 241.174 121.892 241.509 121.606C241.844 121.319 242.244 121.099 242.71 120.945C242.947 120.867 243.177 120.815 243.4 120.789C243.624 120.759 243.84 120.752 244.048 120.766C244.254 120.778 244.451 120.81 244.639 120.863C244.827 120.916 245.001 120.983 245.16 121.064L244.886 121.888C244.868 121.939 244.843 121.989 244.811 122.038C244.778 122.084 244.722 122.12 244.644 122.145C244.592 122.163 244.539 122.167 244.485 122.16C244.431 122.152 244.373 122.141 244.31 122.126C244.247 122.109 244.177 122.092 244.1 122.076C244.026 122.056 243.94 122.044 243.843 122.041C243.748 122.035 243.638 122.039 243.515 122.054C243.394 122.068 243.257 122.101 243.104 122.152C242.861 122.232 242.653 122.35 242.48 122.506C242.31 122.662 242.181 122.85 242.091 123.071C242.003 123.289 241.96 123.536 241.963 123.813C241.968 124.086 242.024 124.383 242.13 124.702C242.238 125.024 242.377 125.296 242.548 125.517C242.721 125.738 242.912 125.91 243.12 126.032C243.331 126.151 243.552 126.222 243.784 126.244C244.017 126.266 244.249 126.239 244.48 126.163C244.613 126.118 244.733 126.073 244.839 126.025C244.944 125.974 245.039 125.918 245.125 125.858C245.21 125.795 245.286 125.725 245.354 125.648C245.421 125.569 245.484 125.476 245.545 125.369C245.57 125.329 245.6 125.294 245.635 125.263C245.669 125.23 245.707 125.206 245.751 125.191Z" fill="white"/>
<path d="M247.468 120.694L247.959 122.161L249.947 121.503L250.308 122.582L248.32 123.239L248.821 124.736L251.416 123.878L251.792 125L247.721 126.346L245.617 120.06L249.688 118.714L250.063 119.836L247.468 120.694Z" fill="white"/>
<path d="M255.524 118.068L253.744 118.656L255.461 123.786L253.994 124.271L252.278 119.142L250.498 119.73L250.111 118.574L255.137 116.912L255.524 118.068Z" fill="white"/>
<path d="M260.813 116.319L259.034 116.907L260.751 122.037L259.284 122.522L257.567 117.392L255.788 117.981L255.401 116.825L260.426 115.162L260.813 116.319Z" fill="white"/>
<path d="M263.023 115.549L263.514 117.016L265.502 116.359L265.863 117.437L263.875 118.095L264.376 119.592L266.971 118.734L267.347 119.855L263.276 121.202L261.172 114.916L265.243 113.569L265.618 114.691L263.023 115.549Z" fill="white"/>
<path d="M249.787 133.55C249.939 134.004 250 134.451 249.97 134.889C249.942 135.323 249.832 135.728 249.64 136.105C249.447 136.479 249.174 136.812 248.822 137.104C248.472 137.392 248.051 137.618 247.559 137.78L245.102 138.593L242.998 132.307L245.455 131.494C245.947 131.332 246.42 131.263 246.875 131.288C247.333 131.312 247.752 131.417 248.132 131.601C248.512 131.785 248.844 132.044 249.13 132.378C249.417 132.708 249.636 133.098 249.787 133.55ZM248.286 134.047C248.182 133.736 248.047 133.469 247.882 133.246C247.718 133.022 247.53 132.85 247.319 132.728C247.109 132.602 246.879 132.53 246.629 132.51C246.377 132.488 246.111 132.523 245.83 132.616L244.849 132.941L246.202 136.983L247.183 136.659C247.464 136.566 247.699 136.437 247.888 136.272C248.076 136.105 248.217 135.91 248.309 135.687C248.404 135.461 248.45 135.209 248.447 134.932C248.444 134.655 248.39 134.36 248.286 134.047Z" fill="white"/>
<path d="M251.453 130.757L251.944 132.223L253.932 131.566L254.293 132.645L252.305 133.302L252.806 134.799L255.401 133.941L255.777 135.062L251.706 136.409L249.602 130.123L253.673 128.777L254.048 129.898L251.453 130.757Z" fill="white"/>
<path d="M258.499 128.599C258.479 128.682 258.45 128.749 258.412 128.8C258.377 128.85 258.322 128.887 258.247 128.912C258.18 128.934 258.101 128.938 258.01 128.923C257.92 128.905 257.817 128.886 257.702 128.867C257.589 128.847 257.464 128.837 257.326 128.838C257.187 128.836 257.038 128.862 256.879 128.914C256.604 129.005 256.418 129.132 256.322 129.295C256.227 129.454 256.213 129.633 256.279 129.831C256.322 129.958 256.397 130.049 256.506 130.106C256.615 130.163 256.745 130.2 256.895 130.217C257.049 130.233 257.218 130.24 257.403 130.236C257.59 130.228 257.782 130.227 257.98 130.232C258.177 130.234 258.373 130.249 258.569 130.277C258.767 130.304 258.953 130.36 259.127 130.447C259.303 130.532 259.463 130.655 259.607 130.815C259.75 130.972 259.865 131.182 259.952 131.444C260.05 131.734 260.09 132.023 260.073 132.309C260.057 132.596 259.983 132.866 259.853 133.12C259.725 133.37 259.537 133.597 259.29 133.8C259.045 133.999 258.743 134.158 258.384 134.277C258.188 134.342 257.98 134.388 257.761 134.416C257.545 134.442 257.329 134.451 257.114 134.443C256.898 134.431 256.689 134.403 256.488 134.358C256.286 134.312 256.103 134.249 255.937 134.166L256.143 133.341C256.161 133.28 256.193 133.225 256.237 133.176C256.283 133.122 256.34 133.084 256.406 133.062C256.493 133.033 256.589 133.032 256.694 133.058C256.802 133.083 256.922 133.11 257.054 133.14C257.189 133.169 257.338 133.187 257.501 133.193C257.664 133.2 257.844 133.171 258.041 133.106C258.307 133.018 258.495 132.892 258.604 132.728C258.712 132.561 258.723 132.352 258.639 132.098C258.59 131.952 258.509 131.846 258.397 131.781C258.285 131.715 258.153 131.675 258 131.658C257.849 131.641 257.682 131.637 257.499 131.646C257.316 131.656 257.127 131.662 256.932 131.666C256.736 131.667 256.541 131.655 256.346 131.63C256.151 131.602 255.964 131.544 255.787 131.456C255.611 131.364 255.45 131.232 255.302 131.06C255.154 130.885 255.031 130.651 254.932 130.358C254.853 130.122 254.824 129.876 254.845 129.62C254.865 129.365 254.938 129.118 255.065 128.882C255.191 128.645 255.372 128.43 255.606 128.238C255.84 128.042 256.13 127.887 256.477 127.772C256.671 127.708 256.864 127.662 257.057 127.633C257.252 127.601 257.442 127.587 257.627 127.593C257.811 127.596 257.988 127.616 258.158 127.653C258.33 127.685 258.489 127.735 258.637 127.801L258.499 128.599Z" fill="white"/>
<path d="M235.098 147.546L235.63 149.138L237.792 148.423L238.169 149.549L236.007 150.264L236.826 152.71L235.35 153.198L233.246 146.913L237.317 145.566L237.693 146.688L235.098 147.546Z" fill="white"/>
<path d="M241.743 151.084L240.267 151.572L238.163 145.287L239.639 144.799L241.743 151.084Z" fill="white"/>
<path d="M246.379 142.569L248.483 148.855L247.719 149.108C247.606 149.145 247.505 149.159 247.416 149.151C247.328 149.138 247.231 149.1 247.126 149.035L242.89 146.273C242.939 146.381 242.983 146.488 243.021 146.593C243.062 146.695 243.097 146.792 243.128 146.884L244.256 150.253L242.963 150.681L240.859 144.395L241.631 144.14C241.695 144.119 241.749 144.104 241.795 144.095C241.84 144.087 241.883 144.085 241.923 144.091C241.963 144.094 242.003 144.104 242.045 144.123C242.086 144.141 242.135 144.168 242.192 144.203L246.464 146.983C246.409 146.867 246.36 146.754 246.316 146.644C246.272 146.531 246.233 146.424 246.199 146.323L245.086 142.997L246.379 142.569Z" fill="white"/>
<path d="M252.248 144.941L251.086 143.413C251.006 143.318 250.916 143.206 250.818 143.075C250.719 142.942 250.616 142.797 250.509 142.641C250.524 142.831 250.532 143.009 250.533 143.174C250.534 143.34 250.531 143.485 250.524 143.609L250.516 145.514L252.248 144.941ZM255.383 146.573L254.246 146.949C254.118 146.991 254.006 146.997 253.908 146.965C253.81 146.93 253.725 146.874 253.654 146.795L252.914 145.823L250.51 146.618L250.503 147.837C250.498 147.928 250.465 148.021 250.403 148.115C250.343 148.205 250.253 148.27 250.131 148.31L248.985 148.689L249.329 141.594L250.831 141.097L255.383 146.573Z" fill="white"/>
<path d="M259.298 138.297L261.402 144.583L260.638 144.835C260.525 144.872 260.424 144.887 260.334 144.878C260.246 144.866 260.15 144.827 260.045 144.763L255.808 142C255.858 142.108 255.901 142.215 255.94 142.321C255.98 142.422 256.016 142.519 256.047 142.611L257.175 145.981L255.881 146.408L253.777 140.123L254.55 139.867C254.613 139.846 254.668 139.831 254.713 139.823C254.759 139.814 254.802 139.813 254.842 139.818C254.882 139.821 254.922 139.832 254.963 139.85C255.005 139.868 255.054 139.895 255.111 139.931L259.382 142.711C259.327 142.595 259.278 142.482 259.235 142.371C259.191 142.258 259.152 142.151 259.118 142.051L258.005 138.724L259.298 138.297Z" fill="white"/>
<path d="M266.346 141.141C266.381 141.129 266.418 141.125 266.458 141.128C266.496 141.128 266.537 141.138 266.579 141.16L267.364 141.575C267.22 141.99 266.984 142.346 266.656 142.643C266.33 142.937 265.905 143.17 265.382 143.343C264.901 143.502 264.443 143.564 264.008 143.529C263.574 143.49 263.176 143.373 262.814 143.176C262.455 142.976 262.139 142.703 261.866 142.359C261.592 142.012 261.379 141.608 261.224 141.148C261.068 140.679 261 140.224 261.023 139.782C261.044 139.337 261.146 138.926 261.329 138.55C261.511 138.173 261.77 137.842 262.104 137.555C262.439 137.269 262.84 137.049 263.305 136.895C263.543 136.816 263.773 136.764 263.995 136.738C264.22 136.709 264.436 136.701 264.643 136.716C264.85 136.727 265.047 136.759 265.235 136.812C265.423 136.865 265.597 136.932 265.756 137.014L265.482 137.838C265.463 137.888 265.438 137.938 265.406 137.987C265.374 138.033 265.318 138.069 265.24 138.095C265.188 138.112 265.135 138.117 265.081 138.109C265.027 138.101 264.969 138.09 264.906 138.076C264.842 138.059 264.772 138.042 264.696 138.025C264.622 138.005 264.536 137.994 264.439 137.991C264.343 137.984 264.234 137.988 264.11 138.004C263.99 138.018 263.853 138.05 263.7 138.101C263.457 138.182 263.249 138.3 263.076 138.456C262.906 138.611 262.776 138.799 262.687 139.021C262.599 139.238 262.556 139.486 262.559 139.763C262.564 140.036 262.619 140.332 262.726 140.651C262.834 140.973 262.973 141.245 263.144 141.467C263.317 141.687 263.508 141.859 263.716 141.982C263.926 142.101 264.148 142.171 264.38 142.194C264.612 142.216 264.844 142.189 265.076 142.112C265.209 142.068 265.329 142.022 265.435 141.974C265.54 141.923 265.635 141.868 265.721 141.807C265.806 141.744 265.882 141.674 265.95 141.598C266.016 141.518 266.08 141.425 266.141 141.319C266.166 141.279 266.196 141.243 266.231 141.213C266.264 141.179 266.303 141.155 266.346 141.141Z" fill="white"/>
<path d="M268.064 136.643L268.555 138.11L270.543 137.453L270.904 138.531L268.916 139.189L269.417 140.686L272.012 139.827L272.388 140.949L268.317 142.296L266.213 136.01L270.284 134.663L270.659 135.785L268.064 136.643Z" fill="white"/>
<path d="M275.11 134.486C275.09 134.569 275.061 134.636 275.023 134.687C274.988 134.737 274.933 134.774 274.858 134.799C274.791 134.821 274.712 134.825 274.621 134.81C274.531 134.792 274.428 134.773 274.313 134.754C274.2 134.734 274.075 134.724 273.937 134.725C273.798 134.723 273.649 134.748 273.49 134.801C273.215 134.892 273.029 135.019 272.933 135.182C272.838 135.341 272.824 135.52 272.89 135.718C272.933 135.845 273.008 135.936 273.117 135.993C273.226 136.049 273.356 136.086 273.506 136.104C273.66 136.12 273.829 136.126 274.014 136.123C274.201 136.115 274.393 136.114 274.591 136.119C274.788 136.121 274.984 136.136 275.18 136.164C275.378 136.19 275.564 136.247 275.738 136.334C275.914 136.419 276.074 136.542 276.218 136.702C276.361 136.859 276.476 137.069 276.563 137.33C276.661 137.621 276.701 137.909 276.684 138.196C276.668 138.483 276.594 138.753 276.464 139.007C276.336 139.257 276.148 139.483 275.901 139.687C275.656 139.886 275.354 140.045 274.995 140.163C274.799 140.228 274.591 140.275 274.372 140.303C274.156 140.329 273.94 140.338 273.725 140.329C273.509 140.318 273.3 140.289 273.099 140.244C272.897 140.199 272.714 140.135 272.548 140.053L272.754 139.228C272.772 139.167 272.804 139.112 272.848 139.062C272.894 139.009 272.951 138.971 273.017 138.949C273.104 138.92 273.2 138.919 273.305 138.945C273.413 138.97 273.533 138.997 273.665 139.027C273.8 139.056 273.949 139.073 274.112 139.08C274.275 139.087 274.455 139.058 274.652 138.993C274.918 138.905 275.105 138.779 275.215 138.615C275.323 138.448 275.334 138.238 275.25 137.985C275.201 137.839 275.12 137.733 275.008 137.667C274.896 137.602 274.764 137.561 274.611 137.545C274.46 137.528 274.293 137.524 274.11 137.533C273.927 137.543 273.738 137.549 273.543 137.553C273.347 137.554 273.152 137.542 272.957 137.517C272.762 137.489 272.575 137.431 272.398 137.342C272.222 137.25 272.061 137.118 271.913 136.947C271.765 136.772 271.642 136.538 271.543 136.245C271.464 136.009 271.435 135.763 271.456 135.507C271.476 135.251 271.549 135.005 271.676 134.768C271.802 134.532 271.983 134.317 272.217 134.125C272.451 133.929 272.741 133.774 273.088 133.659C273.282 133.595 273.475 133.549 273.668 133.52C273.863 133.488 274.053 133.474 274.238 133.48C274.422 133.483 274.599 133.503 274.769 133.539C274.941 133.572 275.1 133.621 275.248 133.688L275.11 134.486Z" fill="white"/>
</svg>
