<svg width="620" height="440" viewBox="0 0 620 440" fill="none" xmlns="http://www.w3.org/2000/svg">
<path d="M473.382 269.592C453.352 292.252 444.088 324.675 448.845 354.596C448.97 354.971 449.596 354.846 449.596 354.47C445.966 324.425 453.602 293.003 473.632 269.843C473.883 269.718 473.507 269.467 473.382 269.592Z" fill="#D6F2ED"/>
<path d="M549.371 388.02C549.246 385.516 548.244 383.013 546.116 380.759C542.861 377.504 538.354 376.002 533.847 375.001C530.342 374.249 526.712 373.874 523.081 373.874C518.449 373.749 513.692 374.249 509.06 373.749C504.428 373.248 499.671 371.621 496.666 367.99C493.912 364.86 492.911 360.354 493.286 356.222C493.537 353.218 494.538 350.213 495.79 347.584C496.792 345.331 498.544 343.703 499.17 341.2C501.924 331.31 495.79 327.679 486.651 329.056C478.89 330.308 471.253 334.69 466.621 341.2C462.239 347.334 461.488 356.097 453.852 359.602C447.843 362.357 440.331 359.477 436.2 354.219C432.069 348.961 430.817 342.076 430.817 335.441C430.817 316.663 439.33 298.761 440.832 279.982C441.083 275.851 441.083 271.72 439.58 267.839C431.318 246.056 405.905 250.062 390.882 260.954C380.616 268.465 371.728 277.854 364.968 288.495C355.954 302.767 347.441 321.42 330.666 323.173C317.396 324.55 305.378 313.157 301.497 300.388C297.742 288.245 299.369 274.349 292.984 263.458C286.099 251.565 269.825 247.308 257.306 252.065C241.031 258.325 234.396 274.349 235.773 290.749C236.274 296.257 236.65 301.765 237.15 307.274C237.651 312.406 239.654 318.165 237.276 323.047C234.146 329.557 224.631 331.936 218.122 331.56C212.613 331.31 207.23 328.806 203.725 324.55C198.968 318.541 198.717 310.153 195.713 303.017C192.082 294.379 183.82 287.744 174.556 285.992C172.303 285.616 169.799 285.491 167.796 286.617C164.916 288.245 163.915 291.75 163.915 295.005C163.79 303.893 168.672 311.53 172.803 319.041C176.183 325.176 182.443 335.316 177.06 341.826C175.683 343.453 173.68 344.58 171.551 345.081C166.419 346.458 160.91 344.705 156.028 342.577C147.766 338.946 140.004 334.314 131.992 330.308C123.855 326.427 115.217 323.173 106.203 323.047C97.1895 322.922 87.8003 326.177 82.1668 333.188C81.1653 334.565 80.1638 336.067 80.0386 337.694C79.6631 341.575 83.1683 344.705 86.5484 346.708C96.3131 352.592 107.455 355.722 118.221 359.728C123.604 361.731 129.113 364.109 132.493 368.616C133.244 369.617 133.87 370.869 133.244 371.871C132.493 373.248 130.615 373.123 129.238 372.747C120.6 370.619 112.462 366.989 103.699 365.361C94.9361 363.734 85.1714 364.61 78.5364 370.494C75.657 372.998 73.5288 376.753 74.1548 380.509C75.1563 386.643 83.4187 390.148 88.4263 392.652C95.6872 396.283 105.327 396.658 113.214 397.159C131.867 398.536 150.395 397.034 169.048 397.034C201.722 397.034 234.521 397.034 267.196 397.034C333.671 397.034 400.146 397.034 466.496 397.034C492.535 397.034 518.7 397.034 544.739 397.034C547.743 394.655 549.371 391.4 549.371 388.02Z" fill="#D6F2ED"/>
<path d="M120.225 277.729H92.0576C87.4256 277.729 83.6699 273.973 83.6699 269.341V219.641C83.6699 215.009 87.4256 211.254 92.0576 211.254H120.225C124.857 211.254 128.613 215.009 128.613 219.641V269.341C128.613 273.973 124.857 277.729 120.225 277.729Z" stroke="#BDE5CF" stroke-miterlimit="10"/>
<path d="M262.564 96.9578C263.315 93.5777 263.816 90.1976 263.816 86.5671C263.816 82.9367 263.44 79.5566 262.564 76.1765L253.175 77.5536C252.424 74.4239 251.172 71.5445 249.544 68.9156L257.181 63.2821C253.55 57.273 248.418 52.2655 242.534 48.635L236.9 56.2715C234.271 54.7692 231.267 53.5174 228.262 52.641L229.639 43.2519C226.259 42.5008 222.879 42 219.249 42C215.618 42 212.238 42.3756 208.858 43.2519L210.235 52.641C207.105 53.3922 204.226 54.644 201.597 56.2715L195.964 48.635C189.955 52.2655 184.947 57.3982 181.317 63.2821L188.953 68.9156C187.451 71.5445 186.199 74.549 185.323 77.5536L175.934 76.1765C175.182 79.5566 174.682 82.9367 174.682 86.5671C174.682 90.1976 175.057 93.5777 175.934 96.9578L185.323 95.5807C186.074 98.7104 187.326 101.59 188.953 104.219L181.317 109.852C184.947 115.861 190.08 120.869 195.964 124.499L201.597 116.863C204.226 118.365 207.231 119.617 210.235 120.493L208.858 129.882C212.238 130.634 215.618 131.134 219.249 131.134C222.879 131.134 226.259 130.759 229.639 129.882L228.262 120.493C231.392 119.742 234.271 118.49 236.9 116.863L242.534 124.499C248.543 120.869 253.55 115.736 257.181 109.852L249.544 104.219C251.047 101.59 252.299 98.5853 253.175 95.5807L262.564 96.9578ZM219.249 108.1C207.356 108.1 197.716 98.4601 197.716 86.5671C197.716 74.6742 207.356 65.0347 219.249 65.0347C231.142 65.0347 240.781 74.6742 240.781 86.5671C240.781 98.4601 231.142 108.1 219.249 108.1Z" fill="#D6F2E9"/>
<path d="M288.98 149.912C288.98 148.035 288.855 146.032 288.479 144.029C288.104 142.026 287.352 140.148 286.601 138.52L281.594 140.398C280.843 138.771 279.716 137.394 278.589 136.016L282.095 132.01C279.34 129.131 275.96 127.003 272.33 125.626L270.076 130.508C268.449 130.007 266.696 129.632 264.944 129.507L264.568 124.124C262.69 124.124 260.687 124.249 258.684 124.624C256.681 125 254.803 125.751 253.176 126.502L255.054 131.51C253.426 132.261 252.049 133.387 250.672 134.514L246.666 131.009C243.787 133.763 241.659 137.143 240.282 140.774L245.164 143.027C244.663 144.654 244.288 146.407 244.162 148.16L238.779 148.535C238.779 150.413 238.904 152.416 239.28 154.419C239.656 156.422 240.407 158.3 241.158 159.927L246.165 158.05C246.917 159.677 248.043 161.054 249.17 162.431L245.665 166.437C248.419 169.317 251.799 171.445 255.429 172.822L257.683 167.94C259.31 168.44 261.063 168.816 262.816 168.941L263.191 174.324C265.069 174.324 267.072 174.199 269.075 173.823C271.078 173.448 272.956 172.697 274.583 171.946L272.705 166.938C274.333 166.187 275.71 165.06 277.087 163.934L281.093 167.439C283.972 164.685 286.101 161.305 287.478 157.674L282.595 155.421C283.096 153.793 283.472 152.041 283.597 150.288L288.98 149.912ZM266.446 161.179C259.936 162.556 253.426 158.425 252.049 151.915C250.672 145.406 254.803 138.896 261.313 137.519C267.823 136.142 274.333 140.273 275.71 146.783C277.087 153.292 272.956 159.802 266.446 161.179Z" fill="#D6F2E9"/>
<path d="M432.946 90.1988C432.946 88.9469 432.821 87.695 432.57 86.4431C432.32 85.1912 431.819 83.9393 431.318 82.8127L428.064 84.0645C427.563 83.063 426.937 82.0615 426.186 81.3104L428.439 78.6814C426.687 76.8036 424.558 75.4265 422.18 74.6754L420.803 77.8051C419.676 77.4295 418.674 77.3044 417.423 77.1792L417.172 73.7991C415.92 73.7991 414.668 73.9243 413.417 74.1746C412.165 74.425 410.913 74.9258 409.786 75.4265L411.038 78.6814C410.036 79.1822 409.035 79.8081 408.284 80.5593L405.655 78.3059C403.777 80.0585 402.4 82.1867 401.649 84.5653L404.779 85.9424C404.403 87.0691 404.278 88.0706 404.153 89.3225L400.772 89.5728C400.772 90.8247 400.898 92.0766 401.148 93.3285C401.398 94.5804 401.899 95.8323 402.4 96.959L405.655 95.7071C406.156 96.7086 406.782 97.7101 407.533 98.4612L405.279 101.09C407.032 102.968 409.16 104.345 411.539 105.096L412.916 101.967C414.042 102.342 415.044 102.467 416.296 102.592L416.546 105.973C417.798 105.973 419.05 105.847 420.302 105.597C421.554 105.347 422.806 104.846 423.932 104.345L422.68 101.09C423.682 100.589 424.684 99.9635 425.435 99.2124L428.064 101.466C429.941 99.7131 431.318 97.5849 432.07 95.2063L428.94 93.8293C429.315 92.7026 429.441 91.701 429.566 90.4492L432.946 90.1988ZM418.549 97.4597C414.418 98.336 410.287 95.7071 409.285 91.4507C408.409 87.3194 411.038 83.1882 415.294 82.1867C419.426 81.3104 423.557 83.9394 424.558 88.1958C425.309 92.327 422.68 96.4582 418.549 97.4597Z" fill="#D6F2E9"/>
<path d="M106.079 203.618C106.079 202.367 105.954 201.115 105.703 199.863C105.453 198.611 104.952 197.359 104.451 196.232L101.196 197.484C100.696 196.483 100.07 195.481 99.3186 194.73L101.572 192.101C99.8193 190.223 97.6911 188.846 95.3125 188.095L93.9355 191.225C92.8088 190.849 91.8072 190.724 90.5554 190.599L90.305 187.219C89.0531 187.219 87.8012 187.344 86.5493 187.594C85.2974 187.845 84.0456 188.345 82.9189 188.846L84.1707 192.101C83.1692 192.602 82.1677 193.228 81.4166 193.979L78.7876 191.726C76.9098 193.478 75.5327 195.606 74.7816 197.985L77.9113 199.362C77.5357 200.489 77.4106 201.49 77.2854 202.742L73.9053 202.993C73.9053 204.244 74.0305 205.496 74.2808 206.748C74.5312 208 75.032 209.252 75.5327 210.379L78.7876 209.127C79.2884 210.128 79.9143 211.13 80.6655 211.881L78.4121 214.51C80.1647 216.388 82.2929 217.765 84.6715 218.516L86.0486 215.386C87.1753 215.762 88.1768 215.887 89.4287 216.012L89.679 219.392C90.9309 219.392 92.1828 219.267 93.4347 219.017C94.6866 218.766 95.9385 218.266 97.0652 217.765L95.8133 214.51C96.8148 214.009 97.8163 213.383 98.5674 212.632L101.196 214.885C103.074 213.133 104.451 211.005 105.202 208.626L102.073 207.249C102.448 206.122 102.573 205.121 102.699 203.869L106.079 203.618ZM91.6821 210.754C87.5508 211.631 83.4196 209.002 82.4181 204.745C81.5418 200.614 84.1707 196.483 88.4272 195.481C92.5584 194.605 96.6896 197.234 97.6911 201.49C98.5674 205.747 95.8133 209.878 91.6821 210.754Z" fill="#D6F2E9"/>
<path d="M200.847 218.142H119.599C115.719 218.142 112.589 215.012 112.589 211.131V156.424C112.589 152.543 115.719 149.413 119.599 149.413H200.847C204.728 149.413 207.857 152.543 207.857 156.424V211.131C207.983 215.012 204.853 218.142 200.847 218.142Z" fill="white" stroke="#BDE5CF" stroke-miterlimit="10"/>
<path d="M200.847 149.413H119.599C115.719 149.413 112.589 152.543 112.589 156.424V160.43H207.983V156.424C207.983 152.543 204.853 149.413 200.847 149.413Z" fill="#AAE2D3"/>
<path d="M134.245 170.568H119.723V185.09H134.245V170.568Z" stroke="#BDE5CF" stroke-miterlimit="10"/>
<path d="M155.651 170.568H141.129V185.09H155.651V170.568Z" stroke="#BDE5CF" stroke-miterlimit="10"/>
<path d="M177.058 170.568H162.536V185.09H177.058V170.568Z" stroke="#BDE5CF" stroke-miterlimit="10"/>
<path d="M198.34 170.568H183.818V185.09H198.34V170.568Z" stroke="#BDE5CF" stroke-miterlimit="10"/>
<path d="M134.245 191.475H119.723V205.997H134.245V191.475Z" stroke="#BDE5CF" stroke-miterlimit="10"/>
<path d="M155.651 191.475H141.129V205.997H155.651V191.475Z" stroke="#BDE5CF" stroke-miterlimit="10"/>
<path d="M177.058 191.475H162.536V205.997H177.058V191.475Z" stroke="#BDE5CF" stroke-miterlimit="10"/>
<path d="M198.34 191.475H183.818V205.997H198.34V191.475Z" stroke="#BDE5CF" stroke-miterlimit="10"/>
<path d="M120.976 175.451C120.976 175.451 124.23 178.831 126.234 182.586C129.113 177.454 134.246 171.57 134.246 171.57C134.246 171.57 129.113 173.948 126.234 179.206C123.98 176.953 120.976 175.451 120.976 175.451Z" fill="#37BD9C"/>
<path d="M163.665 194.606C163.665 194.606 166.92 197.986 168.923 201.742C171.802 196.609 176.935 190.725 176.935 190.725C176.935 190.725 171.802 193.104 168.923 198.362C166.67 196.108 163.665 194.606 163.665 194.606Z" fill="#37BD9C"/>
<path d="M340.055 159.301V126.502C340.055 121.119 344.436 116.737 349.819 116.737H407.657C413.04 116.737 417.421 121.119 417.421 126.502V159.301C417.421 164.684 413.04 169.066 407.657 169.066H349.819C344.436 169.066 340.055 164.684 340.055 159.301Z" stroke="#BDE5CF" stroke-miterlimit="10"/>
<path d="M494.79 290.25H447.344C439.582 290.25 433.197 283.866 433.197 276.104V192.353C433.197 184.591 439.582 178.207 447.344 178.207H494.79C502.552 178.207 508.936 184.591 508.936 192.353V276.104C508.936 283.866 502.552 290.25 494.79 290.25Z" stroke="#BDE5CF" stroke-miterlimit="10"/>
<path d="M541.86 321.922H509.061C503.677 321.922 499.296 317.541 499.296 312.158V254.32C499.296 248.937 503.677 244.556 509.061 244.556H541.86C547.243 244.556 551.625 248.937 551.625 254.32V312.158C551.625 317.541 547.243 321.922 541.86 321.922Z" stroke="#EDF9F4" stroke-miterlimit="10"/>
<path d="M350.197 142.401C370.04 142.401 386.126 126.315 386.126 106.472C386.126 86.6292 370.04 70.5432 350.197 70.5432C330.354 70.5432 314.268 86.6292 314.268 106.472C314.268 126.315 330.354 142.401 350.197 142.401Z" fill="#D6F2E9"/>
<path d="M350.197 136.893C366.998 136.893 380.618 123.273 380.618 106.472C380.618 89.6709 366.998 76.051 350.197 76.051C333.396 76.051 319.776 89.6709 319.776 106.472C319.776 123.273 333.396 136.893 350.197 136.893Z" stroke="white" stroke-width="2" stroke-miterlimit="10"/>
<path d="M350.195 81.6836C350.817 81.6836 351.322 81.1791 351.322 80.5569C351.322 79.9346 350.817 79.4302 350.195 79.4302C349.573 79.4302 349.068 79.9346 349.068 80.5569C349.068 81.1791 349.573 81.6836 350.195 81.6836Z" fill="white"/>
<path d="M350.196 133.387C350.818 133.387 351.323 132.883 351.323 132.261C351.323 131.638 350.818 131.134 350.196 131.134C349.574 131.134 349.069 131.638 349.069 132.261C349.069 132.883 349.574 133.387 350.196 133.387Z" fill="white"/>
<path d="M375.986 107.595C376.608 107.595 377.113 107.091 377.113 106.468C377.113 105.846 376.608 105.342 375.986 105.342C375.364 105.342 374.859 105.846 374.859 106.468C374.859 107.091 375.364 107.595 375.986 107.595Z" fill="white"/>
<path d="M324.283 107.595C324.905 107.595 325.41 107.091 325.41 106.468C325.41 105.846 324.905 105.342 324.283 105.342C323.661 105.342 323.156 105.846 323.156 106.468C323.156 107.091 323.661 107.595 324.283 107.595Z" fill="white"/>
<path d="M337.803 85.6899C337.553 85.6899 337.302 85.5647 337.177 85.3143L336.05 83.3113C335.925 82.9357 335.925 82.5602 336.301 82.435C336.676 82.3098 337.052 82.3098 337.177 82.6854L338.304 84.6884C338.429 85.0639 338.429 85.4395 338.053 85.5647C338.053 85.6899 337.928 85.6899 337.803 85.6899Z" fill="white"/>
<path d="M363.718 130.509C363.468 130.509 363.217 130.384 363.092 130.133L361.965 128.13C361.84 127.755 361.84 127.379 362.216 127.254C362.591 127.129 362.967 127.129 363.092 127.504L364.219 129.507C364.344 129.883 364.344 130.258 363.969 130.384C363.969 130.509 363.843 130.509 363.718 130.509Z" fill="white"/>
<path d="M328.789 94.7044C328.664 94.7044 328.538 94.7044 328.413 94.5792L326.41 93.4525C326.035 93.3274 326.035 92.8266 326.16 92.5762C326.285 92.2007 326.786 92.2007 327.036 92.3258L329.039 93.4525C329.415 93.5777 329.415 94.0785 329.29 94.3289C329.29 94.5792 329.039 94.7044 328.789 94.7044Z" fill="white"/>
<path d="M373.607 120.618C373.482 120.618 373.357 120.618 373.232 120.493L371.229 119.366C370.853 119.241 370.853 118.74 370.978 118.49C371.103 118.114 371.604 118.114 371.855 118.24L373.858 119.366C374.233 119.492 374.233 119.992 374.108 120.243C373.983 120.493 373.858 120.618 373.607 120.618Z" fill="white"/>
<path d="M371.603 94.7044C371.353 94.7044 371.102 94.5792 370.977 94.3289C370.852 93.9533 370.852 93.5777 371.228 93.4525L373.231 92.3258C373.606 92.2007 373.982 92.2007 374.107 92.5762C374.232 92.9518 374.232 93.3274 373.857 93.4525L371.854 94.5792C371.854 94.7044 371.728 94.7044 371.603 94.7044Z" fill="white"/>
<path d="M326.786 120.618C326.535 120.618 326.285 120.493 326.16 120.242C326.035 119.867 326.035 119.491 326.41 119.366L328.413 118.239C328.789 118.114 329.164 118.114 329.29 118.49C329.415 118.865 329.415 119.241 329.039 119.366L327.036 120.493C327.036 120.618 326.911 120.618 326.786 120.618Z" fill="white"/>
<path d="M362.465 85.6877C362.34 85.6877 362.215 85.6877 362.09 85.5625C361.714 85.4373 361.714 84.9366 361.84 84.6862L362.966 82.6832C363.091 82.3076 363.592 82.3076 363.843 82.4328C364.218 82.558 364.218 83.0587 364.093 83.3091L362.966 85.3121C362.966 85.5625 362.716 85.6877 362.465 85.6877Z" fill="white"/>
<path d="M336.677 130.506C336.552 130.506 336.427 130.506 336.302 130.381C335.926 130.256 335.926 129.755 336.051 129.505L337.178 127.502C337.303 127.126 337.804 127.126 338.054 127.251C338.43 127.376 338.43 127.877 338.305 128.127L337.178 130.13C337.178 130.381 336.928 130.506 336.677 130.506Z" fill="white"/>
<path d="M351.448 107.723L337.052 119.491L348.819 105.095C349.445 104.343 350.697 104.218 351.448 104.844C352.2 105.47 352.325 106.722 351.699 107.473C351.699 107.598 351.574 107.723 351.448 107.723Z" fill="white"/>
<path d="M348.443 106.722L342.685 81.1833L352.074 105.595C352.449 106.597 351.949 107.598 350.947 107.974C349.945 108.349 348.944 107.849 348.568 106.847C348.568 106.972 348.568 106.847 348.443 106.722Z" fill="white"/>
<path d="M321.029 186.841H271.079V213.256H321.029V186.841Z" fill="#0C3656"/>
<path d="M321.279 196.229H270.828C268.074 196.229 265.82 193.976 265.82 191.222V169.314C265.82 166.56 268.074 164.306 270.828 164.306H321.279C324.033 164.306 326.286 166.56 326.286 169.314V191.222C326.412 193.976 324.158 196.229 321.279 196.229Z" fill="#37BD9C"/>
<path d="M273.581 164.307V196.23" stroke="#21A582" stroke-width="2" stroke-miterlimit="10"/>
<path d="M282.595 164.307V196.23" stroke="#21A582" stroke-width="2" stroke-miterlimit="10"/>
<path d="M291.608 164.307V196.23" stroke="#21A582" stroke-width="2" stroke-miterlimit="10"/>
<path d="M300.621 164.307V196.23" stroke="#21A582" stroke-width="2" stroke-miterlimit="10"/>
<path d="M309.635 164.307V196.23" stroke="#21A582" stroke-width="2" stroke-miterlimit="10"/>
<path d="M318.525 164.307V196.23" stroke="#21A582" stroke-width="2" stroke-miterlimit="10"/>
<path d="M376.863 234.787L353.578 211.502C352.827 210.751 351.575 210.751 350.824 211.502L338.055 224.271C337.303 225.022 337.303 226.274 338.055 227.025L361.34 250.311C362.091 251.062 363.343 251.062 364.094 250.311L376.863 237.541C377.614 236.79 377.614 235.538 376.863 234.787Z" fill="#37BD9C"/>
<path d="M215.37 234.787L238.655 211.502C239.406 210.751 240.658 210.751 241.409 211.502L254.178 224.271C254.93 225.022 254.93 226.274 254.178 227.025L230.893 250.31C230.142 251.061 228.89 251.061 228.139 250.31L215.37 237.541C214.619 236.79 214.619 235.538 215.37 234.787Z" fill="#37BD9C"/>
<path d="M296.116 398.033C349.63 398.033 393.012 354.651 393.012 301.137C393.012 247.623 349.63 204.241 296.116 204.241C242.602 204.241 199.22 247.623 199.22 301.137C199.22 354.651 242.602 398.033 296.116 398.033Z" fill="#F75959"/>
<path d="M296.116 386.142C343.062 386.142 381.119 348.085 381.119 301.139C381.119 254.193 343.062 216.136 296.116 216.136C249.17 216.136 211.113 254.193 211.113 301.139C211.113 348.085 249.17 386.142 296.116 386.142Z" fill="#0C3656"/>
<path d="M296.116 382.135C340.85 382.135 377.113 345.871 377.113 301.138C377.113 256.404 340.85 220.141 296.116 220.141C251.383 220.141 215.119 256.404 215.119 301.138C215.119 345.871 251.383 382.135 296.116 382.135Z" fill="#FFFCE3"/>
<path d="M296.114 231.535C297.912 231.535 299.369 230.078 299.369 228.281C299.369 226.483 297.912 225.026 296.114 225.026C294.317 225.026 292.859 226.483 292.859 228.281C292.859 230.078 294.317 231.535 296.114 231.535Z" fill="#F75959"/>
<path d="M296.114 377.128C297.912 377.128 299.369 375.67 299.369 373.873C299.369 372.075 297.912 370.618 296.114 370.618C294.317 370.618 292.859 372.075 292.859 373.873C292.859 375.67 294.317 377.128 296.114 377.128Z" fill="#F75959"/>
<path d="M368.851 304.392C370.648 304.392 372.106 302.935 372.106 301.137C372.106 299.34 370.648 297.883 368.851 297.883C367.053 297.883 365.596 299.34 365.596 301.137C365.596 302.935 367.053 304.392 368.851 304.392Z" fill="#F75959"/>
<path d="M223.382 304.392C225.179 304.392 226.637 302.934 226.637 301.137C226.637 299.339 225.179 297.882 223.382 297.882C221.584 297.882 220.127 299.339 220.127 301.137C220.127 302.934 221.584 304.392 223.382 304.392Z" fill="#F75959"/>
<path d="M261.314 241.801C260.938 241.801 260.688 241.676 260.438 241.301L257.183 235.667C256.932 235.166 257.058 234.666 257.558 234.29C258.059 234.04 258.56 234.165 258.935 234.666L262.19 240.299C262.441 240.8 262.316 241.301 261.815 241.676C261.69 241.801 261.564 241.801 261.314 241.801Z" fill="#41B092"/>
<path d="M334.047 367.865C333.672 367.865 333.421 367.74 333.171 367.364L329.916 361.731C329.666 361.23 329.791 360.73 330.292 360.354C330.793 360.104 331.293 360.229 331.669 360.73L334.924 366.363C335.174 366.864 335.049 367.365 334.548 367.74C334.423 367.865 334.298 367.865 334.047 367.865Z" fill="#41B092"/>
<path d="M235.901 267.338C235.775 267.338 235.525 267.338 235.4 267.213L229.766 263.958C229.266 263.707 229.14 263.081 229.391 262.581C229.641 262.08 230.267 261.955 230.768 262.205L236.401 265.46C236.902 265.71 237.027 266.336 236.777 266.837C236.527 267.087 236.276 267.338 235.901 267.338Z" fill="#41B092"/>
<path d="M361.966 340.072C361.841 340.072 361.59 340.072 361.465 339.947L355.832 336.692C355.331 336.442 355.206 335.816 355.456 335.315C355.707 334.814 356.333 334.689 356.833 334.939L362.467 338.194C362.968 338.445 363.093 339.071 362.842 339.571C362.592 339.822 362.216 340.072 361.966 340.072Z" fill="#41B092"/>
<path d="M356.333 267.338C355.957 267.338 355.707 267.213 355.456 266.838C355.206 266.337 355.331 265.836 355.832 265.46L361.465 262.206C361.966 261.955 362.467 262.08 362.842 262.581C363.218 263.082 362.968 263.583 362.467 263.958L356.833 267.213C356.583 267.213 356.458 267.338 356.333 267.338Z" fill="#41B092"/>
<path d="M230.267 340.072C229.892 340.072 229.641 339.946 229.391 339.571C229.14 339.07 229.266 338.569 229.766 338.194L235.4 334.939C235.901 334.689 236.401 334.814 236.777 335.314C237.027 335.815 236.902 336.316 236.401 336.692L230.768 339.946C230.643 340.072 230.392 340.072 230.267 340.072Z" fill="#41B092"/>
<path d="M330.794 241.801C330.668 241.801 330.418 241.801 330.293 241.676C329.792 241.426 329.667 240.8 329.917 240.299L333.172 234.666C333.422 234.165 334.048 234.04 334.549 234.29C335.05 234.54 335.175 235.166 334.925 235.667L331.67 241.301C331.545 241.676 331.169 241.801 330.794 241.801Z" fill="#41B092"/>
<path d="M258.059 367.865C257.934 367.865 257.684 367.865 257.558 367.739C257.058 367.489 256.932 366.863 257.183 366.362L260.438 360.729C260.688 360.228 261.314 360.103 261.815 360.353C262.316 360.604 262.441 361.23 262.19 361.73L258.935 367.364C258.81 367.739 258.435 367.865 258.059 367.865Z" fill="#41B092"/>
<path d="M296.117 310.027C301.026 310.027 305.005 306.048 305.005 301.139C305.005 296.23 301.026 292.25 296.117 292.25C291.208 292.25 287.229 296.23 287.229 301.139C287.229 306.048 291.208 310.027 296.117 310.027Z" fill="#F75959"/>
<path d="M292.987 305.52L255.055 276.727L298.37 296.632C300.999 297.884 302.126 300.888 300.874 303.517C299.622 306.146 296.617 307.273 293.988 306.021C293.613 305.896 293.237 305.771 292.987 305.52Z" fill="#0C3656"/>
<path d="M293.989 296.63L346.694 271.968L299.122 305.519C296.743 307.146 293.488 306.646 291.861 304.267C290.234 301.888 290.734 298.633 293.113 297.006C293.488 296.881 293.739 296.756 293.989 296.63Z" fill="#0C3656"/>
<path d="M399.52 326.051C382.87 345.33 373.731 371.995 372.479 397.408" stroke="white" stroke-miterlimit="10"/>
<path d="M418.674 355.471C412.165 360.979 406.531 367.489 401.774 374.5C397.142 381.385 393.011 388.771 391.759 397.034" stroke="white" stroke-miterlimit="10"/>
<path d="M432.195 371.371C415.17 383.389 412.666 397.41 412.666 397.41" stroke="white" stroke-miterlimit="10"/>
<path d="M493.744 208.578L449.756 248.74C448.013 250.331 445.269 250.241 443.646 248.463L363.553 160.74C361.962 158.997 362.052 156.253 363.831 154.63L407.819 114.467C409.561 112.877 412.305 112.967 413.929 114.745L494.022 202.468C495.646 204.246 495.486 206.987 493.744 208.578Z" fill="#FEFEFE"/>
<rect x="377.606" y="166.709" width="57.903" height="21.8323" rx="4" transform="rotate(-42.3967 377.606 166.709)" fill="url(#paint0_linear)"/>
<path d="M494.241 209.122L450.252 249.285C448.183 251.173 444.989 251.028 443.101 248.959L363.008 161.236C361.119 159.168 361.264 155.974 363.333 154.085L407.322 113.923C409.39 112.034 412.584 112.179 414.473 114.248L494.566 201.971C496.455 204.039 496.309 207.233 494.241 209.122ZM364.327 155.174C362.875 156.499 362.771 158.79 364.097 160.242L444.189 247.965C445.515 249.417 447.806 249.521 449.258 248.196L493.247 208.033C494.698 206.708 494.802 204.417 493.477 202.965L413.384 115.242C412.059 113.79 409.767 113.686 408.316 115.011L364.327 155.174V155.174Z" fill="#2B3E45"/>
<g filter="url(#filter0_d)">
<path d="M457.549 226.111L442.127 240.191L449.167 247.902L494.031 206.941L486.991 199.23L468.765 215.87C474.556 221.509 469.908 227.681 469.237 227.65C465.031 231.49 459.119 228.534 457.549 226.111Z" fill="#FEFEFE"/>
</g>
<path d="M393.247 133.49L384.101 141.84C383.811 142.105 383.325 142.083 383.06 141.793C382.794 141.503 382.817 141.017 383.107 140.751L392.253 132.401C392.543 132.136 393.029 132.158 393.295 132.448C393.593 132.775 393.538 133.225 393.247 133.49Z" fill="#2B3E45"/>
<path d="M397.165 129.911L396.512 130.507C396.222 130.772 395.736 130.75 395.471 130.46C395.206 130.169 395.228 129.683 395.518 129.418L396.171 128.822C396.462 128.557 396.948 128.579 397.213 128.869C397.511 129.196 397.456 129.645 397.165 129.911Z" fill="#2B3E45"/>
<path d="M373.91 160.199C374.411 159.741 374.446 158.964 373.989 158.463C373.531 157.962 372.754 157.926 372.253 158.384C371.752 158.842 371.717 159.619 372.174 160.12C372.632 160.621 373.409 160.656 373.91 160.199Z" fill="#758484"/>
<path d="M376.958 157.415C377.459 156.958 377.494 156.181 377.037 155.68C376.579 155.179 375.802 155.143 375.301 155.601C374.8 156.058 374.764 156.835 375.222 157.337C375.68 157.838 376.457 157.873 376.958 157.415Z" fill="#758484"/>
<path d="M379.97 154.665C380.472 154.207 380.507 153.43 380.049 152.929C379.592 152.428 378.815 152.393 378.314 152.85C377.812 153.308 377.777 154.085 378.235 154.586C378.692 155.087 379.469 155.123 379.97 154.665Z" fill="#758484"/>
<path d="M411.391 123.115L406.419 127.655L407.579 128.925L412.551 124.386L411.391 123.115Z" fill="#758484"/>
<path d="M404.495 129.41L402.789 130.967L403.949 132.237L405.655 130.68L404.495 129.41Z" fill="#758484"/>
<path d="M407.414 183.576L430.316 162.666C430.389 162.6 430.417 162.485 430.372 162.436L428.66 160.56C428.482 160.365 428.13 160.418 427.84 160.683L405.664 180.93C405.374 181.195 405.29 181.54 405.468 181.735L407.18 183.611C407.225 183.66 407.342 183.642 407.414 183.576Z" fill="#646464"/>
<path d="M431.909 167.253L410.822 186.506C410.532 186.771 410.122 186.832 409.944 186.637L408.499 185.054C408.321 184.859 408.419 184.456 408.709 184.191L430.813 164.011C431.103 163.745 431.513 163.684 431.691 163.879L433.136 165.462C433.314 165.657 433.216 166.06 432.926 166.325L431.909 167.253Z" fill="#EEEEEE"/>
<path d="M394.074 159.098L408.553 145.879C408.599 145.837 408.63 145.78 408.616 145.764L408.075 145.171C408.019 145.11 407.839 145.189 407.655 145.357L393.636 158.157C393.452 158.324 393.357 158.496 393.413 158.558L393.954 159.151C393.968 159.166 394.028 159.14 394.074 159.098Z" fill="white"/>
<path d="M412.086 150.703L404.438 157.687C404.332 157.783 404.191 157.813 404.135 157.751L403.678 157.251C403.621 157.189 403.664 157.051 403.77 156.955L411.787 149.635C411.892 149.539 412.033 149.509 412.09 149.57L412.547 150.071C412.603 150.133 412.56 150.271 412.455 150.367L412.086 150.703Z" fill="#EEEEEE"/>
<path d="M402.709 160.183L403.071 160.579L401.357 162.143L400.996 161.747L401.623 161.174L399.975 159.369C399.91 159.297 399.845 159.222 399.78 159.142L399.675 159.921C399.667 159.965 399.653 160.001 399.633 160.03C399.612 160.057 399.589 160.078 399.562 160.095C399.537 160.11 399.511 160.121 399.485 160.126C399.457 160.131 399.433 160.13 399.413 160.125L399.037 160.048L399.248 158.383L399.683 157.986L402.152 160.691L402.709 160.183Z" fill="white"/>
<path d="M436.932 291.987C436.714 292.186 436.436 292.174 436.238 291.956L434.746 290.323C434.548 290.105 434.56 289.827 434.778 289.628C434.996 289.43 435.273 289.442 435.472 289.66L436.963 291.293C437.162 291.511 437.113 291.822 436.932 291.987Z" fill="#FAFAFC"/>
<path d="M436.932 291.987C436.714 292.186 436.436 292.174 436.238 291.956L434.746 290.323C434.548 290.105 434.56 289.827 434.778 289.628C434.996 289.43 435.273 289.442 435.472 289.66L436.963 291.293C437.162 291.511 437.113 291.822 436.932 291.987Z" fill="#FAFAFC"/>
<path d="M437.002 290.459L435.368 291.95C435.151 292.149 434.873 292.136 434.674 291.918C434.475 291.701 434.488 291.423 434.706 291.224L436.339 289.733C436.557 289.534 436.834 289.547 437.033 289.764C437.199 289.946 437.219 290.26 437.002 290.459Z" fill="#FAFAFC"/>
<path d="M480.557 251.495C480.339 251.694 480.061 251.681 479.863 251.463L478.371 249.83C478.173 249.612 478.185 249.335 478.403 249.136C478.621 248.937 478.898 248.95 479.097 249.167L480.588 250.801C480.787 251.018 480.775 251.296 480.557 251.495Z" fill="#FAFAFC"/>
<path d="M480.557 251.495C480.339 251.694 480.061 251.681 479.863 251.463L478.371 249.83C478.173 249.612 478.185 249.335 478.403 249.136C478.621 248.937 478.898 248.95 479.097 249.167L480.588 250.801C480.787 251.018 480.775 251.296 480.557 251.495Z" fill="#FAFAFC"/>
<path d="M480.661 249.934L479.028 251.425C478.81 251.624 478.532 251.611 478.333 251.393C478.135 251.176 478.147 250.898 478.365 250.699L479.998 249.208C480.216 249.009 480.494 249.022 480.692 249.24C480.858 249.421 480.842 249.768 480.661 249.934Z" fill="#FAFAFC"/>
<path d="M358.956 191.42C358.739 191.619 358.461 191.607 358.262 191.389L356.771 189.756C356.572 189.538 356.585 189.26 356.802 189.061C357.02 188.862 357.298 188.875 357.497 189.093L358.988 190.726C359.187 190.944 359.174 191.222 358.956 191.42Z" fill="#FAFAFC"/>
<path d="M358.956 191.42C358.739 191.619 358.461 191.607 358.262 191.389L356.771 189.756C356.572 189.538 356.585 189.26 356.802 189.061C357.02 188.862 357.298 188.875 357.497 189.093L358.988 190.726C359.187 190.944 359.174 191.222 358.956 191.42Z" fill="#FAFAFC"/>
<path d="M359.06 189.859L357.427 191.35C357.209 191.549 356.932 191.537 356.733 191.319C356.534 191.101 356.547 190.823 356.764 190.624L358.398 189.133C358.615 188.934 358.893 188.947 359.092 189.165C359.258 189.346 359.278 189.66 359.06 189.859Z" fill="#FAFAFC"/>
<path d="M358.309 162.792C358.091 162.991 357.813 162.979 357.615 162.761L356.123 161.128C355.925 160.91 355.937 160.632 356.155 160.433C356.373 160.234 356.65 160.247 356.849 160.465L358.34 162.098C358.539 162.316 358.49 162.627 358.309 162.792Z" fill="#FAFAFC"/>
<path d="M358.309 162.792C358.091 162.991 357.813 162.979 357.615 162.761L356.123 161.128C355.925 160.91 355.937 160.632 356.155 160.433C356.373 160.234 356.65 160.247 356.849 160.465L358.34 162.098C358.539 162.316 358.49 162.627 358.309 162.792Z" fill="#FAFAFC"/>
<path d="M358.379 161.266L356.745 162.757C356.528 162.956 356.25 162.943 356.051 162.725C355.852 162.508 355.865 162.23 356.083 162.031L357.716 160.54C357.934 160.341 358.211 160.354 358.41 160.572C358.576 160.753 358.596 161.067 358.379 161.266Z" fill="#FAFAFC"/>
<path d="M422.76 108.67C422.542 108.869 422.265 108.857 422.066 108.639L420.575 107.006C420.376 106.788 420.388 106.51 420.606 106.311C420.824 106.112 421.102 106.125 421.3 106.343L422.792 107.976C422.957 108.157 422.978 108.472 422.76 108.67Z" fill="#FAFAFC"/>
<path d="M422.76 108.67C422.542 108.869 422.265 108.857 422.066 108.639L420.575 107.006C420.376 106.788 420.388 106.51 420.606 106.311C420.824 106.112 421.102 106.125 421.3 106.343L422.792 107.976C422.957 108.157 422.978 108.472 422.76 108.67Z" fill="#FAFAFC"/>
<path d="M422.835 107.077L421.201 108.568C420.984 108.767 420.706 108.754 420.507 108.537C420.308 108.319 420.321 108.041 420.539 107.842L422.172 106.351C422.39 106.152 422.667 106.165 422.866 106.383C423.032 106.564 423.016 106.911 422.835 107.077Z" fill="#FAFAFC"/>
<path d="M395.339 121.13C395.121 121.329 394.844 121.316 394.645 121.099L393.154 119.465C392.955 119.248 392.967 118.97 393.185 118.771C393.403 118.572 393.681 118.585 393.88 118.803L395.371 120.436C395.57 120.654 395.521 120.965 395.339 121.13Z" fill="#FAFAFC"/>
<path d="M395.339 121.13C395.121 121.329 394.844 121.316 394.645 121.099L393.154 119.465C392.955 119.248 392.967 118.97 393.185 118.771C393.403 118.572 393.681 118.585 393.88 118.803L395.371 120.436C395.57 120.654 395.521 120.965 395.339 121.13Z" fill="#FAFAFC"/>
<path d="M395.376 119.567L393.742 121.058C393.525 121.257 393.247 121.244 393.048 121.027C392.849 120.809 392.862 120.531 393.08 120.332L394.713 118.841C394.931 118.642 395.208 118.655 395.407 118.873C395.606 119.09 395.593 119.368 395.376 119.567Z" fill="#FAFAFC"/>
<path d="M492.061 136.172C491.843 136.371 491.565 136.358 491.366 136.14L489.875 134.507C489.676 134.289 489.689 134.011 489.907 133.813C490.125 133.614 490.402 133.626 490.601 133.844L492.092 135.477C492.258 135.659 492.242 136.006 492.061 136.172Z" fill="#FAFAFC"/>
<path d="M492.061 136.172C491.843 136.371 491.565 136.358 491.366 136.14L489.875 134.507C489.676 134.289 489.689 134.011 489.907 133.813C490.125 133.614 490.402 133.626 490.601 133.844L492.092 135.477C492.258 135.659 492.242 136.006 492.061 136.172Z" fill="#FAFAFC"/>
<path d="M492.134 134.576L490.5 136.067C490.283 136.266 490.005 136.253 489.806 136.036C489.607 135.818 489.62 135.54 489.838 135.341L491.471 133.85C491.689 133.651 491.966 133.664 492.165 133.882C492.364 134.099 492.315 134.41 492.134 134.576Z" fill="#FAFAFC"/>
<path d="M523.372 170.542C523.155 170.741 522.877 170.728 522.678 170.511L521.187 168.877C520.988 168.66 521.001 168.382 521.218 168.183C521.436 167.984 521.714 167.997 521.913 168.215L523.404 169.848C523.603 170.066 523.59 170.343 523.372 170.542Z" fill="#FAFAFC"/>
<path d="M523.372 170.542C523.155 170.741 522.877 170.728 522.678 170.511L521.187 168.877C520.988 168.66 521.001 168.382 521.218 168.183C521.436 167.984 521.714 167.997 521.913 168.215L523.404 169.848C523.603 170.066 523.59 170.343 523.372 170.542Z" fill="#FAFAFC"/>
<path d="M523.445 168.946L521.812 170.437C521.594 170.636 521.316 170.624 521.118 170.406C520.919 170.188 520.931 169.91 521.149 169.712L522.782 168.22C523 168.022 523.278 168.034 523.477 168.252C523.675 168.47 523.627 168.781 523.445 168.946Z" fill="#FAFAFC"/>
<path d="M391.636 236.98C391.418 237.179 391.141 237.166 390.942 236.948L389.451 235.315C389.252 235.097 389.264 234.82 389.482 234.621C389.7 234.422 389.978 234.435 390.176 234.652L391.668 236.286C391.866 236.503 391.817 236.814 391.636 236.98Z" fill="#FAFAFC"/>
<path d="M391.636 236.98C391.418 237.179 391.141 237.166 390.942 236.948L389.451 235.315C389.252 235.097 389.264 234.82 389.482 234.621C389.7 234.422 389.978 234.435 390.176 234.652L391.668 236.286C391.866 236.503 391.817 236.814 391.636 236.98Z" fill="#FAFAFC"/>
<path d="M391.709 235.384L390.075 236.875C389.858 237.074 389.58 237.061 389.381 236.844C389.182 236.626 389.195 236.348 389.413 236.149L391.046 234.658C391.264 234.459 391.541 234.472 391.74 234.69C391.939 234.907 391.89 235.218 391.709 235.384Z" fill="#FAFAFC"/>
<path d="M538.613 201.081C537.924 201.71 536.813 201.66 536.183 200.97C535.554 200.281 535.604 199.17 536.294 198.54C536.983 197.911 538.094 197.961 538.724 198.651C539.387 199.377 539.339 200.418 538.613 201.081ZM536.99 199.302C536.699 199.567 536.677 200.053 536.942 200.344C537.207 200.634 537.693 200.656 537.984 200.391C538.274 200.126 538.296 199.64 538.031 199.35C537.766 199.059 537.316 199.004 536.99 199.302Z" fill="#FAFAFC"/>
<path d="M496.013 162.515C495.323 163.144 494.212 163.094 493.583 162.404C492.953 161.715 493.004 160.604 493.693 159.974C494.383 159.345 495.494 159.395 496.123 160.085C496.786 160.811 496.702 161.885 496.013 162.515ZM494.389 160.736C494.099 161.002 494.077 161.488 494.342 161.778C494.607 162.068 495.093 162.09 495.383 161.825C495.673 161.56 495.696 161.074 495.43 160.784C495.132 160.457 494.679 160.471 494.389 160.736Z" fill="#FAFAFC"/>
<path d="M496.365 140.961C495.676 141.59 494.565 141.54 493.935 140.85C493.306 140.161 493.356 139.05 494.046 138.42C494.735 137.79 495.846 137.841 496.476 138.531C497.105 139.22 497.055 140.331 496.365 140.961ZM494.708 139.146C494.418 139.411 494.396 139.897 494.661 140.187C494.926 140.478 495.412 140.5 495.703 140.235C495.993 139.97 496.015 139.484 495.75 139.193C495.485 138.903 494.999 138.881 494.708 139.146Z" fill="#FAFAFC"/>
<path d="M420.489 245.912C420.271 246.111 419.993 246.098 419.794 245.88L418.303 244.247C418.104 244.029 418.117 243.751 418.335 243.553C418.552 243.354 418.83 243.366 419.029 243.584L420.52 245.217C420.719 245.435 420.67 245.746 420.489 245.912Z" fill="#FAFAFC"/>
<path d="M420.489 245.912C420.271 246.111 419.993 246.098 419.794 245.88L418.303 244.247C418.104 244.029 418.117 243.751 418.335 243.553C418.552 243.354 418.83 243.366 419.029 243.584L420.52 245.217C420.719 245.435 420.67 245.746 420.489 245.912Z" fill="#FAFAFC"/>
<path d="M420.593 244.351L418.959 245.842C418.742 246.041 418.464 246.028 418.265 245.81C418.066 245.592 418.079 245.315 418.297 245.116L419.93 243.625C420.148 243.426 420.425 243.439 420.624 243.656C420.79 243.838 420.774 244.185 420.593 244.351Z" fill="#FAFAFC"/>
<path d="M424.826 250.736C424.137 251.365 423.026 251.315 422.396 250.625C421.767 249.936 421.817 248.825 422.507 248.195C423.196 247.566 424.307 247.616 424.937 248.306C425.566 248.995 425.516 250.106 424.826 250.736ZM423.169 248.921C422.879 249.186 422.857 249.672 423.122 249.963C423.387 250.253 423.873 250.275 424.163 250.01C424.454 249.745 424.476 249.259 424.211 248.968C423.946 248.678 423.46 248.656 423.169 248.921Z" fill="#FAFAFC"/>
<path d="M425.929 93.3351C425.239 93.9647 424.128 93.9142 423.499 93.2246C422.869 92.5351 422.92 91.4241 423.609 90.7945C424.299 90.1649 425.41 90.2154 426.039 90.905C426.702 91.6309 426.618 92.7055 425.929 93.3351ZM424.305 91.5567C424.015 91.8218 423.993 92.3078 424.258 92.5982C424.523 92.8885 425.009 92.9106 425.299 92.6455C425.59 92.3804 425.612 91.8944 425.347 91.6041C425.081 91.3137 424.595 91.2916 424.305 91.5567Z" fill="#FAFAFC"/>
<path d="M335.597 187.99C334.907 188.62 333.796 188.569 333.167 187.88C332.537 187.19 332.588 186.079 333.277 185.45C333.967 184.82 335.078 184.87 335.707 185.56C336.337 186.25 336.286 187.361 335.597 187.99ZM333.94 186.175C333.65 186.441 333.627 186.927 333.893 187.217C334.158 187.507 334.644 187.529 334.934 187.264C335.224 186.999 335.246 186.513 334.981 186.223C334.716 185.932 334.23 185.91 333.94 186.175Z" fill="#FAFAFC"/>
<path d="M354.539 158.518C354.43 158.617 354.321 158.717 354.179 158.78C353.644 159.069 352.95 159.037 352.443 158.701C351.97 158.401 351.714 157.903 351.667 157.413C351.592 156.749 351.968 156.14 352.576 155.785C353.111 155.496 353.805 155.528 354.311 155.864C354.785 156.164 355.04 156.662 355.088 157.151C355.099 157.674 354.902 158.187 354.539 158.518ZM352.915 156.74C352.733 156.905 352.654 157.11 352.678 157.355C352.702 157.6 352.798 157.778 353 157.926C353.202 158.075 353.48 158.087 353.764 157.961C354.015 157.798 354.166 157.527 354.143 157.282C354.119 157.038 354.023 156.86 353.821 156.711C353.619 156.563 353.341 156.55 353.057 156.676C352.987 156.673 352.951 156.706 352.915 156.74Z" fill="#FAFAFC"/>
<path d="M368.283 207.392C367.594 208.021 366.483 207.971 365.853 207.281C365.224 206.592 365.274 205.481 365.964 204.851C366.653 204.222 367.764 204.272 368.394 204.962C369.057 205.688 368.973 206.762 368.283 207.392ZM366.66 205.613C366.369 205.878 366.347 206.364 366.612 206.655C366.877 206.945 367.363 206.967 367.654 206.702C367.944 206.437 367.966 205.951 367.701 205.661C367.436 205.37 366.95 205.348 366.66 205.613Z" fill="#FAFAFC"/>
<path d="M390.833 125.381C390.143 126.01 389.033 125.96 388.403 125.27C387.773 124.58 387.824 123.47 388.513 122.84C389.203 122.21 390.314 122.261 390.944 122.95C391.606 123.676 391.523 124.751 390.833 125.381ZM389.209 123.602C388.919 123.867 388.897 124.353 389.162 124.644C389.427 124.934 389.913 124.956 390.203 124.691C390.494 124.426 390.516 123.94 390.251 123.649C389.986 123.359 389.5 123.337 389.209 123.602Z" fill="#FAFAFC"/>
<path d="M394.068 258.519C393.379 259.149 392.268 259.099 391.638 258.409C391.009 257.719 391.059 256.608 391.749 255.979C392.438 255.349 393.549 255.4 394.179 256.089C394.809 256.779 394.758 257.89 394.068 258.519ZM392.412 256.705C392.121 256.97 392.099 257.456 392.364 257.746C392.629 258.037 393.115 258.059 393.406 257.794C393.696 257.528 393.718 257.042 393.453 256.752C393.188 256.462 392.702 256.44 392.412 256.705Z" fill="#FAFAFC"/>
<path d="M388.005 144.42L388.76 143.731L388.09 142.997L385.987 144.917C386.437 144.583 386.963 144.955 387.17 145.182L387.398 144.974L389.289 147.044L389.895 146.49L388.005 144.42Z" fill="#F05927"/>
<path d="M387.687 147.107C387.599 147.011 387.485 146.977 387.346 147.006C387.208 147.033 387.001 147.12 386.723 147.268C386.446 147.416 386.211 147.528 386.019 147.605C385.396 147.856 384.946 147.829 384.669 147.526C384.531 147.374 384.467 147.189 384.477 146.969C384.487 146.746 384.569 146.506 384.723 146.249C384.875 145.991 385.084 145.741 385.348 145.5C385.606 145.264 385.868 145.089 386.136 144.973C386.405 144.855 386.656 144.81 386.887 144.836C387.064 144.856 387.218 144.916 387.348 145.018L386.477 145.814C386.403 145.775 386.32 145.762 386.228 145.776C386.083 145.795 385.934 145.875 385.782 146.014C385.627 146.155 385.529 146.293 385.487 146.428C385.445 146.56 385.46 146.666 385.533 146.746C385.597 146.816 385.705 146.835 385.856 146.803C386.006 146.769 386.232 146.669 386.536 146.504C386.839 146.338 387.102 146.217 387.325 146.142C387.868 145.958 388.275 146.015 388.548 146.314C388.766 146.552 388.819 146.848 388.707 147.2C388.595 147.552 388.333 147.916 387.92 148.292C387.63 148.558 387.33 148.759 387.022 148.896C386.714 149.031 386.438 149.084 386.192 149.056C386.176 149.055 386.16 149.053 386.145 149.049C386.042 149.024 385.953 148.94 385.917 148.896L386.752 148.134C386.796 148.142 386.842 148.143 386.889 148.137C387.052 148.115 387.245 148.001 387.469 147.798C387.611 147.667 387.703 147.541 387.743 147.42C387.783 147.296 387.764 147.192 387.687 147.107Z" fill="#B53138"/>
<path d="M397.459 137.77L395.802 135.955L394.944 136.739L396.598 138.55C396.753 138.72 396.82 138.885 396.797 139.044C396.775 139.203 396.675 139.363 396.498 139.525C396.146 139.847 395.827 139.861 395.542 139.569L394.784 138.738L393.921 139.526L394.667 140.344C394.948 140.642 395.293 140.764 395.701 140.71C396.109 140.657 396.53 140.432 396.964 140.036C397.251 139.774 397.464 139.508 397.602 139.238C397.741 138.968 397.799 138.707 397.776 138.456C397.751 138.203 397.646 137.975 397.459 137.77Z" fill="#8E2872"/>
<path d="M399.039 138.142L398.429 137.474L398.879 137.063C399.009 136.942 399.107 136.8 399.174 136.645C399.384 136.16 399.286 135.549 398.88 135.104C398.341 134.515 397.465 134.438 396.923 134.933L395.802 135.957L396.472 136.69L396.474 136.688L397.083 136.132L397.643 135.621C397.809 135.469 398.078 135.493 398.243 135.673L398.255 135.687C398.42 135.867 398.419 136.137 398.253 136.289L397.693 136.801L397.084 137.356L397.082 137.359L398.362 138.761L399.039 138.142Z" fill="#C82038"/>
<path d="M390.753 144.48L391.397 143.893L392.188 144.396L392.754 143.879L389.387 141.812L388.842 142.31L390.516 143.352L389.745 144.055L390.651 145.799L391.213 145.286L390.753 144.48Z" fill="#E9A424"/>
<path d="M393.5 139.402L394.368 138.609L393.698 137.876L391.595 139.796C391.818 139.676 392.332 139.771 392.709 140.124L392.853 139.992L394.743 142.062L395.39 141.472L393.5 139.402Z" fill="#234492"/>
<path d="M392.295 143.073L392.727 142.679L393.895 142.838L394.806 142.005L394.857 141.959L393.242 141.724C393.503 141.217 393.462 140.616 393.09 140.209C392.598 139.67 391.718 139.684 391.117 140.233L390.874 140.454L389.493 141.715L390.455 142.182L390.977 141.706L391.656 141.086C391.857 140.902 392.155 140.899 392.32 141.08L392.332 141.093C392.497 141.274 392.468 141.57 392.266 141.754L391.587 142.374L391.335 142.604L392.295 143.073Z" fill="#15A88E"/>
<circle cx="403.542" cy="187.372" r="4.27153" transform="rotate(-42.3967 403.542 187.372)" fill="#47365A"/>
<path d="M417.656 194.791L440.557 173.882C440.63 173.815 440.658 173.7 440.614 173.652L438.901 171.776C438.723 171.581 438.372 171.633 438.081 171.899L415.906 192.145C415.615 192.411 415.531 192.756 415.709 192.95L417.422 194.826C417.466 194.875 417.583 194.857 417.656 194.791Z" fill="#646464"/>
<path d="M442.15 178.471L421.063 197.724C420.772 197.989 420.363 198.05 420.185 197.855L418.739 196.272C418.561 196.077 418.659 195.675 418.95 195.409L441.053 175.229C441.343 174.964 441.753 174.902 441.931 175.097L443.377 176.681C443.555 176.876 443.456 177.278 443.166 177.543L442.15 178.471Z" fill="#EEEEEE"/>
<circle cx="413.784" cy="198.586" r="4.27153" transform="rotate(-42.3967 413.784 198.586)" fill="#E9AF5E"/>
<circle cx="464.438" cy="222.393" r="5.19538" transform="rotate(-42.3967 464.438 222.393)" stroke="url(#paint1_linear)"/>
<rect x="-0.0160588" y="0.353188" width="1.99173" height="1.99173" rx="0.25" transform="matrix(-0.738495 0.674259 0.674259 0.738495 461.988 220.628)" stroke="url(#paint2_linear)" stroke-width="0.5"/>
<rect x="-0.0160588" y="0.353188" width="1.99173" height="1.99173" rx="0.25" transform="matrix(-0.738495 0.674259 0.674259 0.738495 464.353 218.468)" stroke="url(#paint3_linear)" stroke-width="0.5"/>
<rect x="-0.0160588" y="0.353188" width="1.99173" height="1.99173" rx="0.25" transform="matrix(-0.738495 0.674259 0.674259 0.738495 466.512 220.835)" stroke="url(#paint4_linear)" stroke-width="0.5"/>
<rect x="-0.0160588" y="0.353188" width="1.99173" height="1.99173" rx="0.25" transform="matrix(-0.738495 0.674259 0.674259 0.738495 464.147 222.994)" stroke="url(#paint5_linear)" stroke-width="0.5"/>
<path d="M425.311 393.407C425.311 393.407 425.687 394.408 425.687 394.909C425.561 396.161 425.436 396.912 425.436 396.912H424.81L424.685 395.911C424.685 395.911 423.183 396.036 421.555 396.912C420.804 397.288 417.424 397.037 416.798 396.787C416.172 396.411 416.423 395.91 416.673 395.66C416.923 395.41 420.804 394.033 420.804 394.033" fill="#0C3656"/>
<path d="M435.326 300.515C435.326 301.391 431.445 334.191 431.445 336.194C431.445 338.197 433.323 346.71 432.571 355.723C431.319 371.247 425.686 391.277 425.06 392.654C424.434 394.031 421.93 392.779 421.93 392.779C421.93 392.779 415.421 356.725 413.793 335.067C411.54 305.397 418.175 278.482 418.175 278.482" fill="#FFDCC0"/>
<path d="M422.056 392.778C421.681 393.53 417.925 394.907 418.301 395.157C418.551 395.407 420.053 395.533 422.182 395.032C424.059 394.531 425.186 394.03 425.311 393.529L425.061 392.278" fill="#FFDCC0"/>
<path d="M453.977 393.407C453.977 393.407 454.353 394.408 454.353 394.909C454.227 396.161 454.102 396.912 454.102 396.912H453.476L453.351 395.911C453.351 395.911 451.849 396.036 450.221 396.912C449.47 397.288 446.09 397.037 445.464 396.787C444.838 396.411 445.089 395.91 445.339 395.66C445.589 395.41 449.47 394.033 449.47 394.033" fill="#0C3656"/>
<path d="M458.86 299.764C458.86 300.64 457.609 334.191 457.609 336.194C457.609 338.197 460.237 344.582 460.112 355.723C459.987 371.247 454.479 391.277 453.853 392.654C453.227 394.031 450.723 392.779 450.723 392.779C450.723 392.779 441.584 356.725 439.957 335.067C437.704 305.397 439.331 278.482 439.331 278.482" fill="#FFDCC0"/>
<path d="M450.724 392.778C450.349 393.53 446.593 394.907 446.969 395.157C447.219 395.407 448.721 395.533 450.85 395.032C452.727 394.531 453.854 394.03 453.979 393.529L453.729 392.278" fill="#FFDCC0"/>
<path d="M421.179 267.839C412.917 275.6 410.163 286.993 409.662 297.884C409.161 308.775 409.036 338.195 409.036 338.195C409.036 338.195 419.176 343.327 432.822 344.204C452.226 345.456 462.366 336.943 462.366 336.943C462.366 336.943 464.119 300.388 457.359 281.234C454.229 272.345 448.22 265.71 448.22 265.71" fill="#F75959"/>
<path d="M478.39 188.469L478.515 186.841C478.515 186.841 477.889 185.214 478.015 183.587C478.14 181.959 479.016 178.829 479.517 179.455C480.143 180.206 478.891 182.335 480.018 181.959C480.894 181.709 481.269 181.083 481.645 180.206C482.271 178.829 482.772 176.701 483.523 177.202C484.274 177.703 484.274 178.829 483.898 182.21C483.523 185.464 481.77 187.342 481.77 187.342L481.395 189.596" fill="#FFDCC0"/>
<path d="M448.72 223.899C463.492 213.008 473.132 204.996 478.515 187.469L481.644 188.721C482.395 212.131 470.127 229.157 454.103 246.308" fill="#FCC24B"/>
<path d="M387.377 191.348L387.002 189.846C387.002 189.846 387.377 188.093 387.127 186.591C386.751 185.089 385.625 181.959 385.124 182.71C384.623 183.461 386.125 185.464 384.874 185.214C383.997 184.964 383.497 184.463 383.121 183.712C382.37 182.46 381.494 180.332 380.868 180.958C380.242 181.458 380.367 182.71 381.118 185.965C381.869 189.22 383.872 190.848 383.872 190.848L384.498 192.976" fill="#FFDCC0"/>
<path d="M424.308 223.272C408.535 219.266 394.639 207.248 387.253 190.347L384.248 191.975C386.376 215.385 399.521 230.032 417.423 245.055" fill="#FCC24B"/>
<path d="M456.231 236.415C454.603 252.815 452.976 259.575 452.976 264.332C452.976 269.089 456.356 273.471 445.715 275.724C438.579 277.227 426.436 277.352 419.676 274.097C414.918 271.844 416.421 269.089 417.923 264.583C419.55 259.951 415.795 249.059 415.169 245.053C414.167 238.293 418.924 230.907 418.924 230.907C418.924 230.907 416.546 222.644 425.309 223.27C434.197 224.022 457.983 219.89 456.231 236.415Z" fill="#FCC24B"/>
<path d="M453.729 231.034C452.852 228.28 449.973 226.151 449.097 223.648C447.845 219.892 448.846 215.51 446.342 212.381C445.091 210.878 443.213 209.877 442.462 208.124C441.961 206.747 442.336 205.12 442.211 203.618C441.836 199.236 436.953 196.231 432.822 195.856C427.314 195.48 422.557 200.989 421.68 205.996C421.305 208.25 421.931 210.503 421.555 212.756C420.929 217.013 417.048 220.768 418.425 224.9C419.427 228.28 423.558 229.782 425.686 232.536C427.189 234.539 427.689 237.293 429.066 239.421C433.573 246.307 442.962 248.685 449.097 244.554C452.852 242.05 455.606 237.544 453.729 231.034Z" fill="#0C3656"/>
<path d="M139.379 334.693C137.501 334.568 133.746 334.568 133.37 334.693C132.494 334.818 127.737 335.694 126.985 336.445C125.733 337.572 124.982 338.574 124.231 340.201C123.981 340.827 123.605 341.703 124.231 341.703C124.857 341.703 125.984 341.328 126.61 340.702C127.236 339.951 129.114 338.323 129.614 338.824C130.115 339.325 128.112 340.577 128.738 340.952C129.364 341.203 132.368 339.45 132.994 338.323C133.12 337.948 133.37 337.197 133.746 337.071C133.871 336.946 134.121 336.946 134.371 336.946C136.5 336.946 138.378 337.447 140.506 337.447" fill="#FFDCC0"/>
<path d="M169.3 289.748C160.787 300.89 166.295 332.312 166.295 332.312L136.125 334.565C136.125 334.565 135.499 336.193 136.125 337.069C136.375 336.819 171.804 349.838 180.316 344.33C188.829 338.822 189.08 315.286 189.08 308.777C188.954 298.386 178.939 276.979 169.3 289.748Z" fill="#1C9393"/>
<path d="M72.6529 391.653C72.6529 391.653 63.1385 385.644 61.8867 386.896C60.6348 388.148 69.0224 397.662 70.5247 397.662C72.0269 397.787 75.0315 395.158 75.0315 395.158" fill="#1C9393"/>
<path d="M177.186 366.739C177.186 366.739 152.148 352.218 128.237 353.344C105.328 354.346 72.5282 391.652 72.5282 391.652C72.403 393.154 73.6549 394.657 74.9068 395.157C81.2914 394.031 91.5569 392.528 107.706 386.77C121.853 381.637 126.735 370.245 126.735 370.245C126.735 370.245 148.643 397.911 178.939 397.911C214.617 397.911 210.736 356.599 210.736 356.599" fill="#05223A"/>
<path d="M66.1434 391.653C66.1434 391.653 56.629 385.644 55.3772 386.896C54.1253 388.148 62.6381 397.787 64.1404 397.787C65.6426 397.912 68.522 395.158 68.522 395.158" fill="#2AADAD"/>
<path d="M177.186 366.739C177.186 366.739 146.89 352.218 123.104 353.344C100.195 354.346 66.1434 391.652 66.1434 391.652C66.0182 393.154 67.2701 394.657 68.522 395.157C74.9066 394.031 91.9323 391.151 107.706 384.641C118.222 380.385 123.355 369.744 123.355 369.744C123.355 369.744 148.768 397.911 179.064 397.911C214.742 397.911 210.861 356.599 210.861 356.599" fill="#0C3656"/>
<path d="M152.523 270.719C152.523 270.719 153.775 282.237 156.404 282.362C158.908 282.612 164.917 281.235 166.168 278.481C167.295 275.852 168.422 270.844 168.422 270.844C168.422 270.844 162.413 264.335 160.535 262.958C158.532 261.58 151.897 266.463 152.523 270.719Z" fill="#FFDCC0"/>
<path d="M165.166 273.723L173.429 284.74C173.429 284.74 167.294 291.876 165.166 293.754C163.038 295.757 162.036 290.624 162.036 290.624L162.787 287.119L158.656 277.479" fill="#FFDCC0"/>
<path d="M148.391 265.711C148.892 264.084 150.644 263.207 152.272 262.581C154.15 261.955 156.027 261.455 157.905 261.204C159.282 261.079 160.534 260.954 161.911 261.329C163.163 261.705 164.415 262.456 164.916 263.708C165.667 263.333 166.668 263.833 167.294 264.459C168.421 265.461 168.922 266.963 169.172 268.465C169.423 270.593 169.172 272.722 168.421 274.599C167.92 276.102 166.794 278.856 164.916 278.981C164.665 278.981 164.415 278.981 164.29 278.856C164.039 278.731 164.039 278.48 163.914 278.23C163.664 277.103 163.664 275.851 163.664 274.599C163.789 273.598 164.165 272.346 163.914 271.345C163.789 270.844 163.414 270.218 162.913 270.093C162.537 269.967 162.162 270.093 161.786 270.218C160.659 270.343 159.407 269.342 158.281 269.216C156.278 269.091 154.275 269.842 152.272 269.967C150.144 269.842 147.515 268.34 148.391 265.711Z" fill="#0C3656"/>
<path d="M163.039 272.974C163.289 272.473 163.915 272.348 164.416 272.598C164.917 272.849 165.167 273.349 165.292 273.725C165.543 274.476 165.417 275.352 164.917 275.978C164.666 276.479 164.166 276.855 163.665 276.855C163.164 276.855 162.538 276.604 162.538 275.978" fill="#FFDCC0"/>
<path d="M172.929 283.989C172.929 283.989 185.072 288.12 194.837 300.639C205.728 314.66 214.867 358.476 211.237 361.731C207.606 364.986 200.345 369.243 185.823 369.743C171.302 370.244 152.899 362.483 150.771 357.725C148.642 352.968 155.903 312.032 156.78 306.148C158.282 295.882 162.413 286.243 162.413 286.243C162.413 286.243 164.291 286.994 166.044 286.743C169.424 286.243 172.929 283.989 172.929 283.989Z" fill="#2AADAD"/>
<path d="M118.096 352.467L116.093 353.218L97.3145 316.788L99.3175 316.037L118.096 352.467Z" fill="#0C3656"/>
<path d="M157.404 351.468H116.092V353.221H157.404V351.468Z" fill="#0C3656"/>
<path d="M142.382 342.954C140.504 342.829 136.748 342.829 136.373 342.954C135.497 343.079 130.113 344.581 129.362 345.207C128.11 346.334 127.86 347.586 127.234 349.088C126.984 349.714 126.608 350.59 127.234 350.59C127.86 350.59 128.987 350.215 129.613 349.589C130.239 348.838 130.99 348.462 131.991 348.086C133.368 348.462 135.371 347.711 135.997 346.459C136.123 346.083 136.373 345.332 136.748 345.207C136.874 345.082 137.124 345.082 137.374 345.082C139.503 345.082 141.38 345.583 143.509 345.583" fill="#FFDCC0"/>
<path opacity="0.25" d="M150.645 349.086C162.537 352.717 179.939 355.346 185.322 351.841C193.835 346.332 191.832 319.792 191.832 313.283C191.832 302.892 182.693 284.364 172.177 296.382C162.287 307.649 167.42 335.691 167.42 335.691L151.646 339.197C151.27 342.702 150.895 346.207 150.645 349.086Z" fill="#2D97A8"/>
<path d="M172.303 294.252C163.79 305.394 169.298 336.817 169.298 336.817L139.128 342.951C139.128 342.951 138.502 344.578 139.128 345.455C139.378 345.204 174.807 354.343 183.319 348.835C191.832 343.326 192.083 319.791 192.083 313.281C191.957 302.89 181.942 281.358 172.303 294.252Z" fill="#2AADAD"/>
<path d="M324.907 148.658C322.153 150.285 321.652 150.661 320.15 153.415C318.522 150.661 318.147 150.16 315.393 148.658C318.147 147.03 318.647 146.655 320.15 143.9C321.777 146.655 322.153 147.155 324.907 148.658Z" fill="#37BD9C"/>
<path d="M161.16 241.924C158.406 243.552 157.905 243.927 156.403 246.681C154.775 243.927 154.4 243.426 151.646 241.924C154.4 240.297 154.9 239.921 156.403 237.167C157.905 239.921 158.281 240.422 161.16 241.924Z" fill="#37BD9C"/>
<path d="M493.412 250.062C490.658 251.689 490.157 252.065 488.655 254.819C487.027 252.065 486.652 251.564 483.897 250.062C486.652 248.434 487.152 248.059 488.655 245.305C490.157 248.059 490.658 248.56 493.412 250.062Z" fill="#37BD9C"/>
<path d="M309.134 115.606C310.309 115.606 311.262 114.653 311.262 113.478C311.262 112.303 310.309 111.35 309.134 111.35C307.959 111.35 307.006 112.303 307.006 113.478C307.006 114.653 307.959 115.606 309.134 115.606Z" stroke="#37BD9C" stroke-miterlimit="10"/>
<path d="M148.141 110.351C149.316 110.351 150.269 109.398 150.269 108.223C150.269 107.048 149.316 106.095 148.141 106.095C146.966 106.095 146.013 107.048 146.013 108.223C146.013 109.398 146.966 110.351 148.141 110.351Z" stroke="#37BD9C" stroke-miterlimit="10"/>
<path d="M402.774 275.474C403.949 275.474 404.902 274.522 404.902 273.346C404.902 272.171 403.949 271.218 402.774 271.218C401.598 271.218 400.646 272.171 400.646 273.346C400.646 274.522 401.598 275.474 402.774 275.474Z" stroke="#37BD9C" stroke-miterlimit="10"/>
<path d="M239.405 195.856C240.58 195.856 241.533 194.903 241.533 193.728C241.533 192.552 240.58 191.599 239.405 191.599C238.229 191.599 237.276 192.552 237.276 193.728C237.276 194.903 238.229 195.856 239.405 195.856Z" stroke="#37BD9C" stroke-miterlimit="10"/>
<path d="M107.705 295.88C108.881 295.88 109.834 294.927 109.834 293.752C109.834 292.577 108.881 291.624 107.705 291.624C106.53 291.624 105.577 292.577 105.577 293.752C105.577 294.927 106.53 295.88 107.705 295.88Z" stroke="#37BD9C" stroke-miterlimit="10"/>
<path d="M512.691 376.002C513.866 376.002 514.819 375.049 514.819 373.874C514.819 372.699 513.866 371.746 512.691 371.746C511.515 371.746 510.562 372.699 510.562 373.874C510.562 375.049 511.515 376.002 512.691 376.002Z" stroke="#37BD9C" stroke-miterlimit="10"/>
<path d="M565.02 397.158H54V398.41H565.02V397.158Z" fill="#37BD9C"/>
<defs>
<filter id="filter0_d" x="438.127" y="195.23" width="59.9044" height="56.6728" filterUnits="userSpaceOnUse" color-interpolation-filters="sRGB">
<feFlood flood-opacity="0" result="BackgroundImageFix"/>
<feColorMatrix in="SourceAlpha" type="matrix" values="0 0 0 0 0 0 0 0 0 0 0 0 0 0 0 0 0 0 127 0"/>
<feOffset/>
<feGaussianBlur stdDeviation="2"/>
<feColorMatrix type="matrix" values="0 0 0 0 0 0 0 0 0 0 0 0 0 0 0 0 0 0 0.25 0"/>
<feBlend mode="normal" in2="BackgroundImageFix" result="effect1_dropShadow"/>
<feBlend mode="normal" in="SourceGraphic" in2="effect1_dropShadow" result="shape"/>
</filter>
<linearGradient id="paint0_linear" x1="375.233" y1="179.523" x2="437.408" y2="179.523" gradientUnits="userSpaceOnUse">
<stop stop-color="#7F4096"/>
<stop offset="1" stop-color="#DB2033"/>
</linearGradient>
<linearGradient id="paint1_linear" x1="458.742" y1="222.393" x2="470.133" y2="222.393" gradientUnits="userSpaceOnUse">
<stop stop-color="#804195"/>
<stop offset="1" stop-color="#DA2134"/>
</linearGradient>
<linearGradient id="paint2_linear" x1="2.49173" y1="1.42384" x2="0.118654" y2="1.42384" gradientUnits="userSpaceOnUse">
<stop stop-color="#873E8E"/>
<stop offset="1" stop-color="#DB1F34"/>
</linearGradient>
<linearGradient id="paint3_linear" x1="2.84769" y1="1.42384" x2="-0.474615" y2="1.42384" gradientUnits="userSpaceOnUse">
<stop stop-color="#873E8E"/>
<stop offset="1" stop-color="#DB1F34"/>
</linearGradient>
<linearGradient id="paint4_linear" x1="2.84769" y1="1.5425" x2="0.474615" y2="1.5425" gradientUnits="userSpaceOnUse">
<stop stop-color="#873E8E"/>
<stop offset="1" stop-color="#DB1F34"/>
</linearGradient>
<linearGradient id="paint5_linear" x1="2.96634" y1="1.5425" x2="0.118654" y2="1.5425" gradientUnits="userSpaceOnUse">
<stop stop-color="#873E8E"/>
<stop offset="1" stop-color="#DB1F34"/>
</linearGradient>
</defs>
</svg>
