<svg width="240" height="219" viewBox="0 0 240 219" fill="none" xmlns="http://www.w3.org/2000/svg">
<g opacity="0.75">
<path opacity="0.75" d="M233.696 75.3359C231.693 56.0572 221.077 37.9802 207.257 24.1096C201.648 18.4511 195.239 13.2434 187.728 10.6395C180.166 8.03562 171.253 8.38614 164.844 13.1432C160.086 16.6985 157.182 22.2067 152.876 26.3128C143.962 34.8255 130.292 36.1275 118.124 34.1245C105.956 32.1215 94.4387 27.3644 82.2705 25.3614C70.1024 23.3584 56.432 24.7105 47.5688 33.2732C37.2535 43.188 36.6025 59.5624 39.1062 73.6834C39.9575 78.4906 41.0591 83.498 39.5068 88.1049C37.1533 95.0152 29.7924 98.6206 23.8335 102.877C9.0114 113.543 0.799165 132.721 3.40304 150.798C6.2573 170.678 21.1295 187.403 39.0061 196.516C56.8827 205.68 77.4133 208.184 97.4932 208.284C106.056 208.334 114.619 207.983 123.081 206.732C147.668 203.176 170.802 192.36 191.183 178.139C202.55 170.227 213.316 161.064 221.428 149.847C236.851 128.665 240.656 100.423 233.696 75.3359Z" fill="#EDEFF4"/>
<g opacity="0.75">
<path opacity="0.75" d="M236.7 75.3357C234.096 51.8007 220.025 29.217 201.347 14.8957C192.233 7.88526 180.015 3.37854 168.698 7.68496C162.99 9.83817 159.184 13.9944 155.529 18.6513C151.923 23.158 148.168 27.0638 142.71 29.2671C131.643 33.7738 119.275 31.7708 108.108 28.7664C95.9398 25.5616 83.7216 21.155 70.9025 21.5556C59.836 21.9061 48.8697 25.862 42.1096 34.9756C35.5499 43.7887 34.2479 55.5062 35.1493 66.1721C35.65 72.181 37.9034 78.4905 37.2524 84.4994C36.6515 90.1078 32.0947 93.613 27.7382 96.5674C23.2315 99.6219 18.7749 102.626 14.9692 106.582C11.2136 110.538 8.00884 115.145 5.60526 120.102C0.748024 130.117 -1.10474 141.284 0.647874 152.3C2.35041 163.066 7.60824 172.981 14.6688 181.193C30.7427 199.971 54.9788 207.983 78.9145 210.337C105.504 212.991 132.394 210.537 157.181 200.322C168.798 195.515 179.865 189.506 190.28 182.445C200.746 175.385 210.861 167.373 219.073 157.708C234.596 139.531 241.707 115.696 239.654 91.9605C239.153 86.0517 238.102 80.2431 236.549 74.5346C235.548 70.829 229.739 72.3814 230.741 76.1369C236.549 97.5689 234.596 121.304 223.63 140.833C212.013 161.514 190.931 176.386 170.501 187.353C159.785 193.111 148.468 197.768 136.701 200.873C124.182 204.128 111.413 205.279 98.4936 205.229C74.7583 205.179 49.6208 201.874 30.0417 187.403C13.517 175.184 2.40049 154.904 7.00735 134.073C9.26071 123.908 14.6187 114.594 22.4303 107.734C29.7913 101.324 41.008 97.4687 42.9108 86.6526C43.9624 80.7939 42.1597 74.9852 41.4086 69.1766C40.7576 63.9688 40.5573 58.6108 41.2584 53.4031C42.6605 43.1378 48.0685 33.9741 57.9833 30.0683C80.5169 21.2051 103.451 37.1288 126.035 37.8799C136.4 38.2305 147.266 35.7267 154.928 28.4158C159.034 24.51 161.738 19.2021 166.245 15.747C170.451 12.4921 176.009 11.5908 181.167 12.1917C192.534 13.5437 201.697 22.2567 208.958 30.3688C216.519 38.7813 222.829 48.5959 226.735 59.2618C228.638 64.4696 229.99 69.8275 230.59 75.3357C231.141 79.1414 237.15 79.1915 236.7 75.3357Z" fill="#EDEFF4"/>
</g>
</g>
<path d="M177.01 86.4526C177.01 86.4526 176.96 86.9534 176.859 87.7045" stroke="#2E3062" stroke-linecap="round" stroke-linejoin="round"/>
<path d="M176.209 90.1071C174.407 95.2648 168.548 103.026 150.02 94.2633C122.129 81.0937 111.313 44.5392 81.2679 57.859C51.2231 71.1789 108.258 109.286 88.2783 125.66C59.2851 149.395 28.1387 122.205 38.9548 99.0704" stroke="#2E3062" stroke-linecap="round" stroke-linejoin="round" stroke-dasharray="5 5"/>
<path d="M39.5044 97.9698C39.7047 97.6193 39.905 97.2187 40.1053 96.8682" stroke="#2E3062" stroke-linecap="round" stroke-linejoin="round"/>
<path d="M213.1 131.954L155.815 168.959C154.613 169.76 153.011 169.41 152.21 168.208L131.078 135.409C130.277 134.207 130.627 132.605 131.829 131.804L189.165 94.8486C190.366 94.0474 191.969 94.3979 192.77 95.5997L213.901 128.349C214.653 129.55 214.352 131.203 213.1 131.954Z" fill="url(#paint0_linear)"/>
<path opacity="0.3" d="M196.554 101.452L134.882 141.269L141.917 152.165L203.588 112.347L196.554 101.452Z" fill="white"/>
<path d="M177.699 137.511L149.557 155.688C149.256 155.888 148.856 155.788 148.705 155.487L148.405 154.987C148.205 154.686 148.305 154.286 148.605 154.135L176.747 135.958C177.048 135.758 177.448 135.858 177.598 136.159L177.899 136.659C178.099 136.96 177.999 137.31 177.699 137.511Z" fill="white"/>
<path d="M179.701 140.564L151.559 158.741C151.259 158.942 150.858 158.841 150.708 158.541L150.407 158.04C150.207 157.74 150.307 157.339 150.608 157.189L178.75 139.012C179.05 138.812 179.451 138.912 179.601 139.212L179.901 139.713C180.052 139.963 179.951 140.364 179.701 140.564Z" fill="white"/>
<path d="M174.393 148.276L153.512 161.746C153.211 161.947 152.811 161.846 152.661 161.546L152.36 161.045C152.16 160.745 152.26 160.344 152.56 160.194L173.441 146.724C173.742 146.524 174.143 146.624 174.293 146.924L174.593 147.425C174.743 147.725 174.693 148.076 174.393 148.276Z" fill="white"/>
<path d="M205.339 128.148L198.128 132.805C197.377 133.256 196.425 133.055 195.975 132.354L193.671 128.749C193.221 127.998 193.421 127.046 194.122 126.596L201.333 121.939C202.084 121.488 203.035 121.689 203.486 122.39L205.789 125.995C206.29 126.696 206.09 127.647 205.339 128.148Z" fill="url(#paint1_radial)"/>
<path d="M159.636 187.403H126.787V195.064H159.636V187.403Z" fill="url(#paint2_linear)"/>
<path d="M159.636 187.403H126.787V188.504H159.636V187.403Z" fill="#FCCC54"/>
<path opacity="0.3" d="M130.993 187.4H129.541V195.062H130.993V187.4Z" fill="#FFBE00"/>
<path opacity="0.3" d="M135.299 187.399H133.847V195.061H135.299V187.399Z" fill="#FFBE00"/>
<path opacity="0.3" d="M139.606 187.399H138.154V195.061H139.606V187.399Z" fill="#FFBE00"/>
<path d="M143.911 187.399H142.459V195.061H143.911V187.399Z" fill="#FFBE00"/>
<path d="M148.218 187.399H146.766V195.061H148.218V187.399Z" fill="#FFBE00"/>
<path d="M152.576 187.399H151.124V195.061H152.576V187.399Z" fill="#FFBE00"/>
<path d="M156.881 187.399H155.429V195.061H156.881V187.399Z" fill="#FFBE00"/>
<path opacity="0.5" d="M157.383 187.4H139.406V195.062H157.383V187.4Z" fill="#FFE6B3"/>
<path opacity="0.5" d="M157.382 187.4H152.825V195.062H157.382V187.4Z" fill="#FCE8C5"/>
<path d="M198.493 187.403H165.644V195.064H198.493V187.403Z" fill="url(#paint3_linear)"/>
<path d="M198.493 187.403H165.644V188.504H198.493V187.403Z" fill="#FCCC54"/>
<path opacity="0.3" d="M169.85 187.4H168.398V195.062H169.85V187.4Z" fill="#FFBE00"/>
<path opacity="0.3" d="M174.157 187.399H172.705V195.061H174.157V187.399Z" fill="#FFBE00"/>
<path opacity="0.3" d="M178.462 187.399H177.01V195.061H178.462V187.399Z" fill="#FFBE00"/>
<path d="M182.77 187.399H181.317V195.061H182.77V187.399Z" fill="#FFBE00"/>
<path d="M187.075 187.399H185.623V195.061H187.075V187.399Z" fill="#FFBE00"/>
<path d="M191.432 187.399H189.98V195.061H191.432V187.399Z" fill="#FFBE00"/>
<path d="M195.738 187.399H194.286V195.061H195.738V187.399Z" fill="#FFBE00"/>
<path opacity="0.5" d="M196.24 187.4H178.263V195.062H196.24V187.4Z" fill="#FFE6B3"/>
<path opacity="0.5" d="M196.238 187.4H191.682V195.062H196.238V187.4Z" fill="#FCE8C5"/>
<path d="M149.921 69.9261C149.02 69.6256 148.069 69.3753 147.167 69.1249V65.0688C147.167 60.6122 143.562 57.0068 139.105 57.0068H99.8467C95.39 57.0068 91.7847 60.6122 91.7847 65.0688V69.1249C90.8833 69.3753 89.9319 69.6757 89.0306 69.9261C87.328 70.4769 86.1262 72.0793 86.1763 73.882L87.4282 165.018C87.5283 172.379 93.5373 178.338 100.948 178.338H138.104C145.465 178.338 151.524 172.429 151.624 165.018L152.876 73.882C152.826 72.0793 151.674 70.4769 149.921 69.9261Z" fill="#1D1D6D"/>
<path d="M143.762 28.5645H95.2397V84.5979H143.762V28.5645Z" fill="white"/>
<path d="M143.762 28.5645H95.2397V84.5979H143.762V28.5645Z" fill="url(#paint4_linear)"/>
<path d="M90.1821 84.1451L92.7359 83.3439C111.163 77.6354 127.688 77.6354 146.115 83.3439L148.669 84.1451L147.518 166.668C147.417 173.128 142.16 178.335 135.7 178.335H103.151C96.6918 178.335 91.3839 173.128 91.3338 166.668L90.1821 84.1451Z" fill="#1631A4"/>
<path d="M144.412 91.3569H94.438V128.663H144.412V91.3569Z" fill="white"/>
<path d="M144.412 91.3569H94.438V97.8166H144.412V91.3569Z" fill="url(#paint5_linear)"/>
<path d="M119.427 124.904C125.87 124.904 131.094 119.68 131.094 113.236C131.094 106.793 125.87 101.569 119.427 101.569C112.983 101.569 107.759 106.793 107.759 113.236C107.759 119.68 112.983 124.904 119.427 124.904Z" fill="url(#paint6_linear)"/>
<path d="M119.025 118.645C118.624 118.645 118.224 118.445 117.973 118.095L112.766 110.433C112.365 109.832 112.515 109.031 113.116 108.631C113.717 108.23 114.518 108.38 114.919 108.981L118.975 114.89L126.887 100.869C127.237 100.268 128.038 100.018 128.639 100.368C129.24 100.719 129.49 101.52 129.14 102.121L120.227 117.944C120.026 118.345 119.626 118.595 119.175 118.595C119.075 118.645 119.075 118.645 119.025 118.645Z" fill="#1631A4"/>
<path d="M101.198 141.281H95.7399C95.0389 141.281 94.438 140.68 94.438 139.979V137.525C94.438 136.824 95.0389 136.223 95.7399 136.223H101.198C101.899 136.223 102.5 136.824 102.5 137.525V139.979C102.5 140.73 101.899 141.281 101.198 141.281Z" fill="white"/>
<path d="M112.514 141.281H107.056C106.355 141.281 105.754 140.68 105.754 139.979V137.525C105.754 136.824 106.355 136.223 107.056 136.223H112.514C113.215 136.223 113.816 136.824 113.816 137.525V139.979C113.866 140.73 113.265 141.281 112.514 141.281Z" fill="white"/>
<path d="M131.744 141.281H126.286C125.585 141.281 124.984 140.68 124.984 139.979V137.525C124.984 136.824 125.585 136.223 126.286 136.223H131.744C132.445 136.223 133.046 136.824 133.046 137.525V139.979C133.046 140.73 132.445 141.281 131.744 141.281Z" fill="white"/>
<path d="M143.112 141.281H137.653C136.952 141.281 136.352 140.68 136.352 139.979V137.525C136.352 136.824 136.952 136.223 137.653 136.223H143.112C143.813 136.223 144.414 136.824 144.414 137.525V139.979C144.414 140.73 143.813 141.281 143.112 141.281Z" fill="white"/>
<path d="M104.402 151.895H98.0424C96.8406 151.895 95.8892 150.944 95.8892 149.742V147.739C95.8892 146.537 96.8406 145.586 98.0424 145.586H104.402C105.604 145.586 106.555 146.537 106.555 147.739V149.742C106.555 150.944 105.604 151.895 104.402 151.895Z" fill="white"/>
<path d="M122.58 151.895H116.22C115.018 151.895 114.067 150.944 114.067 149.742V147.739C114.067 146.537 115.018 145.586 116.22 145.586H122.58C123.781 145.586 124.733 146.537 124.733 147.739V149.742C124.783 150.944 123.781 151.895 122.58 151.895Z" fill="white"/>
<path d="M140.806 151.895H134.446C133.244 151.895 132.293 150.944 132.293 149.742V147.739C132.293 146.537 133.244 145.586 134.446 145.586H140.806C142.007 145.586 142.959 146.537 142.959 147.739V149.742C142.959 150.944 141.957 151.895 140.806 151.895Z" fill="white"/>
<path d="M104.401 160.305H98.0414C96.8396 160.305 95.8882 159.354 95.8882 158.152V156.149C95.8882 154.947 96.8396 153.996 98.0414 153.996H104.401C105.603 153.996 106.554 154.947 106.554 156.149V158.152C106.554 159.304 105.603 160.305 104.401 160.305Z" fill="white"/>
<path d="M122.579 160.305H116.219C115.017 160.305 114.066 159.354 114.066 158.152V156.149C114.066 154.947 115.017 153.996 116.219 153.996H122.579C123.78 153.996 124.732 154.947 124.732 156.149V158.152C124.782 159.304 123.78 160.305 122.579 160.305Z" fill="white"/>
<path d="M140.805 160.305H134.445C133.243 160.305 132.292 159.354 132.292 158.152V156.149C132.292 154.947 133.243 153.996 134.445 153.996H140.805C142.006 153.996 142.958 154.947 142.958 156.149V158.152C142.958 159.304 141.956 160.305 140.805 160.305Z" fill="white"/>
<path d="M104.401 168.672H98.0419C96.8401 168.672 95.8887 167.721 95.8887 166.519V164.516C95.8887 163.314 96.8401 162.363 98.0419 162.363H104.401C105.603 162.363 106.555 163.314 106.555 164.516V166.519C106.555 167.721 105.603 168.672 104.401 168.672Z" fill="white"/>
<path d="M122.579 168.673H116.219C115.017 168.673 114.066 167.721 114.066 166.519V164.516C114.066 163.315 115.017 162.363 116.219 162.363H122.579C123.78 162.363 124.732 163.315 124.732 164.516V166.519C124.782 167.721 123.78 168.673 122.579 168.673Z" fill="white"/>
<path d="M140.805 168.673H134.446C133.244 168.673 132.292 167.721 132.292 166.519V164.516C132.292 163.315 133.244 162.363 134.446 162.363H140.805C142.007 162.363 142.958 163.315 142.958 164.516V166.519C142.958 167.721 141.957 168.673 140.805 168.673Z" fill="white"/>
<path d="M96.391 138.126L88.98 130.064L142.46 80.8408L149.871 88.9028L96.391 138.126Z" fill="url(#paint7_linear)"/>
<path opacity="0.4" d="M132.696 31.3198H106.356V33.8736H132.696V31.3198Z" fill="#1D1D6D"/>
<g opacity="0.4">
<path opacity="0.4" d="M109.811 50.6968H98.4438V51.9987H109.811V50.6968Z" fill="#1D1D6D"/>
<path opacity="0.4" d="M123.933 50.6968H112.566V51.9987H123.933V50.6968Z" fill="#1D1D6D"/>
<g opacity="0.4">
<path opacity="0.4" d="M140.358 50.6978H137.554V51.9997H140.358V50.6978Z" fill="#1D1D6D"/>
<path opacity="0.4" d="M140.356 54.2031H137.552V55.5051H140.356V54.2031Z" fill="#1D1D6D"/>
<path opacity="0.4" d="M140.356 57.7085H137.552V59.0104H140.356V57.7085Z" fill="#1D1D6D"/>
<path opacity="0.4" d="M140.356 61.2139H137.552V62.5158H140.356V61.2139Z" fill="#1D1D6D"/>
<path opacity="0.4" d="M140.356 64.7681H137.552V66.07H140.356V64.7681Z" fill="#1D1D6D"/>
<path opacity="0.4" d="M140.356 68.2734H137.552V69.5754H140.356V68.2734Z" fill="#1D1D6D"/>
</g>
<g opacity="0.4">
<path opacity="0.4" d="M136.152 50.6978H134.7V51.9997H136.152V50.6978Z" fill="#1D1D6D"/>
<path opacity="0.4" d="M136.15 54.2031H134.698V55.5051H136.15V54.2031Z" fill="#1D1D6D"/>
<path opacity="0.4" d="M136.15 57.7085H134.698V59.0104H136.15V57.7085Z" fill="#1D1D6D"/>
<path opacity="0.4" d="M136.15 61.2139H134.698V62.5158H136.15V61.2139Z" fill="#1D1D6D"/>
<path opacity="0.4" d="M136.15 64.7681H134.698V66.07H136.15V64.7681Z" fill="#1D1D6D"/>
<path opacity="0.4" d="M136.15 68.2734H134.698V69.5754H136.15V68.2734Z" fill="#1D1D6D"/>
</g>
<path opacity="0.4" d="M112.965 54.2021H98.4438V55.5041H112.965V54.2021Z" fill="#1D1D6D"/>
<path opacity="0.4" d="M126.436 54.2021H116.521V55.5041H126.436V54.2021Z" fill="#1D1D6D"/>
<path opacity="0.4" d="M109.811 58.46H98.4438V59.7619H109.811V58.46Z" fill="#1D1D6D"/>
<path opacity="0.4" d="M123.933 58.46H112.566V59.7619H123.933V58.46Z" fill="#1D1D6D"/>
<path opacity="0.4" d="M112.965 61.9629H98.4438V63.2648H112.965V61.9629Z" fill="#1D1D6D"/>
<path opacity="0.4" d="M120.927 42.1318H98.4438V43.4338H120.927V42.1318Z" fill="#1D1D6D"/>
<path opacity="0.4" d="M140.406 42.1318H124.482V43.4338H140.406V42.1318Z" fill="#1D1D6D"/>
<path opacity="0.4" d="M131.043 61.9629H116.521V63.2648H131.043V61.9629Z" fill="#1D1D6D"/>
<path opacity="0.4" d="M109.811 66.2207H98.4438V67.5226H109.811V66.2207Z" fill="#1D1D6D"/>
<path opacity="0.4" d="M123.933 66.2207H112.566V67.5226H123.933V66.2207Z" fill="#1D1D6D"/>
<path opacity="0.4" d="M112.965 69.7261H98.4438V71.028H112.965V69.7261Z" fill="#1D1D6D"/>
<path opacity="0.4" d="M131.043 69.7261H116.521V71.028H131.043V69.7261Z" fill="#1D1D6D"/>
</g>
<path d="M214.599 183.502H146.447C144.995 183.502 143.843 182.35 143.843 180.898V141.89C143.843 140.437 144.995 139.286 146.447 139.286H214.649C216.101 139.286 217.253 140.437 217.253 141.89V180.898C217.203 182.35 216.051 183.502 214.599 183.502Z" fill="url(#paint8_linear)"/>
<path opacity="0.2" d="M217.252 148.9H143.843V161.869H217.252V148.9Z" fill="white"/>
<path d="M181.851 168.981H148.351C148 168.981 147.7 168.681 147.7 168.33V167.73C147.7 167.379 148 167.079 148.351 167.079H181.851C182.201 167.079 182.502 167.379 182.502 167.73V168.33C182.502 168.681 182.201 168.981 181.851 168.981Z" fill="white"/>
<path d="M181.85 172.587H148.35C148 172.587 147.699 172.287 147.699 171.936V171.336C147.699 170.985 148 170.685 148.35 170.685H181.85C182.201 170.685 182.501 170.985 182.501 171.336V171.936C182.501 172.337 182.201 172.587 181.85 172.587Z" fill="white"/>
<path d="M173.237 176.242H148.35C148 176.242 147.699 175.942 147.699 175.591V174.99C147.699 174.64 148 174.339 148.35 174.339H173.237C173.588 174.339 173.888 174.64 173.888 174.99V175.591C173.838 175.942 173.538 176.242 173.237 176.242Z" fill="white"/>
<path d="M210.141 176.094H201.579C200.727 176.094 200.026 175.393 200.026 174.542V170.286C200.026 169.434 200.727 168.733 201.579 168.733H210.141C210.993 168.733 211.694 169.434 211.694 170.286V174.542C211.744 175.393 211.043 176.094 210.141 176.094Z" fill="url(#paint9_linear)"/>
<path d="M155.929 179.541H121.778V187.553H155.929V179.541Z" fill="url(#paint10_linear)"/>
<path d="M155.929 179.541H121.778V180.693H155.929V179.541Z" fill="#FCCC54"/>
<path opacity="0.3" d="M126.184 179.539H124.682V187.551H126.184V179.539Z" fill="#FFBE00"/>
<path opacity="0.3" d="M130.691 179.539H129.189V187.551H130.691V179.539Z" fill="#FFBE00"/>
<path opacity="0.3" d="M135.149 179.539H133.647V187.551H135.149V179.539Z" fill="#FFBE00"/>
<path d="M139.655 179.539H138.152V187.551H139.655V179.539Z" fill="#FFBE00"/>
<path d="M144.111 179.539H142.609V187.551H144.111V179.539Z" fill="#FFBE00"/>
<path d="M148.619 179.539H147.117V187.551H148.619V179.539Z" fill="#FFBE00"/>
<path d="M153.075 179.539H151.573V187.551H153.075V179.539Z" fill="#FFBE00"/>
<path opacity="0.5" d="M153.626 179.538H134.948V187.55H153.626V179.538Z" fill="#FFE6B3"/>
<path opacity="0.5" d="M153.675 179.538H148.918V187.55H153.675V179.538Z" fill="#FCE8C5"/>
<path d="M70.2393 109.188C67.3349 109.439 65.382 108.287 64.2804 107.436C63.6795 106.985 62.8783 106.985 62.3275 107.436C61.2258 108.337 59.2229 109.489 56.3686 109.188C51.7617 108.738 49.2079 107.986 48.4067 109.639L57.9209 125.913L63.329 130.62L68.737 125.913L78.2512 109.639C77.3999 107.936 74.8461 108.738 70.2393 109.188Z" fill="url(#paint11_linear)"/>
<path d="M59.4732 108.886C58.5718 109.137 57.5703 109.287 56.3686 109.137C55.7677 109.087 55.2168 109.036 54.666 108.936L60.6249 122.256L59.4732 108.886Z" fill="url(#paint12_linear)"/>
<path d="M59.4732 108.886C58.5718 109.137 57.5703 109.287 56.3686 109.137C55.7677 109.087 55.2168 109.036 54.666 108.936L60.6249 122.256L59.4732 108.886Z" fill="url(#paint13_radial)"/>
<path d="M66.0826 123.359L75.3965 108.587C74.0946 108.637 72.392 108.938 70.2388 109.138C68.7366 109.288 67.4847 109.038 66.4331 108.637L63.9795 122.258L66.0826 123.359Z" fill="url(#paint14_linear)"/>
<path d="M66.0826 123.359L75.3965 108.587C74.0946 108.637 72.392 108.938 70.2388 109.138C68.7366 109.288 67.4847 109.038 66.4331 108.637L63.9795 122.258L66.0826 123.359Z" fill="url(#paint15_radial)"/>
<path d="M69.4882 123.359H69.2879V122.307L63.279 122.858L57.27 122.307V123.359H57.0697C57.0697 123.359 31.1311 143.689 34.6363 174.134C34.6363 174.134 33.9353 185.802 63.2289 185.351C92.5726 185.802 91.8215 174.134 91.8215 174.134C95.3768 143.739 69.4882 123.359 69.4882 123.359Z" fill="url(#paint16_linear)"/>
<path d="M56.0185 124.609C55.3675 124.609 54.8167 124.109 54.7666 123.458C54.7166 122.757 55.2173 122.156 55.9183 122.106L70.6403 121.004C71.2913 120.954 71.9422 121.455 71.9923 122.156C72.0424 122.857 71.5416 123.458 70.8406 123.508L56.1187 124.609C56.1187 124.609 56.0686 124.609 56.0185 124.609Z" fill="url(#paint17_linear)"/>
<path d="M70.6913 126.163C70.6412 126.163 70.6412 126.163 70.6913 126.163L55.9193 125.862C55.2183 125.862 54.6674 125.261 54.7175 124.61C54.7175 123.909 55.2683 123.409 55.9694 123.409L70.6913 123.709C71.3924 123.709 71.9432 124.31 71.8931 124.961C71.8931 125.612 71.3423 126.163 70.6913 126.163Z" fill="url(#paint18_linear)"/>
<path d="M42.3487 97.5698C41.8479 102.277 39.2941 105.882 36.0894 106.133C39.2941 106.383 41.8479 110.038 42.3487 114.695C42.8494 109.988 45.4032 106.383 48.608 106.133C45.4032 105.882 42.8494 102.277 42.3487 97.5698Z" fill="url(#paint19_radial)"/>
<path d="M49.9105 94.415C49.6101 97.1191 48.1579 99.1721 46.3052 99.3224C48.1079 99.4726 49.6101 101.526 49.9105 104.23C50.211 101.526 51.6632 99.4726 53.5159 99.3224C51.7132 99.1721 50.211 97.069 49.9105 94.415Z" fill="url(#paint20_radial)"/>
<path d="M56.4319 94.564C64.0648 94.564 70.2525 88.3763 70.2525 80.7434C70.2525 73.1105 64.0648 66.9229 56.4319 66.9229C48.799 66.9229 42.6113 73.1105 42.6113 80.7434C42.6113 88.3763 48.799 94.564 56.4319 94.564Z" fill="url(#paint21_linear)"/>
<path d="M56.4322 92.3611C62.8483 92.3611 68.0496 87.1598 68.0496 80.7438C68.0496 74.3277 62.8483 69.1265 56.4322 69.1265C50.0162 69.1265 44.8149 74.3277 44.8149 80.7438C44.8149 87.1598 50.0162 92.3611 56.4322 92.3611Z" fill="url(#paint22_radial)"/>
<path opacity="0.3" d="M56.4321 92.0595C62.6822 92.0595 67.7489 86.9928 67.7489 80.7426C67.7489 74.4925 62.6822 69.4258 56.4321 69.4258C50.182 69.4258 45.1152 74.4925 45.1152 80.7426C45.1152 86.9928 50.182 92.0595 56.4321 92.0595Z" stroke="#FFBE00" stroke-width="0.5" stroke-miterlimit="10"/>
<g opacity="0.5">
<path opacity="0.5" d="M57.3329 86.251V88.0036H55.7806V86.3011C54.2282 86.2009 52.7761 85.7002 51.9248 85.0492L52.7761 83.1464C53.5773 83.6972 54.6789 84.1479 55.7806 84.248V81.6441C54.078 81.2435 52.1251 80.6426 52.1251 78.4394C52.1251 76.7869 53.3269 75.3848 55.7806 75.0844V73.3818H57.3329V75.0844C58.4846 75.1845 59.6363 75.485 60.4876 76.0358L59.6864 77.9386C58.8852 77.4879 58.084 77.2376 57.2828 77.1374V79.7914C58.9853 80.192 60.8882 80.7929 60.8882 82.9461C60.9382 84.5485 59.7865 85.9506 57.3329 86.251ZM55.7806 79.3407V77.1374C54.9794 77.3377 54.6288 77.7884 54.6288 78.2891C54.6288 78.84 55.0795 79.1404 55.7806 79.3407ZM58.4345 83.0963C58.4345 82.5455 57.9838 82.245 57.3329 82.0447V84.1979C58.084 83.9976 58.4345 83.5971 58.4345 83.0963Z" fill="#FFBE00"/>
</g>
<g opacity="0.7">
<path opacity="0.2" d="M72.5317 79.2484L69.2051 73.3638L43.3127 88.0009L46.6393 93.8856L72.5317 79.2484Z" fill="#FFE6B3"/>
<path opacity="0.2" d="M43.9135 86.5525L41.6602 84.4995L67.5988 69.8276L69.8021 71.8807L43.9135 86.5525Z" fill="#FFE6B3"/>
</g>
<path d="M176.209 49.3965C168.548 49.3965 162.989 55.6057 162.989 63.2672C162.989 72.4308 176.209 82.1953 176.209 82.1953C176.209 82.1953 189.429 72.531 189.429 63.2672C189.429 55.6057 183.87 49.3965 176.209 49.3965ZM175.959 70.1274C172.503 70.1274 169.699 67.3232 169.699 63.868C169.699 60.4129 172.503 57.6087 175.959 57.6087C179.414 57.6087 182.218 60.4129 182.218 63.868C182.218 67.3232 179.414 70.1274 175.959 70.1274Z" fill="#15A88E"/>
<g opacity="0.75">
<path opacity="0.75" d="M21.2289 47.3932C19.4263 48.5949 19.276 51.5494 20.8784 52.9514C23.6826 51.4993 25.0847 47.7938 23.8829 44.8394C21.6295 45.6405 19.3261 46.9425 18.3747 49.1458C17.3732 51.3491 18.3747 54.4537 20.7282 54.9043C22.581 55.2549 24.3836 53.8528 25.0847 52.1002C25.8358 50.3976 25.7357 48.4447 25.6355 46.592" fill="#EDEFF4"/>
<g opacity="0.75">
<path opacity="0.75" d="M19.1261 45.2905C16.0715 47.6941 16.1717 52.4011 18.7756 55.0551C19.6769 56.0065 21.2292 56.1567 22.3809 55.5057C26.3368 53.2524 28.2897 48.3451 26.7374 44.0386C26.2367 42.6366 24.6844 41.3346 23.082 41.9355C19.9273 43.1373 16.7225 44.94 15.4706 48.295C14.5192 50.8989 15.02 54.1036 17.023 56.1066C19.3765 58.4601 22.9318 58.3099 25.4355 56.357C28.49 53.9534 28.7905 50.1477 28.6403 46.5424C28.49 42.7367 22.5312 42.6866 22.6814 46.5424C22.7315 47.9445 22.9818 49.7471 22.2808 51.0491C21.9303 51.65 21.4796 52.1007 21.1791 51.7501C19.6268 49.9975 23.6829 48.0446 24.6844 47.644C23.4826 46.943 22.2307 46.2419 21.0289 45.5409C21.6799 47.3936 21.1791 49.2464 19.4265 50.298C20.6283 50.4482 21.8301 50.5984 23.0319 50.7486C22.5312 50.2479 22.9318 49.7471 23.3824 49.3966C24.6343 48.3951 24.434 46.2419 23.3824 45.1904C22.0805 43.9886 20.378 44.289 19.1261 45.2905Z" fill="#EDEFF4"/>
</g>
</g>
<path d="M215.218 73.8848C216.72 73.8848 216.72 71.5814 215.218 71.5814C213.716 71.5313 213.716 73.8848 215.218 73.8848Z" fill="url(#paint23_linear)"/>
<path d="M2.80046 129.566C2.60016 129.266 2.29971 128.965 1.94919 128.965C1.54859 128.965 1.29822 129.266 1.09792 129.566C0.797475 129.967 0.647251 130.417 0.84755 130.918C1.04785 131.369 1.49852 131.719 1.94919 131.669C2.39986 131.669 2.80046 131.419 3.00076 131.068C3.3012 130.568 3.15098 130.017 2.80046 129.566Z" fill="url(#paint24_linear)"/>
<path d="M35.4 79.2918C35.6503 79.1415 35.9007 78.9913 36.101 78.791C36.5016 78.4906 36.752 77.7895 36.7019 77.2888C36.7019 76.788 36.5016 76.1371 36.101 75.7865C35.8506 75.5862 35.6503 75.436 35.4 75.2858C35.0495 75.0855 34.6489 74.9854 34.2483 74.9854C33.8477 74.9854 33.4471 75.0855 33.0965 75.2858C32.3955 75.6864 31.9448 76.4375 31.9448 77.2387C31.9448 78.0399 32.3955 78.791 33.0965 79.1916C33.4471 79.3919 33.8477 79.4921 34.2483 79.4921C34.6989 79.5922 35.0495 79.4921 35.4 79.2918Z" fill="url(#paint25_linear)"/>
<path d="M221.378 66.522C221.127 66.7723 220.877 67.0227 220.626 67.2731Z" fill="url(#paint26_linear)"/>
<path d="M219.324 64.4693C219.174 64.6195 219.074 64.7697 218.923 64.92C218.573 65.2705 218.322 65.7212 218.172 66.2219C218.022 66.7226 218.022 67.2735 218.172 67.7742C218.322 68.2249 218.523 68.7256 218.923 69.0762C219.324 69.4267 219.725 69.627 220.225 69.8273C220.726 69.9775 221.277 69.9775 221.778 69.8273C222.278 69.677 222.679 69.4267 223.08 69.0762C223.23 68.9259 223.38 68.8258 223.53 68.6756C224.081 68.1748 224.381 67.3235 224.381 66.6225C224.381 65.9215 224.081 65.0702 223.53 64.5694C222.979 64.0687 222.228 63.6681 221.477 63.7182C220.626 63.6681 219.825 63.9185 219.324 64.4693Z" fill="url(#paint27_linear)"/>
<defs>
<linearGradient id="paint0_linear" x1="130.681" y1="131.891" x2="214.312" y2="131.891" gradientUnits="userSpaceOnUse">
<stop offset="0.377078" stop-color="#B93038"/>
<stop offset="1" stop-color="#DF2932"/>
</linearGradient>
<radialGradient id="paint1_radial" cx="0" cy="0" r="1" gradientUnits="userSpaceOnUse" gradientTransform="translate(193.031 127.07) rotate(-32.8478) scale(20.2666)">
<stop stop-color="#E9A424"/>
<stop offset="1" stop-color="#F05927"/>
</radialGradient>
<linearGradient id="paint2_linear" x1="126.766" y1="191.26" x2="159.618" y2="191.26" gradientUnits="userSpaceOnUse">
<stop stop-color="#FEC008"/>
<stop offset="1" stop-color="#FE9C03"/>
</linearGradient>
<linearGradient id="paint3_linear" x1="165.62" y1="191.26" x2="198.473" y2="191.26" gradientUnits="userSpaceOnUse">
<stop stop-color="#FEC008"/>
<stop offset="1" stop-color="#FE9C03"/>
</linearGradient>
<linearGradient id="paint4_linear" x1="95.2319" y1="56.5764" x2="143.746" y2="56.5764" gradientUnits="userSpaceOnUse">
<stop stop-color="#1C2D94" stop-opacity="0"/>
<stop offset="1" stop-color="#1094D2" stop-opacity="0.2"/>
</linearGradient>
<linearGradient id="paint5_linear" x1="94.4289" y1="94.6159" x2="144.4" y2="94.6159" gradientUnits="userSpaceOnUse">
<stop stop-color="#8DAEFF"/>
<stop offset="1" stop-color="#8DAEFF" stop-opacity="0"/>
</linearGradient>
<linearGradient id="paint6_linear" x1="107.744" y1="113.235" x2="149.823" y2="113.235" gradientUnits="userSpaceOnUse">
<stop stop-color="#8DAEFF"/>
<stop offset="1" stop-color="#8DAEFF" stop-opacity="0"/>
</linearGradient>
<linearGradient id="paint7_linear" x1="88.9712" y1="109.471" x2="149.858" y2="109.471" gradientUnits="userSpaceOnUse">
<stop stop-color="#1C2D94" stop-opacity="0"/>
<stop offset="1" stop-color="#1094D2" stop-opacity="0.2"/>
</linearGradient>
<linearGradient id="paint8_linear" x1="148.015" y1="178.183" x2="218.713" y2="141.722" gradientUnits="userSpaceOnUse">
<stop stop-color="#15A88E"/>
<stop offset="1" stop-color="#087E69"/>
</linearGradient>
<linearGradient id="paint9_linear" x1="200.019" y1="172.383" x2="211.725" y2="172.383" gradientUnits="userSpaceOnUse">
<stop stop-color="#F4BA38"/>
<stop offset="1" stop-color="#FFD349"/>
</linearGradient>
<linearGradient id="paint10_linear" x1="121.792" y1="183.557" x2="155.966" y2="183.557" gradientUnits="userSpaceOnUse">
<stop stop-color="#FEC008"/>
<stop offset="1" stop-color="#FE9C03"/>
</linearGradient>
<linearGradient id="paint11_linear" x1="48.3744" y1="118.841" x2="78.2175" y2="118.841" gradientUnits="userSpaceOnUse">
<stop stop-color="#B93038"/>
<stop offset="1" stop-color="#E42731"/>
</linearGradient>
<linearGradient id="paint12_linear" x1="54.0836" y1="115.592" x2="60.6416" y2="115.592" gradientUnits="userSpaceOnUse">
<stop stop-color="#C5CCE9"/>
<stop offset="1" stop-color="#A2AFDB"/>
</linearGradient>
<radialGradient id="paint13_radial" cx="0" cy="0" r="1" gradientUnits="userSpaceOnUse" gradientTransform="translate(63.8684 134.645) scale(32.6787)">
<stop stop-color="#E42731"/>
<stop offset="1" stop-color="#A50D16"/>
</radialGradient>
<linearGradient id="paint14_linear" x1="64.0157" y1="115.999" x2="76.3979" y2="115.999" gradientUnits="userSpaceOnUse">
<stop stop-color="#C5CCE9"/>
<stop offset="1" stop-color="#A2AFDB"/>
</linearGradient>
<radialGradient id="paint15_radial" cx="0" cy="0" r="1" gradientUnits="userSpaceOnUse" gradientTransform="translate(63.8681 134.646) scale(32.6786)">
<stop stop-color="#E42731"/>
<stop offset="1" stop-color="#A50D16"/>
</radialGradient>
<linearGradient id="paint16_linear" x1="34.3579" y1="153.835" x2="92.2342" y2="153.835" gradientUnits="userSpaceOnUse">
<stop stop-color="#B53138"/>
<stop offset="1" stop-color="#E42731"/>
</linearGradient>
<linearGradient id="paint17_linear" x1="54.792" y1="122.836" x2="71.9943" y2="122.836" gradientUnits="userSpaceOnUse">
<stop stop-color="#F3F5F4"/>
<stop offset="1" stop-color="#BCBCBC"/>
</linearGradient>
<linearGradient id="paint18_linear" x1="54.6774" y1="124.77" x2="71.9176" y2="124.77" gradientUnits="userSpaceOnUse">
<stop stop-color="#BCBCBC"/>
<stop offset="1" stop-color="#F3F5F4"/>
</linearGradient>
<radialGradient id="paint19_radial" cx="0" cy="0" r="1" gradientUnits="userSpaceOnUse" gradientTransform="translate(43.787 114.283) scale(21.5393)">
<stop stop-color="#F0DC20"/>
<stop offset="1" stop-color="#F07A20"/>
</radialGradient>
<radialGradient id="paint20_radial" cx="0" cy="0" r="1" gradientUnits="userSpaceOnUse" gradientTransform="translate(43.7877 114.283) scale(21.5395)">
<stop stop-color="#F0DC20"/>
<stop offset="1" stop-color="#F07A20"/>
</radialGradient>
<linearGradient id="paint21_linear" x1="42.6257" y1="80.7214" x2="70.2303" y2="80.7214" gradientUnits="userSpaceOnUse">
<stop stop-color="#FEC008"/>
<stop offset="1" stop-color="#FE9C03"/>
</linearGradient>
<radialGradient id="paint22_radial" cx="0" cy="0" r="1" gradientUnits="userSpaceOnUse" gradientTransform="translate(66.7679 64.0904) scale(39.3305)">
<stop offset="0.0806182" stop-color="#F0DC20"/>
<stop offset="1" stop-color="#F07A20"/>
</radialGradient>
<linearGradient id="paint23_linear" x1="214.772" y1="73.7866" x2="215.68" y2="71.6303" gradientUnits="userSpaceOnUse">
<stop stop-color="#4F6AD9"/>
<stop offset="1" stop-color="#658BFD"/>
</linearGradient>
<linearGradient id="paint24_linear" x1="1.91153" y1="130.509" x2="2.22465" y2="129.766" gradientUnits="userSpaceOnUse">
<stop stop-color="#4F6AD9"/>
<stop offset="1" stop-color="#658BFD"/>
</linearGradient>
<linearGradient id="paint25_linear" x1="34.2998" y1="77.4679" x2="34.5053" y2="76.9799" gradientUnits="userSpaceOnUse">
<stop stop-color="#4F6AD9"/>
<stop offset="1" stop-color="#658BFD"/>
</linearGradient>
<linearGradient id="paint26_linear" x1="220.749" y1="67.5305" x2="221.166" y2="66.5413" gradientUnits="userSpaceOnUse">
<stop stop-color="#4F6AD9"/>
<stop offset="1" stop-color="#658BFD"/>
</linearGradient>
<linearGradient id="paint27_linear" x1="220.881" y1="67.4797" x2="221.309" y2="66.4631" gradientUnits="userSpaceOnUse">
<stop stop-color="#4F6AD9"/>
<stop offset="1" stop-color="#658BFD"/>
</linearGradient>
</defs>
</svg>
