<svg width="209" height="225" viewBox="0 0 209 225" fill="none" xmlns="http://www.w3.org/2000/svg">
<path opacity="0.42" d="M48.0355 205.515H161.965C187.373 187.871 204 158.936 204 126.119C204 72.3642 159.623 21.1975 104.941 21.1975C50.2602 21.1975 6 72.3642 6 126.001C6 158.936 22.6268 187.871 48.0355 205.515Z" fill="url(#paint0_linear)"/>
<path d="M91.2425 190.34L91.828 194.222L88.9007 198.103L81.4069 194.457L80.4702 190.928L89.8375 189.399L91.2425 190.34Z" fill="#F2BF75"/>
<path d="M85.2707 202.925L84.4511 201.984C84.334 201.866 83.9828 201.866 83.8657 201.984L83.046 202.925C82.6948 203.278 82.2264 203.513 81.758 203.513H64.5457C64.1945 203.16 64.0774 202.572 64.5457 202.219C67.0046 199.631 80.7042 194.926 81.4068 194.574C82.1093 194.221 86.3246 197.397 91.8278 194.338C91.8278 194.338 92.7645 198.69 92.9987 201.513C93.1158 202.69 92.1791 203.631 91.0082 203.631H86.5587C86.0904 203.513 85.622 203.395 85.2707 202.925Z" fill="#1E394C"/>
<path d="M119.11 190.457L119.695 194.339L116.768 198.221L109.274 194.692L108.455 191.045L117.705 189.516L119.11 190.457Z" fill="#F2BF75"/>
<path d="M113.256 203.162L112.436 202.221C112.319 202.103 111.968 202.103 111.851 202.221L111.031 203.162C110.68 203.515 110.212 203.75 109.743 203.75H92.2967C91.9454 203.397 91.8283 202.809 92.2967 202.456C94.7556 199.868 108.455 195.163 109.158 194.81C109.86 194.458 114.076 197.633 119.579 194.575C119.579 194.575 120.516 198.927 120.75 201.75C120.867 202.927 119.93 203.868 118.759 203.868H114.31C113.958 203.75 113.49 203.515 113.256 203.162Z" fill="#1E394C"/>
<path d="M78.948 64.4814L73.6789 84.7129L59.1597 75.0677L52.7197 80.2431L71.5713 98.0044L85.0367 85.4186L78.948 64.4814Z" fill="#CEE5ED"/>
<path d="M59.1603 75.0694L54.945 66.7181C54.4767 65.7771 53.4228 65.5418 52.4861 66.0123C50.1443 67.4238 48.9734 70.1292 49.5589 72.8346C50.1443 75.5399 51.081 78.5982 52.6032 80.2449L59.1603 75.0694Z" fill="#F2BF75"/>
<path d="M54.0074 59.0724L49.4408 58.7195C48.7383 58.7195 48.387 59.0724 48.5041 59.6605L51.6656 72.5992C51.7827 73.1873 52.4852 73.6578 53.1877 73.7754L57.7543 74.1283C58.8081 74.2459 59.3935 76.1279 58.691 73.1873L55.4125 60.2486C55.2954 59.6605 54.7099 59.0724 54.0074 59.0724Z" fill="#1E394C"/>
<path d="M59.1586 75.1851L60.0953 72.1268C60.4466 71.3035 60.2124 70.3625 59.5099 69.892L57.8706 68.8333C57.4023 68.4805 56.6997 68.5981 56.3485 69.0686C55.8801 69.5391 55.9972 70.3625 56.4655 70.7153L57.1681 71.3035L57.8706 71.8916L56.3485 74.3617L59.1586 75.1851Z" fill="#F2BF75"/>
<path d="M120.046 191.398C120.046 186.811 114.777 111.296 114.777 111.296C114.777 111.296 104.122 100.945 98.3843 102.004C92.6469 100.945 79.5327 108.591 79.5327 108.591C79.5327 108.591 79.7669 186.929 79.7669 191.398H92.2956C92.2956 191.398 92.4127 155.405 97.2134 129.293C97.4476 128.116 99.2039 127.999 99.4381 129.175C104.356 155.17 107.517 191.398 107.517 191.398H120.046Z" fill="#1E394C"/>
<path d="M98.6192 52.1309C98.6192 52.1309 113.373 55.7772 115.363 58.1297C117.354 60.4822 125.082 75.1853 124.965 80.2431C124.847 86.0067 114.895 98.4749 115.129 97.7692V115.295C115.129 115.295 92.5305 122.353 78.8309 113.766C78.8309 113.766 77.3087 68.7159 79.1822 63.7757C79.7676 62.2466 87.1443 55.7772 89.369 54.9538C91.5937 54.0129 98.6192 52.1309 98.6192 52.1309Z" fill="#CEE5ED"/>
<path d="M124.964 80.2431C124.847 85.4186 116.884 95.8872 115.362 97.5339C115.245 97.6516 115.128 97.7692 115.128 97.7692L110.093 102.239L104.122 96.8282C104.122 96.8282 115.245 88.9473 113.606 78.714C112.552 71.5389 105.175 58.7178 105.175 58.7178C102.599 57.3063 100.141 54.601 98.2671 52.2485C98.5013 52.1309 98.6184 52.1309 98.6184 52.1309C98.6184 52.1309 113.372 55.7772 115.362 58.1297C117.47 60.4822 125.198 75.3029 124.964 80.2431Z" fill="#CEE5ED"/>
<path d="M122.974 76.3633H74.2641C71.3368 76.3633 68.8779 78.7158 68.8779 81.774V104.005C68.8779 106.946 71.2197 109.416 74.2641 109.416H122.974C125.901 109.416 128.36 107.063 128.36 104.005V81.774C128.243 78.8334 125.901 76.3633 122.974 76.3633Z" fill="#87D3F9"/>
<path opacity="0.25" d="M122.973 76.363H116.65C119.577 76.363 122.036 78.7155 122.036 81.7738V104.005C122.036 106.945 119.694 109.416 116.65 109.416H122.973C125.9 109.416 128.359 107.063 128.359 104.005V81.7738C128.242 78.8332 125.9 76.363 122.973 76.363Z" fill="#34648C"/>
<path d="M128.242 87.0664H68.8774V94.712H128.242V87.0664Z" fill="#1E394C"/>
<path d="M86.3243 99.8879H74.6152V101.535H86.3243V99.8879Z" fill="#1E394C"/>
<path d="M80.2356 103.533H74.6152V105.18H80.2356V103.533Z" fill="#1E394C"/>
<path d="M99.4383 43.897V54.4832C99.4383 54.4832 96.0426 65.0694 88.0805 56.718L87.3779 48.2491L99.4383 43.897Z" fill="#EA9249"/>
<path d="M78.9481 35.6641C78.9481 35.6641 65.5998 32.8412 73.7961 21.4316C73.7961 21.4316 75.2012 27.5481 82.4608 22.2549C86.0906 19.5496 91.5939 18.9615 97.6826 22.2549C104.24 25.7837 106.464 36.7228 100.844 42.3687L89.9546 40.1339L78.9481 35.6641Z" fill="#1E394C"/>
<path d="M78.9471 35.6633C78.9471 35.6633 77.4249 53.8951 89.3681 52.7188C98.7354 51.7778 98.3841 44.7204 98.3841 44.7204C98.3841 44.7204 101.428 44.1322 101.546 41.3092C101.663 38.4863 100.843 36.2514 98.0328 38.1334C98.0328 38.1334 93.115 34.9575 92.8808 32.7227C92.9979 32.7227 87.2605 35.7809 78.9471 35.6633Z" fill="#F2BF75"/>
<path d="M94.7546 114.002C94.1691 114.707 94.4033 116.001 95.223 116.707L97.2135 118.354C98.1502 119.06 99.3211 119.06 99.9066 118.236L106.347 110.238L100.258 105.533L93.5837 110.238C93.1153 110.591 93.1153 111.296 93.5837 111.649C93.8179 111.884 94.2862 112.002 94.6375 111.884C95.9255 111.649 96.3939 110.943 96.3939 110.943L94.7546 114.002Z" fill="#F6BA8E"/>
<path d="M99.0869 105.532L106.229 111.296C106.229 111.296 125.666 89.7706 125.666 81.5369C125.666 76.9495 120.163 65.7752 116.65 59.7764H104.122C104.122 59.7764 113.138 73.3032 115.831 79.8902C116.299 81.184 116.182 82.4779 115.48 83.6541C112.084 88.3591 102.483 102.356 99.0869 105.532Z" fill="#CEE5ED"/>
<path d="M116.651 59.7764C116.651 59.7764 123.793 77.6553 123.793 81.184C123.676 88.2415 108.22 105.179 104.239 109.767L106.23 111.414C106.23 111.414 125.667 89.8882 125.667 81.6545C125.784 76.9495 120.164 65.7752 116.651 59.7764Z" fill="#B4CCD3"/>
<path d="M113.957 76.2442L113.606 76.3618H81.172L80.7036 76.2442L111.147 75.4208C111.147 75.4208 107.166 64.3641 107.869 64.717C108.454 65.0699 113.957 76.2442 113.957 76.2442Z" fill="#B4CCD3"/>
<path d="M84.2162 50.0135C82.9282 48.602 82.694 46.2495 82.694 46.2495C82.694 46.2495 81.2889 46.2495 81.0547 46.0143C80.9376 45.8967 81.5231 40.8388 81.5231 40.0154C81.406 39.4273 81.1718 36.9572 80.9376 35.6633C80.118 35.6633 79.8838 35.781 78.9471 35.781C78.9471 35.781 77.4249 54.0128 89.3681 52.8365C86.4409 52.7189 85.5042 51.425 84.2162 50.0135Z" fill="#EA9249"/>
<path d="M59.5108 41.8981C58.457 36.3698 53.1879 32.6058 47.6846 33.6644C42.1814 34.723 38.4345 40.0161 39.4883 45.5445C40.425 51.0728 45.577 54.7192 51.0802 53.8958L53.1879 56.3659L53.6562 53.1901C57.7544 51.3081 60.3304 46.7207 59.5108 41.8981ZM44.289 44.7211C43.5865 44.7211 43.001 44.133 43.001 43.4272C43.001 42.7215 43.5865 42.1334 44.289 42.1334C44.9915 42.1334 45.577 42.7215 45.577 43.4272C45.577 44.133 44.9915 44.7211 44.289 44.7211ZM49.3239 44.7211C48.6213 44.7211 48.0359 44.133 48.0359 43.4272C48.0359 42.7215 48.6213 42.1334 49.3239 42.1334C50.0264 42.1334 50.6119 42.7215 50.6119 43.4272C50.6119 44.133 50.0264 44.7211 49.3239 44.7211ZM54.3588 44.7211C53.6562 44.7211 53.0708 44.133 53.0708 43.4272C53.0708 42.7215 53.6562 42.1334 54.3588 42.1334C55.0613 42.1334 55.6468 42.7215 55.6468 43.4272C55.6468 44.133 55.0613 44.7211 54.3588 44.7211Z" fill="#0E5C77"/>
<defs>
<linearGradient id="paint0_linear" x1="104.973" y1="191.361" x2="104.973" y2="-13.306" gradientUnits="userSpaceOnUse">
<stop stop-color="white"/>
<stop offset="0.1258" stop-color="#F8FCFE"/>
<stop offset="0.3051" stop-color="#E6F3FC"/>
<stop offset="0.5164" stop-color="#C7E5F9"/>
<stop offset="0.7522" stop-color="#9CD1F5"/>
<stop offset="1" stop-color="#67B8EF"/>
</linearGradient>
</defs>
</svg>
