<svg width="209" height="225" viewBox="0 0 209 225" fill="none" xmlns="http://www.w3.org/2000/svg">
<path opacity="0.43" d="M160.559 219.995C160.794 212.57 129.999 199.607 91.8273 191.003C53.5387 182.4 22.3926 181.457 22.0414 188.882C21.8072 196.307 52.602 209.271 90.7735 217.874C129.062 226.477 160.208 227.42 160.559 219.995Z" fill="#CEE5ED"/>
<path opacity="0.42" d="M48.0355 213.16H161.965C187.373 195.482 204 166.49 204 133.609C204 79.8684 159.74 28.6025 105.059 28.6025C50.2602 28.4846 6 79.8684 6 133.609C6 166.49 22.6268 195.6 48.0355 213.16Z" fill="url(#paint0_linear)"/>
<path d="M110.577 139.974C104.02 137.617 98.6338 130.31 98.6338 123.71V12.1037C98.6338 5.50393 104.02 2.08621 110.577 4.56111L158.701 22.239C165.258 24.596 170.644 31.9029 170.644 38.5026V150.109C170.644 156.709 165.258 160.126 158.701 157.652L110.577 139.974Z" fill="#17161C"/>
<path d="M111.28 143.626C104.371 141.033 98.751 133.373 98.751 126.419V8.80257C98.751 1.84926 104.371 -1.68631 111.28 0.788592L161.98 19.4093C168.888 22.0021 174.509 29.6625 174.509 36.6158V154.233C174.509 161.186 168.888 164.722 161.98 162.247L111.28 143.626Z" fill="#1E394C"/>
<path d="M110.578 135.495C106.48 133.963 103.201 129.485 103.201 125.36V13.7534C103.201 9.62851 106.48 7.62502 110.578 9.03925L158.702 26.7171C162.8 28.2492 166.079 32.7276 166.079 36.8525V148.459C166.079 152.584 162.8 154.587 158.702 153.173L110.578 135.495Z" fill="#62BDF4"/>
<path opacity="0.25" d="M158.701 26.7154L110.577 9.03749C107.649 7.97682 105.19 8.68394 104.02 10.6874C105.308 9.98031 106.947 9.98031 108.82 10.6874L156.944 28.3653C161.043 29.8974 164.321 34.3758 164.321 38.5006V150.107C164.321 151.286 164.087 152.346 163.501 153.171C165.024 152.346 166.077 150.696 166.077 148.575V36.9686C166.077 32.7259 162.799 28.2475 158.701 26.7154Z" fill="#34648C"/>
<path d="M152.496 23.5343L116.666 10.4526L118.305 14.8132C119.008 16.8167 120.647 18.4666 122.521 19.1737L146.758 28.0127C148.632 28.7198 150.271 28.2484 150.974 26.8341L152.496 23.5343Z" fill="#1E394C"/>
<path d="M156.711 42.0371L112.451 25.7735C110.109 24.9485 108.118 26.127 108.118 28.4841V48.519C108.118 50.876 109.992 53.5867 112.451 54.4116L156.711 70.7931C159.053 71.6181 161.043 70.4396 161.043 68.0825V48.0476C161.043 45.5727 159.053 42.9799 156.711 42.0371Z" fill="#87D3F9"/>
<path d="M156.711 77.3928L112.451 61.1292C110.109 60.3042 108.118 61.4827 108.118 63.8398V83.8747C108.118 86.2318 109.992 88.9424 112.451 89.7673L156.711 106.031C159.053 106.856 161.043 105.677 161.043 103.32V83.2854C161.043 80.9284 159.053 78.2178 156.711 77.3928Z" fill="#87D3F9"/>
<path d="M156.711 112.983L112.451 96.7195C110.109 95.8945 108.118 97.0731 108.118 99.4301V119.465C108.118 121.822 109.992 124.533 112.451 125.358L156.711 141.621C159.053 142.446 161.043 141.268 161.043 138.911V118.876C161.043 116.519 159.053 113.926 156.711 112.983Z" fill="#87D3F9"/>
<path d="M142.542 45.4551L127.203 39.7982C126.735 39.5625 126.267 39.916 126.267 40.3874C126.267 40.8588 126.735 41.4481 127.203 41.6838L142.542 47.3407C143.011 47.5764 143.479 47.2229 143.479 46.7515C143.479 46.1622 143.128 45.5729 142.542 45.4551Z" fill="#1E394C"/>
<path d="M142.542 55.9444L127.203 50.2874C126.735 50.0517 126.267 50.4053 126.267 50.8767C126.267 51.3481 126.735 51.9374 127.203 52.1731L142.542 57.83C143.011 58.0657 143.479 57.7121 143.479 57.2407C143.479 56.7693 143.128 56.1801 142.542 55.9444Z" fill="#1E394C"/>
<path d="M147.226 52.5267L121.935 43.2164C121.466 42.9807 120.998 43.3342 120.998 43.8056C120.998 44.2771 121.466 44.8663 121.935 45.102L147.226 54.4124C147.695 54.6481 148.163 54.2945 148.163 53.8231C148.163 53.2338 147.812 52.6446 147.226 52.5267Z" fill="#1E394C"/>
<path d="M142.542 83.2847L127.203 77.6278C126.735 77.3921 126.267 77.7456 126.267 78.217C126.267 78.6884 126.735 79.2777 127.203 79.5134L142.542 85.1703C143.011 85.406 143.479 85.0525 143.479 84.5811C143.479 83.9918 143.128 83.5204 142.542 83.2847Z" fill="#1E394C"/>
<path d="M147.226 90.3563L121.935 81.046C121.466 80.8103 120.998 81.1638 120.998 81.6352C120.998 82.1066 121.466 82.6959 121.935 82.9316L147.226 92.242C147.695 92.4777 148.163 92.1241 148.163 91.6527C148.163 91.0634 147.812 90.592 147.226 90.3563Z" fill="#1E394C"/>
<path d="M142.542 116.403L127.203 110.746C126.735 110.51 126.267 110.864 126.267 111.335C126.267 111.806 126.735 112.396 127.203 112.631L142.542 118.288C143.011 118.524 143.479 118.17 143.479 117.699C143.479 117.11 143.128 116.52 142.542 116.403Z" fill="#1E394C"/>
<path d="M142.542 126.774L127.203 121.118C126.735 120.882 126.267 121.235 126.267 121.707C126.267 122.178 126.735 122.767 127.203 123.003L142.542 128.66C143.011 128.896 143.479 128.542 143.479 128.071C143.479 127.599 143.128 127.01 142.542 126.774Z" fill="#1E394C"/>
<path d="M147.226 123.474L121.935 114.164C121.466 113.928 120.998 114.282 120.998 114.753C120.998 115.225 121.466 115.814 121.935 116.05L147.226 125.36C147.695 125.596 148.163 125.242 148.163 124.771C148.163 124.181 147.812 123.592 147.226 123.474Z" fill="#1E394C"/>
<path d="M98.9858 203.731C98.9858 203.731 96.644 202.906 96.4098 197.838H89.6186L88.916 204.909L93.9509 209.152L98.2833 206.913L98.9858 203.731Z" fill="#F2BF75"/>
<path d="M89.0337 204.791C89.0337 204.791 96.8788 207.384 98.9864 203.731C98.9864 203.731 113.506 209.152 113.389 210.802C113.271 213.395 101.211 213.866 98.518 213.277L96.1762 210.92L95.1224 213.63H88.4482C88.6824 213.63 88.6824 205.263 89.0337 204.791Z" fill="#1E394C"/>
<path d="M73.8121 203.847C73.8121 203.847 71.5873 202.905 71.4703 197.837L64.7961 197.483L63.8594 204.437L68.6601 208.915L73.1095 206.912L73.8121 203.847Z" fill="#F2BF75"/>
<path d="M63.8586 204.437C63.8586 204.437 71.5866 207.384 73.9284 203.848C73.9284 203.848 86.6912 208.444 87.3938 210.566C88.0963 212.687 75.6847 214.101 73.1087 213.276L70.884 210.801L69.7131 213.394L63.156 213.041C63.0389 213.158 63.5073 204.791 63.8586 204.437Z" fill="#1E394C"/>
<path d="M59.292 123.471C59.292 123.471 63.6243 141.267 64.6782 144.331C65.732 147.277 67.9567 161.773 68.0738 162.245C68.1909 162.716 63.156 200.075 63.156 200.075C63.156 200.075 70.0643 201.607 72.7574 199.84L80.2512 162.127L76.9727 125.003L59.292 123.471Z" fill="#1E394C"/>
<path d="M60.2295 122.529C60.2295 122.529 67.0207 134.078 72.9924 139.264C78.964 144.449 86.4578 158.356 86.4578 158.356L87.3945 199.722C90.3217 201.49 93.8345 201.608 96.8788 199.958L97.3472 199.722C97.3472 199.722 98.401 156.706 98.2839 153.877C98.0497 151.049 83.0621 118.168 83.0621 118.168L60.2295 122.529Z" fill="#1E394C"/>
<path d="M86.223 46.5144C86.223 46.5144 80.9539 65.2529 72.5234 64.6637C65.1467 64.1923 63.7416 56.414 65.498 46.8679C67.3714 36.9683 75.4507 38.2647 80.2514 38.2647C80.2514 38.2647 86.1059 38.2647 87.0426 33.6685C87.0426 33.7863 93.951 43.0967 86.223 46.5144Z" fill="#1E394C"/>
<path d="M72.8745 69.3769C72.8745 69.3769 62.5705 67.4913 57.7698 89.7654C55.7792 99.0758 66.3174 113.69 66.3174 113.69L77.3239 92.3582L72.8745 69.3769Z" fill="#AAC6CE"/>
<path d="M116.197 56.7667C116.197 56.7667 120.061 45.9242 120.061 42.9779C120.061 40.0316 122.286 42.6244 122.169 44.8636C122.052 47.1028 121.583 49.5777 121.583 49.5777C121.583 49.5777 124.628 49.8134 124.628 51.2276C124.628 52.6418 123.691 57.7095 122.286 58.4166L116.197 56.7667Z" fill="#F2BF75"/>
<path d="M78.6114 70.792C85.5198 74.3275 100.156 83.6379 103.552 80.5737C106.947 77.5096 116.197 56.6497 116.197 56.6497L122.169 58.4174C122.169 58.4174 109.289 93.184 105.425 93.0661C101.561 92.9482 88.6812 90.4733 88.6812 90.4733C88.6812 90.4733 87.5103 114.987 83.9976 121.822C83.9976 121.822 66.5511 128.186 57.5352 123.001C57.5352 123.001 65.0289 113.337 63.0384 99.1944C60.9308 84.4629 64.9119 63.7208 78.6114 70.792Z" fill="#CEE5ED"/>
<path d="M86.2221 46.5139C86.2221 46.5139 86.8075 49.8138 87.8613 51.3459C88.798 52.878 90.9057 54.41 90.9057 54.41L89.2664 56.5314C89.2664 56.5314 90.5544 64.0739 82.5922 65.4882L81.7726 72.9129L72.8737 69.8487L72.5225 64.7811C72.5225 64.7811 73.9276 63.249 74.0446 61.599C74.0446 61.599 72.2883 59.8313 72.8737 57.8278C73.4592 55.8243 75.2155 54.1743 76.1523 54.9993C76.9719 55.7064 77.089 57.2385 77.089 57.2385H78.2599C78.2599 57.2385 78.0257 53.8208 78.7283 52.4065C79.665 50.4031 82.0068 47.4567 86.2221 46.5139Z" fill="#EA9249"/>
<path d="M81.8888 72.7957L82.7084 65.371C90.5535 63.9568 89.3826 56.4142 89.3826 56.4142L91.0218 54.2929C91.0218 54.2929 88.9142 52.7608 87.9775 51.2287C87.0408 49.6966 86.3382 46.3967 86.3382 46.3967C85.987 46.5146 85.6357 46.6324 85.2844 46.7503C85.8699 48.2824 86.6895 50.8751 86.8066 53.35C87.1579 57.2392 86.4553 61.4819 81.1862 64.7817C79.4299 65.8424 78.7273 68.9066 78.4932 71.735L81.8888 72.7957Z" fill="#F2BF75"/>
<path d="M78.8461 147.044C72.9916 145.748 67.3712 142.212 63.0389 138.677C61.6338 133.374 59.8774 126.067 59.292 123.945C59.9945 124.181 60.6971 124.417 61.3996 124.535C63.6243 128.188 68.4251 135.377 72.8745 139.148C74.7479 140.798 76.8556 143.273 78.729 145.866L78.8461 147.044Z" fill="#0F2A3F"/>
<path opacity="0.43" d="M177.186 184.875C177.069 182.046 163.37 177.214 146.392 174.032C129.531 170.85 115.831 170.615 115.948 173.443C116.065 176.272 129.765 181.103 146.743 184.285C163.604 187.468 177.303 187.703 177.186 184.875Z" fill="#CEE5ED"/>
<defs>
<linearGradient id="paint0_linear" x1="104.973" y1="199.029" x2="104.973" y2="-6.03425" gradientUnits="userSpaceOnUse">
<stop stop-color="white"/>
<stop offset="0.1258" stop-color="#F8FCFE"/>
<stop offset="0.3051" stop-color="#E6F3FC"/>
<stop offset="0.5164" stop-color="#C7E5F9"/>
<stop offset="0.7522" stop-color="#9CD1F5"/>
<stop offset="1" stop-color="#67B8EF"/>
</linearGradient>
</defs>
</svg>
