<svg width="1067" height="743" viewBox="0 0 1067 743" fill="none" xmlns="http://www.w3.org/2000/svg">
<mask id="mask0" mask-type="alpha" maskUnits="userSpaceOnUse" x="0" y="0" width="1067" height="743">
<rect width="1067" height="743" fill="#C4C4C4"/>
</mask>
<g mask="url(#mask0)">
<path fill-rule="evenodd" clip-rule="evenodd" d="M76.6467 529.735H-29.6428H-32.3496C-90.9983 529.735 -139 577.729 -139 636.367C-139 695.006 -90.9983 743 -32.3496 743H278.94H332.535H888.886C983.806 743 1061.58 665.416 1061.58 570.331C1061.58 475.426 983.987 397.662 888.886 397.662C848.824 397.662 815.981 364.824 815.981 324.769C815.981 284.714 848.824 251.877 888.886 251.877H976.769C1018.45 251.877 1052.74 217.776 1052.74 175.917C1052.74 134.238 1018.63 99.9568 976.769 99.9568H865.607C849.366 99.9568 836.012 86.6051 836.012 70.3667C836.012 54.1282 849.366 40.7766 865.607 40.7766H885.277C896.465 40.7766 905.668 31.5748 905.668 20.3883C905.668 9.2018 896.465 0 885.277 0H811.831C811.831 0 783.86 0 756.791 0C729.722 0 726.655 31.9356 658.442 31.9356C552.694 31.9356 605.568 31.9356 500 31.9356C485.383 31.9356 473.473 43.8438 473.473 58.4585C473.473 73.0731 485.383 84.9813 500 84.9813H525.625C546.919 84.9813 564.243 102.302 564.243 123.593C564.243 144.703 546.919 162.204 525.625 162.204H448.75C344.987 162.204 330.189 189.268 312.144 243.216C293.918 297.164 199.538 301.494 199.538 301.494H70.3307C38.3897 301.494 12.2234 327.656 12.2234 359.592C12.2234 391.527 38.3897 417.689 70.3307 417.689H77.0076C107.685 417.689 132.949 442.769 132.949 473.622C132.408 504.655 107.324 529.735 76.6467 529.735ZM942.482 40.957C931.293 40.957 922.09 31.7552 922.09 20.5687C922.09 9.38223 931.113 0.180427 942.482 0.180427C953.67 0.180427 962.873 9.38223 962.873 20.5687C962.873 31.7552 953.67 40.957 942.482 40.957Z" fill="#E1E8F6"/>
<path fill-rule="evenodd" clip-rule="evenodd" d="M224.623 743H225.706V726.761H285.076H344.447V743H345.53V726.761H404.9H464.271V743H465.353V726.761H524.724H584.094V743H585.177V726.761H644.187H703.557V743H704.64V726.761H764.01H823.381V743H824.464V726.761H883.834H943.205V734.339C943.566 734.159 943.927 734.159 944.288 733.978V726.761H961.972C962.694 726.4 963.416 726.039 964.138 725.679H943.746H884.376V691.217H943.746H1003.12V699.697C1003.48 699.336 1003.84 699.156 1004.2 698.795V691.217H1012.14C1012.5 690.856 1012.86 690.495 1013.22 690.134H1003.3H943.927V655.673H1003.3H1038.67C1038.85 655.312 1039.03 654.951 1039.21 654.59H1003.66V620.129H1053.83C1054.01 619.768 1054.01 619.407 1054.19 619.046H1003.3H943.927V584.584H1003.3H1060.86C1060.86 584.224 1060.86 583.863 1061.04 583.502H1003.84V549.04H1060.32C1060.32 548.679 1060.32 548.319 1060.14 547.958H1003.3H943.927V513.496H1003.3H1052.02C1051.84 513.135 1051.84 512.774 1051.66 512.413H1003.84V477.952H1034.88C1034.7 477.591 1034.52 477.23 1034.16 476.869H1003.3H943.927V442.408H1003.3H1005.1C1004.74 442.047 1004.38 441.686 1004.02 441.325H1003.84V441.145C1003.48 440.784 1003.12 440.603 1002.76 440.243V441.325H943.385H884.015V406.863H943.385H946.092C945.009 406.503 943.927 406.142 942.844 405.781H883.473H824.103V371.319H833.306C832.945 370.958 832.765 370.598 832.404 370.237H823.562H764.191V335.775H816.704C816.704 335.414 816.524 335.053 816.524 334.693H763.65H704.279V300.231H763.65H819.591C819.772 299.87 819.772 299.509 819.952 299.148H764.191V264.687H823.562H845.938C846.48 264.326 846.84 263.965 847.382 263.604H823.922V229.143H883.293H942.664V250.613H943.746V229.143H1003.3H1029.64C1030 228.782 1030.37 228.421 1030.73 228.06H1003.84V193.598H1050.22C1050.22 193.237 1050.4 192.877 1050.4 192.516H1003.3H943.927V159.317H1003.3H1050.76C1050.76 158.956 1050.58 158.595 1050.58 158.235H1003.84V123.773H1031.81C1031.45 123.412 1031.09 123.051 1030.73 122.69H1003.3H943.927V99.9565H942.844V122.871H883.473H824.103V88.4092H841.968C841.788 88.0483 841.427 87.6874 841.246 87.3266H823.562H764.191V52.865H823.562H841.788C841.968 52.5041 842.329 52.1433 842.69 51.7824H824.103V17.5012H883.473H905.309C905.309 17.1404 905.128 16.7795 905.128 16.4186H884.015V0.180176H882.932V16.4186H823.562H764.191V0.180176H763.289V16.4186H722.505C721.964 16.7795 721.423 17.1404 720.881 17.5012H763.83H823.201V51.9628H763.83H704.46V25.2596C704.099 25.44 703.738 25.44 703.377 25.6204V51.7824H644.187H584.816V32.1158H583.733V51.7824H524.363H474.015C473.835 52.1433 473.835 52.5041 473.835 52.865H524.002V85.3419H525.085V52.865H584.455H643.826V87.3266H584.455H537.717C538.619 87.6874 539.521 88.0483 540.424 88.4092H583.914V122.871H564.064C564.064 123.232 564.064 123.592 564.064 123.953H584.455H643.826V158.415H584.455H542.95C542.228 158.776 541.506 159.137 540.785 159.498H584.094V193.959H524.724H465.353V162.384H464.271V193.598H404.9H345.53V184.577C345.169 184.938 344.808 185.118 344.447 185.479V193.598H336.146C335.785 193.959 335.604 194.32 335.243 194.681H344.988H404.178V229.143H344.808H316.837C316.656 229.503 316.656 229.864 316.476 230.225H344.447V264.687H298.972C298.611 265.048 298.25 265.408 298.069 265.769H344.988H404.178V300.231H344.808H285.437V276.234C285.076 276.414 284.715 276.775 284.355 276.956V300.231H224.984H215.6C212.352 300.772 209.645 300.953 207.299 301.313H224.623V335.775H165.253H134.394C134.575 336.136 134.575 336.497 134.755 336.858H164.892V371.319H151.718C151.899 371.68 152.26 372.041 152.44 372.402H165.253H224.623V406.863H191.419C192.141 407.224 192.682 407.585 193.404 407.946H225.164H284.535V423.824C284.896 423.824 285.257 424.004 285.618 424.004V407.946H344.988H404.178V442.408H344.808H327.845C328.386 442.769 328.747 443.129 329.288 443.49H344.266V456.481C344.627 456.842 344.988 457.203 345.349 457.564V443.671H404.72H464.09V478.132H404.72H360.868C361.049 478.493 361.229 478.854 361.41 479.215H404.178V513.677H374.764C374.764 514.037 374.944 514.398 374.944 514.759H404.72H464.09V549.221H404.72H376.388C376.388 549.581 376.388 549.942 376.207 550.303H404.178V584.765H366.643C366.463 585.126 366.282 585.487 366.102 585.847H404.72H464.09V620.309H404.72H345.349V615.979C344.988 616.34 344.627 616.701 344.266 617.061V620.309H341.018C340.657 620.67 340.296 621.031 339.935 621.392H344.808H404.178V655.853H344.808H285.437V649.358C285.076 649.358 284.715 649.538 284.355 649.538V655.853H224.984H202.246C200.983 656.214 199.9 656.575 198.637 656.936H224.443V691.397H165.072H145.763C145.402 691.758 145.222 692.119 144.861 692.48H164.531V726.942H124.469C124.289 727.302 124.289 727.663 124.108 728.024H165.072H224.443V743H224.623ZM883.113 691.217V725.679H823.742H764.371V691.217H823.742H883.113ZM763.289 691.217V725.679H703.918H644.548V691.217H703.918H763.289ZM643.645 691.217V725.679H584.275H524.904V691.217H584.275H643.645ZM523.822 691.217V725.679H464.451H405.081V691.217H464.451H523.822ZM404.178 691.217V725.679H344.808H285.437V691.217H344.808H404.178ZM284.535 691.217V725.679H225.164H165.794V691.217H225.164H284.535ZM942.844 655.853V690.315H883.473H824.103V655.853H883.473H942.844ZM823.201 655.853V690.315H763.83H704.46V655.853H763.83H823.201ZM703.377 655.853V690.315H644.187H584.816V655.853H644.187H703.377ZM583.733 655.853V690.315H524.363H464.992V655.853H524.363H583.733ZM464.09 655.853V690.315H404.72H345.349V655.853H404.72H464.09ZM344.266 655.853V690.315H285.076H225.706V655.853H285.076H344.266ZM1002.76 620.309V654.771H943.385H884.015V620.309H943.385H1002.76ZM883.113 620.309V654.771H823.742H764.371V620.309H823.742H883.113ZM763.289 620.309V654.771H703.918H644.548V620.309H703.918H763.289ZM643.645 620.309V654.771H584.275H524.904V620.309H584.275H643.645ZM523.822 620.309V654.771H464.451H405.081V620.309H464.451H523.822ZM942.844 584.945V619.407H883.473H824.103V584.945H883.473H942.844ZM823.201 584.945V619.407H763.83H704.46V584.945H763.83H823.201ZM703.377 584.945V619.407H644.187H584.816V584.945H644.187H703.377ZM583.733 584.945V619.407H524.363H464.992V584.945H524.363H583.733ZM1002.76 549.401V583.863H943.385H884.015V549.401H943.385H1002.76ZM883.113 549.401V583.863H823.742H764.371V549.401H823.742H883.113ZM763.289 549.401V583.863H703.918H644.548V549.401H703.918H763.289ZM643.645 549.401V583.863H584.275H524.904V549.401H584.275H643.645ZM523.822 549.401V583.863H464.451H405.081V549.401H464.451H523.822ZM942.844 514.037V548.499H883.473H824.103V514.037H883.473H942.844ZM823.201 514.037V548.499H763.83H704.46V514.037H763.83H823.201ZM703.377 514.037V548.499H644.187H584.816V514.037H644.187H703.377ZM583.733 514.037V548.499H524.363H464.992V514.037H524.363H583.733ZM1002.76 478.493V512.955H943.385H884.015V478.493H943.385H1002.76ZM883.113 478.493V512.955H823.742H764.371V478.493H823.742H883.113ZM763.289 478.493V512.955H703.918H644.548V478.493H703.918H763.289ZM643.645 478.493V512.955H584.275H524.904V478.493H584.275H643.645ZM523.822 478.493V512.955H464.451H405.081V478.493H464.451H523.822ZM942.844 442.949V477.411H883.473H824.103V442.949H883.473H942.844ZM823.201 442.949V477.411H763.83H704.46V442.949H763.83H823.201ZM703.377 442.949V477.411H644.187H584.816V442.949H644.187H703.377ZM583.733 442.949V477.411H524.363H464.992V442.949H524.363H583.733ZM883.113 407.585V442.047H823.742H764.371V407.585H823.742H883.113ZM763.289 407.585V442.047H703.918H644.548V407.585H703.918H763.289ZM643.645 407.585V442.047H584.275H524.904V407.585H584.275H643.645ZM523.822 407.585V442.047H464.451H405.081V407.585H464.451H523.822ZM823.201 372.041V406.503H763.83H704.46V372.041H763.83H823.201ZM703.377 372.041V406.503H644.187H584.816V372.041H644.187H703.377ZM583.733 372.041V406.503H524.363H464.992V372.041H524.363H583.733ZM464.09 372.041V406.503H404.72H345.349V372.041H404.72H464.09ZM344.266 372.041V406.503H285.076H225.706V372.041H285.076H344.266ZM763.289 336.677V371.139H703.918H644.548V336.677H703.918H763.289ZM643.645 336.677V371.139H584.275H524.904V336.677H584.275H643.645ZM523.822 336.677V371.139H464.451H405.081V336.677H464.451H523.822ZM404.178 336.677V371.139H344.808H285.437V336.677H344.808H404.178ZM284.535 336.677V371.139H225.164H165.794V336.677H225.164H284.535ZM703.377 301.133V335.595H644.187H584.816V301.133H644.187H703.377ZM583.733 301.133V335.595H524.363H464.992V301.133H524.363H583.733ZM464.09 301.133V335.595H404.72H345.349V301.133H404.72H464.09ZM344.266 301.133V335.595H285.076H225.706V301.133H285.076H344.266ZM763.289 265.769V300.231H703.918H644.548V265.769H703.918H763.289ZM643.645 265.769V300.231H584.275H524.904V265.769H584.275H643.645ZM523.822 265.769V300.231H464.451H405.081V265.769H464.451H523.822ZM823.201 230.225V264.687H763.83H704.46V230.225H763.83H823.201ZM703.377 230.225V264.687H644.187H584.816V230.225H644.187H703.377ZM583.733 230.225V264.687H524.363H464.992V230.225H524.363H583.733ZM464.09 230.225V264.687H404.72H345.349V230.225H404.72H464.09ZM1002.76 194.681V229.143H943.385H884.015V194.681H943.385H1002.76ZM883.113 194.681V229.143H823.742H764.371V194.681H823.742H883.113ZM763.289 194.681V229.143H703.918H644.548V194.681H703.918H763.289ZM643.645 194.681V229.143H584.275H524.904V194.681H584.275H643.645ZM523.822 194.681V229.143H464.451H405.081V194.681H464.451H523.822ZM942.844 159.317V193.779H883.473H824.103V159.317H883.473H942.844ZM823.201 159.317V193.779H763.83H704.46V159.317H763.83H823.201ZM703.377 159.317V193.779H644.187H584.816V159.317H644.187H703.377ZM1002.76 123.773V158.235H943.385H884.015V123.773H943.385H1002.76ZM883.113 123.773V158.235H823.742H764.371V123.773H823.742H883.113ZM763.289 123.773V158.235H703.918H644.548V123.773H703.918H763.289ZM823.201 88.4092V122.871H763.83H704.46V88.4092H763.83H823.201ZM703.377 88.4092V122.871H644.187H584.816V88.4092H644.187H703.377ZM763.289 52.865V87.3266H703.918H644.548V52.865H703.918H763.289ZM962.514 17.5012H943.927V40.9568C943.566 40.9568 943.205 40.9568 942.844 40.9568V17.5012H922.272C922.272 17.1404 922.452 16.7795 922.452 16.4186H943.385H962.333C962.514 16.7795 962.514 17.1404 962.514 17.5012Z" fill="#9FB2D9"/>
<path fill-rule="evenodd" clip-rule="evenodd" d="M76.6467 529.734H0H-29.6428H-32.3496C-90.9983 529.734 -139 577.728 -139 636.367C-139 695.005 -90.9983 742.999 -32.3496 742.999H0H278.94H332.535H582.83V32.1152H499.819C485.202 32.1152 473.292 44.0234 473.292 58.6381C473.292 73.2527 485.202 85.1609 499.819 85.1609H525.444C546.738 85.1609 564.062 102.482 564.062 123.772C564.062 144.882 546.738 162.384 525.444 162.384H448.57C344.806 162.384 330.009 189.448 311.963 243.396C293.737 297.343 199.358 301.674 199.358 301.674H70.1502C38.2092 301.674 12.0429 327.836 12.0429 359.771C12.0429 391.707 38.2092 417.869 70.1502 417.869H76.8271C107.505 417.869 132.769 442.948 132.769 473.801C132.408 504.655 107.324 529.734 76.6467 529.734Z" fill="#C9D3EC"/>
<path d="M237.792 384.246L236.753 384.765L234.675 385.804C233.377 386.583 232.078 387.102 230.78 387.881C228.442 389.18 225.845 390.738 223.508 392.037C218.833 394.893 214.418 398.01 210.263 401.386C201.952 407.879 194.161 415.151 187.149 422.942C180.137 430.733 173.904 439.044 168.19 447.874C162.477 456.704 157.802 465.793 153.387 475.143C148.972 484.492 145.596 494.101 142.48 503.71C141.181 508.645 139.623 513.319 138.584 518.254L136.766 525.526L135.467 532.797C133.13 545.004 131.832 557.21 131.052 569.416V523.188C132.611 513.839 135.727 502.412 140.142 489.427C146.635 469.689 156.504 446.835 167.411 422.163C176.241 401.906 183.773 384.246 190.785 369.702C197.797 355.158 204.809 344.51 210.523 339.057C204.809 344.77 194.421 352.042 182.734 364.248C171.307 376.454 158.841 393.076 149.492 414.371C138.844 438.784 133.39 462.677 131.052 483.194V383.207C132.611 377.493 135.727 370.481 140.142 363.209C146.635 351.782 155.725 339.316 165.074 325.033C172.605 313.346 177.8 301.919 182.215 292.31C186.37 282.7 189.746 275.169 192.603 271.014C189.746 275.169 182.734 279.584 174.423 286.336C166.113 293.089 156.504 301.919 148.712 314.644C139.103 329.707 133.65 345.809 131.312 359.314V321.137C133.909 303.477 139.623 276.987 139.623 246.082C139.363 213.359 129.754 188.687 129.754 177C129.754 188.687 119.885 213.359 119.885 246.082C119.885 276.727 125.599 303.477 128.196 321.137V362.69C125.599 340.355 119.885 314.125 108.198 287.115C98.0698 264.002 85.0845 245.822 72.8783 232.317C60.9318 218.813 50.0241 210.242 43.2718 204.529C49.7644 210.242 57.0362 222.189 64.5677 237.771C72.0992 253.354 80.4097 272.832 90.0189 294.907C101.706 321.916 111.834 346.848 118.846 368.403C123.521 382.428 126.378 395.153 127.936 405.282V469.689C127.157 461.638 125.858 453.847 124.56 446.056C121.443 428.396 117.028 411.255 111.574 394.634C106.121 377.753 99.8877 361.391 92.3562 345.29C88.7203 337.239 84.565 329.188 80.4098 321.397C75.9947 313.605 71.32 305.814 65.3468 297.504C72.3589 306.853 73.3977 316.722 72.3589 326.331C71.8394 331.006 70.8006 335.68 69.5021 340.095C68.2036 344.51 66.3856 348.666 64.8274 352.561C62.49 358.275 62.7497 362.43 64.8274 366.066C66.6453 369.702 69.7618 372.559 73.138 375.416C79.6306 381.129 86.6427 386.323 81.7083 394.114C77.0336 401.906 71.32 409.177 71.8394 417.488C72.0992 421.643 73.6574 426.318 77.553 431.512C81.4486 436.966 87.6815 442.939 96.7712 450.73C102.485 455.665 107.159 461.119 111.574 466.572C115.73 472.026 119.106 477.48 121.963 482.414C124.56 487.349 126.378 491.504 127.676 494.621C127.676 494.88 127.676 494.88 127.936 494.88V569.156C127.676 567.598 119.625 521.111 92.0965 495.4C66.3856 471.247 42.2329 463.716 36 460.08C42.4927 463.716 78.8515 508.645 90.798 524.227C109.237 548.12 128.455 577.986 128.455 611.229V711.475H131.312V584.739C131.832 581.882 132.611 579.025 133.65 576.168C135.727 571.234 138.065 566.819 141.181 562.664C144.297 558.508 147.933 555.132 151.569 551.756C155.205 548.64 159.101 545.783 162.737 543.186C167.931 539.55 170.268 535.395 170.787 530.98C171.567 526.565 170.528 521.89 170.008 517.475C169.489 515.137 169.229 512.8 168.97 510.722C168.71 508.645 168.71 506.307 168.97 504.489C169.489 500.594 171.307 497.477 175.722 495.659C184.552 492.283 193.642 490.465 199.355 483.973C200.913 482.414 202.212 480.337 202.991 477.999C204.03 475.662 204.809 472.805 205.588 469.429C206.887 462.677 207.666 453.847 208.705 441.121C210.003 425.539 216.755 410.216 224.027 399.828C231.039 389.44 238.571 383.466 239.61 382.947L237.792 384.246Z" fill="url(#paint0_linear)"/>
<path d="M873.033 454.105L873.812 454.625L875.37 455.404C876.409 455.923 877.448 456.443 878.487 456.962C880.305 458.001 882.382 459.04 884.2 460.338C887.836 462.676 891.212 465.013 894.589 467.61C901.081 472.804 907.314 478.518 912.768 484.491C918.222 490.724 923.156 497.217 927.571 503.969C931.986 510.721 935.882 517.993 939.258 525.265C942.634 532.537 945.231 540.068 947.828 547.859C948.867 551.755 950.166 555.391 950.945 559.286L952.243 565L953.282 570.713C955.1 580.323 956.139 589.932 956.918 599.541V563.182C955.62 555.91 953.282 546.82 949.906 536.692C944.712 521.11 937.18 503.19 928.61 483.712C921.598 467.87 915.625 453.846 910.171 442.419C904.717 430.991 899.263 422.681 894.589 418.266C899.004 422.681 907.314 428.394 916.404 438.004C925.234 447.613 935.103 460.598 942.634 477.479C950.945 496.697 955.36 515.396 957.178 531.498V453.067C955.879 448.652 953.542 443.198 950.166 437.484C944.972 428.654 937.96 418.785 930.688 407.358C924.715 398.009 920.559 389.179 917.183 381.647C913.807 374.116 911.21 368.143 908.872 364.766C911.21 368.143 916.664 371.519 923.156 376.973C929.649 382.167 937.18 389.179 943.413 399.048C950.945 410.994 955.36 423.46 957.178 434.108V404.761C955.1 390.997 950.685 369.961 950.685 345.808C950.685 319.837 958.217 300.619 958.217 291.529C958.217 300.619 965.748 320.097 965.748 345.808C965.748 369.961 961.333 390.997 959.255 404.761V437.484C961.333 419.824 965.748 399.307 975.098 378.011C983.148 359.832 993.277 345.548 1002.89 334.9C1012.24 324.252 1021.07 317.5 1026 313.085C1020.81 317.5 1015.09 326.849 1009.12 339.315C1003.15 351.521 996.653 366.844 989.122 384.244C980.032 405.54 971.981 425.018 966.527 442.159C962.891 453.326 960.554 463.195 959.255 471.246V521.889C960.035 515.656 960.814 509.423 961.853 503.19C964.19 489.425 967.826 475.921 971.981 462.676C976.136 449.431 981.331 436.705 987.044 423.979C989.901 417.746 993.017 411.514 996.393 405.281C1000.03 399.048 1003.41 393.074 1008.34 386.582C1002.89 394.113 1002.11 401.645 1002.89 409.176C1003.41 412.812 1004.18 416.448 1005.22 420.084C1006.26 423.46 1007.56 426.836 1008.86 429.953C1010.68 434.368 1010.42 437.744 1008.86 440.601C1007.56 443.457 1004.96 445.795 1002.37 447.872C997.173 452.287 991.719 456.443 995.614 462.676C999.25 468.649 1003.67 474.622 1003.41 481.115C1003.15 484.491 1002.11 488.127 998.99 492.282C996.134 496.437 990.94 501.372 983.928 507.345C979.253 511.241 975.617 515.396 972.241 519.811C968.865 523.966 966.268 528.381 964.19 532.277C962.112 536.172 960.814 539.549 959.775 541.886V542.146V600.06C960.035 598.762 966.268 562.403 988.083 542.146C1008.34 523.187 1027.3 517.214 1032.49 514.357C1027.56 517.214 998.731 552.534 989.381 564.74C974.838 583.439 959.775 607.072 959.775 633.043V711.994H957.697V612.266C957.178 609.929 956.658 607.592 955.879 605.514C954.321 601.618 952.243 598.242 949.906 594.866C947.309 591.75 944.712 588.893 941.855 586.296C938.998 583.699 935.882 581.621 933.025 579.543C928.87 576.687 927.312 573.57 926.792 569.934C926.273 566.558 927.052 562.922 927.571 559.286C927.831 557.468 928.091 555.65 928.35 553.833C928.61 552.015 928.61 550.456 928.35 548.898C928.091 545.782 926.532 543.444 922.897 542.146C915.885 539.549 908.872 537.99 904.198 532.796C902.899 531.498 902.12 529.94 901.341 528.122C900.562 526.304 899.783 523.966 899.263 521.369C898.225 516.175 897.705 509.163 896.666 499.294C895.627 486.828 890.433 475.142 884.72 466.831C879.006 458.52 873.293 454.105 872.254 453.586L873.033 454.105Z" fill="url(#paint1_linear)"/>
<path d="M381.676 678.235C385.831 696.154 392.324 716.411 398.816 735.37H506.594C508.932 727.579 511.529 719.009 513.606 710.179C526.851 658.497 512.827 614.087 500.361 593.83C487.895 573.573 476.988 549.68 496.206 520.074C515.424 490.467 517.242 467.613 517.242 467.613C514.385 456.446 505.815 452.55 483.221 441.902C483.221 441.902 481.922 441.383 479.844 440.863C475.17 460.341 465.041 475.924 447.122 479.04C423.748 483.195 402.712 468.912 392.064 443.98C381.676 447.096 370.249 450.213 364.795 453.329C364.795 453.329 393.362 515.399 398.816 550.459C404.01 585.26 368.69 623.177 381.676 678.235Z" fill="url(#paint2_linear)"/>
<path d="M446.864 478.779C464.784 475.663 474.912 460.08 479.587 440.602C472.055 438.005 454.395 432.032 449.461 429.435C443.228 426.318 445.046 400.867 445.046 400.867L411.803 410.736C411.803 422.163 411.803 430.993 411.803 435.408C411.803 437.745 402.454 440.602 391.546 443.978C402.454 468.651 423.49 482.934 446.864 478.779Z" fill="url(#paint3_linear)"/>
<path d="M445.047 401.646L411.805 410.995C411.805 419.825 411.805 427.097 411.805 432.032C425.829 439.563 441.411 453.587 446.865 479.298C464.785 476.182 474.653 460.599 479.588 441.121C472.056 438.524 454.396 432.551 449.462 429.954C443.229 427.097 445.047 401.646 445.047 401.646Z" fill="#CB9EAE"/>
<path d="M465.559 555.392C450.756 559.807 436.732 565.002 429.46 565.002C414.917 565.002 393.101 544.485 382.973 556.951C372.844 569.417 371.286 577.727 379.337 583.441C387.388 588.895 412.839 581.363 425.045 583.7C430.499 584.739 448.938 585.778 468.676 585.518C470.234 577.727 469.974 563.443 465.559 555.392Z" fill="url(#paint4_linear)"/>
<path d="M517.764 467.87C514.388 454.106 486.08 479.298 493.092 502.411C499.065 522.149 496.987 548.639 496.987 548.639L524.776 576.687C533.866 565.001 520.621 478.778 517.764 467.87Z" fill="url(#paint5_linear)"/>
<path d="M506.077 548.64C495.429 547.082 480.106 550.977 465.563 555.652C469.978 563.443 470.237 577.987 468.679 585.778C493.092 585.518 519.322 583.181 524.516 576.688C524.516 576.429 536.982 553.055 506.077 548.64Z" fill="url(#paint6_linear)"/>
<path d="M404.272 363.211C398.558 374.638 399.078 413.075 415.179 416.451C429.204 419.567 437.254 405.803 437.254 405.803V380.352C437.254 380.352 429.204 376.196 428.165 366.328C427.386 358.536 422.711 357.757 422.711 357.757C422.711 357.757 413.102 363.471 404.272 363.211Z" fill="url(#paint7_linear)"/>
<path d="M379.076 550.199C371.804 535.396 366.87 516.957 362.714 506.569C354.663 486.831 353.365 459.302 364.532 453.069C385.049 442.421 393.879 478.78 395.178 489.168C396.476 499.557 399.333 524.229 407.124 533.059L379.076 550.199Z" fill="url(#paint8_linear)"/>
<path d="M470.235 423.202C456.211 414.372 471.794 366.326 448.42 347.887C429.202 332.565 398.556 343.992 398.556 372.819C398.556 384.506 398.556 424.241 398.556 441.641C406.088 439.304 411.801 436.966 411.801 435.148V415.411V414.891C399.076 406.841 398.816 373.598 404.27 362.95C413.1 363.21 422.709 357.496 422.709 357.496C422.709 357.496 427.384 358.275 428.163 366.067C429.202 375.935 437.253 380.091 437.253 380.091V405.542C437.253 429.435 442.966 455.665 456.731 457.224C470.495 458.782 472.832 440.602 483.221 441.901C482.961 441.901 484.259 431.772 470.235 423.202Z" fill="url(#paint9_linear)"/>
<path d="M399.076 515.396C391.544 525.785 379.598 534.874 379.078 550.197C385.571 563.182 393.882 573.311 405.569 572.012C422.709 570.194 428.682 549.937 430.76 531.498C419.333 532.277 404.789 523.188 399.076 515.396Z" fill="url(#paint10_linear)"/>
<path d="M425.048 421.645C421.672 423.203 410.245 433.331 410.245 435.669C410.245 438.266 415.439 457.224 415.439 462.938C415.439 468.652 410.245 494.103 403.233 508.906C402.194 511.243 400.896 513.321 399.338 515.399C405.051 523.19 419.595 532.28 431.022 531.241C431.801 522.93 432.061 515.139 432.061 509.425C432.061 509.425 433.359 467.093 435.177 464.237C436.995 461.38 436.995 456.965 436.995 453.069C436.995 445.797 436.995 445.278 436.995 445.278C436.995 445.278 439.592 445.018 439.852 440.603C439.852 440.344 439.852 440.344 439.852 440.084C439.332 435.149 428.165 420.086 425.048 421.645Z" fill="url(#paint11_linear)"/>
<path d="M705.526 440.343C705.526 481.377 705.526 563.704 705.526 563.704C705.526 563.704 746.559 565.002 745.52 563.704C744.222 562.405 745.52 506.309 745.52 506.309L705.526 440.343Z" fill="url(#paint12_linear)"/>
<path d="M786.814 576.687C790.19 599.801 788.112 626.031 786.814 635.9C785.515 645.769 756.168 734.588 756.168 734.588H827.587L847.325 640.575L821.354 568.636L786.814 576.687Z" fill="url(#paint13_linear)"/>
<path d="M786.816 576.687C790.192 599.801 788.114 626.031 786.816 635.9C785.517 645.769 750.457 735.368 750.457 735.368H827.589L847.327 640.575L821.357 568.636L786.816 576.687Z" fill="url(#paint14_linear)"/>
<path d="M870.963 552.275C881.351 585.258 928.617 595.906 915.632 649.146C906.283 687.582 887.064 735.628 887.064 735.628H797.985C797.985 735.628 826.033 652.003 826.033 640.835C826.033 629.668 808.373 572.792 808.373 572.792L870.963 552.275Z" fill="url(#paint15_linear)"/>
<path d="M720.068 412.295C709.679 417.23 700.07 439.565 709.679 460.601C719.289 481.637 720.587 477.741 724.223 494.363C727.859 510.724 726.56 519.814 756.427 540.331C786.552 560.847 785.514 566.301 787.072 576.689C788.37 587.078 873.035 585 871.736 545.784C870.437 506.569 872.515 461.38 847.324 440.084C821.872 418.788 720.068 412.295 720.068 412.295Z" fill="url(#paint16_linear)"/>
<path d="M709.421 363.988V481.635C709.421 481.635 752.013 458.781 751.753 436.446C751.494 414.112 732.535 364.248 732.535 364.248H709.421V363.988Z" fill="#001462"/>
<path d="M739.551 434.37C739.551 434.37 745.265 443.46 747.083 447.615C748.901 451.511 740.33 469.171 743.187 483.974C746.044 499.037 764.483 496.44 768.638 483.974C769.937 480.338 773.313 453.589 773.313 453.589V409.698L739.551 434.37Z" fill="url(#paint17_linear)"/>
<path d="M747.075 447.615C759.022 434.111 771.488 490.986 751.75 493.843C751.75 493.843 751.75 493.843 752.01 493.843L754.867 494.103C760.58 494.103 766.813 490.207 768.891 483.714C770.189 480.079 773.565 453.329 773.565 453.329V409.698L739.804 434.37C739.544 434.37 744.998 443.72 747.075 447.615Z" fill="#CB9EAE"/>
<path d="M714.352 360.612C708.639 396.711 714.872 430.213 732.272 434.109C749.672 438.004 774.604 419.046 774.604 402.165C774.604 385.284 791.485 341.394 772.267 331.525C753.308 321.396 718.248 337.498 714.352 360.612Z" fill="url(#paint18_linear)"/>
<path d="M729.162 357.237C729.162 357.237 720.072 364.768 713.319 368.923C706.567 372.819 708.385 349.965 721.111 339.317C734.096 328.669 750.977 319.319 757.989 325.552C757.989 325.552 779.545 319.579 792.53 341.654C805.515 363.729 806.554 383.467 810.709 388.921C814.865 394.375 821.617 397.751 818.5 408.139C818.5 408.139 841.355 403.464 844.991 419.306C848.367 435.148 847.328 440.343 847.328 440.343C847.328 440.343 840.316 434.889 825.513 429.695C825.513 429.695 815.644 437.486 806.294 437.486C796.945 437.486 784.998 475.403 768.637 475.403L768.377 384.765C768.377 384.765 730.979 380.091 729.162 357.237Z" fill="#001462"/>
<path d="M519.836 549.419C476.465 594.608 439.327 732.252 439.327 732.252H501.397L540.353 640.836L519.836 549.419Z" fill="url(#paint19_linear)"/>
<path d="M745.524 556.692C736.435 546.304 688.129 512.542 626.579 516.178C572.3 519.554 528.41 536.176 519.84 549.161C513.607 558.77 527.371 623.177 536.721 648.628C546.33 674.339 550.485 701.608 550.485 724.982C550.485 724.982 703.971 724.203 704.75 724.982C705.53 725.761 723.709 668.366 726.306 639.798C728.903 611.231 723.449 579.806 745.524 556.692Z" fill="url(#paint20_linear)"/>
<path d="M662.417 462.938C662.417 462.938 663.196 510.723 662.417 525.007C661.638 539.291 639.563 552.017 631.512 552.536C623.201 552.796 605.281 540.849 602.425 520.592V477.481L662.417 462.938Z" fill="url(#paint21_linear)"/>
<path d="M662.672 488.908C662.672 475.144 662.413 462.938 662.413 462.938L602.161 477.221V512.541C607.095 534.616 640.597 528.643 648.389 507.607C653.063 495.66 656.959 492.025 662.672 488.908Z" fill="#CB9EAE"/>
<path d="M586.324 444.24C588.661 479.3 602.945 513.062 625.279 509.426C653.328 505.011 661.898 462.419 660.599 439.305C659.561 416.191 646.316 401.648 626.318 401.648C607.36 401.908 584.246 414.893 586.324 444.24Z" fill="url(#paint22_linear)"/>
<path d="M667.345 455.925C665.786 462.937 662.41 468.131 659.813 467.612C657.216 467.092 656.177 461.119 657.736 454.107C659.294 447.095 662.67 441.901 665.267 442.42C667.864 442.939 668.643 448.913 667.345 455.925Z" fill="url(#paint23_linear)"/>
<path d="M586.578 449.952C582.423 443.46 581.904 440.863 582.423 429.955C582.683 419.047 591.772 418.788 591.772 414.113C591.513 409.438 597.486 396.972 621.639 395.933C645.791 394.895 644.233 406.062 651.765 406.841C659.296 407.62 670.723 415.152 665.269 442.681C665.269 442.681 658.777 443.2 656.18 456.445C655.92 457.484 654.621 457.743 654.102 456.964C653.323 455.926 652.544 454.108 651.765 451.77C649.947 445.018 642.675 455.146 641.376 441.901C640.338 432.552 617.483 449.693 600.343 434.37C600.343 434.37 597.746 437.746 590.474 437.486C586.319 437.486 586.578 449.952 586.578 449.952Z" fill="#0060FF"/>
<path d="M602.16 576.168C602.16 576.168 604.238 578.765 607.874 573.051C611.51 567.338 624.235 550.197 628.65 551.756C619.82 549.938 604.757 538.251 602.16 520.071V518.513C595.148 519.552 588.136 520.591 581.903 522.149C580.085 532.278 587.617 565.001 602.16 576.168Z" fill="#385FD4"/>
<path d="M662.409 524.747C661.629 537.213 645.008 548.38 635.139 551.497C639.814 549.679 656.695 572.014 659.552 576.948C662.409 581.882 667.862 575.13 673.316 561.625C677.212 551.757 683.185 534.616 680.588 522.41C674.874 520.851 668.901 519.553 662.409 518.254C662.668 520.851 662.409 523.189 662.409 524.747Z" fill="#385FD4"/>
<path d="M602.163 520.332V509.943C593.074 513.839 584.763 517.215 583.984 522.409C582.166 532.538 590.217 561.885 602.163 572.273C602.163 572.273 604.241 574.87 607.877 569.156C611.513 563.443 624.238 550.458 628.653 552.275C619.823 550.198 604.76 538.511 602.163 520.332Z" fill="url(#paint24_linear)"/>
<path d="M677.474 518.515C674.877 512.801 666.826 508.386 662.67 506.309C662.67 513.84 662.67 520.852 662.411 524.748C661.632 537.214 645.01 548.381 635.142 551.497C639.816 549.68 656.697 567.599 659.554 572.534C662.411 577.468 666.047 571.755 672.02 558.25C678.253 544.745 681.629 527.604 677.474 518.515Z" fill="url(#paint25_linear)"/>
<path d="M775.385 696.674C775.385 657.198 763.958 577.728 745.519 556.952C745.519 556.952 716.951 572.274 707.862 620.839C705.265 635.383 709.68 676.676 710.978 694.336L775.385 696.674Z" fill="url(#paint26_linear)"/>
<path d="M663.717 735.63C663.717 735.63 737.734 735.63 750.459 735.63C763.445 735.63 777.209 725.241 775.131 696.674C773.313 668.106 726.566 672.261 710.724 694.077L662.938 701.348L663.717 735.63Z" fill="url(#paint27_linear)"/>
<path d="M619.828 733.811L623.983 729.915L636.449 734.33C638.527 735.109 640.864 735.369 643.201 735.369H667.873C667.873 735.369 679.56 732.772 680.08 719.007C680.339 705.243 668.653 701.088 663.458 701.088H636.189C634.891 701.088 633.592 700.828 632.034 700.568L612.816 696.413C609.959 695.893 607.102 696.413 604.505 697.711L593.597 703.944C591.52 705.243 589.442 706.541 587.884 708.359L567.887 728.357C565.29 730.954 567.107 735.109 570.743 735.109H615.673C617.231 735.629 618.789 734.849 619.828 733.811Z" fill="url(#paint28_linear)"/>
<path d="M850.186 445.018C831.488 434.37 799.024 464.756 806.036 501.114C813.048 537.473 773.313 582.143 773.313 582.143C773.313 582.143 728.384 600.322 710.205 603.698C714.62 609.931 719.554 619.021 721.632 630.708C751.238 628.37 793.57 622.137 810.711 607.854C836.682 586.298 864.211 506.568 864.211 481.377C864.211 452.03 850.186 445.018 850.186 445.018Z" fill="url(#paint29_linear)"/>
<path d="M705.529 604.219C692.543 604.219 647.354 604.219 647.354 604.219C647.354 604.219 605.801 618.243 604.763 620.581C603.724 622.918 601.646 637.202 604.763 640.578C607.879 643.954 629.175 649.927 634.369 648.889C639.823 647.85 681.895 632.267 691.505 632.267C694.881 632.267 706.567 632.008 721.63 630.709C719.293 619.022 714.359 609.673 710.203 603.7C708.385 603.959 706.827 604.219 705.529 604.219Z" fill="url(#paint30_linear)"/>
<path d="M332.584 565.519C332.584 565.519 347.128 576.946 362.191 565.519C376.994 554.092 366.866 534.354 366.866 534.354L332.844 552.534V565.519H332.584Z" fill="url(#paint31_linear)"/>
<path d="M353.623 457.221V543.703H325.574V462.156L353.623 457.221Z" fill="url(#paint32_linear)"/>
<path d="M307.914 671.74C305.317 686.023 289.995 706.281 280.126 735.627H335.963C341.416 700.567 346.091 653.56 338.56 611.488H306.096C309.213 625.772 310.252 658.235 307.914 671.74Z" fill="url(#paint33_linear)"/>
<path d="M254.409 668.623C254.409 668.623 260.901 700.048 265.316 735.627H280.12C289.988 706.54 305.311 686.283 307.908 671.74C310.505 658.235 309.207 625.772 306.35 611.488H255.707L254.409 668.623Z" fill="url(#paint34_linear)"/>
<path d="M306.094 611.487C305.835 609.669 305.315 608.111 304.796 607.072H207.926C209.224 653.819 212.86 700.047 215.197 735.627H279.864C289.733 706.54 305.056 686.283 307.653 671.739C310.25 658.234 309.211 625.771 306.094 611.487Z" fill="url(#paint35_linear)"/>
<path d="M274.15 380.61C216.755 365.287 178.059 390.738 171.826 427.616C166.113 461.118 208.185 565.261 208.185 607.073C208.185 607.073 276.228 642.134 338.557 611.488C338.557 611.488 329.208 566.819 338.557 527.343C347.907 487.868 360.373 465.274 349.725 436.966C340.375 412.294 300.9 387.622 274.15 380.61Z" fill="url(#paint36_linear)"/>
<path d="M295.444 342.691C295.444 342.691 273.889 369.96 264.799 378.53C255.709 387.101 272.59 405.02 285.316 412.552C293.886 417.486 311.546 422.94 306.352 407.617C306.352 407.617 303.495 399.047 317.779 386.581C317.519 386.322 301.677 338.795 295.444 342.691Z" fill="url(#paint37_linear)"/>
<path d="M317.523 386.322C317.523 386.322 309.992 364.247 303.499 351.262L296.487 354.638C288.177 371.519 286.878 403.203 306.096 407.358C306.096 407.358 303.24 398.788 317.523 386.322Z" fill="#CB9EAE"/>
<path d="M304.023 337.757C305.841 327.368 296.491 326.589 293.635 335.16C290.258 345.028 293.894 352.041 297.79 349.703C297.79 349.703 290.518 372.038 299.608 385.543C308.957 399.047 320.904 393.853 335.707 379.31C348.433 366.844 356.743 351.261 358.042 345.548C361.418 330.225 345.316 317.5 330.253 318.538C312.074 319.058 304.023 337.757 304.023 337.757Z" fill="url(#paint38_linear)"/>
<path d="M304.017 337.758C303.497 343.99 304.536 348.665 307.912 346.588C311.548 344.51 320.119 332.304 327.65 341.134C335.441 349.964 341.674 358.274 355.439 356.716C373.099 354.898 377.254 330.745 361.672 326.33C361.672 326.33 368.424 318.02 356.477 314.124C345.31 310.488 345.05 312.826 337.259 303.996C332.844 299.061 306.094 301.658 298.823 329.187C298.823 329.447 305.056 328.148 304.017 337.758Z" fill="#44464E"/>
<path d="M216.239 515.137C216.758 503.191 224.29 472.286 234.678 452.288C245.066 432.551 239.872 407.1 225.848 396.971C211.824 387.102 192.086 388.92 182.737 402.685C157.545 439.823 164.817 523.188 178.582 551.496C181.179 557.21 187.671 560.846 196.501 562.923C177.023 554.093 196.242 510.463 216.239 515.137Z" fill="url(#paint39_linear)"/>
<path d="M289.992 549.159L327.65 503.71C329.208 501.632 331.805 500.853 334.402 501.632L398.29 519.292C399.848 519.812 400.367 521.63 399.069 522.928L350.764 566.559C349.725 567.598 348.426 567.857 346.868 567.598L291.551 554.612C289.473 553.574 288.694 550.976 289.992 549.159Z" fill="url(#paint40_linear)"/>
<path d="M335.189 530.978C333.111 524.745 326.619 520.07 322.983 519.031C320.386 518.252 300.648 518.512 290 518.772C285.845 518.772 281.949 520.07 278.313 522.148C274.937 524.226 270.782 526.563 268.704 526.563C265.068 526.563 235.462 526.563 235.462 526.563C235.462 526.563 226.372 519.551 215.724 514.876C195.727 510.201 176.768 553.832 195.727 562.662C227.93 570.713 291.299 559.026 317.789 549.937C323.762 547.859 328.956 544.223 332.592 539.029C334.929 536.432 336.228 533.575 335.189 530.978Z" fill="url(#paint41_linear)"/>
<path d="M109.754 735.627L216.753 734.848L323.492 734.588L537.49 734.328L751.488 734.588L858.227 734.848L965.226 735.627L858.227 736.146L751.488 736.406L537.49 736.925L323.492 736.406L216.753 736.146L109.754 735.627Z" fill="#001462"/>
<path d="M561.123 742.901H652.28C657.474 742.901 661.629 738.746 661.629 733.552C661.629 731.214 659.812 729.137 657.214 729.137H560.864C558.526 729.137 556.448 730.955 556.448 733.552V738.746C556.968 740.823 558.786 742.901 561.123 742.901Z" fill="url(#paint42_linear)"/>
<path d="M399.846 742.9H590.21C597.482 742.9 602.936 735.888 600.858 728.876L567.356 606.555C565.279 598.504 558.007 593.05 549.696 593.05H359.332C352.06 593.05 346.606 600.062 348.684 607.074L382.186 729.396C384.523 737.187 391.535 742.9 399.846 742.9Z" fill="url(#paint43_linear)"/>
<path d="M958.481 648.108C955.624 648.887 951.728 652.004 947.313 656.419C942.898 660.574 937.964 665.508 931.991 670.183C928.355 673.04 924.719 675.637 921.083 678.234C917.707 680.831 914.331 683.168 911.214 685.765C905.241 690.7 900.566 695.374 899.008 698.751C900.566 695.115 901.345 688.622 904.202 680.831C905.76 676.935 907.838 672.78 910.695 668.365C913.551 664.21 917.187 660.314 921.602 656.678C929.134 651.224 937.185 649.147 943.937 648.627C950.689 647.848 955.624 648.887 958.481 648.108Z" fill="#0060FF"/>
<path d="M896.671 695.633C896.931 691.997 895.113 686.284 894.074 678.752C892.776 671.221 892.257 661.872 894.594 651.743C897.451 639.277 902.904 628.889 908.099 620.578C913.293 612.268 918.227 606.294 920.045 602.139C918.227 606.294 917.188 614.086 916.149 623.435C915.111 632.784 913.812 643.952 911.215 655.379C909.137 664.988 905.502 673.039 902.645 679.791C899.528 686.803 896.931 692.257 896.671 695.633Z" fill="#0060FF"/>
<path d="M843.688 634.344C846.545 635.642 851.999 635.642 858.751 637.72C865.504 639.538 873.555 643.433 880.307 650.705C888.358 659.795 892.253 670.183 893.812 679.013C895.63 687.843 895.11 694.855 895.889 698.751C895.11 694.596 891.215 688.622 886.021 682.389C880.826 675.897 874.074 669.404 867.581 661.873C862.128 655.899 857.972 649.666 854.077 644.472C850.441 639.538 846.805 635.642 843.688 634.344Z" fill="#0060FF"/>
<path d="M930.952 675.376H874.596C871.739 675.376 869.401 677.974 869.661 680.83L876.413 738.225C876.673 740.822 878.751 742.64 881.348 742.64H923.94C926.537 742.64 928.614 740.822 928.874 738.225L935.626 680.83C936.146 677.974 933.809 675.376 930.952 675.376Z" fill="url(#paint44_linear)"/>
<path d="M866.801 675.635L869.398 696.931C869.658 698.23 870.437 699.009 871.735 699.009H933.545C934.844 699.009 935.623 698.23 935.883 696.931L938.48 675.635C938.739 674.337 937.441 673.038 936.142 673.038H869.138C867.84 673.038 866.801 674.077 866.801 675.635Z" fill="url(#paint45_linear)"/>
</g>
<defs>
<linearGradient id="paint0_linear" x1="137.69" y1="156.37" x2="137.69" y2="689.08" gradientUnits="userSpaceOnUse">
<stop offset="0.2372" stop-color="#8CC6FF"/>
<stop offset="1" stop-color="#0060FF" stop-opacity="0"/>
</linearGradient>
<linearGradient id="paint1_linear" x1="951.795" y1="275.211" x2="951.795" y2="693.897" gradientUnits="userSpaceOnUse">
<stop offset="0.2372" stop-color="#8CC6FF"/>
<stop offset="1" stop-color="#0060FF" stop-opacity="0"/>
</linearGradient>
<linearGradient id="paint2_linear" x1="476.526" y1="269.454" x2="420.382" y2="748.104" gradientUnits="userSpaceOnUse">
<stop offset="0.0800729" stop-color="#5944DA"/>
<stop offset="0.2124" stop-color="#7754E0"/>
<stop offset="0.4458" stop-color="#7251DF"/>
<stop offset="0.7508" stop-color="#8E2872"/>
<stop offset="0.8975" stop-color="#640C4C"/>
</linearGradient>
<linearGradient id="paint3_linear" x1="463.821" y1="417.228" x2="417.492" y2="458.924" gradientUnits="userSpaceOnUse">
<stop stop-color="#F6B3B5"/>
<stop offset="1" stop-color="#FAD1D3"/>
</linearGradient>
<linearGradient id="paint4_linear" x1="408.941" y1="549.11" x2="428.211" y2="580.079" gradientUnits="userSpaceOnUse">
<stop stop-color="#F6B3B5"/>
<stop offset="1" stop-color="#FAD1D3"/>
</linearGradient>
<linearGradient id="paint5_linear" x1="539.331" y1="276.703" x2="483.154" y2="755.642" gradientUnits="userSpaceOnUse">
<stop stop-color="#9E40CA"/>
<stop offset="0.1604" stop-color="#7352E0"/>
<stop offset="0.4433" stop-color="#774BCD"/>
<stop offset="0.813" stop-color="#8B4BD7"/>
<stop offset="0.9908" stop-color="#621791"/>
</linearGradient>
<linearGradient id="paint6_linear" x1="466.973" y1="475.1" x2="502.5" y2="598" gradientUnits="userSpaceOnUse">
<stop stop-color="#7352DF"/>
<stop offset="0.244792" stop-color="#774CCE"/>
<stop offset="0.813" stop-color="#7C44BC"/>
<stop offset="0.9908" stop-color="#5C138B"/>
</linearGradient>
<linearGradient id="paint7_linear" x1="429.221" y1="350.964" x2="406.984" y2="436.438" gradientUnits="userSpaceOnUse">
<stop stop-color="#F6B3B5"/>
<stop offset="1" stop-color="#FAD1D3"/>
</linearGradient>
<linearGradient id="paint8_linear" x1="409.978" y1="261.648" x2="353.834" y2="740.3" gradientUnits="userSpaceOnUse">
<stop stop-color="#9E40CA"/>
<stop offset="0.28125" stop-color="#7352E0"/>
<stop offset="0.510417" stop-color="#774BCD"/>
<stop offset="0.813" stop-color="#8B4BD7"/>
<stop offset="1" stop-color="#621791"/>
</linearGradient>
<linearGradient id="paint9_linear" x1="414.002" y1="356.5" x2="472.002" y2="439.5" gradientUnits="userSpaceOnUse">
<stop stop-color="#E9A424"/>
<stop offset="1" stop-color="#C5850D"/>
</linearGradient>
<linearGradient id="paint10_linear" x1="473.943" y1="531.22" x2="319.285" y2="558.299" gradientUnits="userSpaceOnUse">
<stop stop-color="#7352DF"/>
<stop offset="0.223958" stop-color="#774CCE"/>
<stop offset="0.807292" stop-color="#7C44BC"/>
<stop offset="0.9908" stop-color="#5C138B"/>
</linearGradient>
<linearGradient id="paint11_linear" x1="383.999" y1="476.452" x2="443.673" y2="476.452" gradientUnits="userSpaceOnUse">
<stop stop-color="#F6B3B5"/>
<stop offset="1" stop-color="#FAD1D3"/>
</linearGradient>
<linearGradient id="paint12_linear" x1="725.527" y1="606.243" x2="725.527" y2="421.483" gradientUnits="userSpaceOnUse">
<stop stop-color="#B53138"/>
<stop offset="0.2793" stop-color="#C9242D"/>
<stop offset="0.7702" stop-color="#B11019"/>
<stop offset="0.9908" stop-color="#0060FF"/>
</linearGradient>
<linearGradient id="paint13_linear" x1="801.177" y1="773.912" x2="803.152" y2="522.629" gradientUnits="userSpaceOnUse">
<stop stop-color="#001462"/>
<stop offset="0.0686931" stop-color="#081E71"/>
<stop offset="0.2519" stop-color="#193595"/>
<stop offset="0.4371" stop-color="#2748B0"/>
<stop offset="0.623" stop-color="#3055C4"/>
<stop offset="0.8101" stop-color="#365CD0"/>
<stop offset="1" stop-color="#385FD4"/>
</linearGradient>
<linearGradient id="paint14_linear" x1="922.234" y1="652.191" x2="741.999" y2="652.191" gradientUnits="userSpaceOnUse">
<stop stop-color="#CD1922"/>
<stop offset="0.1736" stop-color="#D7333C"/>
<stop offset="0.4798" stop-color="#DE444C"/>
<stop offset="0.88" stop-color="#EA7379"/>
<stop offset="0.9908" stop-color="#FFDFE1"/>
</linearGradient>
<linearGradient id="paint15_linear" x1="857.935" y1="517.352" x2="857.935" y2="775.101" gradientUnits="userSpaceOnUse">
<stop stop-color="#BF1B24"/>
<stop offset="0.1702" stop-color="#C00009"/>
<stop offset="0.397" stop-color="#D02129"/>
<stop offset="0.616" stop-color="#E14C55"/>
</linearGradient>
<linearGradient id="paint16_linear" x1="787.862" y1="581.924" x2="789.191" y2="412.895" gradientUnits="userSpaceOnUse">
<stop stop-color="#B53138"/>
<stop offset="0.2793" stop-color="#C93D45"/>
<stop offset="0.7702" stop-color="#CA1F28"/>
<stop offset="0.9908" stop-color="#860C12"/>
</linearGradient>
<linearGradient id="paint17_linear" x1="776.239" y1="444.931" x2="734.259" y2="474.523" gradientUnits="userSpaceOnUse">
<stop stop-color="#F6B3B5"/>
<stop offset="0.9914" stop-color="#FAD1D3"/>
</linearGradient>
<linearGradient id="paint18_linear" x1="751.278" y1="374.287" x2="719.621" y2="412.137" gradientUnits="userSpaceOnUse">
<stop stop-color="#F6B3B5"/>
<stop offset="0.9914" stop-color="#FAD1D3"/>
</linearGradient>
<linearGradient id="paint19_linear" x1="489.741" y1="127.531" x2="489.741" y2="1075.4" gradientUnits="userSpaceOnUse">
<stop stop-color="#8CC6FF"/>
<stop offset="1" stop-color="#385FD4"/>
</linearGradient>
<linearGradient id="paint20_linear" x1="631.869" y1="277.2" x2="631.869" y2="822.412" gradientUnits="userSpaceOnUse">
<stop stop-color="#8CC6FF"/>
<stop offset="0.1736" stop-color="#83BBFA"/>
<stop offset="0.4798" stop-color="#6B9DEE"/>
<stop offset="0.88" stop-color="#446DDA"/>
<stop offset="0.9908" stop-color="#385FD4"/>
</linearGradient>
<linearGradient id="paint21_linear" x1="672.085" y1="493.295" x2="593.631" y2="524.264" gradientUnits="userSpaceOnUse">
<stop stop-color="#F6B3B5"/>
<stop offset="0.9914" stop-color="#FAD1D3"/>
</linearGradient>
<linearGradient id="paint22_linear" x1="628.481" y1="390.74" x2="617.47" y2="506.357" gradientUnits="userSpaceOnUse">
<stop stop-color="#F6B3B5"/>
<stop offset="0.9914" stop-color="#FAD1D3"/>
</linearGradient>
<linearGradient id="paint23_linear" x1="617.253" y1="613.211" x2="666.132" y2="442.134" gradientUnits="userSpaceOnUse">
<stop stop-color="#8CC6FF"/>
<stop offset="1" stop-color="#F6B3B5"/>
</linearGradient>
<linearGradient id="paint24_linear" x1="606.189" y1="682.343" x2="606.189" y2="458.429" gradientUnits="userSpaceOnUse">
<stop stop-color="#8CC6FF"/>
<stop offset="1" stop-color="#385FD4"/>
</linearGradient>
<linearGradient id="paint25_linear" x1="657.225" y1="682.344" x2="657.225" y2="458.43" gradientUnits="userSpaceOnUse">
<stop stop-color="#8CC6FF"/>
<stop offset="1" stop-color="#385FD4"/>
</linearGradient>
<linearGradient id="paint26_linear" x1="741.115" y1="183.958" x2="741.115" y2="1057.22" gradientUnits="userSpaceOnUse">
<stop stop-color="#8CC6FF"/>
<stop offset="1" stop-color="#385FD4"/>
</linearGradient>
<linearGradient id="paint27_linear" x1="719.258" y1="183.958" x2="719.258" y2="1057.22" gradientUnits="userSpaceOnUse">
<stop stop-color="#8CC6FF"/>
<stop offset="1" stop-color="#385FD4"/>
</linearGradient>
<linearGradient id="paint28_linear" x1="623.496" y1="738.396" x2="623.496" y2="690.179" gradientUnits="userSpaceOnUse">
<stop stop-color="#F6B3B5"/>
<stop offset="0.9914" stop-color="#FAD1D3"/>
</linearGradient>
<linearGradient id="paint29_linear" x1="786.208" y1="675.1" x2="788.448" y2="390.201" gradientUnits="userSpaceOnUse">
<stop stop-color="#B53138"/>
<stop offset="0.2793" stop-color="#C9242D"/>
<stop offset="0.7702" stop-color="#B11019"/>
<stop offset="0.9908" stop-color="#B53138"/>
</linearGradient>
<linearGradient id="paint30_linear" x1="674.238" y1="667.272" x2="652.216" y2="603.27" gradientUnits="userSpaceOnUse">
<stop stop-color="#F6B3B5"/>
<stop offset="0.9914" stop-color="#FAD1D3"/>
</linearGradient>
<linearGradient id="paint31_linear" x1="373.499" y1="547.5" x2="333.829" y2="557.736" gradientUnits="userSpaceOnUse">
<stop offset="0.00520833" stop-color="#1EC9AB"/>
<stop offset="0.427083" stop-color="#1EC9AB"/>
<stop offset="0.9908" stop-color="#15A88E"/>
</linearGradient>
<linearGradient id="paint32_linear" x1="406.551" y1="488.264" x2="322.692" y2="506.494" gradientUnits="userSpaceOnUse">
<stop offset="0.015525" stop-color="#1EC9AB"/>
<stop offset="0.015625" stop-color="#1EC9AB"/>
<stop offset="0.536458" stop-color="#1EC9AB"/>
<stop offset="0.9908" stop-color="#15A88E"/>
</linearGradient>
<linearGradient id="paint33_linear" x1="136.647" y1="640.429" x2="583.291" y2="726.17" gradientUnits="userSpaceOnUse">
<stop offset="0.2974" stop-color="#17AC92"/>
<stop offset="0.2975" stop-color="#096051"/>
<stop offset="0.49" stop-color="#1DC7AA"/>
<stop offset="0.6752" stop-color="#1EC9AB"/>
<stop offset="0.8491" stop-color="#21CBAD"/>
<stop offset="1" stop-color="#3DDDC1"/>
</linearGradient>
<linearGradient id="paint34_linear" x1="135.806" y1="644.777" x2="582.451" y2="730.517" gradientUnits="userSpaceOnUse">
<stop offset="0.1048" stop-color="#128E79"/>
<stop offset="0.2974" stop-color="#128F79"/>
<stop offset="0.49" stop-color="#128E79"/>
<stop offset="0.6752" stop-color="#2F53C1"/>
<stop offset="0.8491" stop-color="#365CCF"/>
<stop offset="1" stop-color="#385FD4"/>
</linearGradient>
<linearGradient id="paint35_linear" x1="106.976" y1="512.547" x2="505.012" y2="925.324" gradientUnits="userSpaceOnUse">
<stop offset="0.1048" stop-color="#15A88E"/>
<stop offset="0.328125" stop-color="#85C8BC"/>
<stop offset="0.447917" stop-color="#70C1B3"/>
</linearGradient>
<linearGradient id="paint36_linear" x1="443.459" y1="267.975" x2="199.368" y2="586.52" gradientUnits="userSpaceOnUse">
<stop stop-color="#99FFEC"/>
<stop offset="0.317708" stop-color="#4FE9CD"/>
<stop offset="0.791974" stop-color="#1EC9AB"/>
<stop offset="1" stop-color="#15A88E"/>
</linearGradient>
<linearGradient id="paint37_linear" x1="285.116" y1="347.158" x2="294.15" y2="420.471" gradientUnits="userSpaceOnUse">
<stop stop-color="#F6B3B5"/>
<stop offset="1" stop-color="#FAD1D3"/>
</linearGradient>
<linearGradient id="paint38_linear" x1="358.96" y1="306.502" x2="291.207" y2="383.29" gradientUnits="userSpaceOnUse">
<stop stop-color="#F6B3B5"/>
<stop offset="1" stop-color="#FAD1D3"/>
</linearGradient>
<linearGradient id="paint39_linear" x1="330.597" y1="30.3807" x2="141.389" y2="640.48" gradientUnits="userSpaceOnUse">
<stop stop-color="#1EC9AB"/>
<stop offset="0.708333" stop-color="#1EC9AB"/>
<stop offset="0.838542" stop-color="#15A88E"/>
</linearGradient>
<linearGradient id="paint40_linear" x1="271.352" y1="580.249" x2="411.907" y2="486.031" gradientUnits="userSpaceOnUse">
<stop offset="0.161458" stop-color="#060B1D"/>
<stop offset="0.260417" stop-color="#0E142C"/>
<stop offset="0.411458" stop-color="#1F2744"/>
<stop offset="0.609375" stop-color="#373C51"/>
<stop offset="0.776042" stop-color="#454A60"/>
<stop offset="0.895833" stop-color="#44464E"/>
</linearGradient>
<linearGradient id="paint41_linear" x1="261.919" y1="563.593" x2="261.919" y2="517.438" gradientUnits="userSpaceOnUse">
<stop stop-color="#F6B3B5"/>
<stop offset="1" stop-color="#FAD1D3"/>
</linearGradient>
<linearGradient id="paint42_linear" x1="608.32" y1="736.945" x2="624.622" y2="688.957" gradientUnits="userSpaceOnUse">
<stop stop-color="#001462"/>
<stop offset="0.118" stop-color="#0F2880"/>
<stop offset="0.2672" stop-color="#1E3C9E"/>
<stop offset="0.4243" stop-color="#294BB6"/>
<stop offset="0.5908" stop-color="#3256C7"/>
<stop offset="0.7728" stop-color="#365DD1"/>
<stop offset="1" stop-color="#385FD4"/>
</linearGradient>
<linearGradient id="paint43_linear" x1="480.118" y1="732.674" x2="460.282" y2="489.687" gradientUnits="userSpaceOnUse">
<stop stop-color="#001462"/>
<stop offset="0.118" stop-color="#0F2880"/>
<stop offset="0.2672" stop-color="#1E3C9E"/>
<stop offset="0.4243" stop-color="#294BB6"/>
<stop offset="0.5908" stop-color="#3256C7"/>
<stop offset="0.7728" stop-color="#365DD1"/>
<stop offset="1" stop-color="#385FD4"/>
</linearGradient>
<linearGradient id="paint44_linear" x1="987.351" y1="709.065" x2="806.236" y2="709.065" gradientUnits="userSpaceOnUse">
<stop stop-color="#0060FF"/>
<stop offset="0.0887661" stop-color="#0B64FC"/>
<stop offset="0.2454" stop-color="#296EF3"/>
<stop offset="0.4514" stop-color="#597EE4"/>
<stop offset="0.6991" stop-color="#9C94D0"/>
<stop offset="0.9793" stop-color="#F0B1B7"/>
<stop offset="1" stop-color="#F6B3B5"/>
</linearGradient>
<linearGradient id="paint45_linear" x1="1020.24" y1="685.917" x2="824.107" y2="685.917" gradientUnits="userSpaceOnUse">
<stop stop-color="#0060FF"/>
<stop offset="0.0887661" stop-color="#0B64FC"/>
<stop offset="0.2454" stop-color="#296EF3"/>
<stop offset="0.4514" stop-color="#597EE4"/>
<stop offset="0.6991" stop-color="#9C94D0"/>
<stop offset="0.9793" stop-color="#F0B1B7"/>
<stop offset="1" stop-color="#F6B3B5"/>
</linearGradient>
</defs>
</svg>
