<svg width="209" height="225" viewBox="0 0 209 225" fill="none" xmlns="http://www.w3.org/2000/svg">
<path opacity="0.42" d="M47.3822 202.73H161.499C186.95 185.086 203.604 156.151 203.604 123.333C203.604 69.6967 159.271 18.53 104.499 18.53C49.7279 18.53 5.39453 69.6967 5.39453 123.333C5.39453 156.151 21.9316 185.204 47.3822 202.73Z" fill="url(#paint0_linear)"/>
<path opacity="0.43" d="M104.5 207.198C162.214 207.198 209 205.355 209 203.081C209 200.807 162.214 198.964 104.5 198.964C46.7862 198.964 0 200.807 0 203.081C0 205.355 46.7862 207.198 104.5 207.198Z" fill="#CEE5ED"/>
<path d="M70.4874 153.324H65.6787V198.963H70.4874V153.324Z" fill="#AAC6CE"/>
<path d="M70.4874 153.324H65.6787V159.676H70.4874V153.324Z" fill="#85B0BA"/>
<path d="M88.6659 198.964H48.7893C47.2646 198.964 46.0918 200.257 46.0918 201.669V203.08H91.4807V201.669C91.4807 200.14 90.1906 198.964 88.6659 198.964Z" fill="#AAC6CE"/>
<path d="M56.7647 153.443H89.7215C77.7585 149.091 82.3326 108.51 84.561 93.1016C85.0301 90.0433 82.5672 87.2203 79.5178 87.2203H57.5857C53.1289 87.2203 49.2585 90.5138 48.6721 94.9836C46.7955 108.981 43.7462 138.034 49.7276 149.326C51.0178 151.796 53.8326 153.443 56.7647 153.443Z" fill="#AAC6CE"/>
<path d="M38.4687 63.3441C51.2292 63.3441 61.5737 52.9696 61.5737 40.172C61.5737 27.3745 51.2292 17 38.4687 17C25.7082 17 15.3638 27.3745 15.3638 40.172C15.3638 52.9696 25.7082 63.3441 38.4687 63.3441Z" fill="#3E8CCC"/>
<path d="M38.4687 59.1082C48.8973 59.1082 57.3514 50.6296 57.3514 40.1707C57.3514 29.7118 48.8973 21.2332 38.4687 21.2332C28.04 21.2332 19.5859 29.7118 19.5859 40.1707C19.5859 50.6296 28.04 59.1082 38.4687 59.1082Z" fill="#CEE5ED"/>
<path d="M33.1914 46.6415C32.8395 46.6415 32.605 46.5238 32.3704 46.2886C31.9013 45.8181 31.9013 45.1123 32.3704 44.6418L37.2963 39.7016V26.7629C37.2963 26.0572 37.7655 25.5867 38.4692 25.5867C39.1729 25.5867 39.642 26.0572 39.642 26.7629V40.1721C39.642 40.525 39.5247 40.7602 39.2902 40.9955L34.0124 46.2886C33.7778 46.5238 33.426 46.6415 33.1914 46.6415Z" fill="#3E8CCC"/>
<path d="M38.2346 42.5265C39.7244 42.5265 40.9322 41.3152 40.9322 39.8211C40.9322 38.327 39.7244 37.1157 38.2346 37.1157C36.7448 37.1157 35.5371 38.327 35.5371 39.8211C35.5371 41.3152 36.7448 42.5265 38.2346 42.5265Z" fill="#1E394C"/>
<path d="M169.945 61.6973H130.537C128.543 61.6973 126.901 63.344 126.901 65.3436V83.1049C126.901 85.1045 128.543 86.7513 130.537 86.7513H133.235V91.1034C133.235 91.6915 133.938 92.0444 134.408 91.5739L139.685 86.7513H169.827C171.821 86.7513 173.463 85.1045 173.463 83.1049V65.3436C173.58 63.344 171.938 61.6973 169.945 61.6973Z" fill="#62BDF4"/>
<path d="M140.741 76.1645C141.647 76.1645 142.383 75.4272 142.383 74.5177C142.383 73.6082 141.647 72.871 140.741 72.871C139.834 72.871 139.099 73.6082 139.099 74.5177C139.099 75.4272 139.834 76.1645 140.741 76.1645Z" fill="#34648C"/>
<path d="M150.593 76.1642C151.5 76.1642 152.235 75.4269 152.235 74.5175C152.235 73.608 151.5 72.8707 150.593 72.8707C149.686 72.8707 148.951 73.608 148.951 74.5175C148.951 75.4269 149.686 76.1642 150.593 76.1642Z" fill="#34648C"/>
<path d="M159.859 76.1642C160.766 76.1642 161.501 75.4269 161.501 74.5175C161.501 73.608 160.766 72.8707 159.859 72.8707C158.952 72.8707 158.217 73.608 158.217 74.5175C158.217 75.4269 158.952 76.1642 159.859 76.1642Z" fill="#34648C"/>
<path d="M40.9326 109.571C40.9326 105.219 37.8832 100.866 34.1301 100.866C30.377 100.866 27.3276 105.219 27.3276 109.571C27.3276 113.923 30.377 117.452 34.1301 117.452C37.8832 117.452 40.9326 113.923 40.9326 109.571Z" fill="#67B8EF"/>
<path opacity="0.25" d="M34.1299 100.866C33.5434 100.866 32.957 100.983 32.3706 101.219C35.3027 102.277 37.4138 105.924 37.4138 109.57C37.4138 113.216 35.3027 116.275 32.3706 117.216C32.957 117.333 33.5434 117.451 34.1299 117.451C37.883 117.451 40.9323 113.922 40.9323 109.57C40.9323 105.218 37.883 100.866 34.1299 100.866Z" fill="#34648C"/>
<path d="M26.272 114.748L27.4448 125.922C27.5621 127.333 28.7349 128.392 30.1423 128.392H37.1794C38.5868 128.392 39.7596 127.333 39.8769 125.922L41.0498 114.748C41.167 114.159 40.6979 113.571 39.9942 113.571H27.3275C26.7411 113.571 26.272 114.042 26.272 114.748Z" fill="#CEE5ED"/>
<path d="M27.3275 115.218H40.346C40.6979 115.218 41.0498 115.453 41.2843 115.806L41.4016 114.748C41.5189 114.159 41.0498 113.571 40.346 113.571H27.3275C26.7411 113.571 26.272 114.159 26.272 114.748L26.3893 115.806C26.6238 115.453 26.8584 115.218 27.3275 115.218Z" fill="#AAC6CE"/>
<path d="M40.2286 113.571H35.7718C36.3583 113.571 36.8274 114.16 36.8274 114.748L35.6546 125.922C35.5373 127.333 34.3644 128.392 32.957 128.392H37.4138C38.8212 128.392 39.9941 127.333 40.1114 125.922L41.2842 114.748C41.4015 114.042 40.9323 113.571 40.2286 113.571Z" fill="#AAC6CE"/>
<path d="M97.1127 192.263L96.6436 195.439L98.9892 198.615L105.205 195.557L105.909 192.616L98.1682 191.44L97.1127 192.263Z" fill="#F2BF75"/>
<path d="M102.039 202.612L102.625 201.789C102.742 201.671 102.977 201.671 103.094 201.789L103.68 202.495C103.915 202.848 104.267 202.965 104.736 202.965L119.162 202.73C119.397 202.495 119.514 201.907 119.162 201.671C117.051 199.554 105.674 195.79 105.088 195.555C104.501 195.202 101.1 197.907 96.4089 195.437C96.4089 195.437 95.7052 199.084 95.5879 201.436C95.5879 202.377 96.2916 203.2 97.2299 203.2L100.866 203.083C101.452 203.083 101.804 202.848 102.039 202.612Z" fill="#1E394C"/>
<path d="M70.6063 137.802C70.6063 137.802 64.6248 144.389 75.5322 151.681C83.273 156.739 89.2545 155.21 94.0631 158.268C95.2359 158.974 96.0569 160.033 96.1742 161.444L96.4088 192.497L96.9952 192.732C99.9273 194.144 103.329 194.262 106.261 192.85L110.6 157.445C110.717 154.975 109.427 152.975 107.903 150.976C99.5755 140.272 84.6804 136.625 80.9273 136.037C76.1187 135.214 70.6063 137.802 70.6063 137.802Z" fill="#1E394C"/>
<path d="M73.1859 192.263L72.7168 195.439L75.1798 198.615L81.3958 195.674L82.0995 192.733L74.3588 191.439L73.1859 192.263Z" fill="#F2BF75"/>
<path d="M78.1126 202.612L78.8163 201.789C78.9336 201.671 79.1682 201.671 79.2855 201.789L79.8719 202.612C80.1065 202.965 80.4583 203.082 80.9274 203.082H95.3534C95.5879 202.847 95.7052 202.377 95.3534 202.024C93.2423 199.907 81.983 196.025 81.3966 195.672C80.8102 195.319 77.2916 198.025 72.7176 195.437C72.7176 195.437 71.8966 199.083 71.7793 201.436C71.7793 202.377 72.483 203.2 73.4213 203.2H77.0571C77.5262 203.082 77.8781 202.965 78.1126 202.612Z" fill="#1E394C"/>
<path d="M52.4268 131.92C52.4268 131.92 45.1552 140.036 55.7107 149.21C63.0996 155.68 69.6675 152.857 74.2416 156.856C75.2972 157.797 76.1182 158.973 76.0009 160.502L72.7169 191.908L72.9515 192.026C75.8836 193.908 79.5194 194.143 82.5688 192.731L90.7786 159.444C91.2478 156.856 90.1922 154.503 88.9021 152.269C81.6305 139.8 70.254 132.39 66.3836 131.214C61.3404 129.802 52.4268 131.92 52.4268 131.92Z" fill="#1E394C"/>
<path d="M92.4213 157.326C91.8349 157.091 91.3658 156.856 90.7794 156.738C90.4275 155.209 89.7238 153.798 88.9028 152.504C85.267 146.387 80.6929 141.447 76.4707 137.801C79.051 137.33 80.4584 136.742 81.1621 136.036C82.5695 136.272 85.5016 136.977 89.0201 138.154C92.5386 144.152 92.5386 153.798 92.4213 157.326Z" fill="#0F2A3F"/>
<path d="M71.8953 89.103C71.8953 89.103 61.457 87.6915 57.1175 95.9252C52.778 104.041 46.3274 136.153 51.957 137.094C54.42 137.564 61.2224 139.211 68.6113 138.623C78.815 137.917 81.0434 136.976 81.7471 134.977L88.1977 105.1C88.315 100.983 86.5558 97.1015 83.2718 94.5137C78.1113 90.6321 71.8953 89.103 71.8953 89.103Z" fill="#CEE5ED"/>
<path d="M88.1981 102.513C88.1981 102.513 88.3154 120.509 93.945 121.568C99.5746 122.626 114.587 122.273 114.587 122.273V128.037H82.4512L88.1981 102.513Z" fill="#AAC6CE"/>
<path d="M80.457 94.2798L81.7472 87.9281L73.5373 81.694L72.0126 89.2219C71.8953 89.2219 74.4756 100.632 80.457 94.2798Z" fill="#EA9249"/>
<path d="M90.8941 75.8122C90.8941 75.8122 86.5546 77.9294 80.3386 74.0478C80.3386 74.0478 78.9312 76.6356 74.7089 78.9881C74.7089 78.9881 72.4805 75.3417 71.3077 78.0471C70.9558 78.8704 70.7213 79.6938 70.7213 80.2819C66.7336 75.1064 69.5484 68.4018 73.3015 64.7555C76.82 61.3444 84.3262 62.6382 89.1349 64.6379C94.1781 66.6375 95.1163 63.1087 95.1163 63.1087C101.215 72.1658 90.8941 75.8122 90.8941 75.8122Z" fill="#1E394C"/>
<path d="M74.5925 79.1062C74.5925 79.1062 72.3641 75.4598 71.1913 78.1652C69.6666 81.5763 71.4259 83.5759 73.4197 83.5759C73.4197 83.5759 75.0617 92.2801 83.037 91.692C91.0123 91.1039 92.1851 78.1652 90.895 75.8127C90.895 75.8127 86.5555 77.9299 80.3394 74.0483C80.3394 74.0483 78.932 76.7537 74.5925 79.1062Z" fill="#F2BF75"/>
<path d="M143.908 99.4552H110.599C108.957 99.4552 107.55 100.631 107.198 102.278L102.741 124.156H143.204L147.309 103.69C147.778 101.455 146.136 99.4552 143.908 99.4552Z" fill="#CEE5ED"/>
<path d="M142.97 124.156H87.8461C86.9078 124.156 86.2041 124.862 86.2041 125.803V126.391C86.2041 127.332 86.9078 128.038 87.8461 128.038H142.97C143.908 128.038 144.612 127.332 144.612 126.391V125.803C144.729 124.862 143.908 124.156 142.97 124.156Z" fill="#80A9B2"/>
<path d="M142.97 124.156H102.272C103.211 124.156 103.914 124.862 103.914 125.803V126.391C103.914 127.332 103.211 128.038 102.272 128.038H142.97C143.908 128.038 144.612 127.332 144.612 126.391V125.803C144.729 124.862 143.908 124.156 142.97 124.156Z" fill="#AAC6CE"/>
<path d="M89.7224 122.979C83.2718 122.273 64.9755 120.391 61.9261 120.038C57.9385 119.685 66.5002 103.688 67.4385 98.2775C68.3767 92.8668 64.2718 92.6315 64.2718 92.6315C61.9261 92.3963 59.3459 92.6315 57.2348 95.925C52.778 102.63 47.852 122.391 50.4323 127.331C50.7841 127.919 51.3706 128.272 51.957 128.272H89.7224V122.979Z" fill="#CEE5ED"/>
<path d="M89.7221 122.98C89.7221 122.98 66.2654 121.333 61.2221 120.628C57.3518 120.157 65.4444 103.807 66.3826 98.2791C67.3209 92.7507 63.0987 93.1036 63.0987 93.1036C62.0431 92.9859 60.5184 93.1036 59.4629 93.4564C60.9876 92.3978 62.6296 92.3978 64.2715 92.5154C64.2715 92.5154 68.3765 92.7507 67.4382 98.1614C66.4999 103.572 59.111 119.216 61.574 119.804C64.6234 120.628 83.1542 122.157 89.7221 122.98Z" fill="#AAC6CE"/>
<path d="M89.7227 128.272H98.519C99.2227 128.272 99.5745 127.566 99.2227 126.978C98.4017 125.684 97.1115 123.92 96.1733 123.685C95.5869 123.449 91.3646 123.685 89.8399 123.802V128.272H89.7227Z" fill="#F2BF75"/>
<path opacity="0.67" d="M90.8953 75.8127C90.8953 75.8127 90.1916 76.1656 88.9015 76.2832C88.7842 76.8714 88.5496 78.0476 88.5496 79.1062C88.4323 80.6353 89.136 85.458 88.6669 85.458C88.1978 85.458 87.1422 85.458 87.1422 85.458C87.1422 85.458 86.4385 92.3978 79.5188 91.2216C79.4015 91.2216 79.4015 91.2216 79.2842 91.2216C80.3397 91.5744 81.5126 91.8097 82.92 91.6921C91.1299 91.1039 92.3027 78.2829 90.8953 75.8127Z" fill="#EA9249"/>
<path d="M166.896 128.155H23.2236C21.5816 128.155 20.2915 129.449 20.2915 131.096V132.037C20.2915 133.684 21.5816 134.977 23.2236 134.977H167.014C168.656 134.977 169.946 133.684 169.946 132.037V131.096C169.829 129.449 168.538 128.155 166.896 128.155Z" fill="#3E8CCC"/>
<path d="M166.896 128.155H23.2236C21.5816 128.155 20.2915 129.449 20.2915 131.096V132.037C20.2915 132.39 20.4088 132.625 20.4088 132.978C20.7606 131.802 21.9335 130.978 23.2236 130.978H167.014C168.304 130.978 169.359 131.802 169.829 132.978C169.946 132.743 169.946 132.39 169.946 132.037V131.096C169.829 129.449 168.538 128.155 166.896 128.155Z" fill="#2173AA"/>
<path d="M68.6125 202.847H63.8039L30.3779 134.977H35.1866L68.6125 202.847Z" fill="#34648C"/>
<path d="M15.7173 202.848H20.5259L53.9519 134.978H49.1432L15.7173 202.848Z" fill="#34648C"/>
<path d="M172.057 202.847H167.248L133.822 134.977H138.631L172.057 202.847Z" fill="#34648C"/>
<path d="M119.162 202.847H123.971L157.397 134.977H152.588L119.162 202.847Z" fill="#34648C"/>
<path d="M36.4767 137.683L35.1866 134.977H30.3779L31.6681 137.683H36.4767Z" fill="#1A3651"/>
<path d="M52.6631 137.683L53.9533 134.977H49.1446L47.8545 137.683H52.6631Z" fill="#1A3651"/>
<path d="M140.038 137.683L138.631 134.977H133.822L135.23 137.683H140.038Z" fill="#1A3651"/>
<path d="M156.106 137.683L157.396 134.977H152.587L151.297 137.683H156.106Z" fill="#1A3651"/>
<defs>
<linearGradient id="paint0_linear" x1="104.479" y1="188.644" x2="104.479" y2="-16.0231" gradientUnits="userSpaceOnUse">
<stop stop-color="white"/>
<stop offset="0.1258" stop-color="#F8FCFE"/>
<stop offset="0.3051" stop-color="#E6F3FC"/>
<stop offset="0.5164" stop-color="#C7E5F9"/>
<stop offset="0.7522" stop-color="#9CD1F5"/>
<stop offset="1" stop-color="#67B8EF"/>
</linearGradient>
</defs>
</svg>
