<svg width="240" height="206" viewBox="0 0 240 206" fill="none" xmlns="http://www.w3.org/2000/svg">
<g opacity="0.75">
<path opacity="0.75" d="M233.696 69.3359C231.693 50.0572 221.077 31.9802 207.257 18.1096C201.648 12.4511 195.239 7.24338 187.728 4.6395C180.166 2.03562 171.253 2.38614 164.844 7.14323C160.086 10.6985 157.182 16.2067 152.876 20.3128C143.962 28.8255 130.292 30.1275 118.124 28.1245C105.956 26.1215 94.4387 21.3644 82.2705 19.3614C70.1024 17.3584 56.432 18.7105 47.5688 27.2732C37.2535 37.188 36.6025 53.5624 39.1062 67.6834C39.9575 72.4906 41.0591 77.498 39.5068 82.1049C37.1533 89.0152 29.7924 92.6206 23.8335 96.8769C9.0114 107.543 0.799165 126.721 3.40304 144.798C6.2573 164.678 21.1295 181.403 39.0061 190.516C56.8827 199.68 77.4133 202.184 97.4932 202.284C106.056 202.334 114.619 201.983 123.081 200.732C147.668 197.176 170.802 186.36 191.183 172.139C202.55 164.227 213.316 155.064 221.428 143.847C236.851 122.665 240.656 94.4232 233.696 69.3359Z" fill="#EDEFF4"/>
<g opacity="0.75">
<path opacity="0.75" d="M236.7 69.3357C234.096 45.8007 220.025 23.217 201.347 8.8957C192.233 1.88526 180.015 -2.62146 168.698 1.68496C162.99 3.83817 159.184 7.99436 155.529 12.6513C151.923 17.158 148.168 21.0638 142.71 23.2671C131.643 27.7738 119.275 25.7708 108.108 22.7664C95.9398 19.5616 83.7216 15.155 70.9025 15.5556C59.836 15.9061 48.8697 19.862 42.1096 28.9756C35.5499 37.7887 34.2479 49.5062 35.1493 60.1721C35.65 66.181 37.9034 72.4905 37.2524 78.4994C36.6515 84.1078 32.0947 87.613 27.7382 90.5674C23.2315 93.6219 18.7749 96.6264 14.9692 100.582C11.2136 104.538 8.00884 109.145 5.60526 114.102C0.748024 124.117 -1.10474 135.284 0.647874 146.3C2.35041 157.066 7.60824 166.981 14.6688 175.193C30.7427 193.971 54.9788 201.983 78.9145 204.337C105.504 206.991 132.394 204.537 157.181 194.322C168.798 189.515 179.865 183.506 190.28 176.445C200.746 169.385 210.861 161.373 219.073 151.708C234.596 133.531 241.707 109.696 239.654 85.9605C239.153 80.0517 238.102 74.2431 236.549 68.5346C235.548 64.829 229.739 66.3814 230.741 70.1369C236.549 91.5689 234.596 115.304 223.63 134.833C212.013 155.514 190.931 170.386 170.501 181.353C159.785 187.111 148.468 191.768 136.701 194.873C124.182 198.128 111.413 199.279 98.4936 199.229C74.7583 199.179 49.6208 195.874 30.0417 181.403C13.517 169.184 2.40049 148.904 7.00735 128.073C9.26071 117.908 14.6187 108.594 22.4303 101.734C29.7913 95.3245 41.008 91.4687 42.9108 80.6526C43.9624 74.7939 42.1597 68.9852 41.4086 63.1766C40.7576 57.9688 40.5573 52.6108 41.2584 47.4031C42.6605 37.1378 48.0685 27.9741 57.9833 24.0683C80.5169 15.2051 103.451 31.1288 126.035 31.8799C136.4 32.2305 147.266 29.7267 154.928 22.4158C159.034 18.51 161.738 13.2021 166.245 9.74697C170.451 6.49212 176.009 5.59078 181.167 6.19167C192.534 7.54369 201.697 16.2567 208.958 24.3688C216.519 32.7813 222.829 42.5959 226.735 53.2618C228.638 58.4696 229.99 63.8275 230.59 69.3357C231.141 73.1414 237.15 73.1915 236.7 69.3357Z" fill="#EDEFF4"/>
</g>
</g>
<path d="M177.01 80.4526C177.01 80.4526 176.96 80.9534 176.859 81.7045" stroke="#2E3062" stroke-linecap="round" stroke-linejoin="round"/>
<path d="M176.209 84.1071C174.407 89.2648 168.548 97.0263 150.02 88.2633C122.129 75.0937 111.313 38.5392 81.2679 51.859C51.2231 65.1789 108.258 103.286 88.2783 119.66C59.2851 143.395 28.1387 116.205 38.9548 93.0704" stroke="#2E3062" stroke-linecap="round" stroke-linejoin="round" stroke-dasharray="5 5"/>
<path d="M39.5044 91.9698C39.7047 91.6193 39.905 91.2187 40.1053 90.8682" stroke="#2E3062" stroke-linecap="round" stroke-linejoin="round"/>
<path d="M213.1 125.954L155.815 162.959C154.613 163.76 153.011 163.41 152.21 162.208L131.078 129.409C130.277 128.207 130.627 126.605 131.829 125.804L189.165 88.8486C190.366 88.0474 191.969 88.3979 192.77 89.5997L213.901 122.349C214.653 123.55 214.352 125.203 213.1 125.954Z" fill="url(#paint0_linear)"/>
<path opacity="0.3" d="M196.554 95.4518L134.882 135.269L141.917 146.165L203.588 106.347L196.554 95.4518Z" fill="white"/>
<path d="M177.699 131.511L149.557 149.688C149.256 149.888 148.856 149.788 148.705 149.487L148.405 148.987C148.205 148.686 148.305 148.286 148.605 148.135L176.747 129.958C177.048 129.758 177.448 129.858 177.598 130.159L177.899 130.659C178.099 130.96 177.999 131.31 177.699 131.511Z" fill="white"/>
<path d="M179.701 134.564L151.559 152.741C151.259 152.942 150.858 152.841 150.708 152.541L150.407 152.04C150.207 151.74 150.307 151.339 150.608 151.189L178.75 133.012C179.05 132.812 179.451 132.912 179.601 133.212L179.901 133.713C180.052 133.963 179.951 134.364 179.701 134.564Z" fill="white"/>
<path d="M174.393 142.276L153.512 155.746C153.211 155.947 152.811 155.846 152.661 155.546L152.36 155.045C152.16 154.745 152.26 154.344 152.56 154.194L173.441 140.724C173.742 140.524 174.143 140.624 174.293 140.924L174.593 141.425C174.743 141.725 174.693 142.076 174.393 142.276Z" fill="white"/>
<path d="M205.339 122.148L198.128 126.805C197.377 127.256 196.425 127.055 195.975 126.354L193.671 122.749C193.221 121.998 193.421 121.046 194.122 120.596L201.333 115.939C202.084 115.488 203.035 115.689 203.486 116.39L205.789 119.995C206.29 120.696 206.09 121.647 205.339 122.148Z" fill="url(#paint1_radial)"/>
<path d="M159.636 181.403H126.787V189.064H159.636V181.403Z" fill="url(#paint2_linear)"/>
<path d="M159.636 181.403H126.787V182.504H159.636V181.403Z" fill="#FCCC54"/>
<path opacity="0.3" d="M130.993 181.4H129.541V189.062H130.993V181.4Z" fill="#FFBE00"/>
<path opacity="0.3" d="M135.299 181.399H133.847V189.061H135.299V181.399Z" fill="#FFBE00"/>
<path opacity="0.3" d="M139.606 181.399H138.154V189.061H139.606V181.399Z" fill="#FFBE00"/>
<path d="M143.911 181.399H142.459V189.061H143.911V181.399Z" fill="#FFBE00"/>
<path d="M148.218 181.399H146.766V189.061H148.218V181.399Z" fill="#FFBE00"/>
<path d="M152.576 181.399H151.124V189.061H152.576V181.399Z" fill="#FFBE00"/>
<path d="M156.881 181.399H155.429V189.061H156.881V181.399Z" fill="#FFBE00"/>
<path opacity="0.5" d="M157.383 181.4H139.406V189.062H157.383V181.4Z" fill="#FFE6B3"/>
<path opacity="0.5" d="M157.382 181.4H152.825V189.062H157.382V181.4Z" fill="#FCE8C5"/>
<path d="M198.493 181.403H165.644V189.064H198.493V181.403Z" fill="url(#paint3_linear)"/>
<path d="M198.493 181.403H165.644V182.504H198.493V181.403Z" fill="#FCCC54"/>
<path opacity="0.3" d="M169.85 181.4H168.398V189.062H169.85V181.4Z" fill="#FFBE00"/>
<path opacity="0.3" d="M174.157 181.399H172.705V189.061H174.157V181.399Z" fill="#FFBE00"/>
<path opacity="0.3" d="M178.462 181.399H177.01V189.061H178.462V181.399Z" fill="#FFBE00"/>
<path d="M182.77 181.399H181.317V189.061H182.77V181.399Z" fill="#FFBE00"/>
<path d="M187.075 181.399H185.623V189.061H187.075V181.399Z" fill="#FFBE00"/>
<path d="M191.432 181.399H189.98V189.061H191.432V181.399Z" fill="#FFBE00"/>
<path d="M195.738 181.399H194.286V189.061H195.738V181.399Z" fill="#FFBE00"/>
<path opacity="0.5" d="M196.24 181.4H178.263V189.062H196.24V181.4Z" fill="#FFE6B3"/>
<path opacity="0.5" d="M196.238 181.4H191.682V189.062H196.238V181.4Z" fill="#FCE8C5"/>
<path d="M149.921 63.9261C149.02 63.6256 148.069 63.3753 147.167 63.1249V59.0688C147.167 54.6122 143.562 51.0068 139.105 51.0068H99.8467C95.39 51.0068 91.7847 54.6122 91.7847 59.0688V63.1249C90.8833 63.3753 89.9319 63.6757 89.0306 63.9261C87.328 64.4769 86.1262 66.0793 86.1763 67.882L87.4282 159.018C87.5283 166.379 93.5373 172.338 100.948 172.338H138.104C145.465 172.338 151.524 166.429 151.624 159.018L152.876 67.882C152.826 66.0793 151.674 64.4769 149.921 63.9261Z" fill="#1D1D6D"/>
<path d="M143.762 22.5645H95.2397V78.5979H143.762V22.5645Z" fill="white"/>
<path d="M143.762 22.5645H95.2397V78.5979H143.762V22.5645Z" fill="url(#paint4_linear)"/>
<path d="M90.1821 78.1451L92.7359 77.3439C111.163 71.6354 127.688 71.6354 146.115 77.3439L148.669 78.1451L147.518 160.668C147.417 167.128 142.16 172.335 135.7 172.335H103.151C96.6918 172.335 91.3839 167.128 91.3338 160.668L90.1821 78.1451Z" fill="#1631A4"/>
<path d="M144.412 85.3569H94.438V122.663H144.412V85.3569Z" fill="white"/>
<path d="M144.412 85.3569H94.438V91.8166H144.412V85.3569Z" fill="url(#paint5_linear)"/>
<path d="M119.427 118.904C125.87 118.904 131.094 113.68 131.094 107.236C131.094 100.793 125.87 95.5688 119.427 95.5688C112.983 95.5688 107.759 100.793 107.759 107.236C107.759 113.68 112.983 118.904 119.427 118.904Z" fill="url(#paint6_linear)"/>
<path d="M119.025 112.645C118.624 112.645 118.224 112.445 117.973 112.095L112.766 104.433C112.365 103.832 112.515 103.031 113.116 102.631C113.717 102.23 114.518 102.38 114.919 102.981L118.975 108.89L126.887 94.869C127.237 94.2681 128.038 94.0177 128.639 94.3682C129.24 94.7187 129.49 95.5199 129.14 96.1208L120.227 111.944C120.026 112.345 119.626 112.595 119.175 112.595C119.075 112.645 119.075 112.645 119.025 112.645Z" fill="#1631A4"/>
<path d="M101.198 135.281H95.7399C95.0389 135.281 94.438 134.68 94.438 133.979V131.525C94.438 130.824 95.0389 130.223 95.7399 130.223H101.198C101.899 130.223 102.5 130.824 102.5 131.525V133.979C102.5 134.73 101.899 135.281 101.198 135.281Z" fill="white"/>
<path d="M112.514 135.281H107.056C106.355 135.281 105.754 134.68 105.754 133.979V131.525C105.754 130.824 106.355 130.223 107.056 130.223H112.514C113.215 130.223 113.816 130.824 113.816 131.525V133.979C113.866 134.73 113.265 135.281 112.514 135.281Z" fill="white"/>
<path d="M131.744 135.281H126.286C125.585 135.281 124.984 134.68 124.984 133.979V131.525C124.984 130.824 125.585 130.223 126.286 130.223H131.744C132.445 130.223 133.046 130.824 133.046 131.525V133.979C133.046 134.73 132.445 135.281 131.744 135.281Z" fill="white"/>
<path d="M143.112 135.281H137.653C136.952 135.281 136.352 134.68 136.352 133.979V131.525C136.352 130.824 136.952 130.223 137.653 130.223H143.112C143.813 130.223 144.414 130.824 144.414 131.525V133.979C144.414 134.73 143.813 135.281 143.112 135.281Z" fill="white"/>
<path d="M104.402 145.895H98.0424C96.8406 145.895 95.8892 144.944 95.8892 143.742V141.739C95.8892 140.537 96.8406 139.586 98.0424 139.586H104.402C105.604 139.586 106.555 140.537 106.555 141.739V143.742C106.555 144.944 105.604 145.895 104.402 145.895Z" fill="white"/>
<path d="M122.58 145.895H116.22C115.018 145.895 114.067 144.944 114.067 143.742V141.739C114.067 140.537 115.018 139.586 116.22 139.586H122.58C123.781 139.586 124.733 140.537 124.733 141.739V143.742C124.783 144.944 123.781 145.895 122.58 145.895Z" fill="white"/>
<path d="M140.806 145.895H134.446C133.244 145.895 132.293 144.944 132.293 143.742V141.739C132.293 140.537 133.244 139.586 134.446 139.586H140.806C142.007 139.586 142.959 140.537 142.959 141.739V143.742C142.959 144.944 141.957 145.895 140.806 145.895Z" fill="white"/>
<path d="M104.401 154.305H98.0414C96.8396 154.305 95.8882 153.354 95.8882 152.152V150.149C95.8882 148.947 96.8396 147.996 98.0414 147.996H104.401C105.603 147.996 106.554 148.947 106.554 150.149V152.152C106.554 153.304 105.603 154.305 104.401 154.305Z" fill="white"/>
<path d="M122.579 154.305H116.219C115.017 154.305 114.066 153.354 114.066 152.152V150.149C114.066 148.947 115.017 147.996 116.219 147.996H122.579C123.78 147.996 124.732 148.947 124.732 150.149V152.152C124.782 153.304 123.78 154.305 122.579 154.305Z" fill="white"/>
<path d="M140.805 154.305H134.445C133.243 154.305 132.292 153.354 132.292 152.152V150.149C132.292 148.947 133.243 147.996 134.445 147.996H140.805C142.006 147.996 142.958 148.947 142.958 150.149V152.152C142.958 153.304 141.956 154.305 140.805 154.305Z" fill="white"/>
<path d="M104.401 162.672H98.0419C96.8401 162.672 95.8887 161.721 95.8887 160.519V158.516C95.8887 157.314 96.8401 156.363 98.0419 156.363H104.401C105.603 156.363 106.555 157.314 106.555 158.516V160.519C106.555 161.721 105.603 162.672 104.401 162.672Z" fill="white"/>
<path d="M122.579 162.673H116.219C115.017 162.673 114.066 161.721 114.066 160.519V158.516C114.066 157.315 115.017 156.363 116.219 156.363H122.579C123.78 156.363 124.732 157.315 124.732 158.516V160.519C124.782 161.721 123.78 162.673 122.579 162.673Z" fill="white"/>
<path d="M140.805 162.673H134.446C133.244 162.673 132.292 161.721 132.292 160.519V158.516C132.292 157.315 133.244 156.363 134.446 156.363H140.805C142.007 156.363 142.958 157.315 142.958 158.516V160.519C142.958 161.721 141.957 162.673 140.805 162.673Z" fill="white"/>
<path d="M96.391 132.126L88.98 124.064L142.46 74.8408L149.871 82.9028L96.391 132.126Z" fill="url(#paint7_linear)"/>
<path opacity="0.4" d="M132.696 25.3198H106.356V27.8736H132.696V25.3198Z" fill="#1D1D6D"/>
<g opacity="0.4">
<path opacity="0.4" d="M109.811 44.6968H98.4438V45.9987H109.811V44.6968Z" fill="#1D1D6D"/>
<path opacity="0.4" d="M123.933 44.6968H112.566V45.9987H123.933V44.6968Z" fill="#1D1D6D"/>
<g opacity="0.4">
<path opacity="0.4" d="M140.358 44.6978H137.554V45.9997H140.358V44.6978Z" fill="#1D1D6D"/>
<path opacity="0.4" d="M140.356 48.2031H137.552V49.5051H140.356V48.2031Z" fill="#1D1D6D"/>
<path opacity="0.4" d="M140.356 51.7085H137.552V53.0104H140.356V51.7085Z" fill="#1D1D6D"/>
<path opacity="0.4" d="M140.356 55.2139H137.552V56.5158H140.356V55.2139Z" fill="#1D1D6D"/>
<path opacity="0.4" d="M140.356 58.7681H137.552V60.07H140.356V58.7681Z" fill="#1D1D6D"/>
<path opacity="0.4" d="M140.356 62.2734H137.552V63.5754H140.356V62.2734Z" fill="#1D1D6D"/>
</g>
<g opacity="0.4">
<path opacity="0.4" d="M136.152 44.6978H134.7V45.9997H136.152V44.6978Z" fill="#1D1D6D"/>
<path opacity="0.4" d="M136.15 48.2031H134.698V49.5051H136.15V48.2031Z" fill="#1D1D6D"/>
<path opacity="0.4" d="M136.15 51.7085H134.698V53.0104H136.15V51.7085Z" fill="#1D1D6D"/>
<path opacity="0.4" d="M136.15 55.2139H134.698V56.5158H136.15V55.2139Z" fill="#1D1D6D"/>
<path opacity="0.4" d="M136.15 58.7681H134.698V60.07H136.15V58.7681Z" fill="#1D1D6D"/>
<path opacity="0.4" d="M136.15 62.2734H134.698V63.5754H136.15V62.2734Z" fill="#1D1D6D"/>
</g>
<path opacity="0.4" d="M112.965 48.2021H98.4438V49.5041H112.965V48.2021Z" fill="#1D1D6D"/>
<path opacity="0.4" d="M126.436 48.2021H116.521V49.5041H126.436V48.2021Z" fill="#1D1D6D"/>
<path opacity="0.4" d="M109.811 52.46H98.4438V53.7619H109.811V52.46Z" fill="#1D1D6D"/>
<path opacity="0.4" d="M123.933 52.46H112.566V53.7619H123.933V52.46Z" fill="#1D1D6D"/>
<path opacity="0.4" d="M112.965 55.9629H98.4438V57.2648H112.965V55.9629Z" fill="#1D1D6D"/>
<path opacity="0.4" d="M120.927 36.1318H98.4438V37.4338H120.927V36.1318Z" fill="#1D1D6D"/>
<path opacity="0.4" d="M140.406 36.1318H124.482V37.4338H140.406V36.1318Z" fill="#1D1D6D"/>
<path opacity="0.4" d="M131.043 55.9629H116.521V57.2648H131.043V55.9629Z" fill="#1D1D6D"/>
<path opacity="0.4" d="M109.811 60.2207H98.4438V61.5226H109.811V60.2207Z" fill="#1D1D6D"/>
<path opacity="0.4" d="M123.933 60.2207H112.566V61.5226H123.933V60.2207Z" fill="#1D1D6D"/>
<path opacity="0.4" d="M112.965 63.7261H98.4438V65.028H112.965V63.7261Z" fill="#1D1D6D"/>
<path opacity="0.4" d="M131.043 63.7261H116.521V65.028H131.043V63.7261Z" fill="#1D1D6D"/>
</g>
<path d="M214.599 177.502H146.447C144.995 177.502 143.843 176.35 143.843 174.898V135.89C143.843 134.437 144.995 133.286 146.447 133.286H214.649C216.101 133.286 217.253 134.437 217.253 135.89V174.898C217.203 176.35 216.051 177.502 214.599 177.502Z" fill="url(#paint8_linear)"/>
<path opacity="0.2" d="M217.252 142.9H143.843V155.869H217.252V142.9Z" fill="white"/>
<path d="M181.851 162.981H148.351C148 162.981 147.7 162.681 147.7 162.33V161.73C147.7 161.379 148 161.079 148.351 161.079H181.851C182.201 161.079 182.502 161.379 182.502 161.73V162.33C182.502 162.681 182.201 162.981 181.851 162.981Z" fill="white"/>
<path d="M181.85 166.587H148.35C148 166.587 147.699 166.287 147.699 165.936V165.336C147.699 164.985 148 164.685 148.35 164.685H181.85C182.201 164.685 182.501 164.985 182.501 165.336V165.936C182.501 166.337 182.201 166.587 181.85 166.587Z" fill="white"/>
<path d="M173.237 170.242H148.35C148 170.242 147.699 169.942 147.699 169.591V168.99C147.699 168.64 148 168.339 148.35 168.339H173.237C173.588 168.339 173.888 168.64 173.888 168.99V169.591C173.838 169.942 173.538 170.242 173.237 170.242Z" fill="white"/>
<path d="M210.141 170.094H201.579C200.727 170.094 200.026 169.393 200.026 168.542V164.286C200.026 163.434 200.727 162.733 201.579 162.733H210.141C210.993 162.733 211.694 163.434 211.694 164.286V168.542C211.744 169.393 211.043 170.094 210.141 170.094Z" fill="url(#paint9_linear)"/>
<path d="M155.929 173.541H121.778V181.553H155.929V173.541Z" fill="url(#paint10_linear)"/>
<path d="M155.929 173.541H121.778V174.693H155.929V173.541Z" fill="#FCCC54"/>
<path opacity="0.3" d="M126.184 173.539H124.682V181.551H126.184V173.539Z" fill="#FFBE00"/>
<path opacity="0.3" d="M130.691 173.539H129.189V181.551H130.691V173.539Z" fill="#FFBE00"/>
<path opacity="0.3" d="M135.149 173.539H133.647V181.551H135.149V173.539Z" fill="#FFBE00"/>
<path d="M139.655 173.539H138.152V181.551H139.655V173.539Z" fill="#FFBE00"/>
<path d="M144.111 173.539H142.609V181.551H144.111V173.539Z" fill="#FFBE00"/>
<path d="M148.619 173.539H147.117V181.551H148.619V173.539Z" fill="#FFBE00"/>
<path d="M153.075 173.539H151.573V181.551H153.075V173.539Z" fill="#FFBE00"/>
<path opacity="0.5" d="M153.626 173.538H134.948V181.55H153.626V173.538Z" fill="#FFE6B3"/>
<path opacity="0.5" d="M153.675 173.538H148.918V181.55H153.675V173.538Z" fill="#FCE8C5"/>
<path d="M70.2393 103.188C67.3349 103.439 65.382 102.287 64.2804 101.436C63.6795 100.985 62.8783 100.985 62.3275 101.436C61.2258 102.337 59.2229 103.489 56.3686 103.188C51.7617 102.738 49.2079 101.986 48.4067 103.639L57.9209 119.913L63.329 124.62L68.737 119.913L78.2512 103.639C77.3999 101.936 74.8461 102.738 70.2393 103.188Z" fill="url(#paint11_linear)"/>
<path d="M59.4732 102.886C58.5718 103.137 57.5703 103.287 56.3686 103.137C55.7677 103.087 55.2168 103.036 54.666 102.936L60.6249 116.256L59.4732 102.886Z" fill="url(#paint12_linear)"/>
<path d="M59.4732 102.886C58.5718 103.137 57.5703 103.287 56.3686 103.137C55.7677 103.087 55.2168 103.036 54.666 102.936L60.6249 116.256L59.4732 102.886Z" fill="url(#paint13_radial)"/>
<path d="M66.0826 117.359L75.3965 102.587C74.0946 102.637 72.392 102.938 70.2388 103.138C68.7366 103.288 67.4847 103.038 66.4331 102.637L63.9795 116.258L66.0826 117.359Z" fill="url(#paint14_linear)"/>
<path d="M66.0826 117.359L75.3965 102.587C74.0946 102.637 72.392 102.938 70.2388 103.138C68.7366 103.288 67.4847 103.038 66.4331 102.637L63.9795 116.258L66.0826 117.359Z" fill="url(#paint15_radial)"/>
<path d="M69.4882 117.359H69.2879V116.307L63.279 116.858L57.27 116.307V117.359H57.0697C57.0697 117.359 31.1311 137.689 34.6363 168.134C34.6363 168.134 33.9353 179.802 63.2289 179.351C92.5726 179.802 91.8215 168.134 91.8215 168.134C95.3768 137.739 69.4882 117.359 69.4882 117.359Z" fill="url(#paint16_linear)"/>
<path d="M56.0185 118.609C55.3675 118.609 54.8167 118.109 54.7666 117.458C54.7166 116.757 55.2173 116.156 55.9183 116.106L70.6403 115.004C71.2913 114.954 71.9422 115.455 71.9923 116.156C72.0424 116.857 71.5416 117.458 70.8406 117.508L56.1187 118.609C56.1187 118.609 56.0686 118.609 56.0185 118.609Z" fill="url(#paint17_linear)"/>
<path d="M70.6913 120.163C70.6412 120.163 70.6412 120.163 70.6913 120.163L55.9193 119.862C55.2183 119.862 54.6674 119.261 54.7175 118.61C54.7175 117.909 55.2683 117.409 55.9694 117.409L70.6913 117.709C71.3924 117.709 71.9432 118.31 71.8931 118.961C71.8931 119.612 71.3423 120.163 70.6913 120.163Z" fill="url(#paint18_linear)"/>
<path d="M42.3487 91.5698C41.8479 96.2768 39.2941 99.8822 36.0894 100.133C39.2941 100.383 41.8479 104.038 42.3487 108.695C42.8494 103.988 45.4032 100.383 48.608 100.133C45.4032 99.8822 42.8494 96.2768 42.3487 91.5698Z" fill="url(#paint19_radial)"/>
<path d="M49.9105 88.415C49.6101 91.1191 48.1579 93.1721 46.3052 93.3224C48.1079 93.4726 49.6101 95.5256 49.9105 98.2297C50.211 95.5256 51.6632 93.4726 53.5159 93.3224C51.7132 93.1721 50.211 91.069 49.9105 88.415Z" fill="url(#paint20_radial)"/>
<path d="M56.4319 88.564C64.0648 88.564 70.2525 82.3763 70.2525 74.7434C70.2525 67.1105 64.0648 60.9229 56.4319 60.9229C48.799 60.9229 42.6113 67.1105 42.6113 74.7434C42.6113 82.3763 48.799 88.564 56.4319 88.564Z" fill="url(#paint21_linear)"/>
<path d="M56.4322 86.3611C62.8483 86.3611 68.0496 81.1598 68.0496 74.7438C68.0496 68.3277 62.8483 63.1265 56.4322 63.1265C50.0162 63.1265 44.8149 68.3277 44.8149 74.7438C44.8149 81.1598 50.0162 86.3611 56.4322 86.3611Z" fill="url(#paint22_radial)"/>
<path opacity="0.3" d="M56.4321 86.0595C62.6822 86.0595 67.7489 80.9928 67.7489 74.7426C67.7489 68.4925 62.6822 63.4258 56.4321 63.4258C50.182 63.4258 45.1152 68.4925 45.1152 74.7426C45.1152 80.9928 50.182 86.0595 56.4321 86.0595Z" stroke="#FFBE00" stroke-width="0.5" stroke-miterlimit="10"/>
<g opacity="0.5">
<path opacity="0.5" d="M57.3329 80.251V82.0036H55.7806V80.3011C54.2282 80.2009 52.7761 79.7002 51.9248 79.0492L52.7761 77.1464C53.5773 77.6972 54.6789 78.1479 55.7806 78.248V75.6441C54.078 75.2435 52.1251 74.6426 52.1251 72.4394C52.1251 70.7869 53.3269 69.3848 55.7806 69.0844V67.3818H57.3329V69.0844C58.4846 69.1845 59.6363 69.485 60.4876 70.0358L59.6864 71.9386C58.8852 71.4879 58.084 71.2376 57.2828 71.1374V73.7914C58.9853 74.192 60.8882 74.7929 60.8882 76.9461C60.9382 78.5485 59.7865 79.9506 57.3329 80.251ZM55.7806 73.3407V71.1374C54.9794 71.3377 54.6288 71.7884 54.6288 72.2891C54.6288 72.84 55.0795 73.1404 55.7806 73.3407ZM58.4345 77.0963C58.4345 76.5455 57.9838 76.245 57.3329 76.0447V78.1979C58.084 77.9976 58.4345 77.5971 58.4345 77.0963Z" fill="#FFBE00"/>
</g>
<g opacity="0.7">
<path opacity="0.2" d="M72.5317 73.2484L69.2051 67.3638L43.3127 82.0009L46.6393 87.8856L72.5317 73.2484Z" fill="#FFE6B3"/>
<path opacity="0.2" d="M43.9135 80.5525L41.6602 78.4995L67.5988 63.8276L69.8021 65.8807L43.9135 80.5525Z" fill="#FFE6B3"/>
</g>
<path d="M176.209 43.3965C168.548 43.3965 162.989 49.6057 162.989 57.2672C162.989 66.4308 176.209 76.1953 176.209 76.1953C176.209 76.1953 189.429 66.531 189.429 57.2672C189.429 49.6057 183.87 43.3965 176.209 43.3965ZM175.959 64.1274C172.503 64.1274 169.699 61.3232 169.699 57.868C169.699 54.4129 172.503 51.6087 175.959 51.6087C179.414 51.6087 182.218 54.4129 182.218 57.868C182.218 61.3232 179.414 64.1274 175.959 64.1274Z" fill="#15A88E"/>
<g opacity="0.75">
<path opacity="0.75" d="M21.2289 41.3932C19.4263 42.5949 19.276 45.5494 20.8784 46.9514C23.6826 45.4993 25.0847 41.7938 23.8829 38.8394C21.6295 39.6405 19.3261 40.9425 18.3747 43.1458C17.3732 45.3491 18.3747 48.4537 20.7282 48.9043C22.581 49.2549 24.3836 47.8528 25.0847 46.1002C25.8358 44.3976 25.7357 42.4447 25.6355 40.592" fill="#EDEFF4"/>
<g opacity="0.75">
<path opacity="0.75" d="M19.1261 39.2905C16.0715 41.6941 16.1717 46.4011 18.7756 49.0551C19.6769 50.0065 21.2292 50.1567 22.3809 49.5057C26.3368 47.2524 28.2897 42.3451 26.7374 38.0386C26.2367 36.6366 24.6844 35.3346 23.082 35.9355C19.9273 37.1373 16.7225 38.94 15.4706 42.295C14.5192 44.8989 15.02 48.1036 17.023 50.1066C19.3765 52.4601 22.9318 52.3099 25.4355 50.357C28.49 47.9534 28.7905 44.1477 28.6403 40.5424C28.49 36.7367 22.5312 36.6866 22.6814 40.5424C22.7315 41.9445 22.9818 43.7471 22.2808 45.0491C21.9303 45.65 21.4796 46.1007 21.1791 45.7501C19.6268 43.9975 23.6829 42.0446 24.6844 41.644C23.4826 40.943 22.2307 40.2419 21.0289 39.5409C21.6799 41.3936 21.1791 43.2464 19.4265 44.298C20.6283 44.4482 21.8301 44.5984 23.0319 44.7486C22.5312 44.2479 22.9318 43.7471 23.3824 43.3966C24.6343 42.3951 24.434 40.2419 23.3824 39.1904C22.0805 37.9886 20.378 38.289 19.1261 39.2905Z" fill="#EDEFF4"/>
</g>
</g>
<path d="M215.218 67.8848C216.72 67.8848 216.72 65.5814 215.218 65.5814C213.716 65.5313 213.716 67.8848 215.218 67.8848Z" fill="url(#paint23_linear)"/>
<path d="M2.80046 123.566C2.60016 123.266 2.29971 122.965 1.94919 122.965C1.54859 122.965 1.29822 123.266 1.09792 123.566C0.797475 123.967 0.647251 124.417 0.84755 124.918C1.04785 125.369 1.49852 125.719 1.94919 125.669C2.39986 125.669 2.80046 125.419 3.00076 125.068C3.3012 124.568 3.15098 124.017 2.80046 123.566Z" fill="url(#paint24_linear)"/>
<path d="M35.4 73.2918C35.6503 73.1415 35.9007 72.9913 36.101 72.791C36.5016 72.4906 36.752 71.7895 36.7019 71.2888C36.7019 70.788 36.5016 70.1371 36.101 69.7865C35.8506 69.5862 35.6503 69.436 35.4 69.2858C35.0495 69.0855 34.6489 68.9854 34.2483 68.9854C33.8477 68.9854 33.4471 69.0855 33.0965 69.2858C32.3955 69.6864 31.9448 70.4375 31.9448 71.2387C31.9448 72.0399 32.3955 72.791 33.0965 73.1916C33.4471 73.3919 33.8477 73.4921 34.2483 73.4921C34.6989 73.5922 35.0495 73.4921 35.4 73.2918Z" fill="url(#paint25_linear)"/>
<path d="M221.378 60.522C221.127 60.7723 220.877 61.0227 220.626 61.2731Z" fill="url(#paint26_linear)"/>
<path d="M219.324 58.4693C219.174 58.6195 219.074 58.7697 218.923 58.92C218.573 59.2705 218.322 59.7212 218.172 60.2219C218.022 60.7226 218.022 61.2735 218.172 61.7742C218.322 62.2249 218.523 62.7256 218.923 63.0762C219.324 63.4267 219.725 63.627 220.225 63.8273C220.726 63.9775 221.277 63.9775 221.778 63.8273C222.278 63.677 222.679 63.4267 223.08 63.0762C223.23 62.9259 223.38 62.8258 223.53 62.6756C224.081 62.1748 224.381 61.3235 224.381 60.6225C224.381 59.9215 224.081 59.0702 223.53 58.5694C222.979 58.0687 222.228 57.6681 221.477 57.7182C220.626 57.6681 219.825 57.9185 219.324 58.4693Z" fill="url(#paint27_linear)"/>
<defs>
<linearGradient id="paint0_linear" x1="130.681" y1="125.891" x2="214.312" y2="125.891" gradientUnits="userSpaceOnUse">
<stop offset="0.377078" stop-color="#B93038"/>
<stop offset="1" stop-color="#DF2932"/>
</linearGradient>
<radialGradient id="paint1_radial" cx="0" cy="0" r="1" gradientUnits="userSpaceOnUse" gradientTransform="translate(193.031 121.07) rotate(-32.8478) scale(20.2666)">
<stop stop-color="#E9A424"/>
<stop offset="1" stop-color="#F05927"/>
</radialGradient>
<linearGradient id="paint2_linear" x1="126.766" y1="185.26" x2="159.618" y2="185.26" gradientUnits="userSpaceOnUse">
<stop stop-color="#FEC008"/>
<stop offset="1" stop-color="#FE9C03"/>
</linearGradient>
<linearGradient id="paint3_linear" x1="165.62" y1="185.26" x2="198.473" y2="185.26" gradientUnits="userSpaceOnUse">
<stop stop-color="#FEC008"/>
<stop offset="1" stop-color="#FE9C03"/>
</linearGradient>
<linearGradient id="paint4_linear" x1="95.2319" y1="50.5764" x2="143.746" y2="50.5764" gradientUnits="userSpaceOnUse">
<stop stop-color="#1C2D94" stop-opacity="0"/>
<stop offset="1" stop-color="#1094D2" stop-opacity="0.2"/>
</linearGradient>
<linearGradient id="paint5_linear" x1="94.4289" y1="88.6159" x2="144.4" y2="88.6159" gradientUnits="userSpaceOnUse">
<stop stop-color="#8DAEFF"/>
<stop offset="1" stop-color="#8DAEFF" stop-opacity="0"/>
</linearGradient>
<linearGradient id="paint6_linear" x1="107.744" y1="107.235" x2="149.823" y2="107.235" gradientUnits="userSpaceOnUse">
<stop stop-color="#8DAEFF"/>
<stop offset="1" stop-color="#8DAEFF" stop-opacity="0"/>
</linearGradient>
<linearGradient id="paint7_linear" x1="88.9712" y1="103.471" x2="149.858" y2="103.471" gradientUnits="userSpaceOnUse">
<stop stop-color="#1C2D94" stop-opacity="0"/>
<stop offset="1" stop-color="#1094D2" stop-opacity="0.2"/>
</linearGradient>
<linearGradient id="paint8_linear" x1="148.015" y1="172.183" x2="218.713" y2="135.722" gradientUnits="userSpaceOnUse">
<stop stop-color="#15A88E"/>
<stop offset="1" stop-color="#087E69"/>
</linearGradient>
<linearGradient id="paint9_linear" x1="200.019" y1="166.383" x2="211.725" y2="166.383" gradientUnits="userSpaceOnUse">
<stop stop-color="#F4BA38"/>
<stop offset="1" stop-color="#FFD349"/>
</linearGradient>
<linearGradient id="paint10_linear" x1="121.792" y1="177.557" x2="155.966" y2="177.557" gradientUnits="userSpaceOnUse">
<stop stop-color="#FEC008"/>
<stop offset="1" stop-color="#FE9C03"/>
</linearGradient>
<linearGradient id="paint11_linear" x1="48.3744" y1="112.841" x2="78.2175" y2="112.841" gradientUnits="userSpaceOnUse">
<stop stop-color="#B93038"/>
<stop offset="1" stop-color="#E42731"/>
</linearGradient>
<linearGradient id="paint12_linear" x1="54.0836" y1="109.592" x2="60.6416" y2="109.592" gradientUnits="userSpaceOnUse">
<stop stop-color="#C5CCE9"/>
<stop offset="1" stop-color="#A2AFDB"/>
</linearGradient>
<radialGradient id="paint13_radial" cx="0" cy="0" r="1" gradientUnits="userSpaceOnUse" gradientTransform="translate(63.8684 128.645) scale(32.6787)">
<stop stop-color="#E42731"/>
<stop offset="1" stop-color="#A50D16"/>
</radialGradient>
<linearGradient id="paint14_linear" x1="64.0157" y1="109.999" x2="76.3979" y2="109.999" gradientUnits="userSpaceOnUse">
<stop stop-color="#C5CCE9"/>
<stop offset="1" stop-color="#A2AFDB"/>
</linearGradient>
<radialGradient id="paint15_radial" cx="0" cy="0" r="1" gradientUnits="userSpaceOnUse" gradientTransform="translate(63.8681 128.646) scale(32.6786)">
<stop stop-color="#E42731"/>
<stop offset="1" stop-color="#A50D16"/>
</radialGradient>
<linearGradient id="paint16_linear" x1="34.3579" y1="147.835" x2="92.2342" y2="147.835" gradientUnits="userSpaceOnUse">
<stop stop-color="#B53138"/>
<stop offset="1" stop-color="#E42731"/>
</linearGradient>
<linearGradient id="paint17_linear" x1="54.792" y1="116.836" x2="71.9943" y2="116.836" gradientUnits="userSpaceOnUse">
<stop stop-color="#F3F5F4"/>
<stop offset="1" stop-color="#BCBCBC"/>
</linearGradient>
<linearGradient id="paint18_linear" x1="54.6774" y1="118.77" x2="71.9176" y2="118.77" gradientUnits="userSpaceOnUse">
<stop stop-color="#BCBCBC"/>
<stop offset="1" stop-color="#F3F5F4"/>
</linearGradient>
<radialGradient id="paint19_radial" cx="0" cy="0" r="1" gradientUnits="userSpaceOnUse" gradientTransform="translate(43.787 108.283) scale(21.5393)">
<stop stop-color="#F0DC20"/>
<stop offset="1" stop-color="#F07A20"/>
</radialGradient>
<radialGradient id="paint20_radial" cx="0" cy="0" r="1" gradientUnits="userSpaceOnUse" gradientTransform="translate(43.7877 108.283) scale(21.5395)">
<stop stop-color="#F0DC20"/>
<stop offset="1" stop-color="#F07A20"/>
</radialGradient>
<linearGradient id="paint21_linear" x1="42.6257" y1="74.7214" x2="70.2303" y2="74.7214" gradientUnits="userSpaceOnUse">
<stop stop-color="#FEC008"/>
<stop offset="1" stop-color="#FE9C03"/>
</linearGradient>
<radialGradient id="paint22_radial" cx="0" cy="0" r="1" gradientUnits="userSpaceOnUse" gradientTransform="translate(66.7679 58.0904) scale(39.3305)">
<stop offset="0.0806182" stop-color="#F0DC20"/>
<stop offset="1" stop-color="#F07A20"/>
</radialGradient>
<linearGradient id="paint23_linear" x1="214.772" y1="67.7866" x2="215.68" y2="65.6303" gradientUnits="userSpaceOnUse">
<stop stop-color="#4F6AD9"/>
<stop offset="1" stop-color="#658BFD"/>
</linearGradient>
<linearGradient id="paint24_linear" x1="1.91153" y1="124.509" x2="2.22465" y2="123.766" gradientUnits="userSpaceOnUse">
<stop stop-color="#4F6AD9"/>
<stop offset="1" stop-color="#658BFD"/>
</linearGradient>
<linearGradient id="paint25_linear" x1="34.2998" y1="71.4679" x2="34.5053" y2="70.9799" gradientUnits="userSpaceOnUse">
<stop stop-color="#4F6AD9"/>
<stop offset="1" stop-color="#658BFD"/>
</linearGradient>
<linearGradient id="paint26_linear" x1="220.749" y1="61.5305" x2="221.166" y2="60.5413" gradientUnits="userSpaceOnUse">
<stop stop-color="#4F6AD9"/>
<stop offset="1" stop-color="#658BFD"/>
</linearGradient>
<linearGradient id="paint27_linear" x1="220.881" y1="61.4797" x2="221.309" y2="60.4631" gradientUnits="userSpaceOnUse">
<stop stop-color="#4F6AD9"/>
<stop offset="1" stop-color="#658BFD"/>
</linearGradient>
</defs>
</svg>
