<svg width="240" height="219" viewBox="0 0 240 219" fill="none" xmlns="http://www.w3.org/2000/svg">
<path d="M229.249 28.2C224.881 18.5702 216.243 10.3303 205.619 8.34483C192.712 5.96221 180.004 13.0108 169.678 20.7543C159.352 28.4978 149.324 37.7304 136.616 40.808C113.879 46.3674 91.1431 31.079 67.6124 29.8877C52.2231 29.1927 36.7345 34.9507 25.8131 45.2754C-14.894 83.8937 2.97742 160.435 46.8617 180.092C82.3066 195.976 133.042 203.819 165.508 183.07C196.485 163.314 227.462 102.955 232.427 67.5132C232.824 64.7334 233.121 61.9537 233.32 59.174C234.114 48.6508 233.618 37.8297 229.249 28.2Z" fill="url(#paint0_linear)"/>
<path d="M37.0329 144.447C37.0329 147.624 39.7136 150.205 43.0893 150.205H176.926C180.203 150.205 182.983 147.624 182.983 144.447V58.5734C182.983 55.3966 180.302 52.8154 176.926 52.8154H42.99C39.7136 52.8154 36.9336 55.3966 36.9336 58.5734V144.447H37.0329Z" fill="url(#paint1_linear)"/>
<path d="M52.8193 139.285C52.8193 142.66 55.5993 145.44 58.975 145.44H171.764C175.139 145.44 177.919 142.66 177.919 139.285V63.7361C177.919 60.3608 175.139 57.5811 171.764 57.5811H59.0743C55.6986 57.5811 52.9186 60.3608 52.9186 63.7361V139.285H52.8193Z" fill="url(#paint2_linear)"/>
<path d="M44.9773 106.621C47.8287 106.621 50.1402 104.31 50.1402 101.459C50.1402 98.6076 47.8287 96.2964 44.9773 96.2964C42.1259 96.2964 39.8145 98.6076 39.8145 101.459C39.8145 104.31 42.1259 106.621 44.9773 106.621Z" fill="url(#paint3_linear)"/>
<path d="M133.043 125.484C133.043 127.37 131.454 128.959 129.568 128.959C127.681 128.959 126.093 127.37 126.093 125.484V77.4346C126.093 75.5484 127.681 73.96 129.568 73.96C131.454 73.96 133.043 75.5484 133.043 77.4346V125.484Z" fill="url(#paint4_linear)"/>
<path d="M172.716 72.4199H56.7451V73.4581H172.716V72.4199Z" fill="#E5E5E5"/>
<path d="M171.73 133.212H57.7354V140.941H171.73V133.212Z" fill="#FAFBFD"/>
<path d="M176.422 136.667H53.041V141.858H176.422V136.667Z" fill="#E5E5E5"/>
<path d="M180.004 140.703H49.3359V145.317H180.004V140.703Z" fill="#FAFBFD"/>
<path d="M79.4715 76.8052H64.7744V129.176H79.4715V76.8052Z" fill="#FAFBFD"/>
<path d="M80.9527 73.459H63.415V78.0731H80.9527V73.459Z" fill="#FAFBFD"/>
<path d="M80.8306 128.6H63.293V133.214H80.8306V128.6Z" fill="#FAFBFD"/>
<path d="M68.9731 79.4556H66.75V126.635H68.9731V79.4556Z" fill="#BFBFBD"/>
<path d="M73.2934 79.5728H71.0703V126.753H73.2934V79.5728Z" fill="#BFBFBD"/>
<path d="M77.6137 79.5728H75.3906V126.753H77.6137V79.5728Z" fill="#BFBFBD"/>
<path d="M107.879 76.8047H93.1816V129.175H107.879V76.8047Z" fill="#FAFBFD"/>
<path d="M109.238 73.459H91.7002V78.0731H109.238V73.459Z" fill="#FAFBFD"/>
<path d="M109.237 128.594H91.6992V133.208H109.237V128.594Z" fill="#FAFBFD"/>
<path d="M97.3764 79.5732H95.1533V126.753H97.3764V79.5732Z" fill="#BFBFBD"/>
<path d="M101.7 79.5728H99.4766V126.753H101.7V79.5728Z" fill="#BFBFBD"/>
<path d="M106.025 79.5728H103.802V126.753H106.025V79.5728Z" fill="#BFBFBD"/>
<path d="M136.287 76.9219H121.59V129.293H136.287V76.9219Z" fill="#FAFBFD"/>
<path d="M137.643 73.459H120.105V78.0731H137.643V73.459Z" fill="#FAFBFD"/>
<path d="M137.643 128.594H120.105V133.208H137.643V128.594Z" fill="#FAFBFD"/>
<path d="M125.66 79.5732H123.437V126.753H125.66V79.5732Z" fill="#BFBFBD"/>
<path d="M129.981 79.5728H127.758V126.753H129.981V79.5728Z" fill="#BFBFBD"/>
<path d="M134.304 79.5728H132.081V126.753H134.304V79.5728Z" fill="#BFBFBD"/>
<path d="M164.691 76.9165H149.994V129.287H164.691V76.9165Z" fill="#FAFBFD"/>
<path d="M166.044 73.459H148.507V78.0731H166.044V73.459Z" fill="#FAFBFD"/>
<path d="M166.045 128.594H148.508V133.208H166.045V128.594Z" fill="#FAFBFD"/>
<path d="M154.068 79.5728H151.845V126.753H154.068V79.5728Z" fill="#BFBFBD"/>
<path d="M158.387 79.5752H156.164V126.755H158.387V79.5752Z" fill="#BFBFBD"/>
<path d="M162.711 79.5752H160.488V126.755H162.711V79.5752Z" fill="#BFBFBD"/>
<path d="M56.7451 70.1147L114.669 30.6636L172.716 70.1147V72.5371L56.7451 72.4217V70.1147Z" fill="#BFBFBD"/>
<path d="M56.7451 72.4218L114.669 32.9707L172.716 72.5371L56.7451 72.4218Z" fill="#FAFBFD"/>
<path d="M74.7783 67.3465L114.67 40.2383L154.562 67.3465H74.7783Z" fill="#C8C8CA"/>
<path d="M114.278 183.267L8.04214 201.732L0 155.768L106.335 137.302L114.278 183.267Z" fill="url(#paint5_linear)"/>
<path d="M102.861 151.799C99.7829 152.295 96.8043 150.31 96.3079 147.232C96.0101 145.743 96.4072 144.254 97.2015 143.062L11.8159 157.954C13.0073 158.748 13.8016 160.039 14.0994 161.627C14.5959 164.705 12.6101 167.683 9.53229 168.179C8.34086 168.378 7.24872 168.179 6.25586 167.782L9.83014 188.531C10.6244 187.737 11.6173 187.24 12.8087 187.042C15.8866 186.545 18.8651 188.531 19.3616 191.608C19.6594 193.097 19.2623 194.686 18.468 195.778L103.854 180.887C102.662 180.092 101.868 178.802 101.57 177.213C101.074 174.136 103.059 171.158 106.137 170.661C106.832 170.562 107.428 170.562 108.024 170.661L104.648 151.203C104.052 151.501 103.456 151.699 102.861 151.799Z" fill="url(#paint6_linear)"/>
<path d="M57.1887 184.659C65.5783 184.659 72.3794 177.858 72.3794 169.469C72.3794 161.081 65.5783 154.28 57.1887 154.28C48.7992 154.28 41.998 161.081 41.998 169.469C41.998 177.858 48.7992 184.659 57.1887 184.659Z" fill="url(#paint7_linear)"/>
<path d="M129.865 177.311L27.6009 211.661L12.708 167.384L115.071 133.134L129.865 177.311Z" fill="url(#paint8_linear)"/>
<path d="M113.781 148.022C110.803 149.015 107.626 147.427 106.633 144.449C106.136 142.959 106.335 141.47 106.931 140.18L24.7221 167.778C26.0128 168.473 27.0056 169.565 27.5021 171.054C28.4949 174.033 26.9064 177.21 23.9278 178.202C22.8356 178.599 21.6442 178.599 20.6514 178.302L27.3035 198.256C27.9985 197.363 28.8921 196.668 29.9842 196.37C32.9628 195.377 36.1399 196.965 37.1328 199.944C37.6292 201.433 37.4306 202.922 36.8349 204.213L119.043 176.614C117.753 175.919 116.76 174.827 116.263 173.338C115.271 170.36 116.859 167.183 119.838 166.19C120.433 165.991 121.128 165.892 121.724 165.892L115.469 147.129C114.973 147.526 114.377 147.824 113.781 148.022Z" fill="url(#paint9_linear)"/>
<path d="M71.2874 187.539C79.677 187.539 86.4781 180.738 86.4781 172.349C86.4781 163.961 79.677 157.16 71.2874 157.16C62.8978 157.16 56.0967 163.961 56.0967 172.349C56.0967 180.738 62.8978 187.539 71.2874 187.539Z" fill="url(#paint10_linear)"/>
<path d="M140.489 211.856H72.6768V213.147H140.489V211.856Z" fill="url(#paint11_linear)"/>
<path d="M92.3339 173.135H79.7246V211.853H92.3339V173.135Z" fill="url(#paint12_linear)"/>
<path d="M113.088 161.521H100.479V211.854H113.088V161.521Z" fill="url(#paint13_linear)"/>
<path d="M133.737 149.905H121.128V211.853H133.737V149.905Z" fill="url(#paint14_linear)"/>
<path d="M82.3058 91.4316C82.3058 91.4316 81.7101 94.9063 82.3058 95.4027C82.9015 95.9983 85.7808 96.2962 86.7736 96.2962C87.7665 96.1969 88.4615 96.1969 88.4615 95.7998C88.4615 94.7077 85.0858 94.3106 86.2772 94.5092C87.1708 94.7077 83.8943 94.2114 83.6958 92.7222C83.5965 91.5309 83.2986 91.4316 83.2986 91.4316H82.3058V91.4316Z" fill="#260089"/>
<path d="M93.7236 96.1951C93.7236 96.1951 93.4257 99.6698 94.1207 100.166C94.7165 100.663 97.5957 100.762 98.5886 100.663C99.5815 100.464 100.276 100.365 100.276 99.9676C100.177 98.8756 96.8015 98.7763 97.9929 98.8756C98.8865 98.9749 95.61 98.7763 95.3122 97.2872C95.0143 96.0959 94.8157 95.9966 94.8157 95.9966L93.7236 96.1951Z" fill="#260089"/>
<path d="M96.8998 98.2829H92.0348L81.2127 61.8487C81.2127 61.8487 77.0427 59.2676 75.4541 59.069C52.2213 56.19 58.2777 45.4682 58.2777 45.4682L71.4827 45.1704C71.4827 45.1704 87.6662 51.7226 90.1484 56.3886C92.7298 60.9553 96.8998 98.2829 96.8998 98.2829Z" fill="url(#paint15_linear)"/>
<path d="M85.3847 93.4163L82.8032 68.3988C82.8032 68.3988 81.8104 57.3792 78.4347 55.8901C75.059 54.3017 62.2511 46.2603 62.2511 46.2603L51.0318 43.3813C51.0318 43.3813 47.3583 51.6212 51.429 57.0814C55.599 62.5416 70.2932 61.5488 71.9811 66.2148C75.3568 75.646 80.7182 93.4163 80.7182 93.4163H85.3847Z" fill="url(#paint16_linear)"/>
<path d="M46.6631 48.5446C46.6631 48.5446 50.6345 40.5032 51.1309 36.9293C51.9252 32.0648 50.3367 22.8321 53.3152 19.4568C54.4074 18.2655 57.5845 16.1807 59.4709 16.1807C65.1302 16.1807 66.9174 19.6553 67.3145 22.3358C68.5059 30.4764 72.5766 43.9779 71.1866 45.7648C65.9245 52.6149 46.6631 48.5446 46.6631 48.5446Z" fill="url(#paint17_linear)"/>
<path d="M57.9834 17.3714C58.6784 14.8895 58.4798 10.9185 58.4798 10.9185L63.1462 12.3083C63.1462 12.3083 63.1462 15.2866 63.1462 16.2793C63.1462 17.0736 63.1462 17.7685 63.1462 17.7685C63.1462 17.7685 62.9477 18.7612 61.0613 18.7612C58.877 18.7612 57.9834 17.3714 57.9834 17.3714Z" fill="#FBBE52"/>
<path d="M66.3234 6.84675C65.9263 9.62647 65.3305 13.7961 62.1534 14.1932C60.1677 14.491 58.182 12.3069 57.9834 9.5272C57.6855 5.65545 59.8698 1.78369 62.1534 1.78369C64.437 1.78369 66.9191 2.77645 66.3234 6.84675Z" fill="#FBBE52"/>
<path d="M58.8761 8.93482C59.2732 8.33916 58.1811 3.87175 61.5568 3.47465C62.7482 3.37537 63.8404 3.37537 64.3368 3.77248C66.4218 5.26161 65.7268 8.43844 66.0247 8.53771C67.1168 8.83554 68.1097 5.36089 67.4147 3.6732C66.7197 1.98552 65.6275 0 62.2518 0C60.564 0 58.0818 0.595654 56.4932 2.38262C55.1032 3.87175 56.394 6.05582 56.394 6.05582C56.8904 7.24713 57.1882 9.43119 57.1882 9.43119C57.1882 9.43119 58.6775 9.23264 58.8761 8.93482Z" fill="url(#paint18_linear)"/>
<path d="M57.6865 11.7125C58.18 11.7125 58.5801 11.0013 58.5801 10.1241C58.5801 9.2468 58.18 8.53564 57.6865 8.53564C57.193 8.53564 56.793 9.2468 56.793 10.1241C56.793 11.0013 57.193 11.7125 57.6865 11.7125Z" fill="#FBBE52"/>
<path d="M120.036 50.5293C120.036 51.6213 119.143 52.5148 118.051 52.5148H66.7201C65.6279 52.5148 64.7344 51.6213 64.7344 50.5293V16.1799C64.7344 15.0878 65.6279 14.1943 66.7201 14.1943H118.15C119.242 14.1943 120.136 15.0878 120.136 16.1799V50.5293H120.036Z" fill="url(#paint19_linear)"/>
<path d="M120.133 34.5469H64.8311V43.1839H120.133V34.5469Z" fill="url(#paint20_linear)"/>
<path d="M105.042 17.5688H72.0791V20.3486H105.042V17.5688Z" fill="white"/>
<path d="M84.6884 25.1128H72.0791V30.1759H84.6884V25.1128Z" fill="white"/>
<path d="M116.26 25.1128H95.6084V30.1759H116.26V25.1128Z" fill="white"/>
<path d="M75.1595 41.2001C75.1595 41.2001 74.0673 39.1153 75.8545 38.8175C77.6416 38.4204 80.0245 37.8247 80.0245 37.8247C80.0245 37.8247 81.9109 39.016 80.918 39.8102C80.0245 40.5052 75.1595 41.2001 75.1595 41.2001Z" fill="url(#paint21_linear)"/>
<path d="M51.5283 25.8103C51.7269 28.9871 54.5069 36.135 58.1805 39.5104C61.854 42.8857 62.1519 42.985 65.6269 43.5807C69.1019 44.1763 76.3497 43.68 76.3497 43.68V37.227C76.3497 37.227 68.109 37.227 66.3219 36.8299C60.464 35.5393 62.1519 21.1444 55.9962 18.861C52.9183 17.5704 51.3297 22.6335 51.5283 25.8103Z" fill="url(#paint22_linear)"/>
<path d="M199.164 219C218.191 219 233.616 217.533 233.616 215.724C233.616 213.915 218.191 212.448 199.164 212.448C180.137 212.448 164.712 213.915 164.712 215.724C164.712 217.533 180.137 219 199.164 219Z" fill="url(#paint23_linear)"/>
<path d="M176.526 114.567C174.739 118.439 169.179 117.545 165.406 116.553C161.633 115.56 158.158 113.376 156.173 110.993C154.187 108.611 148.329 101.562 148.329 101.562L151.506 97.4917C151.506 97.4917 159.648 107.419 163.619 108.313C166.3 108.908 175.831 104.739 178.313 105.732C179.406 106.228 177.718 111.986 176.526 114.567Z" fill="url(#paint24_linear)"/>
<path d="M142.371 83.79C135.819 83.79 129.861 86.5698 125.691 90.9379V122.607C129.861 127.074 135.819 129.755 142.371 129.755C155.08 129.755 165.406 119.43 165.406 106.723C165.406 94.1147 155.08 83.79 142.371 83.79Z" fill="url(#paint25_linear)"/>
<path d="M142.371 85.1758C135.62 85.1758 129.663 88.2533 125.691 93.0186V97.5852C128.968 91.728 135.223 87.7569 142.371 87.7569C152.896 87.7569 161.434 96.2947 161.434 106.818C161.434 117.341 152.896 125.879 142.371 125.879C135.223 125.879 128.968 121.908 125.691 116.051V120.617C129.663 125.382 135.719 128.46 142.371 128.46C154.286 128.46 164.016 118.731 164.016 106.818C164.016 94.9048 154.385 85.1758 142.371 85.1758Z" fill="#FA870A"/>
<path d="M199.462 211.654C199.462 211.654 201.05 214.731 200.653 215.526C200.256 216.221 197.674 217.412 196.682 217.61C195.689 217.809 194.994 218.007 194.894 217.61C194.597 216.618 197.674 215.228 196.582 215.724C195.788 216.121 198.767 214.731 198.469 213.242C198.27 212.051 198.469 211.952 198.469 211.952L199.462 211.654Z" fill="#260089"/>
<path d="M170.867 211.162C170.867 211.162 171.462 214.636 170.867 215.133C170.271 215.728 167.392 216.026 166.399 216.026C165.406 215.927 164.711 215.927 164.711 215.53C164.711 214.438 168.087 214.041 166.895 214.239C166.002 214.438 169.278 213.941 169.477 212.452C169.576 211.261 169.874 211.162 169.874 211.162H170.867V211.162Z" fill="#260089"/>
<path d="M198.669 194.485C197.875 190.613 196.981 188.131 196.385 186.543C196.683 186.146 196.882 185.649 196.882 185.252C196.683 183.565 195.492 167.681 195.393 160.632C195.393 159.54 195.393 158.448 195.393 157.455C195.393 157.455 195.293 143.656 193.109 141.372C192.712 140.876 191.52 140.479 189.932 140.181C189.237 139.486 188.74 139.089 188.74 139.089C188.74 139.089 188.145 139.387 187.251 139.784C180.5 138.891 170.472 138.593 170.472 138.593C170.472 138.593 170.075 143.259 169.777 148.024C169.578 150.307 169.479 152.789 169.281 156.264C169.281 157.058 169.181 157.952 169.082 158.845C168.685 164.504 167.791 178.204 168.188 184.557C168.188 184.955 168.188 185.451 168.188 185.947C168.188 189.72 168.188 213.248 168.188 213.248H171.564C171.564 213.248 174.245 203.221 174.741 195.18C175.039 190.911 174.84 188.131 174.642 186.444C174.84 186.245 174.94 185.947 175.039 185.749C175.337 184.061 178.415 168.475 180.202 161.625C180.599 160.235 180.897 158.944 181.195 157.753C181.493 157.753 181.89 157.753 182.188 157.753C182.386 158.845 182.585 159.937 182.982 161.228C184.273 166.191 187.152 177.509 189.336 184.061C189.336 184.756 189.634 185.848 190.031 187.436C191.024 191.11 197.378 213.744 197.378 213.744L200.555 212.851C200.357 212.652 200.258 202.328 198.669 194.485Z" fill="url(#paint26_linear)"/>
<path d="M199.462 71.6782C196.186 76.8406 193.108 85.3783 186.058 85.279C180.796 85.1798 173.946 85.974 174.343 94.5117C174.641 100.17 181.392 103.744 185.264 106.723C196.186 114.962 211.674 114.665 223.092 107.815C234.212 101.064 243.545 87.3638 238.68 74.0609C236.893 69.2956 233.318 64.7289 228.652 62.5449C217.83 57.0847 205.022 62.7434 199.462 71.6782Z" fill="#260089"/>
<path d="M171.066 126.278C171.86 121.512 173.548 109.5 175.037 107.217C176.328 105.231 179.009 104.536 182.881 104.536C186.157 104.536 193.802 106.422 192.611 117.243C192.214 120.817 194.894 144.147 194.894 144.147C194.894 144.147 184.569 141.566 178.909 141.07C173.25 140.573 169.179 142.857 169.378 142.062C169.974 138.488 170.47 130.249 171.066 126.278Z" fill="url(#paint27_linear)"/>
<path d="M185.563 106.628C184.868 104.146 185.166 105.436 184.968 104.146C184.868 103.054 185.067 99.1821 185.067 99.1821L180.4 100.572C180.4 100.572 180.4 103.55 180.4 104.543C180.4 105.337 180.4 105.337 180.4 105.337C180.4 105.337 180.599 108.018 182.485 108.018C184.67 108.117 185.563 106.628 185.563 106.628Z" fill="#FBBE52"/>
<path d="M177.222 95.2063C177.62 97.986 178.215 102.156 181.392 102.553C183.378 102.851 185.364 100.666 185.562 97.8867C185.86 94.015 183.676 95.0077 181.392 95.0077C179.01 94.9084 176.627 91.0367 177.222 95.2063Z" fill="#FBBE52"/>
<path d="M186.55 98.8926C187.064 98.1816 187.156 97.3709 186.757 97.0818C186.357 96.7927 185.616 97.1346 185.102 97.8456C184.588 98.5565 184.495 99.3672 184.895 99.6563C185.295 99.9454 186.036 99.6035 186.55 98.8926Z" fill="#FBBE52"/>
<path d="M159.249 120.025C159.249 120.025 156.767 119.529 155.476 118.139C154.086 116.749 153.391 116.153 154.483 115.061C154.98 114.565 154.98 114.565 155.774 114.565C156.568 114.565 157.263 114.168 160.341 118.139L159.249 120.025Z" fill="#FBBE52"/>
<path d="M157.064 121.517C157.064 121.517 157.859 116.156 161.532 117.645C167.787 120.226 175.532 122.609 177.617 120.524C179.801 118.34 186.85 105.831 189.134 106.725C195.19 109.008 192.609 113.178 192.609 114.667C192.509 120.723 182.184 128.565 179.106 129.459C176.127 130.452 157.064 121.517 157.064 121.517Z" fill="url(#paint28_linear)"/>
<defs>
<linearGradient id="paint0_linear" x1="33.0697" y1="172.317" x2="212.726" y2="7.40474" gradientUnits="userSpaceOnUse">
<stop offset="0.00529099" stop-color="#CFDCE5"/>
<stop offset="0.0480203" stop-color="#D2DEE7"/>
<stop offset="0.3704" stop-color="#E9EDF1"/>
</linearGradient>
<linearGradient id="paint1_linear" x1="169" y1="160.586" x2="50.8215" y2="42.3951" gradientUnits="userSpaceOnUse">
<stop offset="0.0793651" stop-color="#655AE2"/>
<stop offset="0.3957" stop-color="#391CA4"/>
<stop offset="0.5608" stop-color="#260089"/>
<stop offset="0.6545" stop-color="#2A0389"/>
<stop offset="0.7422" stop-color="#350B8B"/>
<stop offset="0.8275" stop-color="#48188D"/>
<stop offset="0.9108" stop-color="#622A91"/>
<stop offset="0.9206" stop-color="#662D91"/>
</linearGradient>
<linearGradient id="paint2_linear" x1="166.843" y1="152.926" x2="63.983" y2="50.0556" gradientUnits="userSpaceOnUse">
<stop offset="0.2063" stop-color="#A7B1DD"/>
<stop offset="0.4989" stop-color="#BBC6E1"/>
<stop offset="0.8519" stop-color="#CFDCE5"/>
</linearGradient>
<linearGradient id="paint3_linear" x1="48.6155" y1="105.148" x2="41.3071" y2="97.8391" gradientUnits="userSpaceOnUse">
<stop offset="0.2275" stop-color="#5C52CF"/>
<stop offset="0.4287" stop-color="#5F55D6"/>
<stop offset="0.9206" stop-color="#655AE2"/>
</linearGradient>
<linearGradient id="paint4_linear" x1="115.048" y1="115.973" x2="144.005" y2="87.0138" gradientUnits="userSpaceOnUse">
<stop offset="0.0793651" stop-color="#655AE2"/>
<stop offset="0.3957" stop-color="#391CA4"/>
<stop offset="0.5608" stop-color="#260089"/>
<stop offset="0.6545" stop-color="#2A0389"/>
<stop offset="0.7422" stop-color="#350B8B"/>
<stop offset="0.8275" stop-color="#48188D"/>
<stop offset="0.9108" stop-color="#622A91"/>
<stop offset="0.9206" stop-color="#662D91"/>
</linearGradient>
<linearGradient id="paint5_linear" x1="4.01405" y1="178.747" x2="110.325" y2="160.25" gradientUnits="userSpaceOnUse">
<stop stop-color="#98DABD"/>
<stop offset="0.505208" stop-color="#629D87"/>
<stop offset="1" stop-color="#508271"/>
</linearGradient>
<linearGradient id="paint6_linear" x1="8.01848" y1="178.051" x2="106.322" y2="160.947" gradientUnits="userSpaceOnUse">
<stop offset="0.00529099" stop-color="#CFDCE5"/>
<stop offset="0.0480203" stop-color="#D2DEE7"/>
<stop offset="0.3704" stop-color="#E9EDF1"/>
</linearGradient>
<linearGradient id="paint7_linear" x1="42.2233" y1="172.102" x2="72.1178" y2="166.901" gradientUnits="userSpaceOnUse">
<stop offset="0.2169" stop-color="#A7B1DD"/>
<stop offset="0.4181" stop-color="#A5ADDF"/>
<stop offset="0.6053" stop-color="#9DA2E6"/>
<stop offset="0.7865" stop-color="#908FF0"/>
<stop offset="0.9153" stop-color="#847DFB"/>
</linearGradient>
<linearGradient id="paint8_linear" x1="71.2865" y1="133.134" x2="27.1229" y2="211.353" gradientUnits="userSpaceOnUse">
<stop stop-color="#4F8070"/>
<stop offset="0.526042" stop-color="#6AA78F"/>
<stop offset="0.963542" stop-color="#8ACAAF"/>
</linearGradient>
<linearGradient id="paint9_linear" x1="23.9954" y1="188.238" x2="118.596" y2="156.506" gradientUnits="userSpaceOnUse">
<stop offset="0.00529099" stop-color="#CFDCE5"/>
<stop offset="0.0480203" stop-color="#D2DEE7"/>
<stop offset="0.3704" stop-color="#E9EDF1"/>
</linearGradient>
<linearGradient id="paint10_linear" x1="56.9104" y1="177.204" x2="85.6794" y2="167.553" gradientUnits="userSpaceOnUse">
<stop offset="0.2169" stop-color="#98DABD"/>
<stop offset="0.578125" stop-color="#64A18A"/>
<stop offset="0.9153" stop-color="#497768"/>
</linearGradient>
<linearGradient id="paint11_linear" x1="72.6416" y1="212.494" x2="140.432" y2="212.494" gradientUnits="userSpaceOnUse">
<stop offset="0.0793651" stop-color="#655AE2"/>
<stop offset="0.3957" stop-color="#391CA4"/>
<stop offset="0.5608" stop-color="#260089"/>
<stop offset="0.6545" stop-color="#2A0389"/>
<stop offset="0.7422" stop-color="#350B8B"/>
<stop offset="0.8275" stop-color="#48188D"/>
<stop offset="0.9108" stop-color="#622A91"/>
<stop offset="0.9206" stop-color="#662D91"/>
</linearGradient>
<linearGradient id="paint12_linear" x1="79.7425" y1="192.478" x2="92.3315" y2="192.478" gradientUnits="userSpaceOnUse">
<stop offset="0.00529099" stop-color="#FBBE52"/>
<stop offset="0.2722" stop-color="#FABB54"/>
<stop offset="0.3968" stop-color="#F9B656"/>
<stop offset="0.8783" stop-color="#FC952E"/>
</linearGradient>
<linearGradient id="paint13_linear" x1="100.444" y1="186.67" x2="113.035" y2="186.67" gradientUnits="userSpaceOnUse">
<stop offset="0.00529099" stop-color="#FBBE52"/>
<stop offset="0.2722" stop-color="#FABB54"/>
<stop offset="0.3968" stop-color="#F9B656"/>
<stop offset="0.8783" stop-color="#FC952E"/>
</linearGradient>
<linearGradient id="paint14_linear" x1="121.141" y1="180.859" x2="133.73" y2="180.859" gradientUnits="userSpaceOnUse">
<stop offset="0.00529099" stop-color="#FBBE52"/>
<stop offset="0.2722" stop-color="#FABB54"/>
<stop offset="0.3968" stop-color="#F9B656"/>
<stop offset="0.8783" stop-color="#FC952E"/>
</linearGradient>
<linearGradient id="paint15_linear" x1="57.5744" y1="71.7116" x2="96.901" y2="71.7116" gradientUnits="userSpaceOnUse">
<stop offset="0.0793651" stop-color="#655AE2"/>
<stop offset="0.3957" stop-color="#391CA4"/>
<stop offset="0.5608" stop-color="#260089"/>
<stop offset="0.6545" stop-color="#2A0389"/>
<stop offset="0.7422" stop-color="#350B8B"/>
<stop offset="0.8275" stop-color="#48188D"/>
<stop offset="0.9108" stop-color="#622A91"/>
<stop offset="0.9206" stop-color="#662D91"/>
</linearGradient>
<linearGradient id="paint16_linear" x1="49.4288" y1="68.4837" x2="85.3697" y2="68.4837" gradientUnits="userSpaceOnUse">
<stop offset="0.0793651" stop-color="#655AE2"/>
<stop offset="0.3957" stop-color="#391CA4"/>
<stop offset="0.5608" stop-color="#260089"/>
<stop offset="0.6545" stop-color="#2A0389"/>
<stop offset="0.7422" stop-color="#350B8B"/>
<stop offset="0.8275" stop-color="#48188D"/>
<stop offset="0.9108" stop-color="#622A91"/>
<stop offset="0.9206" stop-color="#662D91"/>
</linearGradient>
<linearGradient id="paint17_linear" x1="46.6511" y1="32.9791" x2="71.5639" y2="32.9791" gradientUnits="userSpaceOnUse">
<stop offset="0.0846561" stop-color="#A7B1DD"/>
<stop offset="0.2843" stop-color="#ACB6DE"/>
<stop offset="0.5289" stop-color="#BAC5E1"/>
<stop offset="0.7778" stop-color="#CFDCE5"/>
</linearGradient>
<linearGradient id="paint18_linear" x1="67.5975" y1="4.80624" x2="55.7544" y2="4.80624" gradientUnits="userSpaceOnUse">
<stop offset="0.0793651" stop-color="#655AE2"/>
<stop offset="0.3957" stop-color="#391CA4"/>
<stop offset="0.5608" stop-color="#260089"/>
<stop offset="0.6545" stop-color="#2A0389"/>
<stop offset="0.7422" stop-color="#350B8B"/>
<stop offset="0.8275" stop-color="#48188D"/>
<stop offset="0.9108" stop-color="#622A91"/>
<stop offset="0.9206" stop-color="#662D91"/>
</linearGradient>
<linearGradient id="paint19_linear" x1="62.7678" y1="28.5093" x2="132.796" y2="52.3257" gradientUnits="userSpaceOnUse">
<stop offset="0.2169" stop-color="#DE2932"/>
<stop offset="0.609375" stop-color="#CA2D35"/>
<stop offset="0.9153" stop-color="#B93138"/>
</linearGradient>
<linearGradient id="paint20_linear" x1="64.8314" y1="34.4324" x2="120.037" y2="43.4355" gradientUnits="userSpaceOnUse">
<stop offset="0.0793651" stop-color="#655AE2"/>
<stop offset="0.3957" stop-color="#391CA4"/>
<stop offset="0.5608" stop-color="#260089"/>
<stop offset="0.6545" stop-color="#2A0389"/>
<stop offset="0.7422" stop-color="#350B8B"/>
<stop offset="0.8275" stop-color="#48188D"/>
</linearGradient>
<linearGradient id="paint21_linear" x1="76.0958" y1="38.0695" x2="79.7192" y2="41.2684" gradientUnits="userSpaceOnUse">
<stop offset="0.00529099" stop-color="#FBBE52"/>
<stop offset="0.2722" stop-color="#FABB54"/>
<stop offset="0.3968" stop-color="#F9B656"/>
<stop offset="0.8783" stop-color="#FC952E"/>
</linearGradient>
<linearGradient id="paint22_linear" x1="51.503" y1="31.2062" x2="76.3924" y2="31.2062" gradientUnits="userSpaceOnUse">
<stop offset="0.2169" stop-color="#A7B1DD"/>
<stop offset="0.4181" stop-color="#A5ADDF"/>
<stop offset="0.6053" stop-color="#9DA2E6"/>
<stop offset="0.7865" stop-color="#908FF0"/>
<stop offset="0.9153" stop-color="#847DFB"/>
</linearGradient>
<linearGradient id="paint23_linear" x1="164.734" y1="215.735" x2="233.636" y2="215.735" gradientUnits="userSpaceOnUse">
<stop offset="0.00529099" stop-color="#CFDCE5"/>
<stop offset="0.0573093" stop-color="#D2DEE7"/>
<stop offset="0.4497" stop-color="#E9EDF1"/>
<stop offset="0.8466" stop-color="white"/>
</linearGradient>
<linearGradient id="paint24_linear" x1="148.344" y1="107.49" x2="178.698" y2="107.49" gradientUnits="userSpaceOnUse">
<stop offset="0.2222" stop-color="#41378C"/>
<stop offset="0.3557" stop-color="#433991"/>
<stop offset="0.5199" stop-color="#4A3FA0"/>
<stop offset="0.7002" stop-color="#5449B9"/>
<stop offset="0.891" stop-color="#6258DC"/>
<stop offset="0.9206" stop-color="#655AE2"/>
</linearGradient>
<linearGradient id="paint25_linear" x1="132.755" y1="89.6032" x2="153.282" y2="124.971" gradientUnits="userSpaceOnUse">
<stop offset="0.00529099" stop-color="#FBBE52"/>
<stop offset="0.2722" stop-color="#FABB54"/>
<stop offset="0.3968" stop-color="#F9B656"/>
<stop offset="0.8783" stop-color="#FC952E"/>
</linearGradient>
<linearGradient id="paint26_linear" x1="167.938" y1="176.056" x2="200.385" y2="176.056" gradientUnits="userSpaceOnUse">
<stop offset="0.192708" stop-color="#610E4A"/>
<stop offset="0.473958" stop-color="#8E2872"/>
<stop offset="0.588542" stop-color="#A22881"/>
<stop offset="0.765625" stop-color="#B0278A"/>
<stop offset="0.891" stop-color="#CB1C9A"/>
</linearGradient>
<linearGradient id="paint27_linear" x1="169.247" y1="124.382" x2="194.857" y2="124.382" gradientUnits="userSpaceOnUse">
<stop offset="0.2275" stop-color="#5C52CF"/>
<stop offset="0.4287" stop-color="#5F55D6"/>
<stop offset="0.9206" stop-color="#655AE2"/>
</linearGradient>
<linearGradient id="paint28_linear" x1="157.059" y1="118.078" x2="193.289" y2="118.078" gradientUnits="userSpaceOnUse">
<stop offset="0.2222" stop-color="#610E4A"/>
<stop offset="0.3557" stop-color="#8E2872"/>
<stop offset="0.5199" stop-color="#A22881"/>
<stop offset="0.7002" stop-color="#B0278A"/>
<stop offset="0.891" stop-color="#CB1C9A"/>
</linearGradient>
</defs>
</svg>
